<svg width="40" height="40" fill="none" xmlns="http://www.w3.org/2000/svg"><path d="M20.072 39.984A19.76 19.76 0 015.994 34.15 19.762 19.762 0 01.16 20.072c0-5.316 2.07-10.322 5.834-14.078C9.75 2.229 14.755.16 20.072.16c5.316 0 10.322 2.07 14.078 5.834a19.774 19.774 0 015.834 14.078c0 5.316-2.07 10.322-5.834 14.078-3.756 3.765-8.762 5.834-14.078 5.834zm0-38.63A18.6 18.6 0 006.837 6.837a18.602 18.602 0 00-5.484 13.235c0 4.998 1.95 9.701 5.484 13.235a18.601 18.601 0 0013.235 5.483c4.998 0 9.701-1.95 13.235-5.483a18.602 18.602 0 005.483-13.235c0-4.998-1.95-9.701-5.483-13.235a18.6 18.6 0 00-13.235-5.483z" fill="#fff"/><path d="M21.666 19.425a.848.848 0 00-.802.57h-.674a.843.843 0 00-.544-.53.844.844 0 00-.937.298.84.84 0 00-.122.231h-.675a.843.843 0 00-.544-.53.845.845 0 00-1.06.53h-.621v.57h.622a.846.846 0 00.802.57.844.844 0 00.801-.57h.675a.846.846 0 00.802.57.843.843 0 00.801-.57h.675a.846.846 0 00.802.57.844.844 0 00.801-.57h.907v-.57h-.907a.85.85 0 00-.544-.528.825.825 0 00-.258-.041zm-4.555 1.139a.281.281 0 01-.202-.084.282.282 0 01-.083-.201.284.284 0 01.285-.285.283.283 0 01.2.486.278.278 0 01-.2.084zm2.278 0a.284.284 0 01-.264-.176.283.283 0 01.264-.394.283.283 0 01.263.394.294.294 0 01-.155.154.284.284 0 01-.108.022zm2.277 0a.284.284 0 01-.263-.176.283.283 0 01.264-.394.283.283 0 01.2.486.284.284 0 01-.2.084zm-3.986.854h.569v.57h-.57v-.57zm2.277 0h.57v.57h-.57v-.57z" fill="#fff"/><path d="M27.076 12.591v-2.278a.283.283 0 00-.285-.285.81.81 0 01-.442-.112 1.487 1.487 0 00-1.057-.13 1.5 1.5 0 00-.339.13.806.806 0 01-.44.112.283.283 0 00-.263.176.284.284 0 00-.022.11v1.422a.284.284 0 00.176.264.283.283 0 00.11.021 1.35 1.35 0 00.695-.172.916.916 0 01.443-.113c.157 0 .304.038.442.113.13.069.268.118.412.145v.597h-2.562v.57h.663c.13.368.194.748.19 1.139.006.449-.08.881-.256 1.296a.285.285 0 00.117.376.294.294 0 00.14.036h1.708v1.48l-1.705.23a.285.285 0 00-.236.204l-.104.364h-3.934v-.57h1.993c.065 0 .124-.02.175-.06a.276.276 0 00.101-.155 11.87 11.87 0 00.293-2.632 9.243 9.243 0 00-.2-1.994h.485v-.57h-2.847v-.569h1.708a.272.272 0 00.201-.083c.062-.061.369-.415.369-1.34a2.88 2.88 0 00-.114-.855h.398V8.89h-2.562V6.611a.284.284 0 00-.285-.284.811.811 0 01-.443-.113 1.48 1.48 0 00-.697-.172 1.476 1.476 0 00-.698.172.812.812 0 01-.44.113.812.812 0 01-.441-.113 1.364 1.364 0 00-.698-.172.284.284 0 00-.284.285V7.75a.283.283 0 00.284.285.811.811 0 01.441.112 1.463 1.463 0 00.697.172 1.47 1.47 0 00.697-.172.918.918 0 01.885 0c.13.068.268.116.412.144v.598h-2.563v.57h.7c.118.272.17.557.155.854.032.334-.035.646-.202.938a.276.276 0 00-.078.146.28.28 0 00.121.292.284.284 0 00.159.047h1.709v.57H17.11v.57h.352a8.48 8.48 0 01.218 1.993c-.003.84-.094 1.672-.277 2.494a.279.279 0 00.052.244.285.285 0 00.225.11h2.277v.569h-4.84v-1.994h1.424a.276.276 0 00.149-.042.277.277 0 00.105-.115 3.698 3.698 0 00.315-1.551 3.705 3.705 0 00-.313-1.551.278.278 0 00-.106-.115.276.276 0 00-.15-.043h-1.425v-.854h.286a.282.282 0 00.276-.216l.284-1.138a.28.28 0 00-.051-.244.28.28 0 00-.225-.11h-.57V8.035a.281.281 0 00-.175-.263.284.284 0 00-.109-.022.809.809 0 01-.443-.112 1.366 1.366 0 00-.696-.172 1.357 1.357 0 00-.697.172.812.812 0 01-.442.112.279.279 0 00-.201.084.28.28 0 00-.084.201v1.423a.284.284 0 00.176.264c.034.014.07.022.11.022.246.004.478-.053.695-.172a.817.817 0 01.443-.114.812.812 0 01.442.113c.13.07.268.117.413.145v.597h-.57a.28.28 0 00-.225.11.28.28 0 00-.054.116.271.271 0 00.002.128l.285 1.139a.28.28 0 00.101.155c.052.04.11.06.176.06h.284v.854h-1.709a.287.287 0 00-.254.412c.177.415.262.847.255 1.297.005.45-.08.882-.255 1.296a.3.3 0 00-.03.141.284.284 0 00.284.271h1.709v1.424h-1.709a.278.278 0 00-.175.06.275.275 0 00-.1.156l-.286 1.139a.298.298 0 00-.008.069 1.136 1.136 0 00.52.955c.106.07.22.12.344.15a3.095 3.095 0 00.307 1.12 3.119 3.119 0 001.155 1.284 3.11 3.11 0 001.08.423c.192.036.385.054.58.054h7.12a2.383 2.383 0 00.772-.169 2.384 2.384 0 00.679-.406 2.498 2.498 0 00.695-.954c.05-.123.09-.25.12-.378l.518-1.297 3.028-1.377a.281.281 0 00.167-.26v-.854a.279.279 0 00-.202-.272.273.273 0 00-.12-.01l-1.956.263v-1.404H28.5a.28.28 0 00.15-.042.281.281 0 00.106-.116c.216-.494.32-1.011.313-1.55a3.997 3.997 0 00-.162-1.14h.447v-.569h-2.278zm-.727-1.251a1.46 1.46 0 00-.698-.173 1.475 1.475 0 00-.698.173c-.05.026-.102.05-.156.07v-.837c.144-.028.281-.078.41-.148a.912.912 0 01.443-.112.91.91 0 01.443.112c.13.071.267.12.413.148v.837a1.383 1.383 0 01-.157-.07zm-6.55-3.702a1.482 1.482 0 00-1.056-.13 1.5 1.5 0 00-.34.13.913.913 0 01-.883 0 1.42 1.42 0 00-.41-.148v-.837c.053.02.106.044.156.07.108.057.22.1.338.13a1.509 1.509 0 001.056-.13.91.91 0 01.442-.112c.157 0 .305.037.443.112.13.071.267.12.412.148v.837a1.363 1.363 0 01-.158-.07zm-1.093 3.529a2.9 2.9 0 00.113-.854 2.903 2.903 0 00-.113-.855h3.375c.117.273.168.558.154.855.014.296-.037.581-.154.854h-3.375zm-.675 5.98a12.33 12.33 0 00.218-2.278 9.281 9.281 0 00-.201-1.994h4.255c.151.656.224 1.321.217 1.994a11.83 11.83 0 01-.228 2.278h-4.26zM14.39 9.062a1.36 1.36 0 00-.696-.173 1.364 1.364 0 00-.697.173c-.051.026-.103.05-.157.07v-.837a1.42 1.42 0 00.41-.146.805.805 0 01.444-.114.807.807 0 01.441.114c.13.07.268.118.413.147v.836a1.417 1.417 0 01-.158-.07zm.096 2.39l-.143-.57h.98l-.143.57h-.694zm-1.239 4.27c.109-.37.163-.75.162-1.138a4.03 4.03 0 00-.162-1.14h3.104c.129.37.192.75.19 1.14.001.39-.063.77-.19 1.139h-3.104zm15.538 2.036v.344l-2.935 1.334-1.393.28.112.557.908-.181s-.4 1.02-.406 1.041h-1.696v.57h1.44a1.815 1.815 0 01-1.44.854h-7.119a2.551 2.551 0 01-1.904-.854h1.05v-.57h-1.438a2.521 2.521 0 01-.253-.854h.837v-.57h-1.139a.559.559 0 01-.392-.155.567.567 0 01-.178-.383l.223-.885h1.486v.284a.284.284 0 00.176.264c.034.014.07.021.11.021h9.843c.064 0 .12-.019.171-.057a.28.28 0 00.103-.149l.112-.39 3.722-.502zm-.475-2.32h-3.104a4.081 4.081 0 000-2.277h3.104c.127.368.19.748.19 1.139 0 .39-.063.77-.19 1.138z" fill="#fff"/><path d="M19.672 10.028h.57v.57h-.57v-.57zm1.139 0h.57v.57h-.57v-.57zm.855 4.556c0-.628-.639-1.14-1.424-1.14-.785 0-1.424.512-1.424 1.14a1.293 1.293 0 00.513.98l-.213.639a.281.281 0 00-.011.133.278.278 0 00.151.21.29.29 0 00.13.032h1.708a.283.283 0 00.27-.375l-.213-.64c.154-.116.277-.26.366-.431.09-.172.14-.354.147-.548zm-.968.593a.27.27 0 00-.088.06.29.29 0 00-.07.292l.16.479h-.917l.16-.48a.275.275 0 00-.07-.292.268.268 0 00-.087-.059.727.727 0 01-.398-.593c0-.309.391-.57.854-.57.463 0 .854.261.854.57a.717.717 0 01-.122.349.722.722 0 01-.276.244zM12.84 25.444a.09.09 0 01.011.098c-.012.03-.015.064-.012.098 0 .081-.001.168-.005.261 0 .089.004.174.011.255-.011.015-.013.036-.006.063a.484.484 0 00-.005.087c0 .027.004.052.011.075a.858.858 0 00-.006.174c.004.062.004.124 0 .185v.209c-.007.1-.01.199-.005.295a2.26 2.26 0 01-.006.284c.008.004.01.008.006.011-.004.004-.002.006.005.006a9.2 9.2 0 01-.017.58 1.073 1.073 0 000 .155.487.487 0 010 .151c.008.011.008.025 0 .04a.038.038 0 00.006.035 71.51 71.51 0 01-.012.214c-.004.066-.002.134.006.203v.058a.12.12 0 01-.006.064c.004.061.01.12.018.173a.363.363 0 01-.018.168l-.07.04a.313.313 0 00-.11-.017.192.192 0 00-.103.03.063.063 0 01-.047-.018.086.086 0 00-.04-.023.332.332 0 00-.14.006.325.325 0 01-.12.023c-.043-.012-.066-.037-.07-.075a.53.53 0 00-.012-.116c.012-.031.016-.064.012-.099 0-.038.01-.071.029-.098a1.31 1.31 0 00.006-.122v-.231l.011-.128a.403.403 0 01-.017-.18.631.631 0 00.006-.19.515.515 0 01-.006-.133.51.51 0 00-.006-.133c.012-.093.017-.184.017-.273v-.51c-.019-.018-.02-.038-.005-.057.015-.02.015-.04 0-.064a1.694 1.694 0 000-.341c-.012-.004-.014-.008-.006-.012s.008-.01 0-.017a.46.46 0 00.011-.15 1.036 1.036 0 010-.157.47.47 0 00.006-.127v-.128a.162.162 0 01-.006-.075.145.145 0 000-.081c.008-.07.01-.139.006-.209a5.92 5.92 0 00-.017-.214.039.039 0 00.006-.035c0-.015.007-.027.023-.034.1.008.206.01.318.006.116-.008.224-.008.324 0h.023zm1.441 3.265v-.006c.097.012.176.015.237.012.066-.004.147-.006.244-.006.023.02.032.042.029.07a.125.125 0 00.011.075.583.583 0 01.012.115.184.184 0 01-.023.11.14.14 0 01.005.07.1.1 0 00.006.058.265.265 0 000 .11c.008.038-.006.071-.04.098a.118.118 0 00-.11-.035.386.386 0 01-.116.006 1.958 1.958 0 00-.365-.006.148.148 0 01-.092.018.416.416 0 00-.099 0c-.058-.023-.12-.031-.185-.023a1.496 1.496 0 01-.185.011c-.004.027-.018.037-.041.03a.343.343 0 00-.052-.007.093.093 0 00-.058.024c-.02.015-.039.011-.058-.012a.136.136 0 00-.087.006c-.027.011-.048-.002-.063-.04 0-.032.002-.06.005-.088a.153.153 0 00-.005-.092.125.125 0 000-.076.323.323 0 010-.086c0-.039-.002-.078-.006-.116a.5.5 0 01.011-.11.049.049 0 010-.046.061.061 0 000-.053.116.116 0 01.093-.017.29.29 0 00.098.006.557.557 0 01.18-.006.841.841 0 00.197 0c.03.008.056.012.075.012a.494.494 0 01.081-.006c.05.004.098.006.145.006.046-.004.096-.006.15-.006h.006zm-.59-3.271a.075.075 0 01.057 0 .09.09 0 00.064 0h.92a.06.06 0 01.012.052c0 .015.002.03.006.046a.81.81 0 00.012.191.333.333 0 01-.006.186.1.1 0 00-.006.057c.004.02.006.039.006.058a.117.117 0 010 .052c-.004.016-.016.03-.035.041a.183.183 0 00-.092-.023.177.177 0 00-.093.029.48.48 0 00-.197-.04 2.36 2.36 0 01-.208 0 1.414 1.414 0 00-.18 0c-.058 0-.116-.005-.174-.012-.057.003-.115.01-.173.017a.572.572 0 01-.162 0 .082.082 0 01-.047.012.266.266 0 00-.052.005.102.102 0 00-.046.012c-.012.004-.02.017-.023.04 0 .008.002.018.006.03a.028.028 0 01-.006.028c-.016 0-.023-.007-.023-.023.003-.02.002-.033-.006-.04a.102.102 0 01-.018-.099.15.15 0 00.012-.098l.012-.226a2.354 2.354 0 000-.232.173.173 0 00-.006-.04c-.004-.015 0-.027.011-.035.066.008.137.01.215.006.077-.004.15-.002.22.006zm.196 1.638c.074 0 .141.004.203.012.066.004.137.002.214-.006.023-.015.039-.01.047.017a.09.09 0 00.028.047.103.103 0 00.03.058c.007.023.01.046.005.07a.529.529 0 01-.017.063.311.311 0 00-.018.063c-.003.02 0 .041.012.064 0 .089.006.174.018.255a.35.35 0 00-.024.04.056.056 0 01-.023.03c-.023 0-.037.009-.04.028a.04.04 0 01-.035.035.103.103 0 01-.012-.046c.004-.016-.002-.03-.017-.04a.179.179 0 00-.093.028c-.03.016-.06.004-.086-.035-.016-.003-.03.002-.041.018-.012.015-.021.011-.029-.012a.5.5 0 00-.093-.011.5.5 0 01-.092-.012c-.008.02-.016.023-.023.012-.004-.016-.012-.022-.024-.018a2.111 2.111 0 00-.22 0 5.35 5.35 0 00-.22.006c-.007.004-.013.015-.017.035v.121a.157.157 0 01.006.035c0 .012-.008.03-.023.058-.012.027-.024.037-.035.029-.02-.012-.027-.029-.023-.052a.306.306 0 01.017-.064.092.092 0 000-.046.455.455 0 00-.017-.07 1.987 1.987 0 00-.012-.063c0-.024.004-.04.012-.053-.008-.007-.012-.019-.012-.034 0-.023.002-.04.006-.052v-.035a.094.094 0 000-.046l.017-.429a1 1 0 01.22 0c.062.008.133.01.215.006h.098a.907.907 0 01.098-.006zm4.26 1.534a.85.85 0 00.053.093l.046.07.046.057a.9.9 0 01.07.082c.007-.04.015-.091.023-.157.008-.065 0-.114-.023-.145a.14.14 0 01-.03-.063 9.181 9.181 0 01-.022-.197.227.227 0 00-.018-.07 1.768 1.768 0 00-.075-.133 4.435 4.435 0 01-.07-.144c0-.004-.002-.002-.005.005a.097.097 0 01-.006.03.221.221 0 01-.012.028v.012a.187.187 0 01-.011-.07.152.152 0 00-.006-.075.276.276 0 00-.075-.104.378.378 0 01-.081-.099l-.064-.104a.438.438 0 01-.064-.092.939.939 0 00-.058-.099.317.317 0 01-.029-.063.322.322 0 00-.029-.064.77.77 0 01-.005-.162.531.531 0 000-.157c.019-.1.025-.206.017-.318a2.889 2.889 0 01.006-.319c-.012-.015-.014-.034-.006-.057.012-.024.01-.045-.006-.064a.107.107 0 000-.07.528.528 0 01-.006-.075.149.149 0 00.012-.098.48.48 0 01-.012-.104c.004-.004.006-.014.006-.03l-.006-.005a2.49 2.49 0 00.006-.162.405.405 0 00-.017-.15c-.008-.02-.002-.035.017-.047a.516.516 0 01.099-.012h.058l.057-.011a.532.532 0 00.11 0 .192.192 0 01.105.006c.042-.004.079-.006.11-.006a1.78 1.78 0 00.116-.018c.019.004.027.014.023.03a.04.04 0 00.011.028c.008.09.006.176-.006.26-.007.082-.005.167.006.256-.004 0-.006.002-.006.005l.012.105a.33.33 0 01-.006.104c.027.02.027.036 0 .052-.008.023-.002.044.018.063.019.02.017.041-.006.064a.29.29 0 010 .081.14.14 0 00.023.076.184.184 0 00-.023.092.19.19 0 01-.006.047.245.245 0 01-.006.046c.004.02.004.04 0 .064a.418.418 0 01-.006.069c0 .073.004.145.012.214.012.07.014.141.006.214a.774.774 0 01.006.099c.003.035.005.07.005.104v.104l.012.11a.193.193 0 00-.012.093.118.118 0 01-.011.087.276.276 0 01-.012.075.09.09 0 00.012.064.385.385 0 00.006.115.213.213 0 010 .099l.011.208a1.12 1.12 0 01-.006.209.306.306 0 00-.005.07.623.623 0 010 .167.1.1 0 01-.024.058.267.267 0 00-.005.07c.004.034.005.073.005.115v.11a.16.16 0 01-.011.07.17.17 0 00-.006.058.74.74 0 01.006.092.281.281 0 010 .081c0 .027-.008.039-.023.035-.012-.004-.022-.023-.03-.058a.164.164 0 010-.087c.008-.019 0-.04-.022-.063-.024-.008-.045-.002-.064.017a.246.246 0 000 .081c.004.05.006.1.006.15a.444.444 0 01-.006.128c-.004.038-.017.05-.04.035-.012-.004-.018-.027-.018-.07 0-.05.002-.112.006-.185.004-.07-.01-.12-.04-.15h-.041c-.012 0-.018.005-.018.017l.006.035a.292.292 0 010 .115c-.004.02-.011.03-.023.03-.02 0-.033-.012-.04-.035a.495.495 0 01-.006-.082v-.052a.162.162 0 00.006-.034c-.008.007-.024.011-.047.011a.1.1 0 01-.04-.006.231.231 0 00-.064-.005h-.064c-.027 0-.038-.002-.035-.006l-.005.006-.272-.365-.11-.15a.373.373 0 00-.081-.122 1.11 1.11 0 00-.076-.11 1.021 1.021 0 01-.063-.11c-.027-.008-.043-.021-.047-.04a.069.069 0 00-.034-.047c.003-.012 0-.02-.012-.023a2.537 2.537 0 00-.023-.023c-.008-.004-.014-.004-.018 0-.003.003-.007.002-.011-.006A.13.13 0 0017 28.32a1.345 1.345 0 01-.064-.093.48.48 0 00-.08-.121.48.48 0 01-.082-.122 1.741 1.741 0 01-.127-.168.871.871 0 00-.133-.168 6.605 6.605 0 01-.133-.22 1.445 1.445 0 00-.14-.214c0-.02-.01-.035-.034-.046-.02-.012-.027-.027-.023-.047-.043-.05-.081-.1-.116-.15a1.038 1.038 0 00-.11-.156.4.4 0 00-.093-.087.232.232 0 01-.07-.099 1.256 1.256 0 01-.069-.11 2.918 2.918 0 00-.052-.121 1.263 1.263 0 01-.139-.191.749.749 0 00-.133-.18.143.143 0 01-.046-.063.116.116 0 00-.035-.064c-.011-.012-.017-.021-.017-.029l.011-.023c.008-.008.012-.016.012-.023.004-.012 0-.027-.012-.047-.011-.015-.015-.032-.011-.052l.011-.058a.55.55 0 00.018-.063.073.073 0 00-.012-.058.094.094 0 01-.017-.058c0-.023.01-.039.029-.046l.075-.03c.008 0 .01.003.006.006-.004.004-.006.008-.006.012s.004.006.012.006a.409.409 0 00.07-.012.38.38 0 00.173-.006.383.383 0 01.174-.005c.03.011.054.027.069.046.02.015.035.033.046.052.012.02.025.039.04.058.016.02.036.037.059.052a.43.43 0 00.058.04c.019.012.02.028.005.047 0 .02.006.035.018.046.015.008.023.02.023.035.03.02.05.044.058.075a.21.21 0 00.058.076.39.39 0 00.087.127.26.26 0 01.086.133c.035.027.058.06.07.098a.177.177 0 00.063.087c.02.035.04.072.058.11a.514.514 0 00.087.099c0 .015.006.029.018.04.015.008.023.02.023.035a.324.324 0 01.092.116c.02.042.043.085.07.127.02.012.029.027.029.046.004.016.017.027.04.035a.75.75 0 00.099.15.393.393 0 01.092.145c.016.02.031.041.047.064.019.02.034.039.046.058a.75.75 0 00.099.15.393.393 0 01.092.145c.031.02.05.045.058.075.008.028.029.05.064.07a.091.091 0 00.034.058.117.117 0 01.047.052c.027.015.042.033.046.052.008.02.023.037.046.052a.376.376 0 01.023.04c.012.012.016.024.012.035a.089.089 0 00.046.058.069.069 0 01.04.058c.043.062.084.124.123.185a1.1 1.1 0 00.139.168zm-2.778-1.997c0 .039.015.07.046.093a.093.093 0 01.052.087c.023.019.038.04.046.063a.162.162 0 00.04.064c.016.02.028.04.035.064a.36.36 0 00.041.063.07.07 0 01.035.047c.004.015.015.028.034.04a.07.07 0 00.03.046c.019.012.028.027.028.047.02.035.04.07.064.104a.262.262 0 01.052.116.21.21 0 00.07.092.145.145 0 01.063.099c.02.023.025.058.018.104a.712.712 0 00-.012.11v.191l.012.064a.58.58 0 00-.006.08v.082a.566.566 0 01-.006.08.543.543 0 01-.006.076c.012.02.012.04 0 .064a.062.062 0 00-.005.058.288.288 0 000 .116.24.24 0 01-.006.115.658.658 0 01.017.197c-.004.07-.011.137-.023.203.012.03.015.062.012.092v.087a.123.123 0 01-.11-.005c-.031-.024-.07-.027-.116-.012-.008.02-.023.029-.046.029-.024-.004-.041.004-.053.023-.023-.03-.052-.044-.087-.04a.987.987 0 01-.11.005.19.19 0 01-.057.012.063.063 0 00-.047.017.583.583 0 00-.017.087.563.563 0 01-.017.093c-.004.011-.012.011-.024 0-.007-.008-.011-.016-.011-.023a.065.065 0 01-.006-.03.094.094 0 00.006-.028.326.326 0 01-.012-.076.089.089 0 00-.029-.063.253.253 0 00.035-.134.572.572 0 00.023-.196 1.285 1.285 0 01.006-.214.383.383 0 01-.017-.174.497.497 0 000-.186 6.321 6.321 0 00-.006-.607 7.997 7.997 0 010-.608.236.236 0 01-.006-.064.805.805 0 01-.006-.168 1.325 1.325 0 000-.174v-.04a.415.415 0 00.006-.139 7.41 7.41 0 01-.011-.098c.003-.008.007-.01.011-.006.008 0 .014.002.017.006-.011.019-.007.032.012.04.02.008.033.018.04.03zm2.425 2.779h.006c.008 0 .014-.002.017-.006H17.8l-.006.006zm3.753-3.914a1.04 1.04 0 00-.03.238v.127c0 .039.003.08.006.122.02.07.025.143.018.22a.056.056 0 01-.04.017.307.307 0 01-.041-.017.126.126 0 00-.04-.018.053.053 0 00-.047.012.112.112 0 01-.058-.017.084.084 0 00-.052-.018c-.02.004-.03.02-.03.046.005.024-.003.033-.022.03a.117.117 0 01-.052-.047.09.09 0 00-.047-.046 1.556 1.556 0 00-.231-.006c-.07.004-.15.006-.243.006-.02.011-.03.03-.03.058.005.027-.005.036-.028.029l-.035-.024a.088.088 0 00-.035-.029.074.074 0 00-.017.035c0 .016-.004.021-.012.018-.015-.008-.021-.025-.017-.052.004-.027-.008-.043-.035-.047l-.035.023c-.007.004-.015.016-.023.035a.13.13 0 01-.005.064h-.012a.155.155 0 01-.012-.058c.004-.023-.005-.039-.029-.046a.292.292 0 00-.11-.012l-.034.035a.07.07 0 00-.047-.047l-.579.006a.093.093 0 00-.07.075 1.047 1.047 0 00-.005.105h-.006c0-.07-.017-.122-.052-.157-.008-.004-.017 0-.029.012a.067.067 0 01-.023.023.24.24 0 000 .075c.004.027-.004.035-.023.023-.02-.007-.025-.023-.017-.046.011-.023.007-.044-.012-.064a.029.029 0 00-.035 0 2.537 2.537 0 00-.023.024.198.198 0 00.006.104c.011.038.006.054-.018.046-.015-.008-.023-.021-.023-.04v-.058a.3.3 0 00-.005-.058c-.004-.02-.018-.033-.041-.04a.166.166 0 00-.127-.03.359.359 0 01-.128-.011.085.085 0 01.006-.07c.012-.019.012-.042 0-.07 0-.08-.002-.163-.006-.248-.004-.089 0-.178.012-.266l.023-.018a.966.966 0 00.237.018.81.81 0 01.238.011.796.796 0 01.255-.017c.092.008.183.008.272 0a.072.072 0 01.052-.023c.03 0 .061.005.092.017.031.008.06.002.087-.017a7.47 7.47 0 01.666.017c.212.012.438.016.677.012l.024.034zm-.962 1.054a1.33 1.33 0 00-.023.307 2.73 2.73 0 01-.006.313c-.007.13-.005.264.006.399.016.135.02.27.012.405a.323.323 0 010 .122l-.012.121a.644.644 0 01.006.081v.052a.758.758 0 01-.006.105c0 .023.004.077.012.162a.649.649 0 010 .121c0 .035.01.068.029.099l-.006.07a.072.072 0 00-.023.051c0 .031.004.058.011.081a.12.12 0 01-.005.081.274.274 0 01-.006.053.266.266 0 01-.006.052h-.006a.246.246 0 00-.006.173.35.35 0 01.018.174.163.163 0 01-.018.11.123.123 0 00.006.11c.008.012.01.027.006.046 0 .02-.01.033-.029.041-.02.008-.029.004-.029-.012 0-.015-.002-.025-.006-.029l-.052-.341a.134.134 0 00-.046-.046c-.015-.012-.033-.012-.052 0a.104.104 0 01-.075.017 1.79 1.79 0 01-.064-.012.039.039 0 00-.035.018.248.248 0 00.012.092c-.016-.011-.023-.03-.023-.058.003-.027-.01-.044-.04-.052-.024.012-.041.01-.053-.005a.074.074 0 00-.046-.03.189.189 0 00-.093 0 .088.088 0 01-.07-.005c0-.02.002-.039.006-.058a.09.09 0 000-.064c0-.146.002-.27.006-.37a7.91 7.91 0 000-.585 4.66 4.66 0 00-.017-.37c.02-.016.021-.03.006-.041-.012-.012-.012-.021 0-.029a1.253 1.253 0 01-.006-.209c.008-.073.01-.146.006-.22h.005a.074.074 0 000-.069h-.005c.019-.008.023-.015.011-.023-.011-.012-.01-.021.006-.029.008-.046.006-.081-.006-.104-.011-.027-.008-.06.012-.099a.11.11 0 01-.018-.092c.012-.035.006-.064-.017-.087a1.23 1.23 0 00-.006-.209.483.483 0 01.023-.208.58.58 0 01.081-.006h.093a.95.95 0 00.185-.017.536.536 0 00.168.023c.07-.004.131-.004.186 0zm.516 2.24c.007.02.002.031-.018.035-.015.004-.023.016-.023.035h-.144a.592.592 0 01.098-.04.581.581 0 01.087-.03zm.063-1.933l.012-.058c.004-.023.01-.039.017-.046.004.038.006.079.006.121.004.039.006.08.006.122v.127c0 .039-.002.077-.006.116 0 .077-.002.156-.006.237a1.37 1.37 0 00.006.22.46.46 0 00-.011.11c.003.043-.002.066-.018.07a3.46 3.46 0 01-.011-.405 3.867 3.867 0 000-.423.24.24 0 00.005-.093v-.098zm1.671-1.395a.09.09 0 01.012.098c-.012.03-.016.064-.012.098 0 .081-.002.168-.005.261 0 .089.004.174.011.255-.011.015-.013.036-.006.063a.475.475 0 00-.005.087c0 .027.004.052.011.075a.85.85 0 00-.006.174c.004.062.004.124 0 .185v.209c-.007.1-.01.199-.005.295a2.26 2.26 0 01-.006.284c.007.004.01.008.006.011-.004.004-.002.006.005.006a9.2 9.2 0 01-.017.58 1.073 1.073 0 000 .155.487.487 0 010 .151c.008.011.008.025 0 .04a.038.038 0 00.006.035l-.012.214c-.004.066-.002.134.006.203v.058a.12.12 0 01-.006.064c.004.061.01.12.018.173a.364.364 0 01-.018.168l-.07.04a.313.313 0 00-.11-.017.192.192 0 00-.103.03.063.063 0 01-.047-.018.085.085 0 00-.04-.023.332.332 0 00-.14.006.325.325 0 01-.12.023c-.043-.012-.066-.037-.07-.075a.53.53 0 00-.012-.116c.012-.031.016-.064.012-.099 0-.038.01-.071.029-.098a1.31 1.31 0 00.006-.122v-.231l.011-.128a.401.401 0 01-.017-.18.635.635 0 00.006-.19.515.515 0 01-.006-.133.51.51 0 00-.006-.133c.011-.093.017-.184.017-.273v-.51c-.02-.018-.021-.038-.006-.057.016-.02.016-.04 0-.064a1.694 1.694 0 000-.341c-.011-.004-.013-.008-.005-.012.007-.004.007-.01 0-.017a.46.46 0 00.011-.15 1.064 1.064 0 010-.157.466.466 0 00.006-.127v-.128a.163.163 0 01-.006-.075.143.143 0 000-.081c.008-.07.01-.139.006-.209a5.92 5.92 0 00-.017-.214.039.039 0 00.006-.035c0-.015.007-.027.023-.034.1.008.206.01.318.006.116-.008.224-.008.324 0h.023zm1.442 3.265v-.006c.096.012.176.015.237.012a4.22 4.22 0 01.244-.006c.023.02.032.042.029.07a.125.125 0 00.011.075.583.583 0 01.012.115.184.184 0 01-.023.11.14.14 0 01.005.07.1.1 0 00.006.058.265.265 0 000 .11c.008.038-.006.071-.04.098a.118.118 0 00-.11-.035.386.386 0 01-.116.006 1.958 1.958 0 00-.365-.006.148.148 0 01-.093.018.415.415 0 00-.098 0c-.058-.023-.12-.031-.185-.023a1.496 1.496 0 01-.186.011c-.003.027-.017.037-.04.03a.345.345 0 00-.052-.007.093.093 0 00-.058.024c-.02.015-.039.011-.058-.012a.136.136 0 00-.087.006c-.027.011-.048-.002-.063-.04 0-.032.001-.06.005-.088a.152.152 0 00-.005-.092.125.125 0 000-.076.323.323 0 010-.086c0-.039-.003-.078-.006-.116 0-.039.003-.075.011-.11a.05.05 0 010-.046.06.06 0 000-.053.116.116 0 01.093-.017.29.29 0 00.098.006.557.557 0 01.18-.006.841.841 0 00.197 0c.03.008.056.012.075.012a.493.493 0 01.08-.006c.051.004.1.006.146.006.046-.004.096-.006.15-.006h.006zm-.59-3.271a.075.075 0 01.057 0 .09.09 0 00.064 0h.92a.06.06 0 01.012.052c0 .015.002.03.006.046a.81.81 0 00.012.191.334.334 0 01-.006.186.1.1 0 00-.006.057c.004.02.006.039.006.058a.117.117 0 010 .052c-.004.016-.016.03-.035.041a.183.183 0 00-.093-.023c-.03 0-.061.01-.092.029a.481.481 0 00-.197-.04 2.38 2.38 0 01-.209 0 1.414 1.414 0 00-.179 0c-.058 0-.116-.005-.174-.012a2.47 2.47 0 00-.173.017.572.572 0 01-.163 0 .082.082 0 01-.046.012.266.266 0 00-.052.005.101.101 0 00-.046.012c-.012.004-.02.017-.023.04 0 .008.002.018.005.03a.026.026 0 01-.005.028c-.016 0-.023-.007-.023-.023.003-.02.001-.033-.006-.04a.102.102 0 01-.018-.099.15.15 0 00.012-.098l.012-.226a2.354 2.354 0 000-.232.173.173 0 00-.006-.04c-.004-.015 0-.027.011-.035.066.008.137.01.215.006.077-.004.15-.002.22.006zm.196 1.638c.074 0 .141.004.203.012.066.004.137.002.214-.006.023-.015.039-.01.046.017.008.023.018.039.03.047a.104.104 0 00.028.058c.008.023.01.046.006.07a.529.529 0 01-.017.063.305.305 0 00-.018.063c-.003.02 0 .041.012.064 0 .089.006.174.017.255a.365.365 0 00-.023.04.056.056 0 01-.023.03c-.023 0-.037.009-.04.028a.04.04 0 01-.035.035.102.102 0 01-.012-.046c.004-.016-.002-.03-.017-.04a.176.176 0 00-.093.028c-.03.016-.06.004-.087-.035-.015-.003-.029.002-.04.018-.012.015-.021.011-.03-.012a.5.5 0 00-.092-.011.5.5 0 01-.092-.012c-.008.02-.016.023-.023.012-.004-.016-.012-.022-.024-.018a2.111 2.111 0 00-.22 0 5.35 5.35 0 00-.22.006c-.007.004-.013.015-.017.035v.121a.157.157 0 01.006.035c0 .012-.008.03-.023.058-.012.027-.024.037-.035.029-.02-.012-.027-.029-.023-.052a.306.306 0 01.017-.064.092.092 0 000-.046.455.455 0 00-.017-.07 2.312 2.312 0 00-.012-.063c0-.024.004-.04.012-.053-.008-.007-.012-.019-.012-.034 0-.023.002-.04.006-.052v-.035a.094.094 0 000-.046l.017-.429a1 1 0 01.22 0c.062.008.133.01.214.006h.099a.907.907 0 01.098-.006zm3.398.741c-.008.008-.008.016 0 .023a.78.78 0 01.092.145c.031.05.062.097.093.14.03.045.058.092.081.138.027.046.05.09.07.133.046.066.088.135.127.209.038.07.083.137.133.202a.713.713 0 00.058.122c.027.039.05.079.07.121a8.404 8.404 0 01.22.296c-.008.019-.006.03.005.034.012.004.01.016-.006.035.004.047 0 .064-.011.052a.841.841 0 01-.047-.052.21.21 0 00-.046-.052c-.011-.015-.017-.002-.017.04-.004.016-.014.022-.03.018a1.147 1.147 0 00-.098-.023c-.015 0-.027.008-.034.023a.277.277 0 00-.006.064v.167a.465.465 0 01.006.058c0 .012-.008.025-.023.041-.016.015-.027.02-.035.011-.012-.007-.017-.027-.017-.057 0-.027.001-.058.005-.093l.012-.093a.14.14 0 000-.057.144.144 0 00-.017-.041c-.012-.015-.037-.025-.076-.029a1.011 1.011 0 00-.11-.006h-.11c-.03-.004-.05-.011-.058-.023a.133.133 0 00-.034-.04.069.069 0 00-.012-.018.092.092 0 00-.017-.023l-.024-.046a1.09 1.09 0 00-.127-.203 1.734 1.734 0 01-.127-.203 1.856 1.856 0 00-.128-.202 5.888 5.888 0 00-.133-.203 1.525 1.525 0 01-.104-.168 2.405 2.405 0 00-.098-.168.718.718 0 00-.099-.121.226.226 0 01-.058-.14c-.015.005-.023.014-.023.03 0 .015-.006.025-.017.029-.02 0-.03-.01-.03-.03v-.022c0-.004-.003-.01-.01-.018-.035-.019-.057-.038-.064-.058a.213.213 0 010-.07.462.462 0 00.017-.069.125.125 0 000-.075.055.055 0 01.017-.052c.016-.015.014-.033-.005-.052a.218.218 0 000-.122.452.452 0 01-.006-.127c.011-.02.042-.029.092-.029.039 0 .081.002.128.006a23.32 23.32 0 01.272.023.38.38 0 00.08-.006 4.967 4.967 0 00.232-.064.795.795 0 00.11-.046.267.267 0 00.14-.133.744.744 0 00.028-.098.617.617 0 00.012-.174 3.053 3.053 0 00-.018-.185.342.342 0 00-.11-.197 1.616 1.616 0 00-.185-.162.188.188 0 00-.075-.018.686.686 0 00-.133-.011 2.098 2.098 0 00-.162-.006 2.157 2.157 0 00-.15-.006h-.128c-.008.008-.014.031-.017.07 0 .034-.002.071-.006.11a.249.249 0 01-.018.098c-.007.027-.023.035-.046.023-.004 0-.006-.01-.006-.029v-.18a.072.072 0 00-.011-.057.075.075 0 010-.058c-.023-.008-.037-.017-.04-.029a.127.127 0 01-.007-.04.168.168 0 00.006-.04.04.04 0 00-.011-.041c.011-.024.015-.047.011-.07a.465.465 0 00-.017-.07l-.012-.069c0-.023.006-.046.018-.07a.083.083 0 01-.012-.046.21.21 0 01.017-.052c-.007-.02-.007-.033 0-.04.012-.008.018-.021.018-.04.003-.005.015-.005.034 0 .024.003.037.003.04 0a.266.266 0 01.053-.007h.058a.2.2 0 01.052.006.19.19 0 01.046.006c.027-.008.058-.017.093-.029a.263.263 0 01.104-.012.49.49 0 00.104.03c.043.003.085.009.128.017.046.004.09.01.133.017a.348.348 0 01.104.023.21.21 0 01.099.04c.027.02.06.034.098.041a.98.98 0 01.26.214 2.5 2.5 0 01.203.25.646.646 0 01.104.289c.016.116.027.218.035.307a.134.134 0 00-.023.075.243.243 0 010 .075l-.012.099c-.003.03-.01.063-.017.098l.006.006c.004.035-.002.058-.018.07a.067.067 0 00-.023.023.196.196 0 00-.035.07 1.8 1.8 0 00-.023.074.534.534 0 01-.029.07.149.149 0 01-.052.058c0 .019-.015.04-.046.063a.186.186 0 01-.035.064.232.232 0 00-.034.029.387.387 0 00-.098.087.567.567 0 00-.227.104.527.527 0 01-.231.104zm-1.274-2.333c-.012.14-.02.236-.023.29v.104c.004.011.008.02.011.023.004 0 .006.017.006.052.004.085.006.172.006.26v.788c.012.039.015.081.012.127a1.429 1.429 0 00-.006.128c.004.116.004.233 0 .353a11.124 11.124 0 000 .787 7.85 7.85 0 010 .434c.004 0 .006.002.006.006a1.496 1.496 0 00-.006.133v.261l.011.127c0 .02-.011.04-.034.064-.02.008-.031.004-.035-.012-.004-.015-.014-.023-.029-.023a2.395 2.395 0 00-.168-.006.232.232 0 00-.145.035.247.247 0 00-.121-.029.78.78 0 00-.133 0l-.012.012c-.004 0-.008.002-.012.006a7.008 7.008 0 01-.034-.024c-.012-.011-.012-.025 0-.04 0-.008.004-.012.011-.012a1.163 1.163 0 000-.231 1.223 1.223 0 010-.238.2.2 0 01-.011-.115.215.215 0 00.006-.11.493.493 0 000-.15.43.43 0 01.005-.157.1.1 0 01-.006-.058.1.1 0 00-.005-.058 2.443 2.443 0 000-.336 3.678 3.678 0 01.006-.353l-.012-.116a.532.532 0 010-.11.479.479 0 01.011-.15.287.287 0 00-.005-.15c-.008-.012-.006-.018.006-.018.007 0 .01-.006.005-.018a.071.071 0 010-.04c.008-.008.004-.016-.011-.023-.016-.008-.02-.016-.012-.023.023-.02.031-.054.023-.105a2.676 2.676 0 00-.011-.121 25.61 25.61 0 00-.012-.168.61.61 0 01.023-.168.148.148 0 01-.034-.075v-.087a.217.217 0 00.005-.087.176.176 0 01.012-.087.74.74 0 00-.006-.092c0-.035.004-.068.012-.099a.572.572 0 000-.162 1.073 1.073 0 010-.156 1.35 1.35 0 01.127-.006 1.39 1.39 0 01.127-.006c.047 0 .091-.002.134-.006l.133-.023h.029l.006.006c.003.004.015.01.034.017.02.008.058.02.116.035zM15.501 32.53a5.352 5.352 0 00-.006.267c.004.096.002.185-.006.266a.146.146 0 01-.087.029c-.03-.004-.055.01-.075.04a.744.744 0 00-.15.192c-.02.042-.025.077-.018.104a.39.39 0 01.012.104c.023.027.04.054.052.081a.656.656 0 00.04.07.44.44 0 00.076.069c.03.023.075.046.133.07.03.011.073.03.127.057a.435.435 0 00.128.047.718.718 0 01.173.04c.054.016.112.027.174.035.02.012.04.021.064.029a.12.12 0 01.07.035.76.76 0 01.167.092c.05.031.108.06.174.087a.36.36 0 00.104.075.48.48 0 01.11.076.24.24 0 00.064.052c.011.004.03.023.058.058a.41.41 0 01.052.11l.063.197c.027.069.049.137.064.202.012.05.015.11.012.18a1.664 1.664 0 01-.064.411.88.88 0 01-.064.156c-.019.03-.038.06-.058.087a.419.419 0 01-.382.33 2.24 2.24 0 00-.116.087.155.155 0 00-.052.121v.04c.004.016 0 .028-.011.035-.02 0-.031-.007-.035-.023v-.052l.012-.064a.13.13 0 00.011-.04c-.011-.012-.023-.013-.035-.006a.793.793 0 01-.034.099c-.008.011-.016.015-.023.011a.18.18 0 01-.012-.035c-.004-.015-.01-.025-.017-.029-.039.02-.058.055-.058.105a.3.3 0 01-.006.058.093.093 0 01-.017.057.04.04 0 01-.03-.011c.008-.03.01-.06.006-.087a.29.29 0 010-.08.055.055 0 00-.04-.018l-.087.034c-.008 0-.01-.003-.006-.011l.012-.035c.008-.012.004-.02-.012-.023-.015-.008-.017-.016-.005-.023.015-.008.019-.02.011-.035a.33.33 0 00-.006-.064.146.146 0 00-.023-.07v-.127a.505.505 0 00-.006-.133c.02-.023.031-.034.035-.034a.421.421 0 00.029-.04c.004-.012.002-.022-.006-.03s-.004-.015.012-.023a.183.183 0 01.098-.029.17.17 0 00.058-.052c.012-.02.035-.035.07-.046a.218.218 0 00.04-.07.216.216 0 01.04-.07.287.287 0 00.082-.179 6.01 6.01 0 01.023-.202c.004-.039-.01-.068-.04-.087a.352.352 0 01-.07-.081.317.317 0 00-.15-.122.843.843 0 00-.18-.064 86.526 86.526 0 01-.081-.023.087.087 0 00-.081.006c-.008.004-.012-.008-.012-.035.004-.027 0-.038-.011-.034-.012.007-.03.002-.053-.018a1.176 1.176 0 01-.098-.07c-.035-.026-.058-.024-.07.007-.003.007-.01.01-.017.005l-.023-.023a.094.094 0 00-.023-.017c-.004-.008-.006-.008-.006 0-.011.05-.023.07-.035.058-.007-.016-.01-.03-.005-.04.007-.028-.006-.045-.04-.053-.032-.012-.053-.013-.065-.006-.019.02-.032.016-.04-.011-.004-.027-.018-.04-.04-.04a.123.123 0 01-.082-.03.208.208 0 00-.075-.046 2.367 2.367 0 01-.185-.07.637.637 0 01-.22-.19.298.298 0 00-.058-.064.228.228 0 00-.035-.03.085.085 0 01-.029-.04 1.036 1.036 0 01-.017-.08.133.133 0 00-.03-.076c-.018-.027-.026-.052-.022-.075a.093.093 0 00-.012-.076.15.15 0 01-.012-.115.146.146 0 00-.005-.122.122.122 0 00.005-.064.111.111 0 01.012-.07c0-.05.008-.096.023-.138a.53.53 0 00.04-.133.668.668 0 00.041-.07.467.467 0 00.04-.075.922.922 0 01.21-.203c.073-.05.161-.096.266-.139a.567.567 0 00.07-.023.992.992 0 01.132-.046l.156-.04c0 .019.006.034.018.046.015.011.023.023.023.035 0 .007-.008.017-.023.028zm1.117.093c.016.023.035.033.058.029.027-.008.045.002.052.029a.365.365 0 01.104.116c.027.042.058.085.093.127 0 .02.008.04.023.064.02.023.03.044.03.063 0 .012-.01.024-.03.035a.96.96 0 01-.11.052.791.791 0 00-.098.052.44.44 0 01-.081.047.205.205 0 00-.075.04.143.143 0 00-.081.023.354.354 0 01-.064.041.147.147 0 01-.058 0c.004-.027-.004-.046-.023-.058a.308.308 0 01-.047-.064.17.17 0 00-.075-.08 2.201 2.201 0 01-.098-.059c-.023.016-.045.016-.064 0-.015-.015-.033-.017-.052-.005-.008.007-.012.029-.012.063a.858.858 0 010 .203c0 .027-.01.039-.029.035a.49.49 0 01-.034-.14 2.17 2.17 0 01-.012-.213c0-.047.006-.082.018-.105a4.4 4.4 0 01.005-.237c.004-.073.006-.154.006-.243-.004 0 .006-.004.029-.012a1.107 1.107 0 01.625.197zm-1.928 2.57c.047-.003.099-.003.157 0 .058 0 .108.003.15.006a.086.086 0 01.023.064.18.18 0 00.024.064c.007.03.013.06.017.087a.227.227 0 00.035.086c.054.047.11.099.168.157a.278.278 0 00.202.087c.016.011.023.02.023.029.004.003.006.01.006.017v.017l.012.035a.715.715 0 01-.024.174.89.89 0 00-.017.173c0 .039.008.072.023.099a.039.039 0 01-.017.035l-.023.023c-.008.004-.014.011-.018.023-.003.008-.001.021.006.04a.237.237 0 000 .105c.012.042.01.075-.006.098-.007.008-.015.008-.023 0-.007-.004-.011-.01-.011-.017a.293.293 0 000-.116.988.988 0 01-.006-.11l-.018-.017a.038.038 0 00-.017-.018c-.02-.008-.033-.002-.04.017-.008.016-.018.02-.03.012 0-.011.003-.023.007-.035.003-.011-.004-.02-.024-.029-.038.004-.054.022-.046.053.012.03.012.056 0 .075-.02.027-.033.027-.04 0a.495.495 0 01-.006-.081 2.143 2.143 0 01-.22-.14 2.55 2.55 0 00-.215-.138.252.252 0 01-.11-.11.445.445 0 00-.08-.128 8.533 8.533 0 01-.064-.075.546.546 0 00-.064-.087c-.02-.023-.027-.046-.023-.07a.15.15 0 00-.023-.092.358.358 0 01-.03-.139v-.075a.566.566 0 00-.005-.081c.008-.004.01-.008.006-.012-.004-.003-.002-.007.006-.011a.694.694 0 01.086-.006h.082c.027 0 .053.002.08.006a.67.67 0 01.087.006zm1.291-1.794c.004.004.006.015.006.035v.029c-.008.007-.01.015-.006.023.004.004.006.007.006.011a.11.11 0 00-.006.035.109.109 0 01.006.035.015.015 0 01-.011.005.299.299 0 01-.006-.057.148.148 0 000-.058.065.065 0 00-.006-.03c0-.01.004-.022.012-.034l.005.006zm-.023.365c.004.019-.002.027-.017.023-.016-.004-.027-.002-.035.005 0-.003.004-.017.012-.04.011-.008.025-.004.04.012zm4.07 1.14l.01-.035c0-.015-.005-.025-.017-.029-.007-.003-.011-.023-.011-.058-.016.004-.025-.001-.03-.017a.04.04 0 00-.034-.035.248.248 0 00-.035.024c-.003 0-.005.002-.005.005v.018c.004.004.004.013 0 .029a.086.086 0 00-.018.023c-.004.004-.011.004-.023 0-.008-.031-.01-.05-.006-.058.008-.008.008-.027 0-.058-.007-.027-.013-.04-.017-.04 0-.004-.002-.002-.006.005 0 .008-.004.016-.011.024-.008.007-.024.007-.047 0-.015-.008-.027-.008-.034 0a.072.072 0 00-.012.028.174.174 0 01-.006.041.072.072 0 01-.011.04.4.4 0 00-.012.047l-.012.058-.011.052c-.004.011-.01.015-.017.011a.094.094 0 01-.024-.052v-.07a.455.455 0 00-.005-.075.093.093 0 00-.018-.057c-.035.011-.05.036-.046.075.008.035.01.066.006.093a.243.243 0 00-.012.167.289.289 0 010 .162.173.173 0 00-.006.082c.008.034 0 .05-.023.046-.02 0-.03-.023-.035-.07v-.162l.012-.202a1.494 1.494 0 000-.186c-.023-.027-.035-.071-.035-.133 0-.038.002-.08.006-.127a.955.955 0 00.012-.145c.003-.046.005-.089.005-.127a.266.266 0 00-.017-.104c.058 0 .11.002.156.005.05.004.103.002.157-.005.023.003.04.005.052.005h.052c.004-.003.011-.005.023-.005h.075c.008-.074.01-.136.006-.186 0-.054-.002-.104-.006-.15l-.011-.15c0-.055.004-.116.011-.186a1.147 1.147 0 00-.011-.052.08.08 0 01.011-.058c.008-.02.004-.039-.011-.058-.012-.02-.004-.036.023-.052a.269.269 0 00.011-.11.425.425 0 01.006-.122.11.11 0 01-.011-.098.125.125 0 00-.006-.098.192.192 0 01-.006-.105.154.154 0 00-.006-.11.073.073 0 000-.04v-.04c0-.035.012-.053.035-.053a3.14 3.14 0 01.33.006c.112.004.224.002.336-.006l.011.012c.016.123.016.245 0 .364a1.356 1.356 0 000 .354c-.007.444-.01.891-.005 1.343.007.448.007.886 0 1.314 0 .058.002.116.005.174a.613.613 0 010 .168.184.184 0 00.012.11c.02.038.011.073-.023.104a.306.306 0 00-.11-.03.32.32 0 00-.122.013.694.694 0 01-.127 0 .356.356 0 00-.128.011l-.046.023a.052.052 0 00-.035.03.1.1 0 00-.005.057c.003.023-.008.037-.035.04-.012-.011-.012-.026 0-.046a.05.05 0 000-.046l-.023-.035a.123.123 0 01-.058-.07.377.377 0 01-.012-.092l.012-.092a.29.29 0 00.006-.099c-.012-.066-.016-.133-.012-.203.008-.073.014-.142.017-.208a.223.223 0 00-.011-.098.158.158 0 01.011-.105.378.378 0 01-.011-.185.256.256 0 00-.023-.185c-.012-.016-.014-.03-.006-.04l.023-.035.029-.03c.008-.01.006-.024-.006-.04zm-1.535-1.916c0 .104.002.237.006.4.004.157.006.31.006.457v.249a.838.838 0 00.127-.006.582.582 0 01.093-.006h.04c.02 0 .039.002.058.006a.206.206 0 01.127-.006.356.356 0 00.128.012c.008.003.01.01.006.017 0 .004.003.008.011.012.008.054.01.102.006.144a13.502 13.502 0 00-.023.249c0 .043.004.09.011.145.008.023.008.04 0 .052a.227.227 0 01-.029.035.157.157 0 00-.029.04c-.003.012 0 .03.012.052a.153.153 0 00-.006.047c0 .02-.008.03-.023.035a.097.097 0 01-.011-.082c.011-.034 0-.058-.035-.069-.05.004-.105.004-.162 0a.298.298 0 00-.157.017h-.063a.065.065 0 01-.018-.011.066.066 0 00-.017-.012c-.008-.008-.027-.013-.058-.017-.004.004-.006.02-.006.046a.655.655 0 01.006.093 7.35 7.35 0 00.017.145c.004.111.002.221-.005.33-.004.108 0 .218.011.33a.955.955 0 00-.011.3c.015.113.017.213.005.302a.092.092 0 000 .046c.004.011-.004.027-.023.046a.106.106 0 00-.07.052.396.396 0 01-.04.081.094.094 0 01-.006-.057c.008-.02-.002-.031-.028-.035a.295.295 0 01-.105-.018 2.678 2.678 0 00-.087-.023.32.32 0 00-.086-.023.304.304 0 00-.105-.006c-.019-.015-.042-.019-.07-.011-.026.007-.045 0-.057-.023 0-.058-.002-.13-.006-.215 0-.085.004-.154.012-.208a.812.812 0 01-.012-.133.418.418 0 00-.006-.122.33.33 0 00.006-.139.585.585 0 01.006-.145c.008-.212.01-.426.006-.642v-.649a.149.149 0 00.006-.046.079.079 0 00-.006-.052 2.25 2.25 0 00-.006-.162 2.31 2.31 0 01-.006-.162.227.227 0 01-.006-.087l.012-.081c0-.127.002-.255.006-.382a2.51 2.51 0 00-.006-.382c-.012-.008-.015-.018-.012-.03a.095.095 0 00.006-.028.137.137 0 01-.006-.087.377.377 0 00.012-.093.105.105 0 00-.017-.052c.019-.02.036-.023.052-.011.02.011.04.01.063-.006.085.02.182.025.29.017.108-.011.204-.011.29 0a.23.23 0 01-.018.081.103.103 0 00-.006.076c.004.065.004.133 0 .202 0 .07.002.137.006.203zm3.594-.544c.042 0 .083.002.121.005a.62.62 0 00.122-.011c.02.008.029.015.029.023 0 .015.006.025.017.029 0 .03-.006.054-.017.07 0 .053.004.105.011.156.012.05.014.102.006.156a.192.192 0 00-.035.145c.012.05.016.102.012.156a1.39 1.39 0 00-.006.127c.004.043.006.085.006.128 0 .05.002.098.006.145a.314.314 0 01-.012.144.225.225 0 00-.006.087.324.324 0 010 .087.353.353 0 000 .127c.008.047.01.091.006.133-.008.097-.008.19 0 .278.008.09.008.178 0 .267.004 0 .006.01.006.029a.117.117 0 010 .052c-.004.02 0 .035.012.046.003.089 0 .178-.012.266a1.538 1.538 0 000 .267.425.425 0 01-.006.121.31.31 0 00.012.116c.004.108 0 .21-.012.307a.94.94 0 00.023.29.25.25 0 000 .075.416.416 0 01.018.075.238.238 0 00-.012.075c0 .054-.002.112-.006.174-.004.062-.017.093-.04.093-.008 0-.014-.016-.018-.047 0-.03-.003-.07-.011-.116a.21.21 0 01.011-.052c.008-.019.006-.035-.005-.046a.093.093 0 00-.04-.012.1.1 0 01-.041.006.507.507 0 00-.11-.011 1.151 1.151 0 01-.116.005c-.008.008-.016.012-.023.012-.016 0-.025-.002-.03-.006a.29.29 0 00-.15-.017.364.364 0 01-.145.006c-.027-.027-.034-.05-.023-.07a.143.143 0 00.023-.08c-.003-.078 0-.16.012-.244a.893.893 0 000-.249.073.073 0 010-.04.071.071 0 000-.041v-1.714c0-.278-.004-.417-.012-.417v-.005a13.48 13.48 0 000-.562c0-.19.002-.37.006-.544.054.004.108.004.162 0a.83.83 0 01.168-.006.096.096 0 01.047 0l.052.012zm1.93.133l-.012.4v.393c.004.162.004.313 0 .452a6.01 6.01 0 00.006.451c.004 0 .006.008.006.023-.012.02-.016.045-.012.075a.33.33 0 01.012.081c.008.128.01.248.006.36-.004.111-.006.233-.006.364 0 .197-.004.392-.012.585a7.4 7.4 0 000 .596c.008.004.01.01.006.018l-.012.011c-.03.012-.061.016-.092.012h-.283a.252.252 0 00-.093-.006.225.225 0 01-.087-.006h-.07a.057.057 0 01-.052-.029.124.124 0 00.006-.098.192.192 0 01.006-.104.427.427 0 010-.099.464.464 0 000-.104c0-.255-.002-.51-.006-.764 0-.259.004-.516.011-.77a1.46 1.46 0 01-.017-.128v-.127a3.77 3.77 0 01-.006-.55c.012-.181.016-.37.012-.567 0-.1-.002-.201-.006-.301v-.307l.562-.018c.019-.015.038-.017.058-.005.019.007.026.002.023-.018.023.004.036.014.04.03a.219.219 0 010 .103c0 .02.004.035.012.047zm1.372 2.16c.004.003-.008.013-.035.028a8.562 8.562 0 00-.092.04l-.093.035a.535.535 0 01-.22.04l-.087.001a.58.58 0 01-.081-.006.652.652 0 00-.168.023.215.215 0 01-.168-.023.07.07 0 01-.035-.04.3.3 0 01.006-.058.512.512 0 00.018-.064.123.123 0 00.005-.064 1.086 1.086 0 01-.017-.098 7.242 7.242 0 01-.012-.099l.018-.11a.261.261 0 00.011-.052c0-.015-.002-.02-.005-.017-.004 0-.012-.013-.024-.04-.003-.02.008-.03.035-.03.016 0 .03.002.04.006a.182.182 0 00.03.006.26.26 0 00.162.017.63.63 0 00.121-.034.641.641 0 01.18-.03.866.866 0 01.087-.022l.092-.03c.07 0 .118-.032.145-.098l.075-.185a.272.272 0 01.012-.133.144.144 0 00-.006-.133.17.17 0 01-.017-.116c.007-.046-.004-.08-.035-.099a.177.177 0 00-.064-.057 1.084 1.084 0 01-.07-.047c-.007-.027-.017-.044-.028-.052a.082.082 0 00-.046-.011.142.142 0 00-.053.011.19.19 0 01-.046.006c-.023 0-.037-.02-.04-.058a.346.346 0 01-.053.017h-.023a.179.179 0 00-.04-.011c-.02-.004-.03-.004-.03 0h-.022c-.008 0-.012.013-.012.04a.656.656 0 01.006.093.274.274 0 01-.006.099c-.004.026-.017.042-.04.046-.008 0-.014-.012-.018-.035a.715.715 0 00-.005-.087.548.548 0 00-.006-.087c-.004-.027-.008-.04-.012-.04-.015-.008-.023-.016-.023-.023 0-.008-.021-.012-.064-.012a.194.194 0 00-.046.006.177.177 0 00-.07.023c-.034.02-.052.025-.052.017 0-.011-.002-.017-.005-.017-.012 0-.03-.012-.053-.035-.007-.007-.011-.023-.011-.046 0-.03.002-.066.006-.104a1.63 1.63 0 00.005-.093v-.237a.247.247 0 00-.005-.058v-.081c0-.008.002-.02.005-.035.008-.015.026-.021.053-.017l.063.005.087-.005.243.005.29.012.034.017a13.933 13.933 0 01.11.047.493.493 0 01.255.116c.054.05.116.114.186.19a.623.623 0 00.04.07l.046.058c.008.023.02.046.035.07l.058.069a.455.455 0 01.058.07c.02.023.03.046.035.069a.155.155 0 01.017.07c.004.019.01.04.017.063a.17.17 0 00.006.116.23.23 0 01.018.116c-.016.027-.018.063-.006.11a.16.16 0 010 .104l-.012.058v.058c0 .019-.006.027-.017.023-.008-.008-.016-.006-.023.006l-.035.057a.154.154 0 00-.023.076c0 .03.002.058.006.08.007.024-.008.05-.047.076-.02.015-.023.029-.011.04.011.008.003.016-.024.024a.034.034 0 00-.017.029c0 .023-.012.04-.035.052a.176.176 0 00-.058.04.148.148 0 01-.034.035c-.012.008-.014.023-.006.046a.09.09 0 01-.012.035c-.004.016-.01.02-.017.012-.012-.004-.016-.012-.012-.023.008-.016.008-.03 0-.041 0-.015-.007-.006-.023.029-.015.03-.02.054-.011.07l-.105.04-.029.011a.198.198 0 00-.052.024.661.661 0 00-.052.023c-.015.008-.021.013-.017.017zm-.643 1.481a.352.352 0 01-.005.052c0 .02.003.037.011.052a.926.926 0 00-.006.232.663.663 0 01-.005.232c-.02-.008-.03-.022-.03-.04a.19.19 0 00-.011-.059.308.308 0 00.006-.133 1.735 1.735 0 00-.018-.133l-.011-.127c0-.047.01-.091.029-.134.015.004.025.012.029.024l.011.034z" fill="#fff"/></svg>