<svg width="228" height="228" fill="none" xmlns="http://www.w3.org/2000/svg"><path d="M114.41 227.906c-30.304 0-58.836-11.793-80.246-33.25C12.707 173.246.91 144.711.91 114.41c0-30.304 11.797-58.836 33.254-80.246C55.574 12.707 84.106.91 114.41.91c30.301 0 58.836 11.797 80.246 33.254 21.457 21.457 33.25 49.942 33.25 80.246 0 30.301-11.793 58.836-33.25 80.246-21.41 21.457-49.945 33.25-80.246 33.25zm0-220.191c-28.488 0-55.297 11.113-75.437 31.258C18.832 59.113 7.715 85.922 7.715 114.41s11.117 55.297 31.258 75.438c20.14 20.14 46.949 31.254 75.437 31.254s55.297-11.114 75.438-31.254c20.14-20.141 31.254-46.95 31.254-75.438s-11.114-55.297-31.254-75.437c-20.141-20.145-46.95-31.258-75.438-31.258z" fill="#fff"/><path d="M123.496 110.723c-.504 0-.992.078-1.469.234a4.828 4.828 0 00-2.398 1.699c-.301.403-.539.84-.703 1.313h-3.844a4.8 4.8 0 00-.703-1.317 4.842 4.842 0 00-8.438 1.317h-3.843a4.827 4.827 0 00-.703-1.317 4.849 4.849 0 00-6.672-1.039 4.8 4.8 0 00-1.766 2.356H89.41v3.246h3.547c.164.473.399.91.7 1.312.3.403.656.75 1.066 1.039a4.792 4.792 0 002.805.895 4.786 4.786 0 002.8-.895c.41-.289.766-.636 1.067-1.039.304-.402.535-.839.703-1.312h3.843c.164.473.399.91.7 1.312.3.403.656.75 1.066 1.039a4.796 4.796 0 002.805.895 4.778 4.778 0 002.8-.895 4.697 4.697 0 001.067-1.039c.305-.402.535-.839.703-1.312h3.844c.164.473.398.91.699 1.312.301.403.656.75 1.066 1.039a4.799 4.799 0 002.805.895 4.79 4.79 0 002.801-.895c.41-.289.765-.636 1.066-1.039.305-.402.535-.839.703-1.312h5.168v-3.246h-5.168a4.848 4.848 0 00-.707-1.313 4.782 4.782 0 00-1.066-1.035 4.805 4.805 0 00-1.328-.664 4.707 4.707 0 00-1.469-.234zm-25.969 6.492c-.215 0-.425-.043-.62-.125a1.592 1.592 0 01-.528-.352 1.6 1.6 0 01-.352-.527 1.617 1.617 0 010-1.242c.082-.199.2-.371.352-.524a1.601 1.601 0 011.148-.476c.215 0 .422.039.621.121a1.663 1.663 0 01.875.879c.086.199.125.406.125.621 0 .215-.039.422-.125.621a1.6 1.6 0 01-.351.527 1.618 1.618 0 01-1.145.477zm12.985 0c-.215 0-.422-.043-.621-.125a1.6 1.6 0 01-.879-.879 1.617 1.617 0 011.5-2.242c.215 0 .422.039.621.121.199.086.371.203.523.355.153.153.27.325.356.524.082.199.121.406.121.621 0 .215-.039.422-.121.621a1.663 1.663 0 01-.879.879 1.617 1.617 0 01-.621.125zm12.984 0c-.215 0-.422-.043-.621-.125a1.588 1.588 0 01-.527-.352 1.588 1.588 0 01-.352-.527 1.617 1.617 0 010-1.242c.082-.199.199-.371.352-.524.152-.152.328-.269.527-.355.199-.082.406-.121.621-.121.215 0 .422.039.621.121a1.675 1.675 0 01.879.879c.082.199.121.406.121.621 0 .215-.039.422-.121.621a1.677 1.677 0 01-.355.527 1.617 1.617 0 01-1.145.477zm-22.723 4.867h3.247v3.246h-3.247v-3.246zm12.985 0h3.246v3.246h-3.246v-3.246z" fill="#fff"/><path d="M154.332 71.77V58.784a1.614 1.614 0 00-1-1.5 1.617 1.617 0 00-.621-.125 4.617 4.617 0 01-2.523-.64 8.49 8.49 0 00-1.93-.735 8.617 8.617 0 00-2.047-.25 8.562 8.562 0 00-3.977.984 4.588 4.588 0 01-2.507.641 1.625 1.625 0 00-1.5 1.004 1.62 1.62 0 00-.125.621v8.113c0 .215.043.422.125.621a1.605 1.605 0 00.878.88c.2.082.407.124.622.124 1.41.024 2.73-.3 3.964-.984a5.225 5.225 0 012.524-.64 5.23 5.23 0 012.523.64 8.25 8.25 0 002.348.828v3.402H136.48v3.247h3.778a18.972 18.972 0 011.09 6.492 18.147 18.147 0 01-1.461 7.39 1.653 1.653 0 00-.137.387 1.64 1.64 0 00-.031.414c.008.137.031.274.07.407a1.642 1.642 0 00.434.695 1.67 1.67 0 00.715.394c.136.036.273.051.41.051h9.738v8.438l-9.723 1.312a1.586 1.586 0 00-.843.379 1.61 1.61 0 00-.5.781l-.59 2.074h-22.426v-3.246h11.359a1.58 1.58 0 001-.343c.293-.231.485-.524.575-.887a67.663 67.663 0 001.671-15 52.597 52.597 0 00-1.144-11.363h2.769v-3.247h-16.23v-3.246h9.738a1.55 1.55 0 001.145-.476c.351-.348 2.101-2.363 2.101-7.637a16.403 16.403 0 00-.648-4.87h2.269v-3.247h-14.605V37.684c0-.215-.043-.422-.125-.621a1.592 1.592 0 00-.352-.528 1.598 1.598 0 00-1.148-.472 4.627 4.627 0 01-2.524-.645 8.419 8.419 0 00-1.925-.73 8.425 8.425 0 00-2.051-.25c-.691 0-1.375.081-2.047.25a8.546 8.546 0 00-1.93.73 4.626 4.626 0 01-2.507.645 4.627 4.627 0 01-2.516-.641 7.775 7.775 0 00-3.977-.984 1.61 1.61 0 00-.62.124 1.602 1.602 0 00-1 1.5v8.114a1.615 1.615 0 001.62 1.625 4.623 4.623 0 012.516.636 8.34 8.34 0 001.926.735 8.41 8.41 0 002.047.25 8.39 8.39 0 002.043-.25 8.274 8.274 0 001.925-.734 5.234 5.234 0 012.524-.641 5.23 5.23 0 012.523.64 8.494 8.494 0 002.352.825v3.406h-14.61v3.246h3.989c.672 1.555.965 3.18.883 4.871a8.794 8.794 0 01-1.153 5.344c-.23.23-.379.508-.441.832a1.57 1.57 0 00.09.937c.129.305.328.547.601.727.274.184.574.273.903.273h9.738v3.246h-16.23v3.247h2.007a48.342 48.342 0 011.238 11.363 66.157 66.157 0 01-1.574 14.215 1.591 1.591 0 00-.015.73 1.642 1.642 0 00.875 1.12c.226.111.464.165.714.165h12.985v3.246H86.164V92.867h8.117c.305 0 .59-.078.852-.242.261-.16.46-.379.598-.652a21.076 21.076 0 001.796-8.844 21.108 21.108 0 00-1.785-8.84 1.583 1.583 0 00-.605-.656 1.576 1.576 0 00-.856-.242h-8.117v-4.868h1.625c.371 0 .703-.117.996-.343.293-.23.484-.524.578-.887l1.621-6.492a1.58 1.58 0 00.016-.73 1.655 1.655 0 00-.309-.66 1.592 1.592 0 00-.57-.462 1.595 1.595 0 00-.71-.164h-3.247V45.801c0-.215-.039-.422-.125-.621a1.625 1.625 0 00-1.496-1.004 4.61 4.61 0 01-2.523-.64 7.783 7.783 0 00-3.97-.981 7.734 7.734 0 00-3.976.98 4.626 4.626 0 01-2.515.64c-.22 0-.426.044-.621.126a1.6 1.6 0 00-.88.879 1.633 1.633 0 00-.124.62v8.114c0 .215.043.422.125.621a1.602 1.602 0 00.879.879c.195.082.402.125.62.125a7.785 7.785 0 003.965-.977 4.655 4.655 0 012.528-.648 4.63 4.63 0 012.52.64 8.393 8.393 0 002.35.829v3.402h-3.25c-.25 0-.487.055-.71.164a1.594 1.594 0 00-.875 1.121 1.54 1.54 0 00.012.73l1.625 6.493c.09.363.28.656.574.887.293.226.625.343 1 .343h1.621v4.868H73.18a1.643 1.643 0 00-1.383.77c-.07.116-.129.241-.168.374-.043.133-.067.27-.07.406-.008.137.004.274.03.41.032.137.075.266.138.387a17.808 17.808 0 011.453 7.39 18.19 18.19 0 01-1.453 7.391 1.592 1.592 0 00-.168.8c.004.138.027.275.07.404a1.59 1.59 0 00.43.695 1.626 1.626 0 001.12.449h9.739v8.117H73.18c-.371 0-.703.114-1 .344a1.572 1.572 0 00-.575.883l-1.624 6.492a1.703 1.703 0 00-.047.395c0 .726.12 1.429.355 2.113a6.568 6.568 0 001.023 1.887 6.516 6.516 0 003.547 2.3 18.04 18.04 0 001.746 6.379 17.82 17.82 0 001.727 2.836 17.766 17.766 0 002.223 2.469 17.847 17.847 0 0012.101 4.738h40.578c.754-.039 1.5-.14 2.243-.304a13.528 13.528 0 002.16-.661 13.52 13.52 0 002.031-1 13.786 13.786 0 001.84-1.312 13.425 13.425 0 001.609-1.59 14.057 14.057 0 002.352-3.848c.285-.703.511-1.421.679-2.156l2.957-7.394 17.262-7.848c.289-.133.52-.332.692-.598.171-.269.257-.562.257-.879v-4.87c0-.235-.046-.458-.144-.669a1.593 1.593 0 00-.41-.55 1.558 1.558 0 00-.598-.332 1.563 1.563 0 00-.684-.055l-11.148 1.496v-8.004h8.117a1.6 1.6 0 00.86-.242 1.6 1.6 0 00.601-.656 21.1 21.1 0 001.785-8.84 22.801 22.801 0 00-.925-6.492h2.546v-3.247h-12.984zm-4.144-7.133a8.311 8.311 0 00-1.93-.735 8.421 8.421 0 00-2.047-.25c-.691 0-1.375.082-2.047.25a8.38 8.38 0 00-1.93.735 7.57 7.57 0 01-.89.398v-4.77a8.234 8.234 0 002.34-.84 5.187 5.187 0 012.523-.64c.895 0 1.738.211 2.523.64a8.114 8.114 0 002.352.845v4.77a7.956 7.956 0 01-.894-.403zm-37.333-21.102a8.43 8.43 0 00-1.925-.734 8.62 8.62 0 00-2.051-.25 8.557 8.557 0 00-3.977.984 5.18 5.18 0 01-2.515.64 5.202 5.202 0 01-2.516-.64 8.099 8.099 0 00-2.344-.844v-4.77c.305.114.602.25.891.403.613.32 1.254.567 1.926.735a8.607 8.607 0 004.09 0 8.638 8.638 0 001.925-.735 5.19 5.19 0 012.524-.64c.894 0 1.738.21 2.523.64a8.115 8.115 0 002.352.844v4.77a7.723 7.723 0 01-.903-.403zm-6.23 20.117c.457-1.59.668-3.215.641-4.867a16.561 16.561 0 00-.641-4.87h19.238a10.91 10.91 0 01.879 4.87 10.903 10.903 0 01-.879 4.867h-19.238zm-3.848 34.086a70.274 70.274 0 001.243-12.984 52.918 52.918 0 00-1.149-11.363h24.258a48.381 48.381 0 011.234 11.363 67.33 67.33 0 01-1.297 12.984h-24.289zM82.019 51.652a7.747 7.747 0 00-3.968-.984 7.775 7.775 0 00-3.977.984 7.545 7.545 0 01-.89.399v-4.77a8.087 8.087 0 002.34-.832 4.588 4.588 0 012.527-.648 4.6 4.6 0 012.515.648 8.243 8.243 0 002.352.836v4.77a8.065 8.065 0 01-.899-.403zm.543 13.625l-.812-3.246h5.582l-.813 3.246h-3.957zm-7.058 24.344c.617-2.117.926-4.281.922-6.492a22.977 22.977 0 00-.922-6.492h17.691a19.328 19.328 0 011.086 6.492 19.54 19.54 0 01-1.09 6.492H75.504zm88.566 11.598v1.965l-16.73 7.605-7.938 1.59.637 3.18 5.176-1.036s-2.285 5.821-2.317 5.938h-9.664v3.246h8.204a10.748 10.748 0 01-1.547 1.93 10.35 10.35 0 01-1.961 1.504 10.335 10.335 0 01-4.696 1.433H92.656c-1.023 0-2.039-.105-3.043-.32a14.576 14.576 0 01-7.813-4.547h5.99v-3.246h-8.2a14.38 14.38 0 01-1.446-4.871h4.774v-3.246h-6.492a3.165 3.165 0 01-1.203-.227 3.185 3.185 0 01-1.032-.66 3.214 3.214 0 01-.714-.992 3.188 3.188 0 01-.297-1.188l1.27-5.047h8.468v1.622a1.622 1.622 0 00.476 1.148c.153.152.329.27.528.352.195.082.402.125.621.125h56.109c.364 0 .688-.11.977-.329a1.6 1.6 0 00.586-.847l.637-2.227 21.218-2.855zM161.359 88h-17.691c.613-2.121.922-4.285.922-6.492s-.309-4.371-.922-6.492h17.691a19.717 19.717 0 011.086 6.492c0 2.223-.359 4.386-1.086 6.492z" fill="#fff"/><path d="M112.133 57.16h3.246v3.246h-3.246V57.16zm6.492 0h3.246v3.246h-3.246V57.16zm4.871 25.969c0-3.578-3.641-6.492-8.117-6.492-4.473 0-8.113 2.914-8.113 6.492a7.242 7.242 0 00.832 3.121c.511.98 1.207 1.8 2.09 2.465l-1.215 3.64a1.61 1.61 0 00-.063.758c.039.258.133.493.285.703a1.622 1.622 0 001.317.676h9.738c.258 0 .508-.058.738-.18a1.633 1.633 0 00.867-1.2c.04-.257.016-.51-.066-.757l-1.215-3.64a7.218 7.218 0 002.086-2.465 7.246 7.246 0 00.836-3.121zm-5.519 3.383a1.53 1.53 0 00-.497.336c-.14.14-.253.304-.339.492a1.655 1.655 0 00-.137.578c-.012.203.016.402.082.594l.91 2.734h-5.234l.91-2.734c.066-.192.094-.39.082-.594a1.57 1.57 0 00-.137-.578 1.534 1.534 0 00-.34-.492 1.515 1.515 0 00-.496-.336 4.145 4.145 0 01-2.269-3.383c0-1.758 2.23-3.246 4.867-3.246 2.641 0 4.871 1.488 4.871 3.246a4.093 4.093 0 01-.695 1.988 4.124 4.124 0 01-1.578 1.395zm-44.792 58.015a.523.523 0 01.066.561 1.199 1.199 0 00-.066.561c0 .462-.01.957-.033 1.485 0 .506.022.99.066 1.452-.066.088-.077.209-.033.363-.022.11-.033.275-.033.495 0 .154.022.297.066.429a4.858 4.858 0 00-.033.99c.022.352.022.704 0 1.056v1.188a14.419 14.419 0 00-.033 1.683c.022.528.011 1.067-.033 1.617.044.022.055.044.033.066-.022.022-.01.033.033.033 0 1.122-.033 2.222-.099 3.3a6.02 6.02 0 000 .891 2.8 2.8 0 010 .858c.044.066.044.143 0 .231a.218.218 0 00.033.198l-.066 1.221c-.022.374-.01.759.033 1.155v.33a.705.705 0 01-.033.363c.022.352.055.682.1.99.043.308.01.627-.1.957l-.396.231a1.786 1.786 0 00-.627-.099c-.22 0-.418.055-.594.165a.357.357 0 01-.264-.099.49.49 0 00-.23-.132 1.893 1.893 0 00-.793.033c-.22.088-.45.132-.693.132-.242-.066-.374-.209-.396-.429 0-.242-.022-.462-.066-.66.066-.176.088-.363.066-.561a.94.94 0 01.165-.561c.022-.242.033-.473.033-.693v-1.32l.066-.726a2.295 2.295 0 01-.099-1.023c.066-.352.077-.715.033-1.089a2.971 2.971 0 01-.033-.759 2.888 2.888 0 00-.033-.759 12.5 12.5 0 00.1-1.551v-2.904c-.11-.11-.122-.22-.034-.33.088-.11.088-.231 0-.363a9.597 9.597 0 000-1.947c-.066-.022-.077-.044-.033-.066.044-.022.044-.055 0-.099.066-.242.088-.528.066-.858a5.971 5.971 0 010-.891c.044-.242.055-.484.033-.726v-.726a.926.926 0 01-.033-.429.821.821 0 000-.462c.044-.396.055-.792.033-1.188a24.823 24.823 0 00-.099-1.221.218.218 0 00.033-.198c0-.088.044-.154.132-.198a16.35 16.35 0 001.815.033c.66-.044 1.276-.044 1.848 0h.132zm8.217 18.612v-.033c.55.066 1.001.088 1.353.066.374-.022.836-.033 1.386-.033.132.11.187.242.165.396a.712.712 0 00.066.429c.044.22.066.44.066.66.022.22-.022.429-.132.627a.813.813 0 01.033.396.57.57 0 00.033.33 1.505 1.505 0 000 .627c.044.22-.033.407-.23.561a.67.67 0 00-.628-.198 2.22 2.22 0 01-.66.033c-.44-.044-.792-.066-1.056-.066-.242-.022-.583-.011-1.023.033a.849.849 0 01-.528.099 2.39 2.39 0 00-.56 0 2.13 2.13 0 00-1.057-.132 8.506 8.506 0 01-1.056.066c-.022.154-.099.209-.23.165a1.985 1.985 0 00-.298-.033c-.11 0-.22.044-.33.132-.11.088-.22.066-.33-.066a.776.776 0 00-.495.033c-.154.066-.275-.011-.363-.231 0-.176.011-.341.033-.495a.87.87 0 00-.033-.528.713.713 0 000-.429 1.862 1.862 0 010-.495c0-.22-.01-.44-.033-.66 0-.22.022-.429.066-.627a.28.28 0 010-.264.35.35 0 000-.297.663.663 0 01.528-.099c.198.044.385.055.561.033.33-.066.671-.077 1.023-.033.374.044.748.044 1.122 0 .176.044.32.066.43.066.131-.022.285-.033.461-.033.286.022.561.033.825.033.264-.022.55-.033.858-.033h.033zm-3.366-18.645a.429.429 0 01.33 0 .515.515 0 00.363 0h5.247a.357.357 0 01.066.297c0 .088.011.176.033.264-.022.352 0 .715.066 1.089.088.374.077.726-.033 1.056a.57.57 0 00-.033.33c.022.11.033.22.033.33a.674.674 0 010 .297c-.022.088-.088.165-.198.231a1.045 1.045 0 00-.528-.132.99.99 0 00-.528.165c-.462-.176-.836-.253-1.122-.231-.286.022-.682.022-1.188 0a7.934 7.934 0 00-1.023 0c-.33 0-.66-.022-.99-.066-.33.022-.66.055-.99.099a3.25 3.25 0 01-.924 0 .47.47 0 01-.264.066 1.53 1.53 0 00-.297.033.586.586 0 00-.264.066c-.066.022-.11.099-.132.231 0 .044.011.099.033.165.022.066.011.121-.033.165-.088 0-.132-.044-.132-.132.022-.11.011-.187-.033-.231a.581.581 0 01-.099-.561.85.85 0 00.066-.561l.066-1.287c.022-.44.022-.88 0-1.32a.97.97 0 00-.033-.231c-.022-.088 0-.154.066-.198a7.34 7.34 0 001.221.033 7.82 7.82 0 011.254.033zm1.122 9.339c.418 0 .803.022 1.155.066.374.022.781.011 1.221-.033.132-.088.22-.055.264.099.044.132.1.22.165.264a.591.591 0 00.165.33.813.813 0 01.033.396c-.022.11-.055.231-.099.363a1.75 1.75 0 00-.099.363c-.022.11 0 .231.066.363 0 .506.033.99.1 1.452a2.157 2.157 0 00-.133.231.318.318 0 01-.132.165c-.132 0-.209.055-.23.165a.233.233 0 01-.199.198.586.586 0 01-.066-.264c.022-.088-.01-.165-.099-.231a.99.99 0 00-.528.165c-.176.088-.34.022-.495-.198-.088-.022-.165.011-.23.099-.067.088-.122.066-.166-.066a2.84 2.84 0 00-.528-.066 2.84 2.84 0 01-.528-.066c-.044.11-.088.132-.132.066-.022-.088-.066-.121-.132-.099a11.847 11.847 0 00-1.254 0c-.33 0-.748.011-1.254.033-.044.022-.077.088-.099.198v.693a.903.903 0 01.033.198c0 .066-.044.176-.132.33-.066.154-.132.209-.198.165-.11-.066-.154-.165-.132-.297a1.75 1.75 0 01.1-.363.528.528 0 000-.264 2.606 2.606 0 00-.1-.396 11.508 11.508 0 00-.066-.363.54.54 0 01.066-.297c-.044-.044-.066-.11-.066-.198 0-.132.011-.231.033-.297v-.198a.528.528 0 000-.264l.1-2.442c.505-.044.923-.044 1.253 0 .352.044.76.055 1.221.033h.561c.198-.022.385-.033.561-.033zm24.282 8.745c.11.22.209.396.297.528l.264.396.264.33c.11.11.242.264.396.462.044-.22.088-.517.132-.891.044-.374 0-.649-.132-.825-.066-.066-.121-.187-.165-.363a41.342 41.342 0 01-.066-.561 41.342 41.342 0 00-.066-.561 1.281 1.281 0 00-.099-.396c-.11-.22-.253-.473-.429-.759a25.031 25.031 0 01-.396-.825c0-.022-.011-.011-.033.033a.543.543 0 01-.033.165 1.28 1.28 0 01-.066.165v.066a1.066 1.066 0 01-.066-.396.875.875 0 00-.033-.429 1.577 1.577 0 00-.429-.594 2.161 2.161 0 01-.462-.561l-.363-.594a2.522 2.522 0 01-.363-.528 5.268 5.268 0 00-.33-.561 1.824 1.824 0 01-.165-.363 1.824 1.824 0 00-.165-.363 4.431 4.431 0 01-.033-.924 3.023 3.023 0 000-.891c.11-.572.143-1.177.099-1.815a16.35 16.35 0 01.033-1.815c-.066-.088-.077-.198-.033-.33.066-.132.055-.253-.033-.363a.61.61 0 000-.396 3.046 3.046 0 01-.033-.429.85.85 0 00.066-.561 2.73 2.73 0 01-.066-.594c.022-.022.033-.077.033-.165l-.033-.033c.022-.33.033-.638.033-.924a2.296 2.296 0 00-.099-.858c-.044-.11-.011-.198.099-.264.22-.044.407-.066.561-.066h.33l.33-.066c.22.022.429.022.627 0 .198-.044.396-.033.594.033a7.06 7.06 0 01.627-.033c.198-.022.418-.055.66-.099.11.022.154.077.132.165 0 .066.022.121.066.165a6.678 6.678 0 01-.033 1.485 6.47 6.47 0 00.033 1.452c-.022 0-.033.011-.033.033l.066.594c.022.176.011.374-.033.594.154.11.154.209 0 .297-.044.132-.011.253.099.363.11.11.099.231-.033.363.022.154.022.308 0 .462 0 .154.044.297.132.429-.088.154-.132.33-.132.528 0 .088-.011.176-.033.264 0 .066-.011.154-.033.264.022.11.022.231 0 .363 0 .132-.011.264-.033.396 0 .418.022.825.066 1.221.066.396.077.803.033 1.221.022.176.033.363.033.561.022.198.033.396.033.594v.594c.022.198.044.407.066.627a1.097 1.097 0 00-.066.528.672.672 0 01-.066.495c0 .132-.022.275-.066.429a.518.518 0 00.066.363c-.022.22-.011.44.033.66.044.198.044.385 0 .561.022.308.044.704.066 1.188.022.484.011.88-.033 1.188a1.76 1.76 0 00-.033.396 3.505 3.505 0 010 .957c-.022.154-.066.264-.132.33-.022.066-.033.198-.033.396.022.198.033.418.033.66v.627c0 .176-.022.308-.066.396-.022.044-.033.154-.033.33.022.176.033.352.033.528.022.176.022.33 0 .462 0 .154-.044.22-.132.198-.066-.022-.121-.132-.165-.33-.044-.198-.044-.363 0-.495.044-.11 0-.231-.132-.363-.132-.044-.253-.011-.363.099-.022.044-.022.198 0 .462.022.286.033.572.033.858.022.286.011.528-.033.726-.022.22-.099.286-.231.198-.066-.022-.099-.154-.099-.396 0-.286.011-.638.033-1.056.022-.396-.055-.682-.231-.858h-.231c-.066 0-.099.033-.099.099 0 .022.011.088.033.198a1.679 1.679 0 010 .66c-.022.11-.066.165-.132.165-.11 0-.187-.066-.231-.198a2.843 2.843 0 01-.033-.462v-.297a.903.903 0 00.033-.198c-.044.044-.132.066-.264.066a.566.566 0 01-.231-.033 1.328 1.328 0 00-.363-.033h-.363c-.154 0-.22-.011-.198-.033l-.033.033-1.55-2.079-.628-.858a2.126 2.126 0 00-.462-.693 6.297 6.297 0 00-.428-.627 5.825 5.825 0 01-.364-.627c-.154-.044-.242-.121-.264-.231a.393.393 0 00-.198-.264c.023-.066 0-.11-.066-.132l-.132-.132c-.044-.022-.077-.022-.099 0-.022.022-.044.011-.066-.033a.748.748 0 00-.198-.495 7.55 7.55 0 01-.363-.528 2.72 2.72 0 00-.462-.693 2.72 2.72 0 01-.462-.693 9.956 9.956 0 01-.725-.957 4.994 4.994 0 00-.76-.957 38.055 38.055 0 01-.758-1.254 8.243 8.243 0 00-.793-1.221c0-.11-.066-.198-.198-.264-.11-.066-.154-.154-.132-.264a11.202 11.202 0 01-.66-.858 5.95 5.95 0 00-.627-.891 2.299 2.299 0 00-.527-.495 1.322 1.322 0 01-.396-.561 7.194 7.194 0 01-.397-.627 16.32 16.32 0 00-.296-.693 7.2 7.2 0 01-.792-1.089 4.26 4.26 0 00-.76-1.023.812.812 0 01-.264-.363.665.665 0 00-.198-.363c-.066-.066-.099-.121-.099-.165l.067-.132c.043-.044.066-.088.066-.132.021-.066 0-.154-.067-.264-.066-.088-.087-.187-.066-.297l.067-.33c.043-.132.076-.253.099-.363a.414.414 0 00-.067-.33.535.535 0 01-.099-.33c0-.132.056-.22.166-.264l.428-.165c.044 0 .055.011.034.033-.022.022-.033.044-.033.066 0 .022.022.033.066.033.066 0 .198-.022.395-.066.308.066.638.055.99-.033.374-.088.704-.099.99-.033a.895.895 0 01.397.264c.11.088.198.187.263.297.066.11.143.22.231.33.088.11.198.209.33.297.11.088.22.165.33.231.11.066.121.154.034.264 0 .11.032.198.099.264.088.044.132.11.132.198a.7.7 0 01.33.429c.066.154.175.297.33.429.11.264.275.506.495.726.242.198.406.451.495.759.197.154.33.341.395.561.067.198.188.363.364.495.11.198.22.407.33.627.132.198.296.385.495.561 0 .088.033.165.099.231.088.044.132.11.132.198.242.198.418.418.528.66.11.242.242.484.396.726.11.066.165.154.165.264.022.088.099.154.23.198.154.308.341.594.561.858.243.242.419.517.529.825.088.11.175.231.264.363.11.11.197.22.263.33.154.308.342.594.562.858.241.242.417.517.527.825a.7.7 0 01.33.429c.044.154.165.286.363.396a.522.522 0 00.198.33c.132.088.22.187.264.297.154.088.242.187.264.297.044.11.132.209.264.297.044.066.088.143.132.231.066.066.088.132.066.198a.504.504 0 00.264.33.411.411 0 01.231.33c.242.352.473.704.693 1.056.22.33.484.649.792.957zM87.6 151.193c0 .22.089.396.265.528.198.11.297.275.297.495a.81.81 0 01.263.363.926.926 0 00.231.363c.088.11.154.231.198.363.067.132.144.253.231.363.11.066.177.154.199.264.021.088.087.165.197.231.023.11.078.198.166.264.11.066.164.154.164.264.11.198.231.396.363.594.154.198.253.418.297.66.088.22.22.396.397.528a.823.823 0 01.363.561c.11.132.143.33.099.594a4.04 4.04 0 00-.067.627v1.089c.022.11.044.231.066.363a3.263 3.263 0 00-.032.462v.462c0 .154-.011.308-.034.462 0 .132-.01.275-.032.429.066.11.066.231 0 .363a.355.355 0 00-.033.33 1.662 1.662 0 000 .66c.044.198.033.418-.033.66.087.352.12.726.098 1.122a9.755 9.755 0 01-.132 1.155c.067.176.088.352.067.528v.495a.698.698 0 01-.627-.033c-.177-.132-.397-.154-.66-.066-.044.11-.133.165-.264.165-.133-.022-.232.022-.297.132-.132-.176-.297-.253-.495-.231a5.683 5.683 0 01-.627.033 1.086 1.086 0 01-.33.066.357.357 0 00-.264.099 3.284 3.284 0 00-.1.495 3.231 3.231 0 01-.099.528c-.022.066-.066.066-.132 0-.043-.044-.066-.088-.066-.132a.367.367 0 01-.032-.165.543.543 0 00.032-.165 1.855 1.855 0 01-.066-.429.505.505 0 00-.165-.363c.132-.22.198-.473.198-.759a3.27 3.27 0 00.133-1.122 7.617 7.617 0 01.032-1.221c-.11-.33-.142-.66-.099-.99.067-.33.067-.682 0-1.056.044-1.21.034-2.365-.032-3.465a45.469 45.469 0 010-3.465 1.328 1.328 0 01-.034-.363 4.593 4.593 0 01-.032-.957c.022-.33.022-.66 0-.99v-.231a.97.97 0 00.032-.231 2.39 2.39 0 000-.561 41.342 41.342 0 01-.066-.561c.022-.044.044-.055.066-.033.045 0 .078.011.1.033-.067.11-.044.187.066.231a.48.48 0 01.23.165zm13.827 15.84h.033c.044 0 .077-.011.099-.033h-.099l-.033.033zm21.388-22.308c-.11.484-.165.935-.165 1.353v.726c0 .22.011.451.033.693.11.396.143.814.099 1.254a.317.317 0 01-.231.099 1.81 1.81 0 01-.231-.099.733.733 0 00-.231-.099c-.088-.022-.176 0-.264.066a.637.637 0 01-.33-.099.483.483 0 00-.297-.099c-.11.022-.165.11-.165.264.022.132-.022.187-.132.165a.666.666 0 01-.297-.264.513.513 0 00-.264-.264 8.964 8.964 0 00-1.32-.033c-.396.022-.858.033-1.386.033-.11.066-.165.176-.165.33.022.154-.033.209-.165.165l-.198-.132a.498.498 0 00-.198-.165.418.418 0 00-.099.198c0 .088-.022.121-.066.099-.088-.044-.121-.143-.099-.297.022-.154-.044-.242-.198-.264l-.198.132c-.044.022-.088.088-.132.198.022.088.011.209-.033.363h-.066a.883.883 0 01-.066-.33c.022-.132-.033-.22-.165-.264-.264-.066-.473-.088-.627-.066l-.198.198a.397.397 0 00-.264-.264l-3.3.033a.53.53 0 00-.396.429c-.022.22-.033.418-.033.594h-.033c0-.396-.099-.693-.297-.891-.044-.022-.099 0-.165.066a.374.374 0 01-.132.132c-.022.11-.022.253 0 .429.022.154-.022.198-.132.132-.11-.044-.143-.132-.099-.264.066-.132.044-.253-.066-.363a.165.165 0 00-.198 0l-.132.132c-.044.154-.033.352.033.594.066.22.033.308-.099.264-.088-.044-.132-.121-.132-.231v-.33c0-.11-.011-.22-.033-.33-.022-.11-.099-.187-.231-.231a.949.949 0 00-.726-.165c-.242.022-.484 0-.726-.066a.484.484 0 01.033-.396c.066-.11.066-.242 0-.396 0-.462-.011-.935-.033-1.419a8.77 8.77 0 01.066-1.518l.132-.099c.44.088.891.121 1.353.099a4.626 4.626 0 011.353.066c.462-.11.946-.143 1.452-.099a9.128 9.128 0 001.551 0 .41.41 0 01.297-.132c.176 0 .352.033.528.099a.576.576 0 00.495-.099c1.32-.022 2.585.011 3.795.099a54.82 54.82 0 003.861.066l.132.198zm-5.478 6.006a7.529 7.529 0 00-.132 1.749c.022.594.011 1.188-.033 1.782-.044.748-.033 1.507.033 2.277.088.77.11 1.54.066 2.31.044.242.044.473 0 .693-.022.22-.044.451-.066.693.022.176.033.33.033.462v.297c0 .242-.011.44-.033.594 0 .132.022.44.066.924.022.242.022.473 0 .693 0 .198.055.385.165.561l-.033.396a.41.41 0 00-.132.297c0 .176.022.33.066.462.044.132.033.286-.033.462 0 .088-.011.187-.033.297 0 .088-.011.187-.033.297h-.033c-.132.352-.143.682-.033.99.11.286.143.616.099.99.044.198.011.407-.099.627a.698.698 0 00.033.627c.044.066.055.154.033.264 0 .11-.055.187-.165.231-.11.044-.165.022-.165-.066s-.011-.143-.033-.165l-.297-1.947a.758.758 0 00-.264-.264c-.088-.066-.187-.066-.297 0a.597.597 0 01-.429.099 11.508 11.508 0 01-.363-.066.222.222 0 00-.198.099c-.022.066 0 .242.066.528-.088-.066-.132-.176-.132-.33.022-.154-.055-.253-.231-.297-.132.066-.231.055-.297-.033a.422.422 0 00-.264-.165 1.073 1.073 0 00-.528 0 .484.484 0 01-.396-.033c0-.11.011-.22.033-.33a.515.515 0 000-.363c0-.836.011-1.54.033-2.112a42.981 42.981 0 000-3.333c0-.594-.033-1.298-.099-2.112.11-.088.121-.165.033-.231-.066-.066-.066-.121 0-.165a7.149 7.149 0 01-.033-1.188c.044-.418.055-.836.033-1.254h.033a.42.42 0 000-.396h-.033c.11-.044.132-.088.066-.132-.066-.066-.055-.121.033-.165.044-.264.033-.462-.033-.594-.066-.154-.044-.341.066-.561a.633.633 0 01-.099-.528c.066-.198.033-.363-.099-.495a7.014 7.014 0 00-.033-1.188c-.044-.396 0-.792.132-1.188.154-.022.308-.033.462-.033h.528a5.38 5.38 0 001.056-.099c.264.088.583.132.957.132a8.423 8.423 0 011.056 0zm2.937 12.771c.044.11.011.176-.099.198-.088.022-.132.088-.132.198h-.825c.22-.11.407-.187.561-.231.154-.066.319-.121.495-.165zm.363-11.022l.066-.33c.022-.132.055-.22.099-.264.022.22.033.451.033.693.022.22.033.451.033.693v.726c0 .22-.011.44-.033.66 0 .44-.011.891-.033 1.353a7.82 7.82 0 00.033 1.254 2.61 2.61 0 00-.066.627c.022.242-.011.374-.099.396a19.677 19.677 0 01-.066-2.31 21.99 21.99 0 000-2.409c.044-.154.055-.33.033-.528v-.561zm9.525-7.953a.523.523 0 01.066.561 1.199 1.199 0 00-.066.561c0 .462-.011.957-.033 1.485 0 .506.022.99.066 1.452-.066.088-.077.209-.033.363-.022.11-.033.275-.033.495 0 .154.022.297.066.429a4.858 4.858 0 00-.033.99c.022.352.022.704 0 1.056v1.188a14.419 14.419 0 00-.033 1.683c.022.528.011 1.067-.033 1.617.044.022.055.044.033.066-.022.022-.011.033.033.033 0 1.122-.033 2.222-.099 3.3a6.02 6.02 0 000 .891 2.8 2.8 0 010 .858c.044.066.044.143 0 .231a.218.218 0 00.033.198l-.066 1.221c-.022.374-.011.759.033 1.155v.33a.705.705 0 01-.033.363c.022.352.055.682.099.99.044.308.011.627-.099.957l-.396.231a1.786 1.786 0 00-.627-.099c-.22 0-.418.055-.594.165a.357.357 0 01-.264-.099.49.49 0 00-.231-.132 1.893 1.893 0 00-.792.033c-.22.088-.451.132-.693.132-.242-.066-.374-.209-.396-.429 0-.242-.022-.462-.066-.66.066-.176.088-.363.066-.561a.94.94 0 01.165-.561c.022-.242.033-.473.033-.693v-1.32l.066-.726a2.295 2.295 0 01-.099-1.023c.066-.352.077-.715.033-1.089a2.971 2.971 0 01-.033-.759 2.888 2.888 0 00-.033-.759 12.5 12.5 0 00.099-1.551v-2.904c-.11-.11-.121-.22-.033-.33.088-.11.088-.231 0-.363a9.597 9.597 0 000-1.947c-.066-.022-.077-.044-.033-.066.044-.022.044-.055 0-.099.066-.242.088-.528.066-.858a5.971 5.971 0 010-.891c.044-.242.055-.484.033-.726v-.726a.926.926 0 01-.033-.429.821.821 0 000-.462c.044-.396.055-.792.033-1.188a24.823 24.823 0 00-.099-1.221.218.218 0 00.033-.198c0-.088.044-.154.132-.198a16.35 16.35 0 001.815.033c.66-.044 1.276-.044 1.848 0h.132zm8.217 18.612v-.033c.55.066 1.001.088 1.353.066.374-.022.836-.033 1.386-.033.132.11.187.242.165.396a.712.712 0 00.066.429c.044.22.066.44.066.66.022.22-.022.429-.132.627a.813.813 0 01.033.396.57.57 0 00.033.33 1.505 1.505 0 000 .627c.044.22-.033.407-.231.561a.67.67 0 00-.627-.198 2.22 2.22 0 01-.66.033c-.44-.044-.792-.066-1.056-.066-.242-.022-.583-.011-1.023.033a.849.849 0 01-.528.099 2.39 2.39 0 00-.561 0 2.13 2.13 0 00-1.056-.132 8.506 8.506 0 01-1.056.066c-.022.154-.099.209-.231.165a1.985 1.985 0 00-.297-.033c-.11 0-.22.044-.33.132-.11.088-.22.066-.33-.066a.776.776 0 00-.495.033c-.154.066-.275-.011-.363-.231 0-.176.011-.341.033-.495a.87.87 0 00-.033-.528.713.713 0 000-.429 1.862 1.862 0 010-.495c0-.22-.011-.44-.033-.66 0-.22.022-.429.066-.627a.28.28 0 010-.264.35.35 0 000-.297.663.663 0 01.528-.099c.198.044.385.055.561.033.33-.066.671-.077 1.023-.033.374.044.748.044 1.122 0 .176.044.319.066.429.066.132-.022.286-.033.462-.033.286.022.561.033.825.033.264-.022.55-.033.858-.033h.033zm-3.366-18.645a.429.429 0 01.33 0 .515.515 0 00.363 0h5.247a.357.357 0 01.066.297c0 .088.011.176.033.264-.022.352 0 .715.066 1.089.088.374.077.726-.033 1.056a.57.57 0 00-.033.33c.022.11.033.22.033.33a.674.674 0 010 .297c-.022.088-.088.165-.198.231a1.045 1.045 0 00-.528-.132.99.99 0 00-.528.165c-.462-.176-.836-.253-1.122-.231-.286.022-.682.022-1.188 0a7.934 7.934 0 00-1.023 0c-.33 0-.66-.022-.99-.066-.33.022-.66.055-.99.099a3.25 3.25 0 01-.924 0 .47.47 0 01-.264.066 1.53 1.53 0 00-.297.033.586.586 0 00-.264.066c-.066.022-.11.099-.132.231 0 .044.011.099.033.165.022.066.011.121-.033.165-.088 0-.132-.044-.132-.132.022-.11.011-.187-.033-.231a.581.581 0 01-.099-.561.85.85 0 00.066-.561l.066-1.287c.022-.44.022-.88 0-1.32a.97.97 0 00-.033-.231c-.022-.088 0-.154.066-.198a7.34 7.34 0 001.221.033 7.82 7.82 0 011.254.033zm1.122 9.339c.418 0 .803.022 1.155.066.374.022.781.011 1.221-.033.132-.088.22-.055.264.099.044.132.099.22.165.264a.591.591 0 00.165.33.813.813 0 01.033.396c-.022.11-.055.231-.099.363a1.75 1.75 0 00-.099.363c-.022.11 0 .231.066.363 0 .506.033.99.099 1.452a2.157 2.157 0 00-.132.231.318.318 0 01-.132.165c-.132 0-.209.055-.231.165a.233.233 0 01-.198.198.586.586 0 01-.066-.264c.022-.088-.011-.165-.099-.231a.99.99 0 00-.528.165c-.176.088-.341.022-.495-.198-.088-.022-.165.011-.231.099-.066.088-.121.066-.165-.066a2.84 2.84 0 00-.528-.066 2.84 2.84 0 01-.528-.066c-.044.11-.088.132-.132.066-.022-.088-.066-.121-.132-.099a11.847 11.847 0 00-1.254 0c-.33 0-.748.011-1.254.033-.044.022-.077.088-.099.198v.693a.903.903 0 01.033.198c0 .066-.044.176-.132.33-.066.154-.132.209-.198.165-.11-.066-.154-.165-.132-.297a1.75 1.75 0 01.099-.363.528.528 0 000-.264 2.606 2.606 0 00-.099-.396 11.508 11.508 0 00-.066-.363.54.54 0 01.066-.297c-.044-.044-.066-.11-.066-.198 0-.132.011-.231.033-.297v-.198a.528.528 0 000-.264l.099-2.442c.506-.044.924-.044 1.254 0 .352.044.759.055 1.221.033h.561c.198-.022.385-.033.561-.033zm19.365 4.224c-.044.044-.044.088 0 .132.198.242.374.517.528.825.176.286.352.55.528.792.176.264.33.528.462.792.154.264.286.517.396.759.264.374.506.77.726 1.188.22.396.473.781.759 1.155.088.242.198.473.33.693.154.22.286.451.396.693.242.308.462.594.66.858.198.242.396.517.594.825-.044.11-.033.176.033.198.066.022.055.088-.033.198.022.264 0 .363-.066.297a4.698 4.698 0 01-.264-.297 1.198 1.198 0 00-.264-.297c-.066-.088-.099-.011-.099.231-.022.088-.077.121-.165.099a.76.76 0 01-.264-.066 6.448 6.448 0 00-.297-.066c-.088 0-.154.044-.198.132a1.566 1.566 0 00-.033.363v.957c.022.154.033.264.033.33s-.044.143-.132.231c-.088.088-.154.11-.198.066-.066-.044-.099-.154-.099-.33 0-.154.011-.33.033-.528l.066-.528c.022-.154.022-.264 0-.33-.044-.132-.077-.209-.099-.231-.066-.088-.209-.143-.429-.165a5.683 5.683 0 00-.627-.033h-.627c-.176-.022-.286-.066-.33-.132-.088-.132-.154-.209-.198-.231a.384.384 0 00-.066-.099.517.517 0 00-.099-.132l-.132-.264a6.205 6.205 0 00-.726-1.155 9.878 9.878 0 01-.726-1.155 10.58 10.58 0 00-.726-1.155 33.59 33.59 0 00-.759-1.155 8.642 8.642 0 01-.594-.957 13.63 13.63 0 00-.561-.957 4.078 4.078 0 00-.561-.693 1.287 1.287 0 01-.33-.792c-.088.022-.132.077-.132.165 0 .088-.033.143-.099.165-.11 0-.165-.055-.165-.165v-.132c0-.022-.022-.055-.066-.099-.198-.11-.319-.22-.363-.33a1.196 1.196 0 010-.396c.044-.132.077-.264.099-.396a.713.713 0 000-.429.314.314 0 01.099-.297c.088-.088.077-.187-.033-.297a1.237 1.237 0 000-.693 2.6 2.6 0 01-.033-.726c.066-.11.242-.165.528-.165.22 0 .462.011.726.033l.825.066c.264.022.506.044.726.066.22 0 .374-.011.462-.033.198-.044.407-.099.627-.165.242-.066.473-.132.693-.198.242-.088.451-.176.627-.264.198-.088.352-.187.462-.297.154-.132.264-.286.33-.462a3.63 3.63 0 00.231-1.551 17.123 17.123 0 00-.099-1.056c-.044-.374-.253-.748-.627-1.122a9.302 9.302 0 00-1.056-.924c-.066-.044-.209-.077-.429-.099a3.9 3.9 0 00-.759-.066 12.086 12.086 0 00-.924-.033 12.096 12.096 0 00-.858-.033h-.726c-.044.044-.077.176-.099.396 0 .198-.011.407-.033.627 0 .22-.033.407-.099.561-.044.154-.132.198-.264.132-.022 0-.033-.055-.033-.165v-1.023a.414.414 0 00-.066-.33.429.429 0 010-.33c-.132-.044-.209-.099-.231-.165a.731.731 0 01-.033-.231.97.97 0 00.033-.231.23.23 0 00-.066-.231.635.635 0 00.066-.396 2.606 2.606 0 00-.099-.396l-.066-.396c0-.132.033-.264.099-.396a.47.47 0 01-.066-.264c.022-.11.055-.209.099-.297-.044-.11-.044-.187 0-.231.066-.044.099-.121.099-.231.022-.022.088-.022.198 0 .132.022.209.022.231 0a1.53 1.53 0 01.297-.033h.33c.11 0 .209.011.297.033.088 0 .176.011.264.033.154-.044.33-.099.528-.165.22-.066.418-.088.594-.066.154.066.352.121.594.165.242.022.484.055.726.099.264.022.517.055.759.099.242.022.44.066.594.132.242.044.429.121.561.231.154.11.341.187.561.231a5.57 5.57 0 011.485 1.221c.462.506.847.979 1.155 1.419.308.44.506.99.594 1.65.088.66.154 1.243.198 1.749a.758.758 0 00-.132.429 1.4 1.4 0 010 .429c-.022.176-.044.363-.066.561a6.06 6.06 0 01-.099.561l.033.033c.022.198-.011.33-.099.396a.374.374 0 00-.132.132c-.088.11-.154.242-.198.396-.044.132-.088.275-.132.429a3.024 3.024 0 01-.165.396.851.851 0 01-.297.33c0 .11-.088.231-.264.363-.066.176-.132.297-.198.363a1.311 1.311 0 00-.198.165 5.218 5.218 0 00-.231.165 2.287 2.287 0 00-.33.33 3.24 3.24 0 00-1.287.594 2.994 2.994 0 01-1.32.594zm-7.26-13.299c-.066.792-.11 1.342-.132 1.65v.594c.022.066.044.11.066.132.022 0 .033.099.033.297.022.484.033.979.033 1.485v4.488c.066.22.088.462.066.726a8.015 8.015 0 00-.033.726c.022.66.022 1.331 0 2.013a62.445 62.445 0 00-.033 2.013c0 .792.011 1.617.033 2.475.022.836.022 1.661 0 2.475.022 0 .033.011.033.033a8.39 8.39 0 00-.033.759v1.485l.066.726c0 .11-.066.231-.198.363-.11.044-.176.022-.198-.066-.022-.088-.077-.132-.165-.132a13.438 13.438 0 00-.957-.033 1.32 1.32 0 00-.825.198 1.404 1.404 0 00-.693-.165 4.37 4.37 0 00-.759 0l-.066.066c-.022 0-.044.011-.066.033l-.198-.132c-.066-.066-.066-.143 0-.231 0-.044.022-.066.066-.066.044-.44.044-.88 0-1.32a6.95 6.95 0 010-1.353 1.14 1.14 0 01-.066-.66c.066-.22.077-.429.033-.627a2.805 2.805 0 000-.858 2.448 2.448 0 01.033-.891.57.57 0 01-.033-.33.57.57 0 00-.033-.33c.044-.66.044-1.298 0-1.914a20.814 20.814 0 01.033-2.013l-.066-.66a2.984 2.984 0 010-.627c-.022-.308 0-.594.066-.858a1.64 1.64 0 00-.033-.858c-.044-.066-.033-.099.033-.099.044 0 .055-.033.033-.099a.41.41 0 010-.231c.044-.044.022-.088-.066-.132-.088-.044-.11-.088-.066-.132.132-.11.176-.308.132-.594a15.275 15.275 0 00-.066-.693l-.066-.957c0-.33.044-.649.132-.957a.851.851 0 01-.198-.429v-.495c.044-.176.055-.341.033-.495a1 1 0 01.066-.495c0-.176-.011-.352-.033-.528 0-.198.022-.385.066-.561a3.25 3.25 0 000-.924 6.02 6.02 0 010-.891c.242-.022.484-.033.726-.033.242-.022.484-.033.726-.033.264 0 .517-.011.759-.033.264-.044.517-.088.759-.132h.165l.033.033a.76.76 0 00.198.099c.11.044.33.11.66.198zm-59.885 40.264c-.022.44-.033.946-.033 1.518.022.55.011 1.056-.033 1.518a.836.836 0 01-.495.165c-.176-.022-.319.055-.429.231-.374.352-.66.715-.858 1.089-.11.242-.143.44-.099.594.044.154.066.352.066.594.132.154.231.308.297.462.066.132.143.264.231.396.11.132.253.264.43.396.175.132.428.264.758.396.176.066.418.176.726.33.308.154.55.242.726.264.374.044.704.121.99.231.308.088.638.154.99.198.11.066.231.121.363.165a.683.683 0 01.396.198c.374.154.693.33.957.528.286.176.616.341.99.495.11.132.308.275.594.429.286.154.495.297.627.429.176.176.297.275.363.297.066.022.176.132.33.33.132.198.231.407.297.627.11.352.231.726.363 1.122.154.396.275.781.363 1.155.066.286.088.627.066 1.023 0 .396-.033.792-.099 1.188a9.798 9.798 0 01-.264 1.155c-.11.352-.23.649-.363.891-.11.176-.22.341-.33.495a2.622 2.622 0 01-.33.396c-.308.352-.583.66-.825.924-.242.242-.583.429-1.023.561-.22.154-.44.319-.66.495a.883.883 0 00-.297.693v.231c.022.088 0 .154-.066.198-.11 0-.176-.044-.198-.132V207c.022-.132.044-.253.066-.363a.757.757 0 00.066-.231c-.066-.066-.132-.077-.198-.033a4.527 4.527 0 01-.198.561c-.044.066-.088.088-.132.066a1.023 1.023 0 01-.066-.198c-.022-.088-.055-.143-.099-.165-.22.11-.33.308-.33.594 0 .11-.01.22-.033.33a.535.535 0 01-.099.33.224.224 0 01-.165-.066c.044-.176.055-.341.033-.495a1.625 1.625 0 010-.462.317.317 0 00-.23-.099c-.265.11-.43.176-.496.198-.044 0-.055-.022-.033-.066l.066-.198c.044-.066.022-.11-.066-.132-.088-.044-.099-.088-.033-.132.088-.044.11-.11.066-.198 0-.132-.01-.253-.033-.363 0-.11-.044-.242-.132-.396v-.726a2.888 2.888 0 00-.033-.759c.11-.132.176-.198.198-.198.022-.022.077-.099.165-.231.022-.066.011-.121-.033-.165-.044-.044-.022-.088.066-.132a1.04 1.04 0 01.561-.165c.176-.11.286-.209.33-.297.066-.11.198-.198.396-.264.11-.132.187-.264.231-.396.044-.132.121-.264.231-.396.264-.264.418-.605.462-1.023.044-.44.088-.825.132-1.155.022-.22-.055-.385-.23-.495a2 2 0 01-.397-.462 1.802 1.802 0 00-.858-.693 4.806 4.806 0 00-1.023-.363l-.462-.132a.494.494 0 00-.462.033c-.044.022-.066-.044-.066-.198.022-.154 0-.22-.066-.198-.066.044-.165.011-.297-.099a6.747 6.747 0 01-.56-.396c-.199-.154-.33-.143-.397.033-.022.044-.055.055-.099.033l-.132-.132a.517.517 0 00-.132-.099c-.022-.044-.033-.044-.033 0-.066.286-.132.396-.198.33-.044-.088-.055-.165-.033-.231.044-.154-.033-.253-.23-.297-.177-.066-.298-.077-.364-.033-.11.11-.187.088-.23-.066-.023-.154-.1-.231-.232-.231a.7.7 0 01-.462-.165 1.184 1.184 0 00-.429-.264 13.686 13.686 0 01-1.056-.396 3.62 3.62 0 01-.924-.693 2.622 2.622 0 01-.33-.396 1.702 1.702 0 00-.33-.363 1.311 1.311 0 00-.198-.165.483.483 0 01-.165-.231 6.021 6.021 0 01-.099-.462c0-.132-.055-.275-.165-.429-.11-.154-.154-.297-.132-.429.044-.132.022-.275-.066-.429a.85.85 0 01-.066-.66c.088-.264.077-.495-.033-.693a.705.705 0 00.033-.363.635.635 0 01.066-.396c0-.286.044-.55.132-.792a3.03 3.03 0 00.231-.759 3.69 3.69 0 00.231-.396 2.66 2.66 0 00.231-.429c.396-.506.792-.891 1.188-1.155.418-.286.924-.55 1.518-.792a3.17 3.17 0 00.231-.066 1.28 1.28 0 00.165-.066 6.27 6.27 0 01.76-.264c.241-.066.538-.143.89-.231 0 .11.033.198.1.264.087.066.131.132.131.198 0 .044-.044.099-.132.165zm6.37.528c.087.132.197.187.33.165.153-.044.252.011.296.165.264.198.462.418.594.66.154.242.33.484.528.726 0 .11.044.231.132.363.11.132.165.253.165.363 0 .066-.055.132-.165.198a5.48 5.48 0 01-.627.297 4.522 4.522 0 00-.56.297c-.155.11-.309.198-.463.264a1.167 1.167 0 00-.429.231.813.813 0 00-.462.132c-.11.088-.23.165-.363.231a.825.825 0 01-.33 0c.022-.154-.022-.264-.132-.33a1.724 1.724 0 01-.264-.363.97.97 0 00-.429-.462c-.198-.11-.385-.22-.56-.33-.133.088-.254.088-.364 0-.088-.088-.187-.099-.297-.033-.044.044-.066.165-.066.363.022.176.033.374.033.594 0 .22-.01.407-.033.561 0 .154-.055.22-.165.198-.066-.11-.132-.374-.198-.792a12.33 12.33 0 01-.066-1.221c0-.264.033-.462.1-.594 0-.484.01-.935.032-1.353.022-.418.033-.88.033-1.386-.022 0 .033-.022.165-.066.66 0 1.287.099 1.881.297a6.306 6.306 0 011.683.825zm-10.99 14.652c.264-.022.561-.022.891 0 .33 0 .616.011.858.033a.49.49 0 01.132.363c.022.132.066.253.132.363.044.176.077.341.1.495.021.154.087.319.197.495.308.264.627.561.957.891.33.33.715.495 1.155.495.088.066.132.121.132.165.022.022.033.055.033.099v.099l.066.198c0 .308-.044.638-.132.99-.066.33-.099.66-.099.99 0 .22.044.407.132.561a.222.222 0 01-.099.198l-.132.132c-.044.022-.077.066-.099.132-.022.044-.01.121.033.231a1.349 1.349 0 000 .594c.066.242.055.429-.033.561-.044.044-.088.044-.132 0-.044-.022-.066-.055-.066-.099.044-.22.044-.44 0-.66a5.683 5.683 0 01-.033-.627l-.099-.099a.216.216 0 00-.099-.099c-.11-.044-.187-.011-.23.099-.045.088-.1.11-.166.066 0-.066.011-.132.033-.198.022-.066-.022-.121-.132-.165-.22.022-.308.121-.264.297.066.176.066.319 0 .429-.11.154-.187.154-.23 0a2.843 2.843 0 01-.034-.462c-.44-.242-.858-.506-1.254-.792-.396-.286-.803-.55-1.22-.792a1.438 1.438 0 01-.628-.627 2.54 2.54 0 00-.462-.726 40.674 40.674 0 01-.363-.429 3.116 3.116 0 00-.363-.495c-.11-.132-.154-.264-.132-.396.022-.154-.022-.33-.132-.528a2.045 2.045 0 01-.165-.792v-.429c0-.154-.01-.308-.033-.462.044-.022.055-.044.033-.066-.022-.022-.01-.044.033-.066.176-.022.341-.033.495-.033h.462c.154 0 .308.011.462.033.154 0 .32.011.495.033zm7.36-10.23c.021.022.032.088.032.198v.165c-.044.044-.055.088-.033.132.022.022.033.044.033.066a.623.623 0 00-.033.198.623.623 0 01.033.198c-.022.022-.044.033-.066.033a1.679 1.679 0 01-.033-.33.833.833 0 000-.33.367.367 0 00-.033-.165c0-.066.022-.132.066-.198l.033.033zm-.133 2.079c.022.11-.01.154-.099.132-.088-.022-.154-.011-.198.033 0-.022.022-.099.066-.231.066-.044.143-.022.231.066zm23.193 6.501l.066-.198c0-.088-.033-.143-.099-.165-.044-.022-.066-.132-.066-.33-.088.022-.143-.011-.165-.099a.233.233 0 00-.198-.198c-.11.066-.176.11-.198.132-.022 0-.033.011-.033.033v.099c.022.022.022.077 0 .165a.517.517 0 00-.099.132c-.022.022-.066.022-.132 0-.044-.176-.055-.286-.033-.33.044-.044.044-.154 0-.33-.044-.154-.077-.231-.099-.231 0-.022-.011-.011-.033.033 0 .044-.022.088-.066.132-.044.044-.132.044-.264 0-.088-.044-.154-.044-.198 0-.022.022-.044.077-.066.165a.97.97 0 01-.033.231.407.407 0 01-.066.231 2.283 2.283 0 00-.066.264l-.066.33c-.022.11-.044.209-.066.297-.022.066-.055.088-.099.066a.533.533 0 01-.132-.297v-.396c0-.154-.011-.297-.033-.429a.535.535 0 00-.099-.33c-.198.066-.286.209-.264.429.044.198.055.374.033.528-.132.264-.154.583-.066.957.088.352.088.66 0 .924-.044.11-.055.264-.033.462.044.198 0 .286-.132.264-.11 0-.176-.132-.198-.396v-.924l.066-1.155c.022-.418.022-.77 0-1.056-.132-.154-.198-.407-.198-.759 0-.22.011-.462.033-.726.044-.286.066-.561.066-.825.022-.264.033-.506.033-.726 0-.242-.033-.44-.099-.594.33 0 .627.011.891.033.286.022.583.011.891-.033.132.022.231.033.297.033h.297c.022-.022.066-.033.132-.033h.429c.044-.418.055-.77.033-1.056 0-.308-.011-.594-.033-.858l-.066-.858c0-.308.022-.66.066-1.056a6.448 6.448 0 00-.066-.297c-.022-.11 0-.22.066-.33.044-.11.022-.22-.066-.33-.066-.11-.022-.209.132-.297.066-.198.088-.407.066-.627a2.407 2.407 0 01.033-.693.633.633 0 01-.066-.561.708.708 0 00-.033-.561 1.095 1.095 0 01-.033-.594.877.877 0 00-.033-.627.41.41 0 000-.231v-.231c0-.198.066-.297.198-.297a17.785 17.785 0 011.881.033c.638.022 1.276.011 1.914-.033l.066.066a8.219 8.219 0 010 2.079 7.707 7.707 0 000 2.013c-.044 2.53-.055 5.082-.033 7.656.044 2.552.044 5.049 0 7.491 0 .33.011.66.033.99.044.33.044.649 0 .957a1.05 1.05 0 00.066.627c.11.22.066.418-.132.594a1.748 1.748 0 00-.627-.165c-.242-.022-.473 0-.693.066a4.001 4.001 0 01-.726 0c-.242-.022-.484 0-.726.066l-.264.132a.295.295 0 00-.198.165.57.57 0 00-.033.33c.022.132-.044.209-.198.231-.066-.066-.066-.154 0-.264a.28.28 0 000-.264l-.132-.198c-.176-.11-.286-.242-.33-.396a2.17 2.17 0 01-.066-.528l.066-.528a1.64 1.64 0 00.033-.561 5.022 5.022 0 01-.066-1.155c.044-.418.077-.814.099-1.188.022-.176 0-.363-.066-.561a.9.9 0 01.066-.594 2.157 2.157 0 01-.066-1.056 1.462 1.462 0 00-.132-1.056c-.066-.088-.077-.165-.033-.231l.132-.198.165-.165c.044-.066.033-.143-.033-.231zm-8.745-10.923c0 .594.011 1.353.033 2.277.022.902.033 1.771.033 2.607v1.419c.374 0 .616-.011.726-.033.132-.022.308-.033.528-.033h.231c.11 0 .22.011.33.033.242-.088.484-.099.726-.033s.484.088.726.066c.044.022.055.055.033.099 0 .022.022.044.066.066.044.308.055.583.033.825 0 .242-.022.484-.066.726-.022.22-.044.451-.066.693 0 .242.022.517.066.825.044.132.044.231 0 .297a1.311 1.311 0 01-.165.198.88.88 0 00-.165.231c-.022.066 0 .165.066.297a.858.858 0 00-.033.264c0 .11-.044.176-.132.198a.555.555 0 01-.066-.462c.066-.198 0-.33-.198-.396a6.468 6.468 0 01-.924 0 1.698 1.698 0 00-.891.099h-.363a.384.384 0 01-.099-.066.384.384 0 00-.099-.066c-.044-.044-.154-.077-.33-.099-.022.022-.033.11-.033.264.022.154.033.33.033.528a41.342 41.342 0 00.099.825c.022.638.011 1.265-.033 1.881-.022.616 0 1.243.066 1.881-.11.506-.132 1.078-.066 1.716.088.638.099 1.21.033 1.716a.528.528 0 000 .264c.022.066-.022.154-.132.264a.606.606 0 00-.396.297c-.066.176-.143.33-.231.462a.533.533 0 01-.033-.33c.044-.11-.011-.176-.165-.198-.22 0-.418-.033-.594-.099a15.42 15.42 0 00-.495-.132 1.824 1.824 0 00-.495-.132 1.735 1.735 0 00-.594-.033c-.11-.088-.242-.11-.396-.066-.154.044-.264 0-.33-.132 0-.33-.011-.737-.033-1.221 0-.484.022-.88.066-1.188a4.62 4.62 0 01-.066-.759 2.407 2.407 0 00-.033-.693c.066-.242.077-.506.033-.792a3.315 3.315 0 01.033-.825c.044-1.21.055-2.431.033-3.663V193.8a.858.858 0 00.033-.264.45.45 0 00-.033-.297c0-.308-.011-.616-.033-.924a12.965 12.965 0 01-.033-.924 1.284 1.284 0 01-.033-.495l.066-.462c0-.726.011-1.452.033-2.178a14.31 14.31 0 00-.033-2.178c-.066-.044-.088-.099-.066-.165a.543.543 0 00.033-.165.776.776 0 01-.033-.495 2.17 2.17 0 00.066-.528.592.592 0 00-.099-.297c.11-.11.209-.132.297-.066.11.066.231.055.363-.033.484.11 1.034.143 1.65.099a6.875 6.875 0 011.65 0c0 .132-.033.286-.099.462a.59.59 0 00-.033.429c.022.374.022.759 0 1.155 0 .396.011.781.033 1.155zm20.484-3.102c.242 0 .473.011.693.033.242 0 .473-.022.693-.066.11.044.165.088.165.132 0 .088.033.143.099.165 0 .176-.033.308-.099.396 0 .308.022.605.066.891.066.286.077.583.033.891a1.09 1.09 0 00-.198.825c.066.286.088.583.066.891a8.015 8.015 0 00-.033.726c.022.242.033.484.033.726 0 .286.011.561.033.825.044.264.022.539-.066.825a1.284 1.284 0 00-.033.495c.022.154.022.319 0 .495-.044.22-.044.462 0 .726.044.264.055.517.033.759a9.516 9.516 0 000 1.584 8.745 8.745 0 010 1.518c.022 0 .033.055.033.165a.658.658 0 010 .297c-.022.11 0 .198.066.264a8.77 8.77 0 01-.066 1.518 8.745 8.745 0 000 1.518c.022.242.011.473-.033.693-.022.198 0 .418.066.66.022.616 0 1.199-.066 1.749a5.34 5.34 0 00.132 1.65 1.4 1.4 0 000 .429c.044.132.077.275.099.429a1.349 1.349 0 00-.066.429c0 .308-.011.638-.033.99-.022.352-.099.528-.231.528-.044 0-.077-.088-.099-.264 0-.176-.022-.396-.066-.66 0-.066.022-.165.066-.297.044-.11.033-.198-.033-.264a.532.532 0 00-.231-.066.566.566 0 01-.231.033 2.884 2.884 0 00-.627-.066c-.22.022-.44.033-.66.033-.044.044-.088.066-.132.066-.088 0-.143-.011-.165-.033a1.654 1.654 0 00-.858-.099 2.071 2.071 0 01-.825.033c-.154-.154-.198-.286-.132-.396a.813.813 0 00.132-.462c-.022-.44 0-.902.066-1.386a5.103 5.103 0 000-1.419.41.41 0 010-.231.41.41 0 000-.231v-9.768c0-1.584-.022-2.376-.066-2.376v-.033a77.63 77.63 0 000-3.201c0-1.078.011-2.112.033-3.102.308.022.616.022.924 0 .33-.044.649-.055.957-.033a.536.536 0 01.264 0c.11.022.209.044.297.066zm11.002.759l-.066 2.277v2.244c.022.924.022 1.782 0 2.574-.022.792-.011 1.65.033 2.574.022 0 .033.044.033.132-.066.11-.088.253-.066.429.044.176.066.33.066.462.044.726.055 1.408.033 2.046a60.606 60.606 0 00-.033 2.079c0 1.122-.022 2.233-.066 3.333a43.753 43.753 0 000 3.399c.044.022.055.055.033.099l-.066.066a1.097 1.097 0 01-.528.066h-1.617a1.429 1.429 0 00-.528-.033 1.284 1.284 0 01-.495-.033h-.396a.324.324 0 01-.297-.165.708.708 0 00.033-.561 1.095 1.095 0 01.033-.594 2.39 2.39 0 010-.561c.022-.22.022-.418 0-.594 0-1.452-.011-2.904-.033-4.356 0-1.474.022-2.937.066-4.389a8.214 8.214 0 01-.099-.726v-.726a21.396 21.396 0 01-.033-3.135c.066-1.034.088-2.112.066-3.234 0-.572-.011-1.144-.033-1.716v-1.749l3.201-.099c.11-.088.22-.099.33-.033.11.044.154.011.132-.099.132.022.209.077.231.165.022.088.033.187.033.297 0 .088-.011.187-.033.297 0 .11.022.198.066.264zm7.821 12.309c.022.022-.044.077-.198.165-.154.066-.33.143-.528.231l-.528.198a1.976 1.976 0 01-.297.099 3.046 3.046 0 01-.957.132h-.495c-.154 0-.308-.011-.462-.033a3.71 3.71 0 00-.957.132c-.33.088-.649.044-.957-.132-.11-.066-.176-.143-.198-.231 0-.11.011-.22.033-.33.044-.132.077-.253.099-.363a.705.705 0 00.033-.363 6.06 6.06 0 01-.099-.561 41.342 41.342 0 01-.066-.561c.044-.286.077-.495.099-.627.044-.154.066-.253.066-.297 0-.088-.011-.121-.033-.099-.022 0-.066-.077-.132-.231-.022-.11.044-.165.198-.165.088 0 .165.011.231.033a.992.992 0 00.165.033c.044.022.143.055.297.099.176.044.385.044.627 0a3.59 3.59 0 00.693-.198c.242-.088.583-.143 1.023-.165.132-.044.297-.088.495-.132.198-.066.374-.121.528-.165.396 0 .671-.187.825-.561.154-.374.297-.726.429-1.056-.044-.22-.022-.473.066-.759.11-.286.099-.539-.033-.759a.964.964 0 01-.099-.66c.044-.264-.022-.451-.198-.561a1.015 1.015 0 00-.363-.33 6.132 6.132 0 01-.396-.264c-.044-.154-.099-.253-.165-.297a.47.47 0 00-.264-.066.81.81 0 00-.297.066 1.085 1.085 0 01-.264.033c-.132 0-.209-.11-.231-.33a1.976 1.976 0 01-.297.099h-.132a1.023 1.023 0 00-.231-.066c-.11-.022-.165-.022-.165 0h-.132c-.044 0-.066.077-.066.231.022.154.033.33.033.528.022.198.011.385-.033.561-.022.154-.099.242-.231.264-.044 0-.077-.066-.099-.198 0-.154-.011-.319-.033-.495a3.09 3.09 0 00-.033-.495c-.022-.154-.044-.231-.066-.231-.088-.044-.132-.088-.132-.132 0-.044-.121-.066-.363-.066-.088 0-.176.011-.264.033-.088 0-.22.044-.396.132-.198.11-.297.143-.297.099 0-.066-.011-.099-.033-.099-.066 0-.165-.066-.297-.198-.044-.044-.066-.132-.066-.264 0-.176.011-.374.033-.594.022-.242.033-.418.033-.528v-1.353c0-.132-.011-.242-.033-.33v-.462c0-.044.011-.11.033-.198.044-.088.143-.121.297-.099l.363.033.495-.033 1.386.033 1.65.066.198.099.33.132c.11.044.209.088.297.132.11.022.176.033.198.033.528.132.946.341 1.254.627.308.286.66.649 1.056 1.089.066.132.143.264.231.396l.264.33c.044.132.11.264.198.396l.33.396c.132.132.242.264.33.396.11.132.176.264.198.396a.879.879 0 01.099.396c.022.11.055.231.099.363a.975.975 0 00.033.66c.088.198.121.418.099.66-.088.154-.099.363-.033.627.066.242.066.44 0 .594l-.066.33v.33c0 .11-.033.154-.099.132-.044-.044-.088-.033-.132.033l-.198.33a.874.874 0 00-.132.429c0 .176.011.33.033.462.044.132-.044.275-.264.429-.11.088-.132.165-.066.231.066.044.022.088-.132.132-.066.044-.099.099-.099.165 0 .132-.066.231-.198.297-.11.044-.22.121-.33.231a.84.84 0 01-.198.198c-.066.044-.077.132-.033.264 0 .044-.022.11-.066.198-.022.088-.055.11-.099.066-.066-.022-.088-.066-.066-.132.044-.088.044-.165 0-.231 0-.088-.044-.033-.132.165-.088.176-.11.308-.066.396l-.594.231-.165.066a1.123 1.123 0 00-.297.132c-.11.044-.209.088-.297.132-.088.044-.121.077-.099.099zm-3.663 8.448c0 .066-.011.165-.033.297 0 .11.022.209.066.297a5.25 5.25 0 00-.033 1.32c.066.462.055.902-.033 1.32-.11-.044-.165-.121-.165-.231 0-.088-.022-.198-.066-.33.066-.242.077-.495.033-.759a10.293 10.293 0 00-.099-.759l-.066-.726c0-.264.055-.517.165-.759.088.022.143.066.165.132l.066.198z" fill="#fff"/></svg>