<svg width="221" height="221" fill="none" xmlns="http://www.w3.org/2000/svg"><path d="M116.738 101.97c-.443 0-.873.069-1.293.207-.423.134-.811.33-1.173.584a4.267 4.267 0 00-1.558 2.067h-3.384a4.242 4.242 0 00-.619-1.159 4.263 4.263 0 00-2.112-1.499 4.235 4.235 0 00-2.59 0 4.257 4.257 0 00-2.111 1.499c-.265.354-.472.74-.616 1.159h-3.384a4.307 4.307 0 00-1.558-2.074 4.263 4.263 0 00-1.173-.584 4.239 4.239 0 00-2.59 0 4.263 4.263 0 00-2.112 1.499c-.265.354-.471.74-.615 1.159h-3.123v2.858h3.123a4.234 4.234 0 001.554 2.071 4.241 4.241 0 002.47.788 4.236 4.236 0 003.404-1.703 4.23 4.23 0 00.62-1.156h3.384c.144.417.351.802.616 1.156.264.354.577.66.939.915a4.244 4.244 0 002.469.788 4.232 4.232 0 002.466-.788 4.18 4.18 0 00.939-.915c.268-.354.471-.739.619-1.156h3.384a4.245 4.245 0 001.555 2.071 4.206 4.206 0 002.469.788 4.239 4.239 0 003.405-1.703 4.23 4.23 0 00.62-1.156h4.55v-2.858h-4.55a4.276 4.276 0 00-.623-1.155 4.254 4.254 0 00-2.108-1.496 4.127 4.127 0 00-1.294-.207zm-22.864 5.716c-.19 0-.375-.037-.547-.11a1.406 1.406 0 01-.774-.774 1.418 1.418 0 01.31-1.554 1.413 1.413 0 011.011-.42c.189 0 .371.035.546.107a1.467 1.467 0 01.77.774c.076.175.11.357.11.547 0 .189-.034.371-.11.546a1.404 1.404 0 01-.309.465 1.392 1.392 0 01-.46.309 1.41 1.41 0 01-.547.11zm11.432 0c-.189 0-.371-.037-.547-.11a1.408 1.408 0 01-.774-.774 1.424 1.424 0 010-1.093c.073-.176.176-.327.31-.461s.289-.237.464-.313a1.43 1.43 0 01.547-.107c.189 0 .371.035.547.107a1.47 1.47 0 01.774.774c.072.175.106.357.106.547 0 .189-.034.371-.106.546a1.477 1.477 0 01-.313.465 1.414 1.414 0 01-1.008.419zm11.432 0c-.189 0-.371-.037-.546-.11a1.402 1.402 0 01-.774-.774 1.424 1.424 0 011.32-1.974c.19 0 .372.035.547.107.176.076.331.179.461.313.134.134.238.285.313.461.072.175.107.357.107.547a1.42 1.42 0 01-.881 1.32c-.175.073-.357.11-.547.11zm-20.006 4.286h2.858v2.858h-2.858v-2.858zm11.432 0h2.858v2.858h-2.858v-2.858z" fill="#fff"/><path d="M143.889 67.673V56.24c0-.189-.034-.37-.107-.546a1.406 1.406 0 00-.773-.774 1.429 1.429 0 00-.547-.11 4.067 4.067 0 01-2.222-.564 7.463 7.463 0 00-1.699-.647 7.59 7.59 0 00-1.802-.22 7.534 7.534 0 00-3.502.867 4.043 4.043 0 01-2.208.564 1.429 1.429 0 00-1.32.884 1.41 1.41 0 00-.11.546v7.144c0 .19.037.372.11.547a1.407 1.407 0 00.773.774c.176.072.358.11.547.11a6.843 6.843 0 003.491-.867 4.6 4.6 0 012.222-.564c.788 0 1.527.19 2.222.564a7.254 7.254 0 002.067.73v2.995h-12.86v2.858h3.326c.654 1.85.973 3.756.96 5.716a15.983 15.983 0 01-1.287 6.508 1.462 1.462 0 00-.12.34 1.483 1.483 0 00.034.722 1.42 1.42 0 00.382.613c.09.082.186.154.292.213a1.438 1.438 0 00.699.179h8.574v7.429l-8.561 1.155a1.426 1.426 0 00-1.183 1.022l-.519 1.826h-19.745v-2.858h10.001c.327 0 .623-.1.881-.303.258-.203.426-.46.505-.78a59.546 59.546 0 001.472-13.207 46.336 46.336 0 00-1.007-10.006h2.438v-2.858h-14.29v-2.858h8.574c.392 0 .729-.138 1.008-.42.309-.306 1.85-2.08 1.85-6.724a14.462 14.462 0 00-.571-4.288h1.998v-2.858h-12.859V37.66c0-.19-.038-.371-.111-.547a1.406 1.406 0 00-.773-.774 1.423 1.423 0 00-.547-.106 4.069 4.069 0 01-2.222-.568 7.43 7.43 0 00-1.696-.643 7.407 7.407 0 00-1.805-.22 7.41 7.41 0 00-1.803.22 7.524 7.524 0 00-1.699.643 4.073 4.073 0 01-2.208.568 4.073 4.073 0 01-2.215-.564 6.846 6.846 0 00-3.501-.867 1.425 1.425 0 00-1.011.42 1.407 1.407 0 00-.416 1.01v7.144a1.422 1.422 0 001.427 1.431 4.07 4.07 0 012.215.56 7.34 7.34 0 001.696.647c.591.148 1.193.22 1.802.22a7.38 7.38 0 001.799-.22 7.273 7.273 0 001.695-.646 4.608 4.608 0 012.222-.564c.788 0 1.531.189 2.222.564a7.49 7.49 0 002.07.725v3H95.301v2.858h3.512a9.51 9.51 0 01.777 4.288 7.738 7.738 0 01-1.015 4.706 1.385 1.385 0 00-.388.732c-.059.282-.031.557.079.826a1.4 1.4 0 00.53.64c.24.161.505.24.794.24h8.574v2.858h-14.29V69.1h1.768a42.58 42.58 0 011.09 10.006 58.279 58.279 0 01-1.386 12.515 1.4 1.4 0 00-.014.644 1.447 1.447 0 00.771.987c.199.096.409.144.629.144h11.432v2.858H83.869V86.25h7.147c.268 0 .519-.069.75-.213a1.39 1.39 0 00.526-.575 18.557 18.557 0 001.582-7.786 18.587 18.587 0 00-1.572-7.784 1.394 1.394 0 00-.533-.577 1.387 1.387 0 00-.753-.214h-7.147v-4.285h1.43a1.4 1.4 0 00.877-.303c.258-.203.427-.46.51-.78l1.427-5.717a1.402 1.402 0 00-.258-1.224 1.401 1.401 0 00-.502-.406 1.405 1.405 0 00-.626-.145h-2.858V44.808c0-.19-.035-.371-.11-.547a1.43 1.43 0 00-1.317-.884 4.059 4.059 0 01-2.222-.564 6.853 6.853 0 00-3.495-.863 6.81 6.81 0 00-3.501.863 4.073 4.073 0 01-2.215.564c-.193 0-.375.038-.547.11a1.41 1.41 0 00-.774.774c-.072.176-.11.358-.11.547v7.144c0 .189.038.371.11.547a1.409 1.409 0 00.774.773 1.4 1.4 0 00.547.11 6.854 6.854 0 003.49-.86 4.1 4.1 0 012.226-.57 4.078 4.078 0 012.219.564 7.39 7.39 0 002.07.729v2.995h-2.861c-.22 0-.43.049-.627.145a1.405 1.405 0 00-.77.987c-.048.217-.045.43.01.643l1.431 5.716c.08.32.248.578.506.781.258.2.55.303.88.303h1.428V69.1h-8.575a1.446 1.446 0 00-1.217.678 1.425 1.425 0 00-.21.688 1.411 1.411 0 00.147.701 15.679 15.679 0 011.28 6.508 16.014 16.014 0 01-1.28 6.507 1.396 1.396 0 00-.148.705c.004.12.025.24.063.354a1.404 1.404 0 00.378.612 1.433 1.433 0 00.987.396h8.575v7.147h-8.575c-.327 0-.619.1-.88.303-.258.2-.427.46-.506.777l-1.43 5.716a1.504 1.504 0 00-.042.348 5.769 5.769 0 001.214 3.522c.396.502.857.925 1.393 1.272a5.656 5.656 0 001.73.753 15.877 15.877 0 001.537 5.617 15.674 15.674 0 003.478 4.67 15.675 15.675 0 004.935 3.089 15.68 15.68 0 002.81.812c.96.179 1.93.271 2.91.271h35.728a11.888 11.888 0 001.974-.268c.65-.141 1.283-.333 1.902-.581a11.972 11.972 0 001.789-.881c.571-.34 1.111-.725 1.62-1.155.512-.427.983-.894 1.417-1.4.433-.506.825-1.042 1.173-1.61.347-.571.646-1.162.897-1.778.251-.619.451-1.252.599-1.898l2.603-6.511 15.199-6.91a1.42 1.42 0 00.836-1.3v-4.289c0-.206-.042-.402-.128-.588a1.398 1.398 0 00-.361-.485 1.372 1.372 0 00-.526-.292 1.377 1.377 0 00-.602-.048l-9.816 1.317v-7.047h7.147c.272 0 .523-.07.757-.214.23-.14.406-.333.529-.577a18.574 18.574 0 001.572-7.784 20.051 20.051 0 00-.815-5.716h2.243v-2.858h-11.433zm-3.649-6.28a7.307 7.307 0 00-1.699-.647 7.413 7.413 0 00-1.802-.22 7.41 7.41 0 00-1.803.22 7.376 7.376 0 00-1.699.647 6.632 6.632 0 01-.784.35v-4.199a7.244 7.244 0 002.06-.74 4.573 4.573 0 012.222-.564c.788 0 1.531.186 2.222.565.65.354 1.341.602 2.071.742v4.2a7.003 7.003 0 01-.788-.354zm-32.87-18.58a7.444 7.444 0 00-1.696-.646 7.583 7.583 0 00-1.805-.22 7.54 7.54 0 00-3.502.867 4.56 4.56 0 01-2.215.563 4.583 4.583 0 01-2.215-.564 7.133 7.133 0 00-2.063-.743v-4.2c.268.1.53.221.784.355.54.282 1.104.499 1.696.647a7.575 7.575 0 003.6 0 7.59 7.59 0 001.696-.647 4.57 4.57 0 012.222-.564c.788 0 1.531.186 2.222.564a7.14 7.14 0 002.07.743v4.2c-.271-.1-.536-.22-.794-.355zm-5.486 17.713c.403-1.4.588-2.83.564-4.286a14.554 14.554 0 00-.564-4.288h16.939c.588 1.369.843 2.8.774 4.288a9.598 9.598 0 01-.774 4.286h-16.939zm-3.388 30.012a61.888 61.888 0 001.094-11.432A46.573 46.573 0 0098.579 69.1h21.358a42.529 42.529 0 011.087 10.006 59.32 59.32 0 01-1.142 11.432H98.496zM80.22 49.96a6.822 6.822 0 00-3.495-.867 6.847 6.847 0 00-3.501.867 6.68 6.68 0 01-.784.351v-4.2a7.124 7.124 0 002.06-.732 4.04 4.04 0 012.225-.57 4.05 4.05 0 012.215.57c.654.35 1.341.595 2.07.736v4.2a7.115 7.115 0 01-.79-.355zm.478 11.997l-.716-2.858h4.915l-.715 2.858h-3.484zM74.483 83.39a20.19 20.19 0 00.811-5.716 20.232 20.232 0 00-.811-5.716H90.06c.646 1.85.963 3.755.956 5.716a17.197 17.197 0 01-.96 5.716H74.483zm77.98 10.211v1.73l-14.73 6.697-6.989 1.4.56 2.799 4.558-.911s-2.012 5.125-2.04 5.228h-8.509v2.858h7.223a9.454 9.454 0 01-1.362 1.699 9.072 9.072 0 01-1.727 1.324 9.054 9.054 0 01-4.134 1.262H89.585a12.8 12.8 0 01-2.68-.282 12.817 12.817 0 01-6.879-4.003H85.3v-2.858h-7.22a12.666 12.666 0 01-1.272-4.289h4.203v-2.858h-5.717a2.812 2.812 0 01-1.059-.2 2.807 2.807 0 01-.908-.581 2.833 2.833 0 01-.63-.874 2.804 2.804 0 01-.26-1.045l1.117-4.444h7.457v1.427c0 .19.037.372.11.547a1.412 1.412 0 00.773.774 1.4 1.4 0 00.547.11h49.403c.32 0 .606-.096.86-.289a1.4 1.4 0 00.516-.746l.561-1.96 18.682-2.515zm-2.386-11.638H134.5a20.48 20.48 0 00.811-5.717 20.48 20.48 0 00-.811-5.716h15.577a17.39 17.39 0 01.956 5.716 17.42 17.42 0 01-.956 5.717z" fill="#fff"/><path d="M106.733 54.81h2.859v2.858h-2.859V54.81zm5.717 0h2.858v2.858h-2.858V54.81zm4.288 22.864c0-3.15-3.205-5.716-7.147-5.716-3.938 0-7.143 2.566-7.143 5.716.038.974.282 1.889.732 2.748a6.373 6.373 0 001.84 2.17l-1.069 3.206a1.41 1.41 0 00-.055.668 1.414 1.414 0 00.76 1.056c.203.103.419.158.65.158h8.574c.227 0 .447-.052.65-.159.203-.103.375-.25.509-.436a1.411 1.411 0 00.196-1.286l-1.069-3.206a6.351 6.351 0 001.836-2.17c.451-.86.698-1.775.736-2.749zm-4.86 2.979a1.34 1.34 0 00-.436.296 1.482 1.482 0 00-.3.433 1.448 1.448 0 00-.048 1.032l.802 2.407h-4.609l.801-2.407c.059-.169.083-.344.073-.523a1.386 1.386 0 00-.121-.509 1.357 1.357 0 00-.299-.433 1.344 1.344 0 00-.437-.296 3.646 3.646 0 01-1.389-1.228 3.615 3.615 0 01-.609-1.75c0-1.548 1.964-2.859 4.285-2.859 2.325 0 4.289 1.31 4.289 2.858a3.588 3.588 0 01-.612 1.751c-.358.53-.819.94-1.39 1.228zm-39.437 51.428a.46.46 0 01.058.494 1.055 1.055 0 00-.058.494c0 .407-.01.842-.029 1.307 0 .446.02.872.058 1.279-.058.077-.068.184-.029.319-.02.097-.029.242-.029.436 0 .136.02.262.058.378a4.274 4.274 0 00-.029.872c.02.31.02.619 0 .929v1.046c-.039.504-.048.998-.029 1.482.02.465.01.94-.03 1.424.04.019.05.039.03.058-.02.019-.01.029.029.029 0 .988-.029 1.957-.087 2.906-.02.271-.02.532 0 .784.039.233.039.484 0 .756.039.058.039.126 0 .203a.192.192 0 00.029.174l-.058 1.075c-.02.33-.01.669.029 1.017v.291c.02.097.01.203-.03.32.02.309.05.6.088.871.039.271.01.552-.087.843l-.349.203a1.575 1.575 0 00-.552-.087.973.973 0 00-.523.145.315.315 0 01-.232-.087.428.428 0 00-.204-.116 1.664 1.664 0 00-.697.029 1.617 1.617 0 01-.61.116c-.213-.058-.33-.184-.349-.377 0-.214-.02-.407-.058-.582a1.06 1.06 0 00.058-.494.83.83 0 01.145-.493c.02-.214.03-.417.03-.611v-1.162l.058-.639a2.022 2.022 0 01-.088-.901 3.17 3.17 0 00.03-.959 2.614 2.614 0 01-.03-.668c.02-.232.01-.455-.029-.668.058-.465.087-.92.087-1.366v-2.557c-.096-.097-.106-.193-.029-.29.078-.097.078-.204 0-.32a8.449 8.449 0 000-1.714c-.058-.02-.067-.039-.029-.058.04-.02.04-.049 0-.088a2.3 2.3 0 00.058-.755 5.27 5.27 0 010-.784c.04-.214.049-.427.03-.64v-.639a.816.816 0 01-.03-.378.72.72 0 000-.406c.04-.349.049-.698.03-1.046a21.92 21.92 0 00-.088-1.076.192.192 0 00.03-.174c0-.077.038-.135.116-.174.503.039 1.036.048 1.598.029a11.314 11.314 0 011.627 0h.116zm7.235 16.387v-.029c.484.058.881.078 1.191.058.33-.019.736-.029 1.22-.029.117.097.165.213.146.349-.02.136 0 .262.058.378.039.193.058.387.058.581a.922.922 0 01-.116.552.716.716 0 01.029.349.501.501 0 00.029.29 1.326 1.326 0 000 .552c.039.194-.03.359-.203.494a.59.59 0 00-.552-.174 1.959 1.959 0 01-.582.029 9.732 9.732 0 00-.93-.058 4.976 4.976 0 00-.9.029.753.753 0 01-.465.087 2.146 2.146 0 00-.494 0c-.29-.116-.6-.155-.93-.116-.31.038-.62.058-.93.058-.019.135-.087.184-.203.145a1.796 1.796 0 00-.261-.029.467.467 0 00-.291.116c-.097.078-.194.058-.29-.058a.683.683 0 00-.436.029c-.136.058-.242-.009-.32-.203 0-.155.01-.3.029-.436a.766.766 0 00-.029-.465.629.629 0 000-.378c-.02-.155-.02-.3 0-.435 0-.194-.01-.388-.03-.582 0-.193.02-.377.059-.552a.246.246 0 010-.232.309.309 0 000-.262.59.59 0 01.465-.087c.174.039.339.049.494.029.29-.058.59-.067.9-.029.33.039.66.039.989 0 .154.039.28.058.377.058.116-.019.252-.029.407-.029.252.02.494.029.726.029.233-.019.485-.029.756-.029h.029zm-2.964-16.416a.376.376 0 01.29 0 .45.45 0 00.32 0h4.62a.313.313 0 01.058.261c0 .078.01.155.03.233-.02.31 0 .629.058.959.077.329.067.639-.03.929a.504.504 0 00-.029.291c.02.097.03.194.03.291a.603.603 0 010 .261c-.02.077-.078.145-.175.203a.925.925 0 00-.465-.116.878.878 0 00-.465.145c-.406-.155-.736-.222-.987-.203a9.42 9.42 0 01-1.046 0 7.123 7.123 0 00-.901 0 6.56 6.56 0 01-.872-.058c-.29.019-.581.048-.872.087a2.843 2.843 0 01-.813 0 .41.41 0 01-.233.058c-.077 0-.164.01-.261.029a.526.526 0 00-.233.058c-.058.02-.096.088-.116.204 0 .039.01.087.03.145.019.058.009.107-.03.145-.077 0-.116-.038-.116-.116.02-.097.01-.165-.03-.203a.512.512 0 01-.086-.494.75.75 0 00.058-.494c.02-.368.039-.746.058-1.133.02-.388.02-.775 0-1.163a.854.854 0 00-.03-.203c-.019-.077 0-.136.059-.174.33.038.688.048 1.075.029.388-.02.755-.01 1.104.029zm.988 8.223c.368 0 .707.019 1.017.058.33.019.688.009 1.075-.029.116-.078.194-.049.233.087.038.116.087.194.145.232.02.116.068.213.145.291a.715.715 0 01.03.349c-.02.096-.05.203-.088.319a1.55 1.55 0 00-.087.32c-.02.097 0 .203.058.319 0 .446.029.872.087 1.279a1.929 1.929 0 00-.116.203.277.277 0 01-.116.145c-.117 0-.184.049-.204.146a.205.205 0 01-.174.174.513.513 0 01-.058-.232c.02-.078-.01-.146-.087-.204a.871.871 0 00-.465.146c-.155.077-.3.019-.436-.175-.078-.019-.145.01-.203.087-.059.078-.107.058-.146-.058a2.564 2.564 0 00-.465-.058c-.116 0-.27-.019-.465-.058-.038.097-.077.116-.116.058-.02-.077-.058-.106-.116-.087a10.634 10.634 0 00-1.104 0c-.29 0-.659.01-1.104.029-.039.019-.068.077-.087.174v.611a.808.808 0 01.029.174c0 .058-.039.155-.117.29-.058.136-.116.184-.174.146-.097-.058-.135-.146-.116-.262.02-.116.048-.223.087-.319a.467.467 0 000-.233 2.325 2.325 0 00-.087-.349c-.02-.116-.039-.222-.058-.319 0-.116.02-.204.058-.262-.039-.038-.058-.097-.058-.174 0-.116.01-.203.029-.261v-.175a.465.465 0 000-.232l.087-2.15a5.167 5.167 0 011.104 0c.31.038.668.048 1.075.029h.494c.174-.02.34-.029.494-.029zm21.38 7.699c.097.194.184.349.262.465l.232.349.233.291c.096.096.213.232.348.406.039-.193.078-.455.116-.784.039-.33 0-.572-.116-.727-.058-.058-.106-.164-.145-.319a37.07 37.07 0 01-.058-.494l-.058-.494a1.134 1.134 0 00-.087-.349 9.068 9.068 0 00-.378-.668 21.813 21.813 0 01-.349-.726c0-.02-.01-.01-.029.029 0 .038-.01.087-.029.145-.02.058-.039.106-.058.145v.058a.938.938 0 01-.058-.348.772.772 0 00-.03-.378 1.387 1.387 0 00-.377-.523 1.907 1.907 0 01-.407-.494l-.32-.523a2.222 2.222 0 01-.319-.465 4.591 4.591 0 00-.29-.494 1.592 1.592 0 01-.146-.32 1.608 1.608 0 00-.145-.319 3.907 3.907 0 01-.03-.814 2.66 2.66 0 000-.784 6.187 6.187 0 00.088-1.598c-.02-.562-.01-1.095.03-1.598-.059-.078-.069-.175-.03-.291a.278.278 0 00-.029-.32.536.536 0 000-.348 2.689 2.689 0 01-.03-.378.748.748 0 00.059-.494 2.407 2.407 0 01-.058-.523c.02-.019.029-.068.029-.145l-.03-.029c.02-.291.03-.562.03-.814.02-.252-.01-.503-.087-.755-.039-.097-.01-.175.087-.233.194-.038.358-.058.494-.058h.29l.291-.058c.194.019.378.019.552 0a.962.962 0 01.523.029 6.36 6.36 0 01.552-.029 8.11 8.11 0 00.581-.087c.097.019.136.068.117.145 0 .058.019.107.058.145.038.446.029.882-.029 1.308-.039.407-.029.833.029 1.278-.02 0-.029.01-.029.03l.058.523c.019.154.009.329-.029.523.135.096.135.184 0 .261-.039.116-.01.223.087.32.097.096.087.203-.029.319a1.46 1.46 0 010 .407c0 .136.038.262.116.378a.912.912 0 00-.116.465.97.97 0 01-.029.232c0 .058-.01.136-.029.233a.898.898 0 010 .319c0 .116-.01.233-.029.349 0 .368.019.726.058 1.075.058.349.067.707.029 1.075.019.155.029.32.029.494.019.174.029.349.029.523v.523c.019.174.039.358.058.552a.96.96 0 00-.058.465.593.593 0 01-.058.436c0 .116-.02.242-.058.377-.02.117 0 .223.058.32-.02.194-.01.387.029.581.039.174.039.339 0 .494.019.271.039.62.058 1.046.019.426.01.775-.029 1.046-.02.078-.029.194-.029.349a3.138 3.138 0 010 .842c-.02.136-.058.233-.116.291-.02.058-.029.174-.029.349.019.174.029.368.029.581v.552c0 .155-.02.271-.059.348-.019.039-.029.136-.029.291.02.155.029.31.029.465.02.155.02.29 0 .407 0 .135-.038.193-.116.174-.058-.019-.106-.116-.145-.291a.82.82 0 010-.435c.039-.097 0-.204-.116-.32-.117-.039-.223-.01-.32.087-.02.039-.02.175 0 .407.02.252.03.504.03.755.019.252.009.465-.03.64-.02.193-.087.251-.203.174-.058-.019-.087-.136-.087-.349 0-.251.01-.561.029-.929.019-.349-.049-.601-.204-.756h-.203c-.058 0-.087.029-.087.087 0 .02.01.078.029.175a1.463 1.463 0 010 .581c-.02.097-.058.145-.117.145-.096 0-.164-.058-.203-.174a2.51 2.51 0 01-.029-.407v-.262a.79.79 0 00.03-.174c-.04.039-.117.058-.233.058a.505.505 0 01-.204-.029 1.186 1.186 0 00-.32-.029h-.319c-.136 0-.194-.01-.174-.029l-.03.029-1.365-1.83-.552-.756a1.874 1.874 0 00-.407-.61 5.466 5.466 0 00-.377-.552 5.242 5.242 0 01-.32-.552c-.136-.039-.213-.107-.233-.204a.347.347 0 00-.174-.232c.02-.058 0-.097-.058-.116l-.116-.117c-.039-.019-.068-.019-.087 0-.02.02-.04.01-.059-.029 0-.155-.058-.3-.174-.435a6.674 6.674 0 01-.32-.465 2.381 2.381 0 00-.406-.61 2.408 2.408 0 01-.407-.611 8.811 8.811 0 01-.64-.842 4.378 4.378 0 00-.668-.843 33.448 33.448 0 01-.668-1.104 7.276 7.276 0 00-.697-1.075c0-.097-.058-.174-.174-.233-.097-.058-.136-.135-.117-.232a10.07 10.07 0 01-.58-.755 5.203 5.203 0 00-.553-.785 2.032 2.032 0 00-.465-.436 1.16 1.16 0 01-.349-.494 6.12 6.12 0 01-.348-.552 14.882 14.882 0 00-.262-.61 6.308 6.308 0 01-.697-.959 3.748 3.748 0 00-.668-.9.717.717 0 01-.233-.32.587.587 0 00-.174-.32c-.058-.058-.087-.106-.087-.145l.058-.116c.039-.039.058-.078.058-.116.02-.059 0-.136-.058-.233a.312.312 0 01-.058-.261l.058-.291c.039-.116.068-.223.087-.32a.363.363 0 00-.058-.29.472.472 0 01-.087-.291c0-.116.048-.193.145-.232l.378-.145c.038 0 .048.009.029.029-.02.019-.03.038-.03.058 0 .019.02.029.059.029.058 0 .174-.02.349-.058.27.058.561.048.871-.029.33-.078.62-.088.872-.029a.785.785 0 01.349.232.991.991 0 01.232.262c.058.096.126.193.203.29.078.097.175.184.291.262.097.077.194.145.29.203.097.058.107.136.03.232 0 .097.029.175.087.233.077.039.116.097.116.174a.617.617 0 01.29.378c.059.136.156.261.291.378.097.232.242.445.436.639.213.174.358.397.436.668.174.136.29.3.348.494.059.174.165.32.32.436.097.174.194.358.29.552.117.174.262.339.436.494 0 .077.03.145.088.203.077.039.116.097.116.175.213.174.368.368.465.581.097.213.213.426.348.639.097.058.146.136.146.232.019.078.087.136.203.175.136.271.3.523.494.755.213.213.368.455.465.727.077.097.155.203.232.319.097.097.175.194.233.291.135.271.3.523.494.755.213.213.368.455.465.727a.615.615 0 01.29.377c.039.136.145.252.32.349.02.116.077.213.174.291a.582.582 0 01.233.261c.135.078.213.165.232.262a.588.588 0 00.232.261c.04.058.078.126.117.204.058.058.077.116.058.174a.444.444 0 00.232.29.363.363 0 01.204.291c.213.31.416.62.61.93.194.29.426.571.697.842zM85.133 137.95c0 .194.078.349.233.465a.47.47 0 01.261.436.715.715 0 01.233.319.811.811 0 00.203.32.998.998 0 01.174.32 1.8 1.8 0 00.204.319.346.346 0 01.174.233c.02.077.078.145.175.203a.37.37 0 00.145.233c.097.058.145.135.145.232.097.174.204.349.32.523.135.174.222.368.261.581.078.194.194.349.349.465a.73.73 0 01.32.494c.096.116.125.291.087.523a3.551 3.551 0 00-.058.552v.959c.019.097.038.203.058.32-.02.135-.03.271-.03.406v.407c0 .136-.009.271-.028.407 0 .116-.01.242-.03.378.059.096.059.203 0 .319a.314.314 0 00-.028.291 1.461 1.461 0 000 .581c.038.174.028.368-.03.581.078.31.107.639.088.988a8.52 8.52 0 01-.117 1.017.96.96 0 01.058.465v.436a.619.619 0 01-.552-.029c-.154-.117-.348-.136-.58-.059-.04.097-.117.146-.233.146-.116-.02-.204.019-.262.116-.116-.155-.261-.223-.436-.203a5.095 5.095 0 01-.551.029.98.98 0 01-.291.058.314.314 0 00-.233.087 2.874 2.874 0 00-.087.436c-.02.174-.048.329-.087.465-.02.058-.058.058-.116 0-.039-.039-.058-.078-.058-.117a.32.32 0 01-.03-.145.474.474 0 00.03-.145 1.63 1.63 0 01-.058-.378.446.446 0 00-.146-.32 1.27 1.27 0 00.175-.668c.097-.329.135-.658.116-.988a6.72 6.72 0 01.029-1.075 1.92 1.92 0 01-.087-.871 2.5 2.5 0 000-.93 31.359 31.359 0 00-.03-3.051 39.978 39.978 0 010-3.051 1.17 1.17 0 01-.028-.32 4.04 4.04 0 01-.03-.842c.02-.291.02-.581 0-.872v-.203a.866.866 0 00.03-.204 2.04 2.04 0 000-.494c-.02-.155-.039-.319-.058-.494.019-.038.038-.048.058-.029.038 0 .068.01.087.029-.058.097-.039.165.058.204a.427.427 0 01.203.145zm12.175 13.947h.029c.039 0 .068-.01.087-.029h-.087l-.03.029zm18.831-19.642a5.381 5.381 0 00-.145 1.191v.64c0 .193.009.397.029.61.097.349.126.717.087 1.104a.279.279 0 01-.203.087 1.544 1.544 0 01-.204-.087.633.633 0 00-.203-.087c-.078-.02-.155 0-.233.058a.562.562 0 01-.29-.087.428.428 0 00-.262-.087c-.096.019-.145.096-.145.232.019.116-.019.165-.116.145a.585.585 0 01-.262-.232.453.453 0 00-.232-.233 8.046 8.046 0 00-1.162-.029c-.349.02-.756.029-1.221.029-.097.059-.145.155-.145.291.019.136-.029.184-.145.145l-.175-.116a.431.431 0 00-.174-.145.365.365 0 00-.087.174c0 .078-.019.107-.058.087-.078-.038-.107-.126-.087-.261.019-.136-.039-.213-.175-.233l-.174.117c-.039.019-.077.077-.116.174a.664.664 0 01-.029.32h-.058a.776.776 0 01-.059-.291c.02-.116-.029-.194-.145-.232-.232-.059-.416-.078-.552-.059l-.174.175a.35.35 0 00-.233-.233l-2.905.029a.467.467 0 00-.349.378 5.425 5.425 0 00-.029.523h-.029c0-.349-.087-.61-.261-.784-.039-.02-.088 0-.146.058a.325.325 0 01-.116.116 1.244 1.244 0 000 .378c.019.135-.019.174-.116.116-.097-.039-.126-.116-.087-.233.058-.116.038-.222-.058-.319a.145.145 0 00-.175 0l-.116.116c-.039.136-.029.31.029.523.058.194.029.271-.087.232-.078-.038-.116-.106-.116-.203v-.29c0-.097-.01-.194-.029-.291-.02-.097-.088-.165-.204-.203a.838.838 0 00-.639-.146c-.213.02-.426 0-.639-.058a.424.424 0 01.029-.348c.058-.097.058-.214 0-.349 0-.407-.01-.823-.029-1.25-.02-.445 0-.891.058-1.336l.116-.087c.387.077.785.106 1.191.087a4.087 4.087 0 011.192.058 3.979 3.979 0 011.278-.087c.465.039.92.039 1.366 0a.357.357 0 01.261-.116c.155 0 .31.029.465.087a.51.51 0 00.436-.087c1.162-.02 2.276.009 3.341.087 1.066.058 2.199.077 3.4.058l.116.174zm-4.823 5.288a6.592 6.592 0 00-.116 1.54c.019.523.009 1.046-.029 1.569-.039.659-.03 1.327.029 2.005.077.678.096 1.356.058 2.034.038.213.038.417 0 .61-.02.194-.039.397-.058.61.019.155.029.291.029.407v.262c0 .213-.01.387-.029.523 0 .116.019.387.058.813a3.27 3.27 0 010 .61c0 .175.048.339.145.494l-.029.349a.36.36 0 00-.116.262c0 .155.019.29.058.406a.604.604 0 01-.029.407c0 .078-.01.165-.029.262 0 .077-.01.164-.029.261h-.029c-.117.31-.126.601-.029.872.096.252.125.542.087.871a.83.83 0 01-.087.553.613.613 0 00.029.552c.038.058.048.135.029.232 0 .097-.049.165-.146.203-.096.039-.145.02-.145-.058 0-.077-.01-.126-.029-.145l-.261-1.714a.675.675 0 00-.233-.233c-.077-.058-.165-.058-.261 0a.522.522 0 01-.378.087 8.049 8.049 0 01-.32-.058.195.195 0 00-.174.088c-.019.058 0 .213.058.464-.077-.058-.116-.155-.116-.29.019-.136-.049-.223-.204-.262-.116.058-.203.049-.261-.029a.372.372 0 00-.233-.145.935.935 0 00-.464 0 .426.426 0 01-.349-.029c0-.097.01-.194.029-.291a.449.449 0 000-.319c0-.736.01-1.356.029-1.86a38.538 38.538 0 000-2.934c0-.523-.029-1.143-.087-1.86.097-.077.106-.145.029-.203-.058-.058-.058-.107 0-.146a6.197 6.197 0 01-.029-1.046c.039-.368.048-.736.029-1.104h.029a.37.37 0 000-.348h-.029c.097-.039.116-.078.058-.117-.058-.058-.048-.106.029-.145.039-.232.029-.407-.029-.523-.058-.136-.039-.3.058-.494a.555.555 0 01-.087-.465c.058-.174.029-.319-.087-.436a6.296 6.296 0 00-.029-1.046c-.039-.348 0-.697.116-1.046.136-.019.271-.029.407-.029h.465c.329 0 .639-.029.929-.087.233.078.514.116.843.116.349-.019.659-.019.93 0zm2.586 11.245c.039.097.009.155-.087.174-.078.02-.117.078-.117.175h-.726c.194-.097.358-.165.494-.204.136-.058.281-.106.436-.145zm.319-9.705l.059-.29c.019-.116.048-.194.087-.233.019.194.029.397.029.61.019.194.029.398.029.611v.639c0 .194-.01.387-.029.581 0 .387-.01.785-.029 1.191-.02.388-.01.756.029 1.104a2.286 2.286 0 00-.058.552c.019.214-.01.33-.088.349a17.43 17.43 0 01-.058-2.034c.039-.736.039-1.443 0-2.121.039-.135.049-.29.029-.465v-.494zm8.387-7.002a.461.461 0 01.058.494 1.048 1.048 0 00-.058.494c0 .407-.01.842-.029 1.307 0 .446.019.872.058 1.279-.058.077-.068.184-.029.319-.02.097-.029.242-.029.436 0 .136.019.262.058.378a4.218 4.218 0 00-.029.872c.019.31.019.619 0 .929v1.046c-.039.504-.049.998-.029 1.482.019.465.009.94-.029 1.424.038.019.048.039.029.058-.02.019-.01.029.029.029 0 .988-.029 1.957-.088 2.906a5.397 5.397 0 000 .784c.039.233.039.484 0 .756.039.058.039.126 0 .203a.192.192 0 00.03.174l-.059 1.075a6.12 6.12 0 00.029 1.017v.291c.02.097.01.203-.029.32.02.309.049.6.088.871.038.271.009.552-.088.843l-.348.203a1.575 1.575 0 00-.552-.087.973.973 0 00-.523.145.315.315 0 01-.233-.087.429.429 0 00-.203-.116 1.668 1.668 0 00-.698.029 1.614 1.614 0 01-.61.116c-.213-.058-.329-.184-.348-.377 0-.214-.02-.407-.058-.582a1.06 1.06 0 00.058-.494c0-.193.048-.358.145-.493.019-.214.029-.417.029-.611v-1.162l.058-.639a2.016 2.016 0 01-.087-.901c.058-.31.068-.629.029-.959a2.618 2.618 0 01-.029-.668c.019-.232.01-.455-.029-.668.058-.465.087-.92.087-1.366v-2.557c-.097-.097-.106-.193-.029-.29.077-.097.077-.204 0-.32a8.463 8.463 0 000-1.714c-.058-.02-.068-.039-.029-.058.039-.02.039-.049 0-.088.058-.213.077-.464.058-.755a5.353 5.353 0 010-.784c.039-.214.048-.427.029-.64v-.639a.817.817 0 01-.029-.378.716.716 0 000-.406 6.31 6.31 0 00.029-1.046 21.199 21.199 0 00-.087-1.076.192.192 0 00.029-.174c0-.077.039-.135.116-.174.504.039 1.037.048 1.598.029a11.313 11.313 0 011.627 0h.117zm7.235 16.387v-.029c.484.058.881.078 1.191.058.329-.019.736-.029 1.22-.029.116.097.165.213.145.349a.624.624 0 00.059.378c.038.193.058.387.058.581a.924.924 0 01-.117.552.705.705 0 01.029.349.503.503 0 00.03.29 1.316 1.316 0 000 .552c.038.194-.03.359-.204.494a.59.59 0 00-.552-.174 1.958 1.958 0 01-.581.029 9.715 9.715 0 00-.93-.058 4.979 4.979 0 00-.901.029.75.75 0 01-.464.087 2.146 2.146 0 00-.494 0c-.291-.116-.601-.155-.93-.116-.31.038-.62.058-.93.058-.019.135-.087.184-.203.145a1.815 1.815 0 00-.262-.029.464.464 0 00-.29.116c-.097.078-.194.058-.291-.058a.683.683 0 00-.436.029c-.135.058-.242-.009-.319-.203 0-.155.009-.3.029-.436a.773.773 0 00-.029-.465.64.64 0 000-.378c-.02-.155-.02-.3 0-.435 0-.194-.01-.388-.029-.582 0-.193.019-.377.058-.552a.245.245 0 010-.232.315.315 0 000-.262.59.59 0 01.465-.087c.174.039.339.049.493.029.291-.058.591-.067.901-.029.33.039.659.039.988 0 .155.039.281.058.378.058.116-.019.252-.029.407-.029.251.02.494.029.726.029a9.28 9.28 0 01.755-.029h.03zm-2.964-16.416a.374.374 0 01.29 0 .451.451 0 00.32 0h4.62a.315.315 0 01.058.261c0 .078.01.155.029.233-.019.31 0 .629.058.959.078.329.068.639-.029.929a.505.505 0 00-.029.291c.019.097.029.194.029.291a.603.603 0 010 .261c-.019.077-.077.145-.174.203a.927.927 0 00-.465-.116.878.878 0 00-.465.145c-.407-.155-.736-.222-.988-.203a9.42 9.42 0 01-1.046 0 7.126 7.126 0 00-.901 0c-.29 0-.581-.019-.871-.058-.291.019-.581.048-.872.087a2.846 2.846 0 01-.814 0 .409.409 0 01-.232.058c-.077 0-.165.01-.262.029a.527.527 0 00-.232.058c-.058.02-.097.088-.116.204 0 .039.009.087.029.145.019.058.01.107-.029.145-.078 0-.116-.038-.116-.116.019-.097.009-.165-.029-.203a.51.51 0 01-.088-.494.744.744 0 00.058-.494l.059-1.133c.019-.388.019-.775 0-1.163a.874.874 0 00-.029-.203c-.02-.077 0-.136.058-.174.329.038.687.048 1.075.029.387-.02.755-.01 1.104.029zm.988 8.223c.368 0 .707.019 1.017.058.329.019.687.009 1.075-.029.116-.078.193-.049.232.087.039.116.087.194.145.232.02.116.068.213.146.291a.73.73 0 01.029.349c-.02.096-.049.203-.087.319a1.575 1.575 0 00-.088.32.49.49 0 00.059.319c0 .446.029.872.087 1.279a1.767 1.767 0 00-.116.203.282.282 0 01-.117.145c-.116 0-.184.049-.203.146a.205.205 0 01-.174.174.512.512 0 01-.059-.232c.02-.078-.009-.146-.087-.204a.871.871 0 00-.465.146c-.155.077-.3.019-.435-.175-.078-.019-.146.01-.204.087-.058.078-.106.058-.145-.058a2.57 2.57 0 00-.465-.058c-.116 0-.271-.019-.465-.058-.039.097-.077.116-.116.058-.019-.077-.058-.106-.116-.087a10.631 10.631 0 00-1.104 0c-.291 0-.659.01-1.105.029-.038.019-.067.077-.087.174v.611c.02.077.029.135.029.174 0 .058-.038.155-.116.29-.058.136-.116.184-.174.146-.097-.058-.136-.146-.116-.262.019-.116.048-.223.087-.319a.476.476 0 000-.233 2.507 2.507 0 00-.087-.349c-.02-.116-.039-.222-.059-.319 0-.116.02-.204.059-.262-.039-.038-.059-.097-.059-.174 0-.116.01-.203.029-.261v-.175a.45.45 0 000-.232l.088-2.15a5.167 5.167 0 011.104 0c.31.038.668.048 1.075.029h.494a4.33 4.33 0 01.494-.029zm17.05 3.719c-.038.038-.038.077 0 .116.175.213.33.455.465.726.155.252.31.485.465.698.155.232.291.465.407.697.136.232.252.455.349.668.232.33.445.678.639 1.046.194.349.416.688.668 1.017.078.213.175.417.291.61.135.194.252.398.348.611.214.271.407.523.582.755.174.213.348.455.523.726-.039.097-.029.155.029.175.058.019.048.077-.029.174.019.233 0 .32-.059.262a4.317 4.317 0 01-.232-.262 1.053 1.053 0 00-.232-.261c-.059-.078-.088-.01-.088.203-.019.078-.067.107-.145.087a.663.663 0 01-.232-.058 5.83 5.83 0 00-.262-.058c-.077 0-.135.039-.174.116a1.35 1.35 0 00-.029.32v.842c.019.136.029.233.029.291 0 .058-.039.126-.116.203-.078.078-.136.097-.175.058-.058-.038-.087-.135-.087-.29 0-.136.01-.291.029-.465l.058-.465a.681.681 0 000-.29.716.716 0 00-.087-.204c-.058-.077-.184-.126-.378-.145a5.087 5.087 0 00-.552-.029h-.552c-.155-.02-.252-.058-.29-.116-.078-.117-.136-.184-.175-.204a.319.319 0 00-.058-.087.44.44 0 00-.087-.116l-.116-.233a5.494 5.494 0 00-.639-1.017 8.734 8.734 0 01-.64-1.016 9.208 9.208 0 00-.639-1.017c-.194-.31-.416-.649-.668-1.017a7.61 7.61 0 01-.523-.843c-.155-.291-.32-.571-.494-.843a3.61 3.61 0 00-.494-.61 1.14 1.14 0 01-.291-.697c-.077.019-.116.068-.116.145 0 .078-.029.126-.087.145-.097 0-.145-.048-.145-.145v-.116c0-.019-.02-.049-.058-.087-.175-.097-.281-.194-.32-.291a1.07 1.07 0 010-.348c.039-.117.068-.233.087-.349a.624.624 0 000-.378.277.277 0 01.087-.261c.078-.078.068-.165-.029-.262a1.09 1.09 0 000-.61 2.332 2.332 0 01-.029-.639c.058-.097.213-.146.465-.146.194 0 .407.01.639.029.252.02.494.039.727.059.232.019.445.038.639.058.194 0 .329-.01.407-.029.174-.039.358-.088.552-.146.213-.058.416-.116.61-.174.213-.077.397-.155.552-.232.174-.078.31-.165.407-.262a.991.991 0 00.29-.407 3.21 3.21 0 00.204-1.365c-.02-.31-.049-.62-.087-.93-.039-.329-.223-.659-.552-.988-.33-.329-.64-.6-.93-.814-.058-.038-.184-.067-.378-.087a3.49 3.49 0 00-.668-.058 10.843 10.843 0 00-.814-.029 10.867 10.867 0 00-.755-.029h-.639c-.039.039-.068.155-.088.349 0 .174-.009.358-.029.552 0 .193-.029.358-.087.494-.039.135-.116.174-.232.116-.02 0-.029-.048-.029-.145v-.901a.368.368 0 00-.058-.291.374.374 0 010-.29c-.117-.039-.184-.087-.204-.145a.66.66 0 01-.029-.204.867.867 0 00.029-.203.202.202 0 00-.058-.204.553.553 0 00.058-.348 2.198 2.198 0 00-.087-.349l-.058-.349c0-.116.029-.232.087-.348a.412.412 0 01-.058-.233 1 1 0 01.087-.261c-.039-.097-.039-.165 0-.204.058-.038.087-.106.087-.203.02-.019.078-.019.175 0 .116.019.184.019.203 0 .097-.019.184-.029.262-.029h.29c.097 0 .184.01.262.029a.97.97 0 01.232.029c.136-.039.291-.087.465-.145.194-.058.368-.078.523-.058.135.058.31.106.523.145a7 7 0 01.639.087c.233.019.455.049.668.087.213.02.388.058.523.116.213.039.378.107.494.204.136.097.301.165.494.203.485.271.92.63 1.308 1.075.407.446.746.862 1.017 1.25.271.387.445.871.523 1.453.077.581.135 1.094.174 1.539a.675.675 0 00-.116.378c.019.136.019.262 0 .378-.019.155-.039.32-.058.494-.02.155-.049.319-.087.494l.029.029c.019.174-.01.29-.087.349a.322.322 0 00-.117.116.998.998 0 00-.174.348 8.348 8.348 0 00-.116.378 2.588 2.588 0 01-.146.349.746.746 0 01-.261.29c0 .097-.078.204-.233.32a.934.934 0 01-.174.32 1.114 1.114 0 00-.174.145 5.32 5.32 0 00-.204.145 2.01 2.01 0 00-.29.291 2.844 2.844 0 00-1.133.523 2.645 2.645 0 01-1.163.523zm-6.392-11.71c-.058.698-.097 1.182-.116 1.453v.523a.312.312 0 00.058.116c.019 0 .029.087.029.262.02.426.029.862.029 1.307v3.952c.058.194.078.407.058.639a7.19 7.19 0 00-.029.639c.02.581.02 1.172 0 1.773-.019.6-.029 1.191-.029 1.772 0 .697.01 1.424.029 2.179.02.736.02 1.463 0 2.18.02 0 .029.009.029.029a7.508 7.508 0 00-.029.668v1.307l.058.64c0 .096-.058.203-.174.319-.097.039-.155.02-.174-.058-.02-.077-.068-.116-.146-.116-.271-.02-.552-.029-.842-.029a1.164 1.164 0 00-.727.174 1.231 1.231 0 00-.61-.145 3.724 3.724 0 00-.668 0l-.058.058c-.02 0-.039.01-.058.029l-.175-.116c-.058-.058-.058-.126 0-.204 0-.038.02-.058.059-.058a5.936 5.936 0 000-1.162 6.076 6.076 0 010-1.191 1.007 1.007 0 01-.059-.581c.059-.194.068-.378.029-.552a2.457 2.457 0 000-.756 2.15 2.15 0 01.03-.784.505.505 0 01-.03-.291.492.492 0 00-.029-.29c.039-.582.039-1.143 0-1.686a18.685 18.685 0 01.029-1.772 103.84 103.84 0 00-.058-.581 2.678 2.678 0 010-.552c-.019-.271 0-.523.058-.756a1.428 1.428 0 00-.029-.755c-.038-.058-.029-.087.029-.087.039 0 .049-.029.03-.088a.35.35 0 010-.203c.038-.039.019-.077-.059-.116-.077-.039-.096-.078-.058-.116.117-.097.155-.272.117-.523-.02-.252-.039-.456-.059-.611-.019-.29-.038-.571-.058-.842 0-.291.039-.572.117-.843a.754.754 0 01-.175-.377v-.436c.039-.155.049-.301.029-.436a.885.885 0 01.058-.436c0-.155-.009-.31-.029-.465 0-.174.02-.339.058-.494a2.84 2.84 0 000-.813 5.41 5.41 0 010-.785c.213-.019.427-.029.64-.029a7.19 7.19 0 01.639-.029c.232 0 .455-.01.668-.029.233-.039.455-.078.668-.116h.146l.029.029a.678.678 0 00.174.087c.097.039.291.097.581.174zm-52.727 35.233c-.02.387-.03.833-.03 1.336.02.485.01.93-.028 1.337a.735.735 0 01-.436.145c-.155-.019-.281.049-.378.204-.33.309-.581.629-.755.958-.097.213-.126.388-.088.523.04.136.059.31.059.523.116.136.203.272.261.407.058.116.126.233.203.349.097.116.223.232.378.348.155.117.378.233.669.349.154.058.368.155.639.291.271.135.484.213.639.232.33.039.62.107.872.204.27.077.561.135.871.174.097.058.204.106.32.145a.61.61 0 01.349.174c.329.136.61.291.842.465.252.155.543.301.872.436.097.116.271.242.523.378s.436.261.552.378c.155.155.261.242.32.261.058.02.155.116.29.291.116.174.203.358.262.552.096.31.203.639.32.988.135.348.241.687.319 1.017.058.251.077.552.058.9 0 .349-.03.698-.087 1.046a8.607 8.607 0 01-.233 1.017c-.097.31-.203.572-.32.785-.096.155-.193.3-.29.436a2.302 2.302 0 01-.29.348c-.271.31-.514.581-.727.814-.213.213-.513.378-.9.494-.194.135-.388.281-.582.436a.777.777 0 00-.261.61v.203c.02.078 0 .136-.058.175-.097 0-.155-.039-.175-.117v-.261c.02-.116.04-.223.059-.32a.665.665 0 00.058-.203c-.058-.058-.117-.068-.175-.029a3.987 3.987 0 01-.174.494c-.039.058-.078.077-.116.058a.914.914 0 01-.058-.174c-.02-.078-.049-.126-.088-.146-.193.097-.29.271-.29.523 0 .097-.01.194-.03.291a.469.469 0 01-.086.29.196.196 0 01-.145-.058c.038-.155.048-.3.028-.436a1.423 1.423 0 010-.406.28.28 0 00-.203-.088 10.26 10.26 0 01-.436.175c-.038 0-.048-.02-.029-.058l.058-.175c.04-.058.02-.096-.058-.116-.077-.039-.087-.077-.029-.116.078-.039.097-.097.058-.174 0-.117-.01-.223-.029-.32a.737.737 0 00-.116-.349v-.639c.02-.232.01-.455-.03-.668.098-.116.156-.175.175-.175.02-.019.068-.087.146-.203.019-.058.01-.106-.03-.145-.038-.039-.019-.078.059-.116a.916.916 0 01.494-.146c.154-.097.251-.184.29-.261.058-.097.174-.175.349-.233.097-.116.164-.232.203-.348.039-.117.107-.233.204-.349.232-.232.368-.533.406-.901.04-.387.078-.726.117-1.017.019-.193-.049-.339-.204-.436a1.753 1.753 0 01-.349-.406 1.584 1.584 0 00-.755-.61 4.227 4.227 0 00-.9-.32l-.407-.116a.434.434 0 00-.407.029c-.039.019-.058-.039-.058-.175.019-.135 0-.193-.058-.174-.059.039-.146.01-.262-.087a5.877 5.877 0 01-.494-.349c-.174-.135-.29-.126-.349.029-.019.039-.048.049-.087.029l-.116-.116a.438.438 0 00-.116-.087c-.02-.039-.03-.039-.03 0-.057.252-.115.349-.174.291-.038-.078-.048-.146-.029-.204.04-.135-.029-.223-.203-.261-.155-.058-.261-.068-.32-.029-.097.096-.164.077-.203-.059-.02-.135-.087-.203-.203-.203a.615.615 0 01-.407-.145 1.04 1.04 0 00-.378-.233 12.063 12.063 0 01-.93-.348 3.182 3.182 0 01-.813-.611 2.307 2.307 0 01-.29-.348 1.51 1.51 0 00-.291-.32 1.174 1.174 0 00-.175-.145.429.429 0 01-.145-.203 5.367 5.367 0 01-.087-.407.666.666 0 00-.145-.378c-.097-.136-.136-.261-.117-.378.04-.116.02-.242-.058-.377a.75.75 0 01-.058-.582c.078-.232.068-.435-.029-.61a.618.618 0 00.03-.319.559.559 0 01.057-.349c0-.252.039-.484.116-.697.097-.213.165-.436.204-.669.077-.116.145-.232.203-.348.078-.116.146-.242.204-.378.348-.446.697-.785 1.046-1.017a7.127 7.127 0 011.336-.697c.078-.02.145-.039.204-.058.058-.02.106-.039.145-.059.232-.096.455-.174.668-.232.213-.058.475-.126.785-.203 0 .097.029.174.087.232.077.058.116.116.116.174 0 .039-.039.088-.116.146zm5.608.465c.077.116.174.164.29.145.136-.039.223.01.262.145.232.174.406.368.523.581.135.213.29.426.465.64a.59.59 0 00.116.319c.097.116.145.223.145.32 0 .058-.048.116-.145.174a4.898 4.898 0 01-.552.262 3.894 3.894 0 00-.494.261 2.226 2.226 0 01-.407.233 1.014 1.014 0 00-.378.203.72.72 0 00-.406.116 1.82 1.82 0 01-.32.204.74.74 0 01-.29 0c.019-.136-.02-.233-.117-.291a1.524 1.524 0 01-.232-.32.85.85 0 00-.378-.406 11.12 11.12 0 01-.494-.291c-.116.077-.223.077-.32 0-.077-.077-.164-.087-.261-.029-.039.039-.058.145-.058.32.02.155.029.329.029.523 0 .193-.01.358-.03.494 0 .135-.048.193-.145.174-.058-.097-.116-.329-.174-.697a10.885 10.885 0 01-.058-1.076c0-.232.03-.406.087-.523 0-.426.01-.823.03-1.191.019-.368.028-.775.028-1.22-.02 0 .03-.02.146-.058.58 0 1.133.087 1.656.261a5.572 5.572 0 011.482.727zm-9.676 12.9a5.39 5.39 0 01.784 0c.291 0 .543.01.756.029a.433.433 0 01.116.32.91.91 0 00.116.32c.04.155.068.3.088.435.019.136.077.281.174.436.271.233.552.494.843.785.29.29.63.436 1.017.436.077.058.116.106.116.145.02.019.029.048.029.087v.087l.058.175c0 .271-.039.561-.116.871a4.431 4.431 0 00-.087.872c0 .194.038.358.116.494 0 .077-.03.136-.087.174l-.117.116c-.038.02-.067.059-.087.117-.02.038-.01.106.03.203a1.189 1.189 0 000 .523c.057.213.048.378-.03.494-.039.039-.077.039-.116 0-.039-.019-.058-.048-.058-.087a1.465 1.465 0 000-.581 5.014 5.014 0 01-.03-.552 10.766 10.766 0 00-.086-.087.193.193 0 00-.088-.088c-.096-.038-.164-.009-.203.088-.039.077-.087.096-.145.058 0-.058.01-.117.029-.175.02-.058-.02-.106-.116-.145-.194.019-.272.107-.233.262.058.154.058.28 0 .377-.097.136-.165.136-.203 0a2.5 2.5 0 01-.03-.407 10.594 10.594 0 01-1.103-.697 12.652 12.652 0 00-1.075-.697 1.27 1.27 0 01-.553-.552 2.22 2.22 0 00-.406-.639 41.224 41.224 0 01-.32-.378 2.73 2.73 0 00-.32-.436c-.096-.116-.135-.233-.116-.349.02-.135-.02-.29-.116-.465a1.798 1.798 0 01-.145-.697v-.378c0-.135-.01-.271-.03-.406.04-.02.05-.039.03-.059-.02-.019-.01-.038.029-.058.155-.019.3-.029.436-.029h.406c.136 0 .272.01.407.029.136 0 .281.01.436.029zm6.48-9.007c.019.019.029.078.029.174v.146c-.04.038-.049.077-.03.116.02.019.03.039.03.058a.546.546 0 00-.03.174c.02.058.03.117.03.175-.02.019-.04.029-.059.029a1.48 1.48 0 01-.029-.291.73.73 0 000-.29.327.327 0 00-.029-.146c0-.058.02-.116.058-.174l.03.029zm-.117 1.831c.02.096-.01.135-.087.116-.077-.02-.135-.01-.174.029 0-.02.02-.087.058-.204.058-.038.126-.019.203.059zm20.421 5.724l.058-.175c0-.077-.029-.126-.087-.145-.039-.019-.058-.116-.058-.291-.077.02-.126-.009-.145-.087a.206.206 0 00-.175-.174 1.289 1.289 0 00-.174.116c-.019 0-.029.01-.029.029v.087c.019.02.019.068 0 .146a.424.424 0 00-.087.116c-.019.019-.058.019-.116 0-.039-.155-.049-.252-.029-.291.038-.038.038-.135 0-.29-.039-.136-.068-.204-.088-.204 0-.019-.009-.009-.029.029 0 .039-.019.078-.058.117-.038.038-.116.038-.232 0-.078-.039-.136-.039-.175 0a.365.365 0 00-.058.145.817.817 0 01-.029.203.357.357 0 01-.058.204 1.989 1.989 0 00-.058.232l-.058.291a5.477 5.477 0 01-.058.261c-.02.058-.049.078-.087.058a.474.474 0 01-.117-.261v-.349c0-.135-.009-.261-.029-.378a.47.47 0 00-.087-.29c-.174.058-.252.184-.232.378.039.174.048.329.029.464-.116.233-.136.514-.058.843.077.31.077.581 0 .814-.039.097-.049.232-.029.406.038.175 0 .252-.117.233-.096 0-.154-.116-.174-.349v-.813c.02-.33.039-.669.058-1.017.02-.368.02-.678 0-.93-.116-.136-.174-.358-.174-.668 0-.194.01-.407.029-.64.039-.251.058-.494.058-.726a7.91 7.91 0 00.029-.639 1.34 1.34 0 00-.087-.523c.291 0 .552.009.784.029.252.019.514.01.785-.029.116.019.203.029.261.029h.262c.019-.02.058-.029.116-.029h.378c.039-.368.048-.678.029-.93 0-.271-.01-.523-.029-.755l-.058-.756c0-.271.019-.581.058-.93a5.477 5.477 0 00-.058-.261.397.397 0 01.058-.291c.039-.097.019-.193-.058-.29-.058-.097-.02-.184.116-.262.058-.174.078-.358.058-.552a2.123 2.123 0 01.029-.61.557.557 0 01-.058-.494.622.622 0 00-.029-.494.962.962 0 01-.029-.523.775.775 0 00-.029-.552.367.367 0 000-.203v-.204c0-.174.058-.261.174-.261a15.42 15.42 0 011.656.029c.562.019 1.124.009 1.686-.029l.058.058c.077.62.077 1.23 0 1.83a6.746 6.746 0 000 1.773 255.996 255.996 0 00-.029 6.741c.038 2.247.038 4.445 0 6.595 0 .291.009.581.029.872a3.05 3.05 0 010 .843.918.918 0 00.058.552c.097.193.058.368-.116.523a1.542 1.542 0 00-.552-.146c-.213-.019-.417 0-.611.059a3.589 3.589 0 01-.639 0c-.213-.02-.426 0-.639.058l-.232.116a.26.26 0 00-.175.145.505.505 0 00-.029.291c.02.116-.039.184-.174.203-.058-.058-.058-.136 0-.232a.247.247 0 000-.233 17.52 17.52 0 01-.116-.174c-.155-.097-.252-.213-.291-.349a1.899 1.899 0 01-.058-.465l.058-.465c.039-.174.048-.339.029-.494a4.442 4.442 0 01-.058-1.016c.039-.369.068-.717.087-1.047.02-.154 0-.319-.058-.493a.793.793 0 01.058-.523 1.9 1.9 0 01-.058-.93c.078-.33.039-.639-.116-.93-.058-.078-.068-.145-.029-.203l.116-.175.145-.145c.039-.058.029-.126-.029-.203zm-7.7-9.618c0 .523.01 1.191.029 2.005.02.794.03 1.559.03 2.295v1.25c.329 0 .542-.01.639-.029.116-.02.271-.029.465-.029h.203c.097 0 .194.009.291.029a1.03 1.03 0 01.639-.029c.213.058.426.077.639.058.039.019.048.048.029.087 0 .019.019.039.058.058.039.271.049.513.029.726 0 .214-.019.427-.058.64-.019.193-.039.397-.058.61 0 .213.019.455.058.726.039.116.039.204 0 .262a1.172 1.172 0 01-.145.174.764.764 0 00-.145.203c-.02.059 0 .146.058.262a.737.737 0 00-.029.232c0 .097-.039.155-.117.175a.494.494 0 01-.058-.407c.058-.174 0-.291-.174-.349-.252.02-.523.02-.814 0a1.51 1.51 0 00-.784.087h-.32a.335.335 0 01-.087-.058.352.352 0 00-.087-.058c-.039-.038-.136-.068-.291-.087-.019.019-.029.097-.029.233.02.135.029.29.029.464a34.755 34.755 0 00.088.727c.019.562.009 1.114-.029 1.656-.02.542 0 1.094.058 1.656a4.77 4.77 0 00-.058 1.511 5.74 5.74 0 01.029 1.511.45.45 0 000 .232c.019.059-.02.136-.117.233a.533.533 0 00-.348.261 1.957 1.957 0 01-.204.407.475.475 0 01-.029-.29c.039-.097-.009-.155-.145-.175-.194 0-.368-.029-.523-.087-.136-.039-.28-.077-.436-.116a1.596 1.596 0 00-.436-.116 1.506 1.506 0 00-.523-.029c-.097-.078-.213-.097-.348-.059-.136.039-.233 0-.29-.116 0-.29-.01-.649-.03-1.075 0-.426.02-.775.058-1.046a4.065 4.065 0 01-.058-.668c.02-.213.01-.417-.029-.61.058-.213.068-.446.029-.698-.02-.271-.01-.513.03-.726.038-1.065.047-2.14.028-3.225v-3.254a.762.762 0 00.03-.233.394.394 0 00-.03-.261c0-.272-.01-.543-.029-.814a11.39 11.39 0 01-.029-.814 1.126 1.126 0 01-.029-.435l.058-.407c0-.639.01-1.279.03-1.918a12.6 12.6 0 00-.03-1.918c-.058-.038-.077-.087-.058-.145a.476.476 0 00.029-.145.684.684 0 01-.029-.436c.039-.155.058-.31.058-.465a.522.522 0 00-.087-.261c.097-.097.184-.117.261-.058.097.058.204.048.32-.029.426.096.91.125 1.453.087a6.069 6.069 0 011.453 0c0 .116-.029.252-.088.406a.525.525 0 00-.029.378c.02.33.02.668 0 1.017 0 .349.01.688.029 1.017zm18.036-2.731c.213 0 .416.01.61.029.213 0 .417-.019.61-.058.097.039.146.077.146.116 0 .078.029.126.087.145 0 .155-.029.272-.087.349 0 .271.019.533.058.784.058.252.067.514.029.785a.961.961 0 00-.175.726c.058.252.078.514.058.785a7.19 7.19 0 00-.029.639c.02.213.029.426.029.639 0 .252.01.494.03.727.038.232.019.474-.059.726-.038.155-.048.3-.029.436.02.136.02.281 0 .436a1.802 1.802 0 000 .639c.039.232.049.455.029.668a8.546 8.546 0 000 1.395c.039.446.039.891 0 1.337.02 0 .029.048.029.145a.56.56 0 010 .261c-.019.097 0 .175.059.233.019.445 0 .891-.059 1.336a7.854 7.854 0 000 1.337c.02.213.01.416-.029.61-.019.174 0 .368.059.581.019.543 0 1.056-.059 1.54-.038.465 0 .949.117 1.453-.02.116-.02.242 0 .378.038.116.067.242.087.377a1.188 1.188 0 00-.058.378c0 .271-.01.562-.029.872-.02.31-.088.465-.204.465-.038 0-.068-.078-.087-.233 0-.155-.019-.348-.058-.581 0-.058.019-.145.058-.261.039-.097.029-.175-.029-.233a.462.462 0 00-.203-.058.51.51 0 01-.204.029 2.519 2.519 0 00-.552-.058 5.948 5.948 0 01-.581.029c-.039.039-.077.058-.116.058-.078 0-.126-.009-.145-.029a1.454 1.454 0 00-.756-.087 1.819 1.819 0 01-.726.029c-.136-.136-.175-.252-.117-.349a.71.71 0 00.117-.406c-.02-.388 0-.795.058-1.221a4.5 4.5 0 000-1.249.353.353 0 010-.204.367.367 0 000-.203v-8.6c0-1.395-.02-2.092-.058-2.092v-.03c.019-.929.019-1.869 0-2.818 0-.949.009-1.86.029-2.731.271.019.542.019.813 0 .291-.039.572-.049.843-.029a.456.456 0 01.232 0c.097.019.184.039.262.058zm9.687.668l-.059 2.005v1.976c.02.813.02 1.569 0 2.266-.019.697-.009 1.453.03 2.267.019 0 .029.038.029.116a.576.576 0 00-.059.377c.039.155.059.291.059.407.038.639.048 1.24.029 1.802-.02.561-.029 1.172-.029 1.83 0 .988-.02 1.966-.059 2.935a39.28 39.28 0 000 2.993c.039.019.049.048.03.087l-.059.058c-.155.058-.309.077-.464.058h-1.424a1.26 1.26 0 00-.465-.029c-.136.019-.281.01-.436-.029h-.349a.286.286 0 01-.261-.145.626.626 0 00.029-.494.962.962 0 01.029-.523 2.146 2.146 0 010-.494 2.399 2.399 0 000-.523c0-1.279-.01-2.557-.029-3.836 0-1.298.019-2.586.058-3.864a7 7 0 01-.087-.639v-.64a18.778 18.778 0 01-.029-2.76c.058-.91.077-1.859.058-2.847 0-.504-.01-1.008-.029-1.511v-1.54l2.818-.087c.097-.078.194-.088.291-.029.097.038.135.009.116-.088.116.02.184.068.203.146.02.077.03.164.03.261 0 .078-.01.165-.03.262 0 .097.02.174.059.232zm6.886 10.838c.019.019-.039.068-.175.145-.135.058-.29.126-.464.204l-.465.174a1.714 1.714 0 01-.262.087 2.663 2.663 0 01-.842.116h-.436c-.136 0-.271-.009-.407-.029-.271 0-.552.039-.843.117a1.08 1.08 0 01-.842-.117c-.097-.058-.155-.126-.175-.203 0-.097.01-.194.029-.291.039-.116.068-.222.088-.319a.634.634 0 00.029-.32 5.11 5.11 0 01-.087-.494c-.02-.155-.039-.319-.059-.494.039-.252.068-.436.088-.552.038-.135.058-.223.058-.261 0-.078-.01-.107-.029-.087-.02 0-.058-.068-.117-.204-.019-.097.039-.145.175-.145.077 0 .145.01.203.029a.933.933 0 00.145.029c.039.019.126.048.262.087.155.039.339.039.552 0a3.22 3.22 0 00.61-.174c.213-.078.513-.126.901-.146.116-.038.261-.077.436-.116.174-.058.329-.106.465-.145.348 0 .59-.165.726-.494.136-.329.261-.639.378-.93-.039-.193-.02-.416.058-.668.097-.252.087-.475-.029-.668a.847.847 0 01-.087-.581c.038-.233-.02-.398-.175-.494a.892.892 0 00-.319-.291 5.77 5.77 0 01-.349-.232c-.039-.136-.087-.223-.145-.262a.412.412 0 00-.233-.058.708.708 0 00-.261.058.978.978 0 01-.233.029c-.116 0-.184-.097-.203-.29a1.714 1.714 0 01-.262.087h-.116a.849.849 0 00-.203-.058c-.097-.02-.145-.02-.145 0h-.117c-.038 0-.058.067-.058.203.02.136.029.291.029.465.02.174.01.339-.029.494-.019.136-.087.213-.203.232-.039 0-.068-.058-.087-.174 0-.136-.01-.281-.029-.436 0-.174-.01-.319-.029-.436-.02-.135-.039-.203-.059-.203-.077-.039-.116-.078-.116-.116 0-.039-.106-.058-.319-.058a.93.93 0 00-.233.029c-.077 0-.194.038-.349.116-.174.097-.261.126-.261.087 0-.058-.01-.087-.029-.087-.058 0-.145-.058-.262-.174-.038-.039-.058-.117-.058-.233 0-.155.01-.329.029-.523a5.48 5.48 0 00.029-.465v-1.191c0-.116-.009-.213-.029-.291v-.406c0-.039.01-.097.029-.175.039-.077.126-.106.262-.087l.32.029.435-.029 1.221.029 1.452.058.175.087.29.117c.097.038.184.077.262.116.097.019.155.029.174.029.465.116.833.3 1.104.552.272.252.581.571.93.959.058.116.126.232.203.349l.233.29c.039.116.097.233.174.349l.291.348c.116.117.213.233.29.349a.748.748 0 01.175.349.772.772 0 01.087.348c.019.097.048.204.087.32a.862.862 0 00.029.581c.078.174.107.368.087.581-.077.136-.087.32-.029.552.058.213.058.388 0 .523l-.058.291v.29c0 .097-.029.136-.087.117-.039-.039-.078-.029-.116.029l-.175.29a.777.777 0 00-.116.378c0 .155.01.291.029.407.039.116-.039.242-.232.378-.097.077-.116.145-.058.203.058.039.019.077-.117.116-.058.039-.087.087-.087.145 0 .117-.058.204-.174.262a.887.887 0 00-.291.203.738.738 0 01-.174.175c-.058.038-.068.116-.029.232a.436.436 0 01-.058.174c-.019.078-.049.097-.087.059-.058-.02-.078-.059-.058-.117.038-.077.038-.145 0-.203 0-.078-.039-.029-.117.145-.077.155-.096.271-.058.349l-.523.203-.145.058a.997.997 0 00-.262.117 3.146 3.146 0 00-.261.116c-.077.039-.107.068-.087.087zm-3.225 7.438c0 .058-.01.146-.029.262a.57.57 0 00.058.261 4.615 4.615 0 00-.029 1.162c.058.407.048.795-.029 1.163-.097-.039-.146-.107-.146-.204a.946.946 0 00-.058-.29c.058-.213.068-.436.029-.669a8.767 8.767 0 00-.087-.668l-.058-.639c0-.232.048-.455.145-.668.078.019.126.058.146.116l.058.174z" fill="#fff"/><path stroke="#fff" stroke-width="5.283" d="M.88 218.359H221M.88 2.641H221M2.641 220.12V0m214.837 221V.88"/></svg>