<svg width="263" height="228" fill="none" xmlns="http://www.w3.org/2000/svg"><path d="M140.286 135.898c-.383 0-.754.059-1.117.178a3.675 3.675 0 00-1.822 1.292c-.229.305-.41.638-.535.997h-2.921a3.661 3.661 0 00-.534-1 3.675 3.675 0 00-4.059-1.295 3.675 3.675 0 00-2.354 2.295h-2.921a3.703 3.703 0 00-1.345-1.79 3.675 3.675 0 00-3.248-.505 3.675 3.675 0 00-2.354 2.295h-2.696v2.467h2.696a3.7 3.7 0 00.531.998c.229.305.499.57.811.789a3.648 3.648 0 002.131.68 3.654 3.654 0 002.939-1.469c.232-.306.407-.639.535-.998h2.921a3.675 3.675 0 001.342 1.787 3.659 3.659 0 002.132.68 3.643 3.643 0 002.128-.68 3.709 3.709 0 001.345-1.787h2.921a3.675 3.675 0 001.342 1.787 3.642 3.642 0 002.132.68 3.643 3.643 0 002.128-.68 3.709 3.709 0 001.345-1.787h3.928v-2.467h-3.928a3.698 3.698 0 00-2.357-2.289 3.56 3.56 0 00-1.116-.178zm-19.737 4.934a1.228 1.228 0 01-.872-.362 1.233 1.233 0 11.872.362zm9.869 0a1.232 1.232 0 01-.873-.362 1.214 1.214 0 01-.267-.401 1.217 1.217 0 010-.944 1.26 1.26 0 01.668-.668c.151-.062.308-.092.472-.092.163 0 .32.03.472.092a1.278 1.278 0 01.668.668c.062.151.092.309.092.472 0 .163-.03.321-.092.472a1.29 1.29 0 01-.271.401 1.24 1.24 0 01-.869.362zm9.868 0a1.232 1.232 0 01-.873-.362 1.214 1.214 0 01-.267-.401 1.217 1.217 0 010-.944 1.26 1.26 0 01.668-.668c.151-.062.308-.092.472-.092.163 0 .32.03.472.092a1.292 1.292 0 01.668.668c.062.151.092.309.092.472 0 .163-.03.321-.092.472a1.305 1.305 0 01-.27.401 1.24 1.24 0 01-.87.362zm-17.27 3.699h2.468v2.467h-2.468v-2.467zm9.868 0h2.467v2.467h-2.467v-2.467z" fill="#fff"/><path d="M163.721 106.293v-9.868a1.233 1.233 0 00-.359-.873 1.23 1.23 0 00-.873-.362 3.511 3.511 0 01-1.918-.486 6.45 6.45 0 00-3.022-.749 6.503 6.503 0 00-3.022.748 3.49 3.49 0 01-1.906.487 1.23 1.23 0 00-.873.362c-.116.116-.205.25-.267.401a1.218 1.218 0 00-.095.472v6.166c0 .164.032.321.095.472.062.152.151.285.267.401.116.116.249.205.401.267.151.063.309.095.472.095a5.898 5.898 0 003.013-.748 3.977 3.977 0 011.918-.487c.68 0 1.318.164 1.918.487.564.3 1.158.511 1.784.63v2.585h-11.1v2.467h2.871c.564 1.598.84 3.242.828 4.935a13.799 13.799 0 01-1.11 5.616 1.225 1.225 0 00-.128.609c.006.104.024.208.053.309a1.27 1.27 0 00.33.528 1.262 1.262 0 00.543.3c.104.027.208.039.312.039h7.401v6.412l-7.389.998a1.235 1.235 0 00-1.022.881l-.448 1.577h-17.043v-2.467h8.633c.282 0 .537-.086.76-.262.222-.175.368-.397.436-.673a51.426 51.426 0 001.271-11.4 40.048 40.048 0 00-.87-8.637h2.105v-2.467h-12.335v-2.467h7.401c.338 0 .629-.118.87-.362.267-.264 1.597-1.796 1.597-5.804a12.52 12.52 0 00-.493-3.702h1.725v-2.467h-11.1v-9.868a1.236 1.236 0 00-1.235-1.232 3.514 3.514 0 01-1.918-.49 6.403 6.403 0 00-1.464-.555 6.398 6.398 0 00-1.558-.19 6.4 6.4 0 00-1.556.19 6.48 6.48 0 00-1.467.555 3.515 3.515 0 01-1.906.49 3.513 3.513 0 01-1.911-.487 5.914 5.914 0 00-3.023-.748 1.234 1.234 0 00-1.232 1.235v6.166a1.233 1.233 0 00.36.873 1.232 1.232 0 00.872.362c.683-.02 1.321.14 1.912.484.466.246.953.434 1.464.558.51.128 1.03.19 1.555.19a6.35 6.35 0 001.553-.19 6.275 6.275 0 001.464-.558 3.975 3.975 0 011.918-.487c.679 0 1.321.163 1.917.487a6.461 6.461 0 001.788.627v2.588h-11.104v2.467h3.032a8.211 8.211 0 01.67 3.702 6.68 6.68 0 01-.875 4.062 1.201 1.201 0 00-.336.632 1.2 1.2 0 00.068.712c.098.232.25.416.458.553.207.139.436.207.685.207h7.402v2.467h-12.336v2.467h1.526c.656 2.842.968 5.721.941 8.637a50.23 50.23 0 01-1.196 10.803 1.224 1.224 0 00.653 1.407c.172.083.353.125.543.125h9.869v2.467h-20.972v-8.636h6.169c.232 0 .449-.06.648-.184.198-.122.35-.288.454-.496a16.016 16.016 0 001.365-6.721 16.042 16.042 0 00-1.356-6.719 1.208 1.208 0 00-.46-.498 1.198 1.198 0 00-.651-.185h-6.169v-3.699h1.235c.282 0 .535-.089.757-.261.223-.175.368-.398.44-.674l1.232-4.934a1.224 1.224 0 00-.656-1.407 1.218 1.218 0 00-.541-.125h-2.467v-9.868c0-.163-.029-.32-.095-.472a1.233 1.233 0 00-1.137-.763 3.504 3.504 0 01-1.918-.487 5.914 5.914 0 00-3.016-.745 5.878 5.878 0 00-3.022.745 3.516 3.516 0 01-1.912.487c-.166 0-.323.033-.472.095a1.22 1.22 0 00-.668.668 1.23 1.23 0 00-.095.472v6.166a1.23 1.23 0 00.362.873c.116.116.25.205.401.267.149.063.306.095.472.095a5.914 5.914 0 003.013-.742 3.54 3.54 0 011.921-.493 3.52 3.52 0 011.915.487c.564.3 1.161.508 1.787.63v2.585h-2.47c-.19 0-.371.042-.54.125a1.217 1.217 0 00-.665.852c-.042.187-.039.371.009.555l1.235 4.934a1.2 1.2 0 00.436.674c.223.172.475.261.76.261h1.232v3.699h-7.401a1.24 1.24 0 00-.6.158c-.092.05-.178.113-.252.184a1.321 1.321 0 00-.199.243 1.216 1.216 0 00-.127.285 1.096 1.096 0 00-.054.309 1.217 1.217 0 00.128.606 13.526 13.526 0 011.104 5.617c.024 1.95-.344 3.82-1.104 5.616a1.197 1.197 0 00-.128.609c.003.104.021.208.054.306.029.101.074.196.127.285.057.089.122.172.199.243a1.1 1.1 0 00.252.187 1.235 1.235 0 00.6.155h7.401v6.169h-7.401c-.282 0-.534.086-.76.261a1.188 1.188 0 00-.436.671l-1.235 4.934a1.292 1.292 0 00-.036.3c0 .552.092 1.086.27 1.606.181.522.44.997.778 1.434a4.947 4.947 0 002.696 1.748c.068.844.213 1.672.439 2.488a13.5 13.5 0 003.889 6.392 13.591 13.591 0 006.686 3.367c.828.154 1.665.234 2.511.234h30.84c.573-.03 1.14-.107 1.704-.232a10.194 10.194 0 001.642-.501 10.55 10.55 0 002.942-1.758 10.26 10.26 0 001.223-1.208c.374-.436.712-.9 1.012-1.389a10.628 10.628 0 001.291-3.174l2.248-5.62 13.119-5.964c.219-.101.395-.252.525-.454.131-.205.196-.428.196-.668v-3.702c0-.178-.036-.348-.11-.508a1.218 1.218 0 00-.766-.671 1.188 1.188 0 00-.519-.041l-8.473 1.137v-6.083h6.169c.235 0 .451-.06.653-.184.199-.122.35-.288.457-.499a16.042 16.042 0 001.357-6.718 17.337 17.337 0 00-.704-4.935h1.936v-2.467h-9.868zm-3.15-5.42a6.435 6.435 0 00-4.578-.559c-.51.125-1 .312-1.466.559-.22.115-.446.216-.677.302v-3.624a6.251 6.251 0 001.778-.639 3.946 3.946 0 011.918-.487c.68 0 1.321.16 1.918.487.561.306 1.158.52 1.787.641v3.625a6.206 6.206 0 01-.68-.305zm-28.372-16.038a6.416 6.416 0 00-1.464-.558 6.543 6.543 0 00-1.558-.19 6.493 6.493 0 00-3.023.748 3.935 3.935 0 01-1.911.487 3.952 3.952 0 01-1.912-.487 6.153 6.153 0 00-1.782-.64v-3.626c.232.086.458.19.677.306.466.243.953.43 1.464.558a6.539 6.539 0 003.108 0 6.554 6.554 0 001.464-.558 3.943 3.943 0 011.918-.487c.679 0 1.321.16 1.917.487.561.306 1.158.52 1.788.641v3.625a5.806 5.806 0 01-.686-.306zm-4.735 15.289a12.57 12.57 0 00.486-3.699 12.58 12.58 0 00-.486-3.702h14.621a8.305 8.305 0 01.668 3.702 8.297 8.297 0 01-.668 3.699h-14.621zm-2.925 25.906c.621-3.26.936-6.549.944-9.868a40.24 40.24 0 00-.872-8.637h18.436c.653 2.842.967 5.721.938 8.637a51.264 51.264 0 01-.986 9.868h-18.46zm-15.776-35.026a5.886 5.886 0 00-3.016-.748 5.91 5.91 0 00-3.022.748c-.22.116-.445.217-.677.303v-3.625a6.14 6.14 0 001.778-.632 3.488 3.488 0 011.921-.493 3.496 3.496 0 011.912.493 6.267 6.267 0 001.787.635v3.625a6.21 6.21 0 01-.683-.306zm.413 10.355l-.617-2.467h4.242l-.618 2.467h-3.007zm-5.364 18.502c.469-1.609.703-3.254.7-4.934a17.459 17.459 0 00-.7-4.934h13.445c.558 1.597.831 3.241.825 4.934a14.85 14.85 0 01-.828 4.934h-13.442zm67.31 8.814v1.493l-12.715 5.78-6.033 1.209.484 2.416 3.934-.787s-1.737 4.424-1.761 4.513h-7.344v2.467h6.234a8.106 8.106 0 01-1.176 1.467 7.838 7.838 0 01-1.49 1.142 7.76 7.76 0 01-1.719.76 7.794 7.794 0 01-1.849.33h-30.84c-.777 0-1.549-.08-2.312-.243a11.201 11.201 0 01-2.209-.725 10.997 10.997 0 01-3.729-2.731h4.551v-2.467h-6.231a10.943 10.943 0 01-1.099-3.702h3.628v-2.467h-4.934a2.432 2.432 0 01-1.698-.674 2.433 2.433 0 01-.543-.754 2.419 2.419 0 01-.226-.903l.965-3.835h6.436v1.232a1.24 1.24 0 001.235 1.235h42.643c.276 0 .523-.083.743-.25.219-.166.368-.38.445-.644l.484-1.692 16.126-2.17zm-2.06-10.046h-13.446a17.69 17.69 0 000-9.869h13.446c.552 1.598.825 3.242.825 4.935 0 1.689-.273 3.333-.825 4.934z" fill="#fff"/><path d="M131.649 95.19h2.468v2.468h-2.468V95.19zm4.934 0h2.468v2.468h-2.468V95.19zm3.702 19.737c0-2.72-2.767-4.934-6.169-4.934-3.399 0-6.166 2.214-6.166 4.934.033.84.244 1.63.633 2.372a5.486 5.486 0 001.588 1.873l-.923 2.767a1.21 1.21 0 00-.048.576 1.22 1.22 0 00.656.911c.175.089.362.137.561.137h7.401c.196 0 .386-.045.561-.137a1.232 1.232 0 00.609-1.487l-.923-2.767a5.489 5.489 0 001.585-1.873 5.499 5.499 0 00.635-2.372zm-4.194 2.571a1.152 1.152 0 00-.378.255 1.313 1.313 0 00-.258.374c-.062.14-.095.288-.104.439-.009.155.012.306.063.452l.691 2.078h-3.978l.692-2.078c.05-.146.071-.297.062-.452a1.18 1.18 0 00-.104-.439 1.17 1.17 0 00-.258-.374 1.148 1.148 0 00-.377-.255 3.15 3.15 0 01-1.199-1.06 3.135 3.135 0 01-.526-1.511c0-1.336 1.695-2.467 3.699-2.467 2.007 0 3.702 1.131 3.702 2.467a3.097 3.097 0 01-.528 1.511c-.309.457-.707.81-1.199 1.06zm-34.042 43.811a.399.399 0 01.051.427.906.906 0 00-.051.426c0 .351-.008.727-.025 1.129 0 .384.017.752.05 1.103-.05.067-.058.159-.025.276a2.15 2.15 0 00-.025.376c0 .117.017.226.05.326a3.782 3.782 0 00-.025.753c.017.267.017.535 0 .802v.903c-.033.435-.041.861-.025 1.279.017.401.009.811-.025 1.229.034.017.042.033.025.05-.016.017-.008.025.025.025 0 .853-.025 1.689-.075 2.508-.017.234-.017.46 0 .677a2.1 2.1 0 010 .653c.034.05.034.108 0 .175-.017.05-.008.1.025.151l-.05.928c-.017.284-.008.576.025.877v.251a.537.537 0 01-.025.276c.017.268.042.518.075.752.034.234.009.477-.075.728l-.301.175a1.363 1.363 0 00-.476-.075.84.84 0 00-.452.125.275.275 0 01-.201-.075.372.372 0 00-.175-.1 1.433 1.433 0 00-.602.025c-.167.067-.343.1-.527.1-.184-.05-.284-.159-.3-.326a2.31 2.31 0 00-.05-.501c.05-.134.066-.276.05-.427a.71.71 0 01.125-.426c.016-.184.025-.36.025-.527v-1.003l.05-.552a1.742 1.742 0 01-.075-.777c.05-.268.058-.544.025-.828a2.256 2.256 0 01-.025-.577 2.2 2.2 0 00-.025-.577c.05-.401.075-.794.075-1.178v-2.207c-.084-.084-.092-.168-.025-.251.067-.084.067-.176 0-.276a7.29 7.29 0 000-1.48c-.05-.016-.059-.033-.025-.05.033-.017.033-.042 0-.075.05-.184.067-.401.05-.652a4.54 4.54 0 010-.677c.033-.184.042-.368.025-.552v-.552a.704.704 0 01-.025-.326.622.622 0 000-.351 5.43 5.43 0 00.025-.903c-.017-.301-.042-.61-.075-.928.033-.05.042-.1.025-.15 0-.067.033-.117.1-.151.435.034.895.042 1.38.025a9.956 9.956 0 011.404 0h.1zm6.245 14.145v-.025c.418.05.761.067 1.029.05.284-.016.635-.025 1.053-.025.1.084.142.184.125.301a.547.547 0 00.05.326c.034.168.051.335.051.502a.798.798 0 01-.101.476.609.609 0 01.025.301.443.443 0 00.025.251 1.16 1.16 0 000 .477c.034.167-.025.309-.175.426a.508.508 0 00-.477-.15 1.723 1.723 0 01-.501.025 8.296 8.296 0 00-.803-.05 4.28 4.28 0 00-.777.025.644.644 0 01-.402.075 1.784 1.784 0 00-.426 0 1.614 1.614 0 00-.802-.1c-.268.033-.535.05-.803.05-.017.117-.075.159-.176.125a1.46 1.46 0 00-.225-.025.4.4 0 00-.251.1c-.084.067-.167.051-.251-.05a.594.594 0 00-.376.025c-.117.05-.209-.008-.276-.175 0-.134.008-.259.025-.376a.66.66 0 00-.025-.402.548.548 0 000-.326 1.39 1.39 0 010-.376c0-.167-.008-.334-.025-.502 0-.167.017-.326.05-.476a.216.216 0 010-.201.26.26 0 000-.225.505.505 0 01.401-.076c.151.034.293.042.427.025.251-.05.51-.058.777-.025.284.034.569.034.853 0 .134.034.242.05.326.05.1-.016.217-.025.351-.025.217.017.426.025.627.025.201-.016.418-.025.652-.025h.025zm-2.558-14.17a.33.33 0 01.251 0c.1.034.192.034.276 0h3.988c.05.067.066.142.05.226 0 .067.008.134.025.201-.017.267 0 .543.05.827.067.284.058.552-.025.803a.427.427 0 00-.025.251c.016.083.025.167.025.25a.506.506 0 010 .226c-.017.067-.067.125-.151.176a.791.791 0 00-.401-.101.748.748 0 00-.401.126c-.351-.134-.636-.193-.853-.176a7.845 7.845 0 01-.903 0 5.924 5.924 0 00-.777 0c-.251 0-.502-.017-.753-.05-.25.017-.501.042-.752.075a2.428 2.428 0 01-.702 0 .352.352 0 01-.201.05c-.067 0-.142.009-.226.025a.437.437 0 00-.2.051c-.05.016-.084.075-.101.175a.44.44 0 00.025.126c.017.05.009.092-.025.125-.067 0-.1-.033-.1-.1.017-.084.008-.142-.025-.176a.442.442 0 01-.075-.426.65.65 0 00.05-.427l.05-.978a9.87 9.87 0 000-1.003.727.727 0 00-.025-.176c-.017-.066 0-.117.05-.15.284.033.594.042.928.025.334-.017.652-.008.953.025zm.853 7.098c.318 0 .61.017.878.05.284.017.593.008.928-.025.1-.067.167-.042.2.075.034.1.075.167.126.201.016.1.058.184.125.251.033.1.042.2.025.301a2.465 2.465 0 01-.075.275 1.267 1.267 0 00-.075.276.425.425 0 00.05.276c0 .385.025.753.075 1.104-.033.05-.067.108-.1.175a.244.244 0 01-.101.126c-.1 0-.158.041-.175.125a.178.178 0 01-.151.151.452.452 0 01-.05-.201c.017-.067-.008-.126-.075-.176a.746.746 0 00-.401.126c-.134.067-.259.016-.377-.151-.066-.016-.125.009-.175.075-.05.067-.092.051-.125-.05a2.201 2.201 0 00-.402-.05c-.1 0-.234-.017-.401-.05-.033.084-.067.1-.1.05-.017-.067-.051-.092-.101-.075a8.855 8.855 0 00-.953 0c-.251 0-.568.008-.953.025-.033.017-.058.067-.075.15v.527a.668.668 0 01.025.151c0 .05-.033.133-.1.25-.05.117-.101.159-.151.126-.083-.05-.117-.126-.1-.226s.042-.192.075-.276a.393.393 0 000-.2 2.037 2.037 0 00-.075-.301 8.156 8.156 0 00-.05-.276c0-.101.017-.176.05-.226-.033-.033-.05-.084-.05-.15a.75.75 0 01.025-.226v-.151a.393.393 0 000-.2l.075-1.856c.385-.034.702-.034.953 0 .268.033.577.042.928.025h.426c.151-.017.293-.025.427-.025zm18.454 6.646c.084.167.159.301.226.401l.201.301.2.251c.084.084.184.201.301.351.034-.167.067-.393.101-.677.033-.284 0-.493-.101-.627-.05-.05-.092-.142-.125-.276-.017-.134-.033-.276-.05-.426l-.05-.427a.97.97 0 00-.076-.301 7.35 7.35 0 00-.326-.576 19.8 19.8 0 01-.301-.627c0-.017-.008-.009-.025.025a.403.403 0 01-.025.125.83.83 0 01-.05.125v.051a.821.821 0 01-.05-.301.666.666 0 00-.025-.326 1.203 1.203 0 00-.326-.452 1.63 1.63 0 01-.351-.426l-.276-.452a1.896 1.896 0 01-.276-.401 4.008 4.008 0 00-.251-.426 1.39 1.39 0 01-.125-.276 1.45 1.45 0 00-.126-.276 3.448 3.448 0 01-.025-.702 2.259 2.259 0 000-.677c.084-.435.109-.895.075-1.38a12.45 12.45 0 01.026-1.379c-.051-.067-.059-.151-.026-.251a.237.237 0 00-.025-.276.457.457 0 000-.301 2.43 2.43 0 01-.025-.326.64.64 0 00.05-.426 2.108 2.108 0 01-.05-.452c.017-.016.025-.058.025-.125l-.025-.025c.017-.251.025-.485.025-.702a1.734 1.734 0 00-.075-.652c-.033-.084-.008-.151.075-.201.168-.034.31-.05.427-.05h.251l.25-.05c.168.016.326.016.477 0a.817.817 0 01.451.025c.184-.017.343-.025.477-.025a7.2 7.2 0 00.501-.076c.084.017.117.059.101.126 0 .05.016.092.05.125.033.385.025.761-.025 1.129-.034.351-.025.719.025 1.103-.017 0-.025.009-.025.025l.05.452c.017.134.008.284-.025.451.117.084.117.159 0 .226-.034.1-.008.192.075.276.084.083.075.175-.025.276.017.117.017.234 0 .351 0 .117.034.226.1.326a.803.803 0 00-.1.401.814.814 0 01-.025.201c0 .05-.008.117-.025.2a.752.752 0 010 .276c0 .101-.008.201-.025.301 0 .318.017.627.05.928.05.301.059.61.025.928.017.134.025.276.025.427.017.15.025.3.025.451v.451c.017.151.034.31.05.477a.843.843 0 00-.05.401.506.506 0 01-.05.376c0 .101-.017.209-.05.326a.392.392 0 00.05.276c-.017.168-.008.335.025.502a.902.902 0 010 .426c.017.234.034.535.05.903.017.368.009.669-.025.903a1.382 1.382 0 00-.025.301 2.617 2.617 0 010 .727c-.017.117-.05.201-.1.251a1.14 1.14 0 00-.025.301c.016.151.025.318.025.502v.476a.706.706 0 01-.05.301c-.017.034-.025.117-.025.251.016.134.025.267.025.401.016.134.016.251 0 .351 0 .117-.034.168-.101.151-.05-.017-.092-.1-.125-.251a.72.72 0 010-.376c.033-.084 0-.176-.1-.276-.101-.033-.193-.008-.276.075-.017.034-.017.151 0 .351a8.9 8.9 0 01.025.652c.017.218.008.402-.025.552-.017.167-.075.218-.176.151-.05-.017-.075-.117-.075-.301 0-.218.008-.485.025-.803.017-.301-.042-.518-.176-.652h-.175c-.05 0-.075.025-.075.075 0 .017.008.067.025.151a1.327 1.327 0 010 .501c-.017.084-.05.126-.101.126-.083 0-.142-.05-.175-.151a2.124 2.124 0 01-.025-.351v-.226a.661.661 0 00.025-.15c-.034.033-.1.05-.201.05a.423.423 0 01-.175-.025.998.998 0 00-.276-.025h-.276c-.117 0-.167-.008-.151-.025l-.025.025-1.178-1.58-.477-.652a1.632 1.632 0 00-.351-.527 4.7 4.7 0 00-.326-.476c-.1-.151-.192-.31-.276-.477-.117-.033-.184-.092-.201-.175a.294.294 0 00-.15-.201c.017-.05 0-.084-.05-.1l-.101-.101c-.033-.016-.058-.016-.075 0-.017.017-.033.009-.05-.025a.569.569 0 00-.15-.376 5.54 5.54 0 01-.276-.401 2.087 2.087 0 00-.351-.527 2.065 2.065 0 01-.352-.527 7.592 7.592 0 01-.551-.727 3.81 3.81 0 00-.577-.727 29.501 29.501 0 01-.577-.953 6.242 6.242 0 00-.602-.928c0-.084-.05-.151-.15-.201-.084-.05-.117-.117-.101-.201a8.177 8.177 0 01-.501-.652 4.573 4.573 0 00-.477-.677 1.736 1.736 0 00-.401-.376 1.002 1.002 0 01-.301-.426 5.623 5.623 0 01-.301-.477 12.273 12.273 0 00-.226-.527 5.514 5.514 0 01-.602-.827 3.208 3.208 0 00-.577-.778.608.608 0 01-.2-.276.502.502 0 00-.151-.275c-.05-.051-.075-.092-.075-.126l.05-.1c.034-.034.05-.067.05-.1.017-.051 0-.118-.05-.201a.271.271 0 01-.05-.226l.05-.251c.034-.1.059-.192.076-.276.016-.1 0-.183-.051-.25a.409.409 0 01-.075-.251c0-.1.042-.167.126-.201l.326-.125c.033 0 .041.008.025.025-.017.017-.025.033-.025.05s.016.025.05.025c.05 0 .15-.017.301-.05.234.05.485.042.752-.025.284-.067.535-.075.752-.025.134.05.235.117.301.2a.852.852 0 01.201.226c.05.084.109.167.176.251.067.084.15.159.25.226.084.067.168.125.251.175.084.05.092.117.025.201 0 .084.025.15.076.201.066.033.1.083.1.15a.534.534 0 01.251.326c.05.117.133.226.25.326.084.201.209.385.377.552.184.15.309.343.376.577a.84.84 0 01.301.426c.05.151.142.276.276.376.083.151.167.31.251.477.1.15.225.292.376.426 0 .067.025.126.075.176.067.033.1.083.1.15.184.151.318.318.402.502.083.184.183.368.301.552.083.05.125.117.125.2.017.067.075.117.175.151.118.234.26.451.427.652.184.184.318.393.401.627.067.083.134.175.201.276.083.083.15.167.2.25.117.235.26.452.427.653.184.183.317.392.401.627a.531.531 0 01.251.326c.033.117.125.217.276.301.016.1.067.183.15.25a.505.505 0 01.201.226c.117.067.184.142.2.226a.51.51 0 00.201.225c.034.051.067.109.1.176.051.05.067.1.051.151.033.117.1.2.2.25.101.05.159.134.176.251.184.268.359.535.526.803.168.25.368.493.602.727zm-12.038-8.653c0 .168.067.301.201.402.15.083.225.209.225.376a.603.603 0 01.201.276c.033.1.092.192.176.276a.882.882 0 01.15.276c.05.1.109.192.176.275a.302.302 0 01.15.201c.017.067.067.125.151.176.016.083.058.15.125.2.084.05.125.117.125.201.084.15.176.301.276.451.117.151.193.318.226.502a.91.91 0 00.301.401c.15.101.242.243.276.427.083.1.108.25.075.451a3.12 3.12 0 00-.05.477v.827c.017.084.033.176.05.276a2.437 2.437 0 00-.025.351v.351c0 .117-.008.234-.025.351 0 .101-.008.209-.025.326.05.084.05.176 0 .276a.27.27 0 00-.025.251 1.245 1.245 0 000 .502c.033.15.025.317-.025.501.067.268.092.552.075.853-.017.301-.05.594-.1.878.05.134.066.267.05.401v.376a.53.53 0 01-.477-.025c-.134-.1-.301-.117-.501-.05-.034.084-.101.125-.201.125-.1-.016-.176.017-.226.101-.1-.134-.225-.192-.376-.176a4.24 4.24 0 01-.476.025.812.812 0 01-.251.05.272.272 0 00-.201.076 2.579 2.579 0 00-.075.376c-.017.15-.042.284-.075.401-.017.05-.051.05-.101 0-.033-.033-.05-.067-.05-.1a.277.277 0 01-.025-.126.398.398 0 00.025-.125 1.43 1.43 0 01-.05-.326c0-.1-.042-.192-.125-.276a1.1 1.1 0 00.15-.577c.084-.284.117-.568.1-.852a5.925 5.925 0 01.025-.928 1.675 1.675 0 01-.075-.753 2.16 2.16 0 000-.802c.034-.92.025-1.798-.025-2.634a35.006 35.006 0 010-2.633.998.998 0 01-.025-.276 3.5 3.5 0 01-.025-.727 5.565 5.565 0 000-.753v-.175a.727.727 0 00.025-.176c.017-.15.017-.292 0-.426a31.135 31.135 0 01-.05-.427c.017-.033.033-.041.05-.025.033 0 .059.009.075.025-.05.084-.033.143.05.176a.362.362 0 01.176.125zm10.509 12.039h.025a.106.106 0 00.075-.025h-.075l-.025.025zm16.254-16.954c-.083.368-.125.71-.125 1.028v.552c0 .167.008.343.025.526.083.301.108.619.075.953a.239.239 0 01-.176.076 1.367 1.367 0 01-.175-.076.574.574 0 00-.176-.075c-.067-.016-.133 0-.2.05a.486.486 0 01-.251-.075.368.368 0 00-.226-.075c-.083.017-.125.084-.125.201.017.1-.017.142-.101.125a.503.503 0 01-.225-.201.387.387 0 00-.201-.2 6.694 6.694 0 00-1.003-.025c-.301.016-.652.025-1.053.025-.084.05-.126.133-.126.25.017.118-.025.159-.125.126l-.151-.1a.372.372 0 00-.15-.126.31.31 0 00-.075.151c0 .067-.017.092-.051.075-.066-.034-.092-.109-.075-.226s-.033-.184-.15-.2l-.151.1c-.033.017-.067.067-.1.15a.562.562 0 01-.025.276h-.05a.659.659 0 01-.051-.251c.017-.1-.025-.167-.125-.2-.201-.05-.359-.067-.476-.05l-.151.15a.302.302 0 00-.201-.201l-2.508.026a.402.402 0 00-.301.326 4.794 4.794 0 00-.025.451h-.025c0-.301-.075-.527-.225-.677-.034-.017-.076 0-.126.05a.277.277 0 01-.1.1 1.035 1.035 0 000 .326c.017.117-.017.151-.1.101-.084-.034-.109-.101-.076-.201.05-.1.034-.192-.05-.276a.126.126 0 00-.15 0l-.101.1c-.033.118-.025.268.025.452.051.167.026.234-.075.201-.067-.034-.1-.092-.1-.176v-.251c0-.083-.008-.167-.025-.251-.017-.083-.075-.142-.176-.175a.724.724 0 00-.552-.126c-.183.017-.367 0-.551-.05a.367.367 0 01.025-.301c.05-.083.05-.184 0-.301 0-.351-.009-.71-.025-1.078-.017-.385 0-.769.05-1.154l.1-.075c.335.067.677.092 1.028.075a3.567 3.567 0 011.029.05 3.475 3.475 0 011.103-.075c.402.034.794.034 1.179 0a.311.311 0 01.226-.1c.134 0 .267.025.401.075a.437.437 0 00.376-.075 32.203 32.203 0 012.884.075c.92.05 1.898.067 2.935.05l.1.151zm-4.163 4.564a5.688 5.688 0 00-.1 1.33c.016.451.008.902-.026 1.354-.033.568-.025 1.145.026 1.73.066.586.083 1.171.05 1.756.033.184.033.359 0 .527-.017.167-.034.342-.05.526.016.134.025.251.025.351v.226c0 .184-.009.335-.025.452 0 .1.016.334.05.702.016.184.016.359 0 .527 0 .15.041.292.125.426l-.025.301a.311.311 0 00-.1.226c0 .133.016.25.05.351.033.1.025.217-.025.351 0 .067-.009.142-.025.226 0 .066-.009.142-.025.225h-.025a1.068 1.068 0 00-.026.753c.084.217.109.468.076.752a.708.708 0 01-.076.477.53.53 0 00.026.476c.033.05.041.117.025.201 0 .083-.042.142-.126.175-.083.034-.125.017-.125-.05s-.009-.109-.025-.125l-.226-1.48a.577.577 0 00-.201-.201c-.067-.05-.142-.05-.225 0a.458.458 0 01-.326.076 8.011 8.011 0 01-.276-.051.171.171 0 00-.151.076c-.016.05 0 .184.05.401-.066-.05-.1-.134-.1-.251.017-.117-.042-.192-.175-.226-.101.051-.176.042-.226-.025a.32.32 0 00-.201-.125.825.825 0 00-.401 0 .37.37 0 01-.301-.025c0-.084.008-.167.025-.251a.396.396 0 000-.276c0-.635.008-1.17.025-1.605a32.123 32.123 0 000-2.533c0-.451-.025-.986-.075-1.605.083-.067.092-.126.025-.176-.05-.05-.05-.092 0-.125a5.345 5.345 0 01-.025-.903 6.07 6.07 0 00.025-.953h.025a.32.32 0 000-.301h-.025c.084-.033.1-.067.05-.1-.05-.05-.042-.092.025-.126.034-.2.025-.351-.025-.451-.05-.117-.033-.259.05-.426a.487.487 0 01-.075-.402c.05-.15.025-.276-.075-.376a5.454 5.454 0 00-.025-.903 2.09 2.09 0 01.1-.903 2.59 2.59 0 01.351-.025h.401c.285 0 .552-.025.803-.075.201.067.443.1.727.1.301-.016.569-.016.803 0zm2.232 9.706c.033.084.008.134-.075.151-.067.016-.101.067-.101.15h-.627c.168-.083.31-.142.427-.175.117-.051.242-.092.376-.126zm.276-8.376l.05-.251c.017-.101.042-.167.075-.201.017.167.025.343.025.527.017.167.025.343.025.526v.552c0 .167-.008.335-.025.502 0 .334-.008.677-.025 1.028-.016.334-.008.652.025.953-.033.134-.05.293-.05.477.017.184-.008.284-.075.301a14.936 14.936 0 01-.05-1.756c.033-.635.033-1.246 0-1.831.033-.117.042-.251.025-.401v-.426zm7.239-6.045c.1.134.117.276.05.427-.05.133-.067.275-.05.426 0 .351-.009.727-.026 1.129 0 .384.017.752.051 1.103-.051.067-.059.159-.025.276a2.037 2.037 0 00-.026.376c0 .117.017.226.051.326a3.638 3.638 0 00-.025.753c.016.267.016.535 0 .802v.903c-.034.435-.042.861-.026 1.279.017.401.009.811-.025 1.229.034.017.042.033.025.05-.016.017-.008.025.026.025 0 .853-.026 1.689-.076 2.508-.016.234-.016.46 0 .677a2.1 2.1 0 010 .653c.034.05.034.108 0 .175a.17.17 0 00.025.151c-.016.317-.033.627-.05.928-.016.284-.008.576.025.877v.251a.526.526 0 01-.025.276c.017.268.042.518.075.752.034.234.009.477-.075.728l-.301.175a1.355 1.355 0 00-.476-.075.842.842 0 00-.452.125.27.27 0 01-.2-.075.375.375 0 00-.176-.1 1.433 1.433 0 00-.602.025c-.167.067-.343.1-.526.1-.184-.05-.285-.159-.301-.326a2.27 2.27 0 00-.051-.501.912.912 0 00.051-.427.71.71 0 01.125-.426c.017-.184.025-.36.025-.527v-1.003l.05-.552a1.758 1.758 0 01-.075-.777c.05-.268.058-.544.025-.828a2.265 2.265 0 01-.025-.577c.017-.2.008-.393-.025-.577.05-.401.075-.794.075-1.178v-2.207c-.083-.084-.092-.168-.025-.251.067-.084.067-.176 0-.276a7.32 7.32 0 000-1.48c-.05-.016-.058-.033-.025-.05s.033-.042 0-.075c.05-.184.067-.401.05-.652a4.461 4.461 0 010-.677c.034-.184.042-.368.025-.552v-.552a.706.706 0 01-.025-.326.614.614 0 000-.351c.034-.301.042-.602.025-.903-.017-.301-.042-.61-.075-.928.033-.05.042-.1.025-.15 0-.067.033-.117.1-.151.435.034.895.042 1.38.025.501-.033.97-.033 1.404 0h.101zm6.244 14.145v-.025c.418.05.761.067 1.029.05.284-.016.635-.025 1.053-.025.1.084.142.184.126.301a.54.54 0 00.05.326c.033.168.05.335.05.502a.797.797 0 01-.1.476.633.633 0 01.025.301.427.427 0 00.025.251c-.034.151-.034.31 0 .477.033.167-.025.309-.176.426a.507.507 0 00-.476-.15 1.732 1.732 0 01-.502.025 8.278 8.278 0 00-.803-.05 4.283 4.283 0 00-.777.025.642.642 0 01-.401.075 1.792 1.792 0 00-.427 0c-.25-.1-.518-.134-.802-.1-.268.033-.535.05-.803.05-.017.117-.075.159-.175.125a1.483 1.483 0 00-.226-.025.4.4 0 00-.251.1c-.083.067-.167.051-.251-.05a.594.594 0 00-.376.025c-.117.05-.209-.008-.276-.175 0-.134.009-.259.025-.376a.66.66 0 00-.025-.402.533.533 0 000-.326 1.477 1.477 0 010-.376c0-.167-.008-.334-.025-.502 0-.167.017-.326.05-.476a.216.216 0 010-.201.26.26 0 000-.225.506.506 0 01.402-.076c.15.034.292.042.426.025.251-.05.51-.058.777-.025.285.034.569.034.853 0 .134.034.243.05.326.05.101-.016.218-.025.351-.025.218.017.427.025.627.025.201-.016.418-.025.652-.025h.025zm-2.558-14.17a.33.33 0 01.251 0c.1.034.192.034.276 0h3.988c.05.067.067.142.05.226 0 .067.008.134.025.201-.017.267 0 .543.05.827.067.284.059.552-.025.803a.435.435 0 00-.025.251c.017.083.025.167.025.25a.506.506 0 010 .226c-.017.067-.067.125-.15.176a.795.795 0 00-.402-.101.751.751 0 00-.401.126c-.351-.134-.635-.193-.853-.176a7.845 7.845 0 01-.903 0 5.924 5.924 0 00-.777 0c-.251 0-.502-.017-.752-.05-.251.017-.502.042-.753.075a2.428 2.428 0 01-.702 0 .352.352 0 01-.201.05c-.067 0-.142.009-.225.025a.44.44 0 00-.201.051c-.05.016-.084.075-.1.175 0 .034.008.075.025.126.016.05.008.092-.025.125-.067 0-.101-.033-.101-.1.017-.084.009-.142-.025-.176a.442.442 0 01-.075-.426.643.643 0 00.05-.427c.017-.317.034-.643.05-.978a9.87 9.87 0 000-1.003.727.727 0 00-.025-.176c-.017-.066 0-.117.05-.15.285.033.594.042.928.025a5.96 5.96 0 01.953.025zm.853 7.098c.318 0 .61.017.878.05.284.017.593.008.928-.025.1-.067.167-.042.2.075.034.1.076.167.126.201.017.1.058.184.125.251.034.1.042.2.025.301a2.097 2.097 0 01-.075.275 1.391 1.391 0 00-.075.276.425.425 0 00.05.276c0 .385.025.753.075 1.104-.033.05-.067.108-.1.175a.247.247 0 01-.1.126c-.101 0-.159.041-.176.125a.178.178 0 01-.15.151.44.44 0 01-.051-.201c.017-.067-.008-.126-.075-.176a.748.748 0 00-.401.126c-.134.067-.259.016-.376-.151-.067-.016-.126.009-.176.075-.05.067-.092.051-.125-.05a2.191 2.191 0 00-.402-.05c-.1 0-.234-.017-.401-.05-.033.084-.067.1-.1.05-.017-.067-.05-.092-.1-.075a8.874 8.874 0 00-.954 0c-.25 0-.568.008-.953.025-.033.017-.058.067-.075.15v.527a.668.668 0 01.025.151c0 .05-.033.133-.1.25-.05.117-.1.159-.151.126-.083-.05-.117-.126-.1-.226s.042-.192.075-.276a.393.393 0 000-.2 1.815 1.815 0 00-.075-.301 8.156 8.156 0 00-.05-.276c0-.101.017-.176.05-.226-.033-.033-.05-.084-.05-.15a.75.75 0 01.025-.226v-.151a.393.393 0 000-.2l.075-1.856c.385-.034.703-.034.953 0 .268.033.577.042.928.025h.427c.15-.017.292-.025.426-.025zm14.718 3.21c-.034.033-.034.067 0 .1.15.184.284.393.401.627.134.218.267.418.401.602.134.201.251.402.351.602.117.201.218.393.301.577.201.284.385.585.552.903.167.301.36.593.577.878.067.184.15.359.251.526.117.168.217.343.301.527.184.234.351.452.501.652.151.184.301.393.452.627-.034.084-.025.134.025.151.05.016.042.067-.025.15.016.201 0 .276-.05.226a3.483 3.483 0 01-.201-.226.935.935 0 00-.201-.226c-.05-.066-.075-.008-.075.176-.017.067-.058.092-.125.075a.587.587 0 01-.201-.05 4.85 4.85 0 00-.226-.05c-.067 0-.117.033-.15.1a1.178 1.178 0 00-.025.276v.727c.016.117.025.201.025.251 0 .05-.034.109-.101.176-.066.067-.117.083-.15.05-.05-.034-.075-.117-.075-.251 0-.117.008-.251.025-.401l.05-.401a.6.6 0 000-.251.633.633 0 00-.075-.176c-.05-.067-.159-.108-.326-.125a4.27 4.27 0 00-.477-.025h-.476c-.134-.017-.218-.05-.251-.101-.067-.1-.117-.158-.151-.175a.249.249 0 00-.05-.075.388.388 0 00-.075-.101l-.1-.2a4.712 4.712 0 00-.552-.878 7.656 7.656 0 01-.552-.878 8.103 8.103 0 00-.552-.878 26.51 26.51 0 00-.576-.878 6.46 6.46 0 01-.452-.727 10.57 10.57 0 00-.426-.727 3.055 3.055 0 00-.427-.527.976.976 0 01-.25-.602c-.067.017-.101.059-.101.126 0 .066-.025.108-.075.125-.084 0-.125-.042-.125-.125v-.101c0-.016-.017-.042-.051-.075-.15-.084-.242-.167-.275-.251a.895.895 0 010-.301c.033-.1.058-.2.075-.301a.548.548 0 000-.326.236.236 0 01.075-.225c.067-.067.059-.143-.025-.226a.944.944 0 000-.527 1.983 1.983 0 01-.025-.552c.05-.083.184-.125.401-.125.167 0 .351.008.552.025l.627.05c.201.017.385.034.552.05.167 0 .284-.008.351-.025.15-.033.309-.075.476-.125.184-.05.36-.1.527-.151.184-.066.343-.133.477-.2.15-.067.267-.142.351-.226.117-.1.2-.217.25-.351a3.16 3.16 0 00.126-.426c.05-.234.067-.485.05-.753a13.58 13.58 0 00-.075-.802c-.034-.285-.192-.569-.477-.853a7.058 7.058 0 00-.802-.702c-.05-.034-.159-.059-.326-.076a3.01 3.01 0 00-.577-.05 9.595 9.595 0 00-.702-.025 9.036 9.036 0 00-.652-.025h-.552c-.034.034-.059.134-.075.301 0 .151-.009.309-.026.477 0 .167-.025.309-.075.426-.033.117-.1.15-.2.1-.017 0-.026-.042-.026-.125v-.778c.017-.1 0-.184-.05-.25a.33.33 0 010-.251c-.1-.034-.159-.075-.175-.126a.543.543 0 01-.025-.175.78.78 0 00.025-.176.175.175 0 00-.05-.175.49.49 0 00.05-.301 2.037 2.037 0 00-.075-.301l-.051-.301c0-.1.025-.201.076-.301a.352.352 0 01-.051-.201.876.876 0 01.076-.225c-.034-.084-.034-.143 0-.176.05-.033.075-.092.075-.176.017-.016.067-.016.15 0 .101.017.159.017.176 0 .084-.016.159-.025.226-.025h.25a.97.97 0 01.226.025c.067 0 .134.009.201.025.117-.033.251-.075.401-.125.167-.05.318-.067.452-.05.117.05.267.092.451.125.184.017.368.042.552.076.2.016.393.041.577.075.184.017.334.05.451.1a.911.911 0 01.426.176c.117.083.26.142.427.175.418.234.794.544 1.128.928.351.385.644.744.878 1.079.234.334.385.752.452 1.254.066.501.117.944.15 1.329-.067.1-.1.209-.1.326.016.117.016.226 0 .326a21.44 21.44 0 00-.05.426 4.555 4.555 0 01-.076.427l.025.025c.017.15-.008.251-.075.301a.286.286 0 00-.1.1.86.86 0 00-.151.301c-.033.1-.066.209-.1.326-.033.1-.075.201-.125.301a.653.653 0 01-.226.251c0 .083-.067.175-.201.276a.823.823 0 01-.15.276c-.05.033-.1.075-.151.125a1.765 1.765 0 00-.426.376 2.47 2.47 0 00-.978.452 2.276 2.276 0 01-1.003.451zm-5.518-10.107c-.05.602-.084 1.02-.1 1.254v.451c.016.05.033.084.05.101.017 0 .025.075.025.225.017.368.025.744.025 1.129v3.411c.05.167.067.351.05.552a6.33 6.33 0 00-.025.551c.017.502.017 1.012 0 1.53a46.636 46.636 0 00-.025 1.53c0 .602.008 1.229.025 1.881.017.635.017 1.262 0 1.881.017 0 .025.008.025.025a6.65 6.65 0 00-.025.577v1.129l.05.551c0 .084-.05.176-.15.276-.084.034-.134.017-.151-.05-.016-.067-.058-.1-.125-.1a10.057 10.057 0 00-.727-.025 1.002 1.002 0 00-.627.15 1.075 1.075 0 00-.527-.125 3.269 3.269 0 00-.577 0l-.05.05c-.017 0-.033.008-.05.025l-.151-.1c-.05-.051-.05-.109 0-.176 0-.033.017-.05.05-.05a4.944 4.944 0 000-1.003 5.36 5.36 0 010-1.029.876.876 0 01-.05-.501.93.93 0 00.025-.477 2.097 2.097 0 000-.652 1.873 1.873 0 01.025-.677.444.444 0 01-.025-.251.428.428 0 00-.025-.251c.034-.501.034-.986 0-1.454a16.2 16.2 0 01.025-1.53l-.05-.502a2.364 2.364 0 010-.476c-.016-.234 0-.452.05-.652a1.236 1.236 0 00-.025-.652c-.033-.05-.025-.076.025-.076.034 0 .042-.025.025-.075a.323.323 0 010-.175c.034-.034.017-.067-.05-.101-.067-.033-.083-.067-.05-.1.1-.084.134-.234.1-.451a10.316 10.316 0 00-.05-.527 81.77 81.77 0 00-.05-.727c0-.251.034-.494.1-.728a.652.652 0 01-.15-.326v-.376a.978.978 0 00.025-.376.756.756 0 01.05-.376 3.19 3.19 0 00-.025-.402c0-.15.017-.292.05-.426a2.428 2.428 0 000-.702 4.779 4.779 0 010-.677c.184-.017.368-.026.552-.026a6.37 6.37 0 01.552-.025c.2 0 .393-.008.577-.025.2-.033.393-.067.577-.1h.125l.025.025a.566.566 0 00.15.075c.084.034.251.084.502.151zm-45.512 30.2c-.017.335-.026.719-.026 1.154.017.418.009.803-.025 1.154a.638.638 0 01-.376.125c-.134-.017-.242.042-.326.176a3.23 3.23 0 00-.652.827c-.084.184-.109.335-.075.452.033.117.05.267.05.451.1.117.176.234.226.351.05.101.108.201.175.301.084.101.193.201.326.301.134.101.326.201.577.301.134.05.318.134.552.251.234.117.418.184.552.201.284.033.535.092.752.175.234.067.485.117.752.151.084.05.176.092.276.125a.517.517 0 01.301.151c.285.117.527.25.728.401.217.134.468.259.752.376.084.1.234.209.451.326.218.117.377.226.477.326.134.134.226.209.276.226.05.017.134.1.251.251.1.15.175.309.225.476.084.268.176.552.276.853.117.301.209.594.276.878.05.217.067.476.05.777 0 .301-.025.602-.075.903-.05.301-.117.594-.201.878a3.777 3.777 0 01-.275.677 7.912 7.912 0 01-.251.376 1.972 1.972 0 01-.251.301 36.72 36.72 0 01-.627.702c-.184.184-.443.327-.778.427a9.62 9.62 0 00-.501.376.67.67 0 00-.226.527v.175c.017.067 0 .117-.05.151-.084 0-.134-.034-.151-.101v-.225c.017-.101.034-.193.051-.276a.587.587 0 00.05-.176c-.05-.05-.101-.058-.151-.025-.067.218-.117.36-.15.427-.034.05-.067.066-.1.05a.787.787 0 01-.051-.151c-.016-.067-.041-.108-.075-.125-.167.083-.251.234-.251.451 0 .084-.008.167-.025.251 0 .1-.025.184-.075.251a.17.17 0 01-.125-.05.998.998 0 00.025-.376 1.221 1.221 0 010-.352.241.241 0 00-.176-.075 8.41 8.41 0 01-.376.151c-.034 0-.042-.017-.025-.051l.05-.15c.033-.05.017-.084-.05-.1-.067-.034-.075-.067-.025-.101.067-.033.083-.083.05-.15 0-.1-.008-.192-.025-.276a.642.642 0 00-.1-.301v-.552c.016-.2.008-.393-.026-.577.084-.1.134-.15.151-.15.017-.017.058-.075.125-.176.017-.05.009-.092-.025-.125-.033-.033-.016-.067.05-.1a.79.79 0 01.427-.126c.134-.083.217-.159.251-.225.05-.084.15-.151.301-.201a.94.94 0 00.175-.301.944.944 0 01.176-.301c.2-.201.317-.46.351-.777.033-.335.067-.627.1-.878.017-.167-.042-.293-.175-.376a1.497 1.497 0 01-.301-.352 1.37 1.37 0 00-.653-.526 3.626 3.626 0 00-.777-.276 46.167 46.167 0 00-.351-.1.373.373 0 00-.351.025c-.034.016-.05-.034-.05-.151.016-.117 0-.167-.051-.15-.05.033-.125.008-.225-.076a5.047 5.047 0 01-.427-.301c-.15-.117-.25-.108-.301.026-.016.033-.041.041-.075.025l-.1-.101a.428.428 0 00-.1-.075c-.017-.033-.026-.033-.026 0-.05.217-.1.301-.15.251-.033-.067-.042-.126-.025-.176.033-.117-.025-.192-.176-.225-.133-.051-.225-.059-.276-.026-.083.084-.142.067-.175-.05-.017-.117-.075-.175-.176-.175a.533.533 0 01-.351-.126.898.898 0 00-.326-.2 10.791 10.791 0 01-.802-.301 2.756 2.756 0 01-.953-.828 1.325 1.325 0 00-.251-.276.979.979 0 00-.151-.125.367.367 0 01-.125-.176 3.99 3.99 0 01-.075-.351c0-.1-.042-.209-.126-.326-.083-.117-.117-.226-.1-.326.033-.1.017-.209-.05-.326a.641.641 0 01-.05-.502c.066-.2.058-.376-.025-.526a.55.55 0 00.025-.276c-.017-.1 0-.201.05-.301 0-.217.033-.418.1-.602.084-.184.142-.376.176-.577.067-.1.125-.2.175-.301.067-.1.126-.209.176-.326.301-.384.602-.677.903-.878a6.174 6.174 0 011.153-.602c.067-.016.126-.033.176-.05a.83.83 0 00.125-.05c.201-.083.393-.15.577-.201.184-.05.41-.108.677-.175 0 .084.025.15.076.201.066.05.1.1.1.15 0 .033-.034.075-.1.125zm4.84.402c.067.1.15.142.251.125.117-.033.192.008.225.126.201.15.352.317.452.501.117.184.251.368.401.552 0 .083.034.175.101.276.083.1.125.192.125.276 0 .05-.042.1-.125.15-.151.084-.31.159-.477.226-.15.067-.293.142-.426.226-.117.083-.234.15-.351.2a.892.892 0 00-.327.176.62.62 0 00-.351.1 1.546 1.546 0 01-.276.176.65.65 0 01-.25 0c.016-.117-.017-.201-.101-.251a1.315 1.315 0 01-.2-.276.734.734 0 00-.326-.351 9.49 9.49 0 01-.427-.251c-.1.067-.192.067-.276 0-.066-.067-.142-.075-.225-.025-.034.033-.05.125-.05.276a3.813 3.813 0 010 .878c0 .117-.042.167-.126.15-.05-.083-.1-.284-.15-.602a9.2 9.2 0 01-.05-.928c0-.2.025-.351.075-.451 0-.368.008-.711.025-1.028.017-.318.025-.669.025-1.054-.017 0 .025-.017.125-.05.502 0 .978.075 1.43.226.468.15.894.359 1.279.627zm-8.352 11.135c.201-.016.427-.016.677 0 .251 0 .469.009.653.025.066.067.1.159.1.276.017.101.05.192.1.276.034.134.059.259.075.376a.979.979 0 00.151.376c.234.201.476.427.727.678.251.25.544.376.878.376.067.05.1.092.1.125.017.017.025.042.025.075v.076l.051.15c0 .234-.034.485-.101.753-.05.25-.075.501-.075.752 0 .167.033.309.1.426a.17.17 0 01-.075.151l-.1.1c-.034.017-.059.05-.075.1-.017.034-.009.092.025.176a1.007 1.007 0 000 .451c.05.184.041.327-.025.427-.034.033-.067.033-.101 0-.033-.017-.05-.042-.05-.075a1.248 1.248 0 000-.502 4.245 4.245 0 01-.025-.477l-.075-.075a.17.17 0 00-.075-.075c-.084-.033-.143-.008-.176.075-.033.067-.075.084-.125.05 0-.05.008-.1.025-.15.016-.05-.017-.092-.101-.125-.167.016-.234.091-.2.225.05.134.05.243 0 .326-.084.117-.142.117-.176 0a2.124 2.124 0 01-.025-.351 9.142 9.142 0 01-.953-.602c-.301-.217-.61-.418-.928-.602a1.094 1.094 0 01-.476-.476 1.925 1.925 0 00-.352-.552c-.1-.117-.192-.226-.275-.326a2.392 2.392 0 00-.276-.376c-.084-.101-.117-.201-.101-.301.017-.117-.016-.251-.1-.401a1.55 1.55 0 01-.125-.602v-.326c0-.117-.009-.234-.025-.352.033-.016.041-.033.025-.05-.017-.016-.009-.033.025-.05.133-.017.259-.025.376-.025h.351c.117 0 .234.008.351.025.117 0 .243.009.376.025zm5.593-7.775c.017.017.025.067.025.151v.125c-.033.034-.042.067-.025.101.017.016.025.033.025.05a.491.491 0 00-.025.15c.017.05.025.101.025.151-.016.016-.033.025-.05.025a1.257 1.257 0 01-.025-.251.624.624 0 000-.251.273.273 0 00-.025-.125c0-.05.017-.1.05-.151l.025.025zm-.1 1.58c.017.084-.009.118-.075.101-.067-.017-.117-.009-.151.025a1.1 1.1 0 01.05-.176c.05-.033.109-.016.176.05zm17.627 4.941l.05-.15c0-.067-.025-.109-.076-.126-.033-.016-.05-.1-.05-.25-.067.016-.108-.009-.125-.076a.178.178 0 00-.151-.15c-.083.05-.133.083-.15.1-.017 0-.025.009-.025.025v.075c.017.017.017.059 0 .126a.363.363 0 00-.075.1c-.017.017-.051.017-.101 0-.033-.134-.041-.217-.025-.251.034-.033.034-.117 0-.25-.033-.117-.058-.176-.075-.176 0-.017-.008-.008-.025.025 0 .034-.017.067-.05.1-.034.034-.101.034-.201 0-.067-.033-.117-.033-.15 0a.31.31 0 00-.051.126c0 .05-.008.109-.025.175a.306.306 0 01-.05.176c-.016.05-.033.117-.05.201l-.05.25a6.605 6.605 0 01-.05.226c-.017.05-.042.067-.075.05a.4.4 0 01-.101-.225v-.301c0-.117-.008-.226-.025-.326a.407.407 0 00-.075-.251c-.151.05-.217.159-.201.326.034.15.042.284.025.401-.1.201-.117.443-.05.727.067.268.067.502 0 .703a.751.751 0 00-.025.351c.034.15 0 .217-.1.2-.084 0-.134-.1-.151-.301v-.702c.017-.284.034-.577.05-.878a6.257 6.257 0 000-.802c-.1-.117-.15-.309-.15-.577 0-.167.008-.351.025-.552.033-.217.05-.426.05-.627.017-.2.025-.384.025-.552a1.16 1.16 0 00-.075-.451c.251 0 .477.008.677.025.218.017.443.008.677-.025.101.017.176.025.226.025h.226c.017-.017.05-.025.1-.025h.326c.034-.318.042-.585.025-.803 0-.234-.008-.451-.025-.652l-.05-.652c0-.234.017-.501.05-.802a4.85 4.85 0 00-.05-.226.344.344 0 01.05-.251c.034-.083.017-.167-.05-.251-.05-.083-.017-.158.1-.225.05-.151.067-.31.05-.477a1.83 1.83 0 01.026-.526.482.482 0 01-.051-.427.533.533 0 00-.025-.426.84.84 0 01-.025-.452.665.665 0 00-.025-.476.309.309 0 000-.176v-.175c0-.151.05-.226.151-.226.485-.017.961-.008 1.429.025.485.017.97.008 1.455-.025l.05.05a6.235 6.235 0 010 1.58 5.848 5.848 0 000 1.53 225.092 225.092 0 00-.025 5.819 163.68 163.68 0 010 5.693c0 .251.008.501.025.752.033.251.033.493 0 .728a.799.799 0 00.05.476c.084.167.05.318-.1.451a1.356 1.356 0 00-.477-.125c-.184-.017-.359 0-.526.05a2.994 2.994 0 01-.552 0 1.57 1.57 0 00-.552.05l-.201.101a.222.222 0 00-.15.125.436.436 0 00-.025.251c.017.1-.034.159-.151.175-.05-.05-.05-.117 0-.2a.21.21 0 000-.201l-.1-.15a.538.538 0 01-.251-.301 1.676 1.676 0 01-.05-.402l.05-.401c.034-.15.042-.292.025-.426a3.868 3.868 0 01-.05-.878c.034-.318.059-.619.075-.903a.959.959 0 00-.05-.426.694.694 0 01.05-.452 1.646 1.646 0 01-.05-.802 1.11 1.11 0 00-.1-.803c-.05-.067-.059-.125-.025-.175l.1-.151.126-.125c.033-.05.025-.109-.025-.176zm-6.647-8.301c0 .451.009 1.028.025 1.73.017.686.026 1.346.026 1.982v1.078c.284 0 .468-.008.551-.025.101-.017.234-.025.402-.025h.175c.084 0 .167.008.251.025a.893.893 0 01.552-.025c.184.05.368.067.551.05.034.017.042.042.026.075 0 .017.016.034.05.05.033.235.041.444.025.627 0 .184-.017.368-.05.552l-.051.527c0 .184.017.393.051.627.033.1.033.175 0 .226-.034.05-.076.1-.126.15a.66.66 0 00-.125.176c-.017.05 0 .125.05.225a.649.649 0 00-.025.201c0 .084-.034.134-.1.15a.423.423 0 01-.051-.351c.051-.15 0-.25-.15-.301a4.832 4.832 0 01-.702 0 1.29 1.29 0 00-.677.076h-.276a.293.293 0 01-.076-.051.293.293 0 00-.075-.05c-.033-.033-.117-.058-.251-.075-.016.017-.025.084-.025.201.017.117.025.251.025.401a30.338 30.338 0 00.076.627c.016.485.008.961-.025 1.43-.017.468 0 .944.05 1.429a4.106 4.106 0 00-.05 1.304c.066.485.075.92.025 1.304a.396.396 0 000 .201c.016.05-.017.117-.101.201a.46.46 0 00-.301.225c-.05.134-.108.251-.175.352a.4.4 0 01-.025-.251c.033-.084-.009-.134-.126-.151-.167 0-.317-.025-.451-.075a12.26 12.26 0 00-.376-.1 1.406 1.406 0 00-.377-.101 1.345 1.345 0 00-.451-.025c-.084-.067-.184-.083-.301-.05-.117.034-.201 0-.251-.1 0-.251-.008-.56-.025-.928 0-.368.017-.669.05-.903a3.563 3.563 0 01-.05-.577 1.804 1.804 0 00-.025-.527c.05-.183.059-.384.025-.601a2.523 2.523 0 01.025-.627c.034-.92.042-1.848.025-2.784v-2.809a.644.644 0 00.025-.201.337.337 0 00-.025-.226c0-.234-.008-.468-.025-.702a10.29 10.29 0 01-.025-.702.978.978 0 01-.025-.376l.05-.351c0-.552.009-1.104.025-1.656.034-.568.025-1.12-.025-1.655-.05-.033-.067-.075-.05-.125a.408.408 0 00.025-.126.594.594 0 01-.025-.376c.034-.134.05-.268.05-.401a.452.452 0 00-.075-.226c.084-.084.159-.1.226-.05.083.05.175.042.276-.025.367.083.785.108 1.254.075.468-.05.886-.05 1.254 0 0 .1-.025.217-.076.351a.452.452 0 00-.025.326c.017.284.017.577 0 .878 0 .301.009.594.025.878zm15.568-2.358c.184 0 .359.009.527.025.184 0 .359-.016.526-.05.084.034.126.067.126.1 0 .067.025.109.075.126a.5.5 0 01-.075.301c0 .234.016.46.05.677.05.217.058.443.025.677a.824.824 0 00-.15.627c.05.218.066.443.05.677a5.996 5.996 0 00-.025.552c.016.184.025.368.025.552 0 .217.008.426.025.627.033.2.016.409-.05.627a.959.959 0 00-.025.376c.016.117.016.242 0 .376a1.503 1.503 0 000 .552c.033.201.041.393.025.577a7.116 7.116 0 000 1.204c.033.384.033.769 0 1.153.016 0 .025.042.025.126a.519.519 0 010 .225c-.017.084 0 .151.05.201.017.385 0 .769-.05 1.154a6.53 6.53 0 000 1.153c.016.184.008.36-.025.527-.017.151 0 .318.05.502.016.468 0 .911-.05 1.329-.034.401 0 .819.1 1.254-.017.1-.017.209 0 .326.033.1.058.209.075.326-.033.1-.05.209-.05.326 0 .234-.008.485-.025.753-.017.267-.075.401-.176.401-.033 0-.058-.067-.075-.201 0-.134-.017-.301-.05-.501 0-.051.017-.126.05-.226.034-.084.025-.151-.025-.201a.409.409 0 00-.176-.05.42.42 0 01-.175.025 2.222 2.222 0 00-.477-.05 4.943 4.943 0 01-.501.025c-.034.033-.067.05-.101.05-.066 0-.108-.008-.125-.025a1.257 1.257 0 00-.652-.075c-.201.05-.41.058-.627.025-.117-.117-.15-.217-.1-.301.067-.1.1-.217.1-.351-.017-.335 0-.686.05-1.053.05-.385.05-.745 0-1.079a.305.305 0 010-.175.309.309 0 000-.176v-7.424c0-1.204-.017-1.805-.05-1.805v-.026c.017-.802.017-1.613 0-2.432 0-.82.008-1.605.025-2.358.234.017.468.017.702 0a3.59 3.59 0 01.728-.025.399.399 0 01.2 0c.084.017.159.034.226.05zm8.361.577l-.05 1.731v1.705a37.46 37.46 0 010 1.956c-.017.602-.008 1.254.025 1.957.017 0 .025.033.025.1a.5.5 0 00-.05.326c.034.134.05.251.05.351.034.552.042 1.07.025 1.555a48.01 48.01 0 00-.025 1.58c0 .853-.016 1.697-.05 2.533-.033.819-.033 1.68 0 2.583.034.017.042.042.025.076l-.05.05c-.134.05-.268.067-.401.05h-1.229a1.068 1.068 0 00-.401-.025.982.982 0 01-.377-.025h-.301a.245.245 0 01-.225-.126.537.537 0 00.025-.426.826.826 0 01.025-.451 1.792 1.792 0 010-.427 1.994 1.994 0 000-.451c0-1.104-.009-2.207-.025-3.311 0-1.12.016-2.232.05-3.335a5.803 5.803 0 01-.075-.552v-.552a16.132 16.132 0 01-.025-2.383c.05-.785.066-1.605.05-2.457 0-.435-.009-.87-.025-1.305v-1.329l2.432-.075c.084-.067.168-.075.251-.025.084.033.117.008.101-.075.1.016.158.058.175.125a.92.92 0 01.025.226c0 .067-.008.142-.025.225a.36.36 0 00.05.201zm5.944 9.355c.017.017-.033.058-.15.125-.117.05-.251.109-.402.176l-.401.15a1.444 1.444 0 01-.226.076c-.2.066-.443.1-.727.1h-.376c-.117 0-.234-.008-.351-.025a2.82 2.82 0 00-.728.1.93.93 0 01-.727-.1c-.083-.05-.134-.109-.15-.176 0-.083.008-.167.025-.251.033-.1.058-.192.075-.275a.539.539 0 00.025-.276 4.885 4.885 0 01-.075-.427 20.597 20.597 0 01-.05-.426c.033-.217.058-.376.075-.477.033-.117.05-.192.05-.225 0-.067-.008-.092-.025-.075-.017 0-.05-.059-.1-.176-.017-.084.033-.125.15-.125a.55.55 0 01.176.025.835.835 0 00.125.025c.034.016.109.042.226.075.134.033.292.033.476 0s.36-.084.527-.151c.184-.066.443-.108.778-.125.1-.033.225-.067.376-.1.15-.05.284-.092.401-.126.301 0 .51-.142.627-.426.117-.284.226-.552.326-.803a1.18 1.18 0 01.05-.576c.084-.218.075-.41-.025-.577a.734.734 0 01-.075-.502c.033-.2-.017-.343-.151-.426a.766.766 0 00-.275-.251 4.35 4.35 0 01-.301-.201c-.034-.117-.076-.192-.126-.225a.35.35 0 00-.2-.051.606.606 0 00-.226.051.864.864 0 01-.201.025c-.1 0-.159-.084-.175-.251a1.5 1.5 0 01-.226.075h-.1a.788.788 0 00-.176-.05c-.084-.017-.125-.017-.125 0h-.101c-.033 0-.05.059-.05.176.017.117.025.25.025.401.017.15.009.292-.025.426-.017.117-.075.184-.175.201-.034 0-.059-.05-.076-.151 0-.117-.008-.242-.025-.376 0-.15-.008-.276-.025-.376-.017-.117-.033-.176-.05-.176-.067-.033-.1-.066-.1-.1 0-.033-.092-.05-.276-.05a.814.814 0 00-.201.025c-.067 0-.167.033-.301.1-.15.084-.226.109-.226.076 0-.051-.008-.076-.025-.076-.05 0-.125-.05-.225-.15-.034-.034-.05-.1-.05-.201 0-.134.008-.284.025-.451.016-.184.025-.318.025-.402v-1.028a1.1 1.1 0 00-.025-.251v-.351a.67.67 0 01.025-.15c.033-.067.108-.092.225-.075l.276.025.376-.025 1.054.025 1.254.05.15.075.251.1c.084.034.159.067.226.101.083.016.134.025.15.025.402.1.719.259.953.476.234.218.502.494.803.828.05.1.109.201.175.301l.201.251c.034.1.084.2.151.301l.25.301c.101.1.184.2.251.301.084.1.134.2.151.301.05.1.075.2.075.3.017.084.042.176.075.276a.742.742 0 00.025.502.99.99 0 01.075.502c-.066.117-.075.275-.025.476.051.184.051.334 0 .452l-.05.25v.251c0 .084-.025.117-.075.1-.033-.033-.067-.025-.1.026l-.151.25a.663.663 0 00-.1.326c0 .134.008.251.025.351.033.101-.033.209-.201.327-.083.066-.1.125-.05.175.05.034.017.067-.1.1-.05.034-.075.076-.075.126 0 .1-.051.175-.151.226a.76.76 0 00-.251.175.65.65 0 01-.15.151c-.05.033-.059.1-.025.2a.391.391 0 01-.05.151c-.017.067-.042.083-.076.05-.05-.017-.067-.05-.05-.1.034-.067.034-.126 0-.176 0-.067-.033-.025-.1.125-.067.134-.084.234-.05.301l-.452.176-.125.05a.872.872 0 00-.226.1 3.124 3.124 0 00-.226.101c-.066.033-.092.058-.075.075zm-2.784 6.42c0 .051-.008.126-.025.226 0 .084.017.159.05.226-.05.318-.058.652-.025 1.003.05.351.042.686-.025 1.003-.083-.033-.125-.092-.125-.175a.837.837 0 00-.05-.251c.05-.184.058-.376.025-.577a8.25 8.25 0 00-.075-.577l-.051-.552c0-.2.042-.392.126-.576.067.016.108.05.125.1l.05.15z" fill="#fff"/><path stroke="#fff" stroke-width="4.56" stroke-linecap="round" stroke-linejoin="round" d="M5.32 224.2h253.82m-255.415.11L131.405 3.162m127.83 221.333L131.555 3.347"/></svg>