<svg width="20" height="20" fill="none" xmlns="http://www.w3.org/2000/svg"><path d="M18.455 2.62c-.3-.254-.771-.29-1.259-.094-.513.205-14.505 6.207-15.074 6.452-.104.036-1.009.374-.916 1.126.084.678.81.958.9.99l3.557 1.219c.236.785 1.106 3.684 1.298 4.303.12.386.316.893.659.998.3.116.6.01.793-.142l2.175-2.018 3.51 2.738.084.05c.239.106.467.159.685.159.169 0 .33-.032.485-.095.526-.216.736-.717.758-.774l2.622-13.63c.16-.729-.062-1.1-.277-1.281zM8.8 12.8L7.6 16l-1.2-4 9.2-6.8-6.8 7.6z" fill="#fff"/></svg>