<svg width="40" height="40" viewBox="0 0 40 40" fill="none" xmlns="http://www.w3.org/2000/svg">
<path d="M20.0719 39.9837C14.7553 39.9837 9.74985 37.9147 5.99369 34.1503C2.2293 30.3942 0.159668 25.388 0.159668 20.0721C0.159668 14.7555 2.2293 9.74998 5.99369 5.99381C9.74985 2.22942 14.7553 0.15979 20.0719 0.15979C25.3879 0.15979 30.394 2.22942 34.1502 5.99381C37.9146 9.7582 39.9835 14.7555 39.9835 20.0721C39.9835 25.388 37.9146 30.3942 34.1502 34.1503C30.394 37.9147 25.3879 39.9837 20.0719 39.9837ZM20.0719 1.35359C15.074 1.35359 10.3707 3.30329 6.8373 6.83742C3.30386 10.3709 1.35347 15.0741 1.35347 20.0721C1.35347 25.07 3.30386 29.7733 6.8373 33.3067C10.3707 36.8402 15.074 38.7899 20.0719 38.7899C25.0699 38.7899 29.7732 36.8402 33.3066 33.3067C36.84 29.7733 38.7897 25.07 38.7897 20.0721C38.7897 15.0741 36.84 10.3709 33.3066 6.83742C29.7732 3.30329 25.0699 1.35359 20.0719 1.35359Z" fill="white"/>
<path d="M21.6665 19.4249C21.5781 19.4249 21.4924 19.4386 21.4088 19.466C21.3245 19.4927 21.2471 19.5318 21.1751 19.5825C21.1032 19.6332 21.0408 19.6942 20.9881 19.7641C20.9353 19.8347 20.8935 19.9114 20.8647 19.9944H20.1904C20.1609 19.9108 20.1205 19.834 20.067 19.7634C20.0142 19.6935 19.9519 19.6325 19.8799 19.5811C19.808 19.5304 19.7305 19.4914 19.6462 19.4646C19.5626 19.4379 19.4763 19.4242 19.3886 19.4242C19.3001 19.4242 19.2138 19.4379 19.1302 19.4646C19.0459 19.4914 18.9685 19.5304 18.8965 19.5811C18.8245 19.6325 18.7622 19.6935 18.7094 19.7634C18.6566 19.834 18.6155 19.9108 18.5867 19.9944H17.9124C17.8829 19.9108 17.8425 19.834 17.789 19.7634C17.7363 19.6935 17.6739 19.6325 17.602 19.5811C17.53 19.5304 17.4526 19.4914 17.3683 19.4646C17.2847 19.4379 17.1983 19.4242 17.1106 19.4242C17.0222 19.4242 16.9358 19.4379 16.8522 19.4646C16.7679 19.4914 16.6905 19.5304 16.6185 19.5811C16.5466 19.6325 16.4842 19.6935 16.4315 19.7634C16.3787 19.834 16.3376 19.9108 16.3088 19.9944H15.6865V20.5639H16.3088C16.3376 20.6468 16.3787 20.7235 16.4315 20.7941C16.4842 20.8647 16.5466 20.9257 16.6185 20.9764C16.6905 21.0278 16.7679 21.0669 16.8522 21.0936C16.9358 21.1203 17.0222 21.1333 17.1106 21.1333C17.1983 21.1333 17.2847 21.1203 17.3683 21.0936C17.4526 21.0669 17.53 21.0278 17.602 20.9764C17.6739 20.9257 17.7363 20.8647 17.789 20.7941C17.8425 20.7235 17.8829 20.6468 17.9124 20.5639H18.5867C18.6155 20.6468 18.6566 20.7235 18.7094 20.7941C18.7622 20.8647 18.8245 20.9257 18.8965 20.9764C18.9685 21.0278 19.0459 21.0669 19.1302 21.0936C19.2138 21.1203 19.3001 21.1333 19.3886 21.1333C19.4763 21.1333 19.5626 21.1203 19.6462 21.0936C19.7305 21.0669 19.808 21.0278 19.8799 20.9764C19.9519 20.9257 20.0142 20.8647 20.067 20.7941C20.1205 20.7235 20.1609 20.6468 20.1904 20.5639H20.8647C20.8935 20.6468 20.9346 20.7235 20.9874 20.7941C21.0401 20.8647 21.1025 20.9257 21.1745 20.9764C21.2464 21.0278 21.3245 21.0669 21.4082 21.0936C21.4924 21.1203 21.5781 21.1333 21.6665 21.1333C21.7542 21.1333 21.8406 21.1203 21.9242 21.0936C22.0085 21.0669 22.0866 21.0278 22.1579 20.9764C22.2298 20.9257 22.2922 20.8647 22.345 20.7941C22.3984 20.7235 22.4389 20.6468 22.4683 20.5639H23.375V19.9944H22.4683C22.4389 19.9114 22.3977 19.8347 22.3443 19.7641C22.2915 19.6942 22.2292 19.6332 22.1572 19.5825C22.0859 19.5318 22.0078 19.4927 21.9242 19.466C21.8406 19.4386 21.7542 19.4249 21.6665 19.4249ZM17.1106 20.5639C17.0729 20.5639 17.0359 20.5563 17.0016 20.5419C16.9667 20.5275 16.9358 20.507 16.9091 20.4803C16.8824 20.4535 16.8618 20.4227 16.8474 20.3877C16.833 20.3528 16.8255 20.3165 16.8255 20.2788C16.8255 20.2411 16.833 20.2048 16.8474 20.1698C16.8618 20.1349 16.8824 20.1047 16.9091 20.078C16.9358 20.0513 16.9667 20.0307 17.0016 20.0156C17.0359 20.0012 17.0729 19.9944 17.1106 19.9944C17.1483 19.9944 17.1846 20.0012 17.2196 20.0156C17.2545 20.0307 17.2847 20.0513 17.3114 20.078C17.3381 20.1047 17.3587 20.1349 17.3731 20.1698C17.3881 20.2048 17.395 20.2411 17.395 20.2788C17.395 20.3165 17.3881 20.3528 17.3731 20.3877C17.3587 20.4227 17.3381 20.4535 17.3114 20.4803C17.2847 20.507 17.2545 20.5275 17.2196 20.5419C17.1846 20.5563 17.1483 20.5639 17.1106 20.5639ZM19.3886 20.5639C19.3509 20.5639 19.3145 20.5563 19.2796 20.5419C19.2446 20.5275 19.2138 20.507 19.1871 20.4803C19.1603 20.4535 19.1398 20.4227 19.1254 20.3877C19.111 20.3528 19.1035 20.3165 19.1035 20.2788C19.1035 20.2411 19.111 20.2048 19.1254 20.1698C19.1398 20.1349 19.1603 20.1047 19.1871 20.078C19.2138 20.0513 19.2446 20.0307 19.2796 20.0156C19.3145 20.0012 19.3509 19.9944 19.3886 19.9944C19.4262 19.9944 19.4626 20.0012 19.4975 20.0156C19.5325 20.0307 19.5626 20.0513 19.5893 20.078C19.6161 20.1047 19.6366 20.1349 19.6517 20.1698C19.6661 20.2048 19.673 20.2411 19.673 20.2788C19.673 20.3165 19.6661 20.3528 19.6517 20.3877C19.6366 20.4227 19.6161 20.4535 19.5893 20.4803C19.5626 20.507 19.5325 20.5275 19.4975 20.5419C19.4626 20.5563 19.4262 20.5639 19.3886 20.5639ZM21.6665 20.5639C21.6288 20.5639 21.5925 20.5563 21.5575 20.5419C21.5226 20.5275 21.4918 20.507 21.465 20.4803C21.4383 20.4535 21.4177 20.4227 21.4034 20.3877C21.389 20.3528 21.3814 20.3165 21.3814 20.2788C21.3814 20.2411 21.389 20.2048 21.4034 20.1698C21.4177 20.1349 21.4383 20.1047 21.465 20.078C21.4918 20.0513 21.5226 20.0307 21.5575 20.0156C21.5925 20.0012 21.6288 19.9944 21.6665 19.9944C21.7042 19.9944 21.7405 20.0012 21.7755 20.0156C21.8104 20.0307 21.8413 20.0513 21.8673 20.078C21.894 20.1047 21.9146 20.1349 21.9297 20.1698C21.9441 20.2048 21.9509 20.2411 21.9509 20.2788C21.9509 20.3165 21.9441 20.3528 21.9297 20.3877C21.9146 20.4227 21.894 20.4535 21.8673 20.4803C21.8413 20.507 21.8104 20.5275 21.7755 20.5419C21.7405 20.5563 21.7042 20.5639 21.6665 20.5639Z" fill="white"/>
<path d="M17.6792 21.4176H18.2487V21.9871H17.6792V21.4176Z" fill="white"/>
<path d="M19.9575 21.4176H20.527V21.9871H19.9575V21.4176Z" fill="white"/>
<path d="M27.0758 12.591V10.3131C27.0758 10.2754 27.0689 10.239 27.0545 10.2041C27.0402 10.1691 27.0196 10.1383 26.9929 10.1116C26.9661 10.0848 26.9353 10.0643 26.9003 10.0499C26.8654 10.0355 26.8291 10.028 26.7914 10.028C26.6331 10.0328 26.4857 9.99576 26.3487 9.91558C26.2411 9.8587 26.1287 9.81621 26.0101 9.78674C25.8923 9.75796 25.7723 9.74288 25.651 9.74288C25.5297 9.74288 25.4098 9.75796 25.2919 9.78674C25.1741 9.81621 25.061 9.8587 24.9534 9.91558C24.8177 9.99507 24.671 10.0328 24.5134 10.028C24.4757 10.028 24.4394 10.0355 24.4045 10.0499C24.3695 10.0643 24.3387 10.0848 24.3119 10.1116C24.2852 10.1383 24.2647 10.1691 24.2503 10.2041C24.2359 10.239 24.2283 10.2754 24.2283 10.3131V11.7364C24.2283 11.7741 24.2359 11.8105 24.2503 11.8454C24.2647 11.8804 24.2852 11.9112 24.3119 11.9379C24.3387 11.9646 24.3695 11.9852 24.4045 11.9996C24.4394 12.014 24.4757 12.0215 24.5134 12.0215C24.7608 12.0256 24.9925 11.9688 25.209 11.8488C25.3468 11.7741 25.4948 11.7364 25.6517 11.7364C25.8087 11.7364 25.956 11.7741 26.0944 11.8488C26.2246 11.918 26.3617 11.9667 26.5063 11.9941V12.591H23.9439V13.1605H24.6066C24.7368 13.5292 24.8006 13.9089 24.7978 14.2995C24.8033 14.749 24.7176 15.1815 24.5415 15.5961C24.5306 15.6173 24.523 15.6406 24.5175 15.6639C24.5127 15.6879 24.5107 15.7119 24.5121 15.7366C24.5134 15.7606 24.5175 15.7845 24.5244 15.8078C24.5319 15.8311 24.5415 15.8531 24.5545 15.8736C24.5676 15.8942 24.5826 15.9127 24.6005 15.9298C24.6183 15.9463 24.6375 15.9607 24.6587 15.9723C24.68 15.984 24.7026 15.9929 24.7259 15.999C24.7499 16.0052 24.7738 16.008 24.7978 16.008H26.5063V17.4882L24.8006 17.7185C24.7451 17.726 24.695 17.748 24.6525 17.785C24.6101 17.822 24.5806 17.8679 24.5648 17.922L24.4613 18.2859H20.527V17.7164H22.5199C22.585 17.7164 22.6439 17.6966 22.6953 17.6561C22.7467 17.6157 22.7803 17.5643 22.796 17.5006C22.992 16.6357 23.0894 15.7585 23.0894 14.869C23.0948 14.1974 23.0277 13.5326 22.8886 12.8754H23.3744V12.3059H20.527V11.7364H22.2355C22.3136 11.7364 22.3807 11.709 22.4363 11.6528C22.4979 11.5918 22.805 11.2382 22.805 10.3131C22.8098 10.0225 22.7721 9.7374 22.6912 9.45848H23.0894V8.88899H20.527V6.61103C20.527 6.57333 20.5195 6.53701 20.5051 6.50206C20.4907 6.46711 20.4701 6.43627 20.4434 6.40955C20.4167 6.38282 20.3858 6.36226 20.3509 6.34787C20.3159 6.33348 20.2796 6.32662 20.2419 6.32662C20.0836 6.33142 19.9363 6.29373 19.7992 6.21355C19.6923 6.15735 19.5792 6.11418 19.4613 6.0854C19.3435 6.05593 19.2235 6.04154 19.1016 6.04154C18.9803 6.04154 18.8603 6.05593 18.7425 6.0854C18.6246 6.11418 18.5115 6.15735 18.4039 6.21355C18.2682 6.29304 18.1216 6.33074 17.9639 6.32662C17.8063 6.33142 17.659 6.29373 17.5226 6.21423C17.3054 6.09431 17.073 6.03674 16.825 6.04154C16.7873 6.04154 16.751 6.04907 16.716 6.06347C16.681 6.07786 16.6502 6.09842 16.6235 6.12514C16.5968 6.15187 16.5762 6.18271 16.5618 6.21766C16.5474 6.25261 16.5406 6.28893 16.5406 6.32662V7.75001C16.5406 7.7877 16.5474 7.82402 16.5618 7.85897C16.5762 7.89392 16.5968 7.92476 16.6235 7.95149C16.6502 7.97821 16.681 7.99877 16.716 8.01316C16.751 8.02756 16.7873 8.03509 16.825 8.03509C16.9826 8.0303 17.1299 8.0673 17.2663 8.1468C17.3739 8.20368 17.4863 8.24685 17.6042 8.27564C17.722 8.30511 17.842 8.3195 17.9633 8.3195C18.0846 8.3195 18.2038 8.30511 18.3217 8.27564C18.4395 8.24685 18.5526 8.20368 18.6595 8.1468C18.798 8.0721 18.9453 8.03441 19.1022 8.03441C19.2592 8.03441 19.4072 8.0721 19.5449 8.1468C19.6752 8.21533 19.8129 8.2633 19.9575 8.2914V8.88899H17.3945V9.45848H18.0942C18.212 9.73123 18.2634 10.0163 18.249 10.3131C18.2812 10.6468 18.2141 10.9593 18.0469 11.2506C18.0064 11.291 17.9804 11.3396 17.9694 11.3965C17.9578 11.4527 17.9633 11.5075 17.9852 11.561C18.0078 11.6145 18.0428 11.6569 18.0907 11.6885C18.1387 11.7207 18.1915 11.7364 18.249 11.7364H19.9575V12.3059H17.1101V12.8754H17.4623C17.6138 13.5313 17.6857 14.196 17.6795 14.869C17.6775 15.7098 17.5857 16.5411 17.4034 17.3628C17.3924 17.4053 17.3917 17.4478 17.4006 17.491C17.4102 17.5334 17.428 17.5725 17.4548 17.6068C17.4822 17.641 17.5151 17.6685 17.5541 17.6876C17.5939 17.7068 17.6357 17.7164 17.6795 17.7164H19.9575V18.2859H15.1165V16.2924H16.5406C16.594 16.2924 16.644 16.2787 16.69 16.2499C16.7359 16.2218 16.7708 16.1834 16.7948 16.1354C17.0121 15.6406 17.1169 15.1239 17.1101 14.5839C17.1176 14.0446 17.0127 13.5271 16.7969 13.033C16.7722 12.9844 16.7372 12.946 16.6906 12.9179C16.6447 12.8891 16.5947 12.8754 16.5406 12.8754H15.1165V12.0215H15.4016C15.4667 12.0215 15.5249 12.001 15.5763 11.9612C15.6277 11.9208 15.6613 11.8694 15.6778 11.8057L15.9622 10.6667C15.9731 10.6242 15.9738 10.5817 15.9649 10.5385C15.9553 10.496 15.9375 10.457 15.9108 10.4227C15.8834 10.3878 15.8505 10.361 15.8107 10.3418C15.7716 10.3226 15.7298 10.3131 15.686 10.3131H15.1165V8.03509C15.1165 7.9974 15.1096 7.96108 15.0946 7.92613C15.0802 7.89118 15.0596 7.86034 15.0329 7.83361C15.0062 7.80689 14.9753 7.78633 14.9411 7.77194C14.9061 7.75755 14.8698 7.75001 14.8321 7.75001C14.6738 7.7548 14.5258 7.7178 14.3894 7.63762C14.1728 7.51837 13.9405 7.46081 13.6931 7.4656C13.445 7.46012 13.2127 7.51769 12.9955 7.63762C12.8591 7.71711 12.7118 7.7548 12.5541 7.75001C12.5158 7.75001 12.4794 7.75755 12.4452 7.77194C12.4102 7.78633 12.3794 7.80689 12.3527 7.83361C12.3259 7.86034 12.3054 7.89118 12.291 7.92613C12.2766 7.96108 12.269 7.9974 12.269 8.03509V9.45848C12.269 9.49617 12.2766 9.53249 12.291 9.56744C12.3054 9.60239 12.3259 9.63323 12.3527 9.65996C12.3794 9.68668 12.4102 9.70724 12.4452 9.72163C12.4794 9.73603 12.5158 9.74356 12.5541 9.74356C12.8008 9.74836 13.0325 9.69148 13.2497 9.57224C13.3861 9.49206 13.5341 9.45437 13.6931 9.45848C13.8514 9.45368 13.9988 9.49137 14.1351 9.57087C14.2653 9.64008 14.4031 9.68805 14.5477 9.71615V10.3131H13.9775C13.9337 10.3131 13.8918 10.3226 13.8528 10.3418C13.813 10.361 13.7801 10.3878 13.7527 10.4227C13.726 10.457 13.7082 10.496 13.6993 10.5385C13.6897 10.5817 13.6904 10.6242 13.7013 10.6667L13.9864 11.8057C14.0022 11.8694 14.0358 11.9208 14.0872 11.9612C14.1386 12.001 14.1968 12.0215 14.2626 12.0215H14.547V12.8754H12.8385C12.8145 12.8754 12.7906 12.8788 12.7666 12.885C12.7433 12.8905 12.7213 12.9001 12.7001 12.9117C12.6789 12.9234 12.659 12.9378 12.6418 12.9542C12.624 12.9714 12.609 12.9899 12.5959 13.0104C12.5836 13.031 12.5733 13.0529 12.5665 13.0762C12.5589 13.0995 12.5548 13.1235 12.5541 13.1475C12.5528 13.1715 12.5548 13.1955 12.5596 13.2194C12.5651 13.2434 12.5726 13.266 12.5836 13.2873C12.7611 13.7019 12.8461 14.1336 12.8385 14.5839C12.844 15.0341 12.759 15.4659 12.5836 15.8805C12.5726 15.9024 12.5651 15.925 12.5596 15.949C12.5548 15.9723 12.5528 15.9963 12.5541 16.021C12.5548 16.045 12.5589 16.0689 12.5665 16.0916C12.5733 16.1149 12.5836 16.1368 12.5959 16.1574C12.609 16.1779 12.624 16.1971 12.6418 16.2135C12.659 16.2307 12.6789 16.2451 12.7001 16.2567C12.7213 16.2684 12.7433 16.2773 12.7666 16.2834C12.7906 16.2896 12.8145 16.2924 12.8385 16.2924H14.547V17.7164H12.8385C12.7734 17.7164 12.7152 17.7363 12.6631 17.7767C12.6117 17.8165 12.5781 17.8686 12.5624 17.9316L12.2773 19.0706C12.2718 19.0939 12.269 19.1165 12.269 19.1398C12.269 19.2673 12.2903 19.3906 12.3314 19.5106C12.3732 19.6312 12.4328 19.7408 12.511 19.8416C12.5898 19.9416 12.6816 20.0259 12.7885 20.0951C12.8947 20.1643 13.0099 20.2144 13.1332 20.2452C13.149 20.4398 13.1826 20.631 13.2346 20.8195C13.286 21.0073 13.3546 21.1889 13.4395 21.3643C13.5252 21.5398 13.626 21.7056 13.7425 21.8618C13.859 22.0188 13.9892 22.1627 14.1324 22.295C14.2756 22.4272 14.4298 22.5451 14.595 22.6486C14.7608 22.7521 14.9342 22.8398 15.1158 22.9104C15.2974 22.9816 15.4838 23.0358 15.6757 23.0721C15.8669 23.1077 16.0602 23.1262 16.2555 23.1262H23.3744C23.5067 23.1194 23.6376 23.1016 23.7678 23.0728C23.8973 23.0447 24.0234 23.0063 24.1468 22.957C24.2701 22.9083 24.3894 22.8501 24.5031 22.7815C24.6169 22.7137 24.7245 22.6369 24.8259 22.5513C24.928 22.4663 25.0219 22.3731 25.1083 22.2723C25.1946 22.1716 25.2727 22.0647 25.342 21.9516C25.4112 21.8379 25.4708 21.72 25.5208 21.5973C25.5709 21.474 25.6106 21.3479 25.6401 21.219L26.1588 19.9217L29.1872 18.545C29.2379 18.5217 29.2784 18.4867 29.3085 18.4401C29.3387 18.3928 29.3537 18.3414 29.3537 18.2859V17.4313C29.3537 17.3902 29.3455 17.3512 29.3284 17.3142C29.3113 17.2765 29.2873 17.2443 29.2564 17.2175C29.2256 17.1901 29.1906 17.1709 29.1516 17.1593C29.1118 17.1469 29.0721 17.1442 29.0317 17.1497L27.0758 17.4122V16.008H28.4999C28.554 16.008 28.604 15.9943 28.6506 15.9655C28.6965 15.9374 28.7315 15.899 28.7562 15.8503C28.972 15.3562 29.0769 14.8388 29.0693 14.2995C29.07 13.9116 29.0159 13.5319 28.9069 13.1605H29.3537V12.591H27.0758ZM26.3487 11.3396C26.2411 11.2828 26.1287 11.2396 26.0101 11.2108C25.8923 11.1813 25.7723 11.1669 25.651 11.1669C25.5297 11.1669 25.4098 11.1813 25.2919 11.2108C25.1741 11.2396 25.061 11.2828 24.9534 11.3396C24.9027 11.3664 24.8506 11.3897 24.7971 11.4095V10.5728C24.9411 10.5447 25.0781 10.4953 25.2076 10.4254C25.3461 10.3501 25.4934 10.3131 25.6503 10.3131C25.8073 10.3131 25.9553 10.3501 26.0931 10.4254C26.2226 10.496 26.3603 10.5454 26.5056 10.5735V11.4102C26.4515 11.3897 26.3994 11.3664 26.3487 11.3396ZM19.7992 7.63762C19.6923 7.58074 19.5792 7.53825 19.4613 7.50878C19.3435 7.48 19.2235 7.46492 19.1016 7.46492C18.9803 7.46492 18.8603 7.48 18.7425 7.50878C18.6246 7.53825 18.5115 7.58074 18.4039 7.63762C18.2668 7.71231 18.1195 7.75001 17.9626 7.75001C17.8063 7.75001 17.659 7.71231 17.5212 7.63762C17.3917 7.56703 17.2547 7.51769 17.1101 7.48959V6.65283C17.1635 6.6727 17.2156 6.69669 17.2663 6.72342C17.3739 6.77961 17.4863 6.82279 17.6042 6.85225C17.722 6.88104 17.842 6.89543 17.9633 6.89543C18.0846 6.89543 18.2038 6.88104 18.3217 6.85225C18.4395 6.82279 18.5526 6.77961 18.6595 6.72342C18.798 6.64803 18.9453 6.61103 19.1022 6.61103C19.2592 6.61103 19.4072 6.64803 19.5449 6.72342C19.6745 6.794 19.8122 6.84335 19.9575 6.87144V7.7082C19.9034 7.68833 19.8506 7.66434 19.7992 7.63762ZM18.7061 11.1669C18.7863 10.888 18.8233 10.6029 18.8185 10.3131C18.8233 10.0225 18.7863 9.7374 18.7061 9.45848H22.0813C22.1985 9.73123 22.2492 10.0163 22.2355 10.3131C22.2492 10.6091 22.1985 10.8942 22.0813 11.1669H18.7061ZM18.0311 17.1469C18.1743 16.3945 18.247 15.6351 18.249 14.869C18.2538 14.1974 18.1867 13.5326 18.0476 12.8754H22.3033C22.4541 13.5313 22.5267 14.196 22.5199 14.869C22.5178 15.6351 22.4417 16.3952 22.2923 17.1469H18.0311ZM14.3894 9.06168C14.1728 8.94176 13.9405 8.88419 13.6931 8.88899C13.445 8.88419 13.2127 8.94176 12.9955 9.06168C12.9448 9.08841 12.8927 9.11171 12.8392 9.13159V8.29483C12.9831 8.26741 13.1202 8.21876 13.2497 8.14886C13.3861 8.06799 13.5341 8.0303 13.6931 8.03509C13.8507 8.0303 13.9981 8.06867 14.1344 8.14886C14.2647 8.21876 14.4017 8.26741 14.547 8.29551V9.13227C14.4929 9.11171 14.4401 9.08841 14.3894 9.06168ZM14.4846 11.452L14.3421 10.8825H15.3214L15.1789 11.452H14.4846ZM13.2463 15.7229C13.3546 15.3514 13.4087 14.9718 13.408 14.5839C13.4087 14.1967 13.3546 13.817 13.2463 13.4449H16.35C16.4789 13.8136 16.5419 14.1933 16.5406 14.5839C16.5412 14.9745 16.4775 15.3542 16.3494 15.7229H13.2463ZM28.7843 17.7575V18.1023L25.8491 19.4365L24.4565 19.7155L24.5682 20.2733L25.4763 20.0917C25.4763 20.0917 25.0754 21.1128 25.0699 21.1334H23.3744V21.7029H24.8136C24.7361 21.8262 24.6457 21.9393 24.5422 22.0414C24.438 22.1428 24.3236 22.2312 24.1982 22.3052C24.0728 22.3799 23.9405 22.4382 23.8014 22.4807C23.6623 22.5232 23.5197 22.5485 23.3744 22.5567H16.2555C16.0759 22.5567 15.8977 22.5382 15.7216 22.5006C15.5462 22.4629 15.3762 22.4067 15.2118 22.3333C15.048 22.26 14.8931 22.1696 14.7478 22.0633C14.6032 21.9571 14.4702 21.8372 14.351 21.7029H15.4016V21.1334H13.9631C13.8281 20.8634 13.7431 20.579 13.7096 20.2788H14.547V19.7093H13.408C13.3354 19.71 13.2648 19.6963 13.1969 19.6696C13.1291 19.6428 13.0688 19.6038 13.016 19.5537C12.9633 19.5037 12.9215 19.4461 12.8906 19.3797C12.8598 19.3139 12.8426 19.2447 12.8385 19.1713L13.0613 18.2859H14.547V18.5703C14.547 18.608 14.5545 18.6443 14.5689 18.6793C14.5833 18.7142 14.6039 18.7451 14.6306 18.7718C14.6573 18.7985 14.6882 18.8191 14.7231 18.8335C14.7574 18.8479 14.7937 18.8554 14.8321 18.8554H24.6758C24.7396 18.8554 24.7965 18.8362 24.8472 18.7978C24.8979 18.7595 24.9321 18.7101 24.95 18.6491L25.0617 18.2585L28.7843 17.7575ZM28.3087 15.4385H25.2049C25.3125 15.0663 25.3666 14.6867 25.3666 14.2995C25.3666 13.9123 25.3125 13.5326 25.2049 13.1605H28.3087C28.4361 13.5292 28.4992 13.9089 28.4992 14.2995C28.4992 14.6894 28.4361 15.0691 28.3087 15.4385Z" fill="white"/>
<path d="M19.6724 10.0277H20.2419V10.5972H19.6724V10.0277Z" fill="white"/>
<path d="M20.811 10.0277H21.3805V10.5972H20.811V10.0277Z" fill="white"/>
<path d="M21.6658 14.5839C21.6658 13.9562 21.0271 13.4449 20.2417 13.4449C19.4571 13.4449 18.8184 13.9562 18.8184 14.5839C18.8259 14.7779 18.8746 14.9602 18.9643 15.1315C19.0541 15.3035 19.1761 15.4474 19.331 15.5639L19.1178 16.2026C19.1034 16.2458 19.1 16.2903 19.1069 16.3356C19.1137 16.3808 19.1302 16.4219 19.1569 16.4589C19.1836 16.4959 19.2172 16.5247 19.2583 16.546C19.2988 16.5665 19.3419 16.5775 19.3878 16.5775H21.0963C21.1415 16.5775 21.1854 16.5672 21.2258 16.546C21.2663 16.5254 21.3005 16.4959 21.3273 16.4589C21.354 16.4219 21.3704 16.3808 21.378 16.3356C21.3848 16.2903 21.3807 16.2458 21.3663 16.2026L21.1532 15.5639C21.3074 15.4474 21.4301 15.3035 21.5192 15.1315C21.6089 14.9602 21.6583 14.7779 21.6658 14.5839ZM20.6975 15.1774C20.6646 15.1911 20.6358 15.211 20.6104 15.2363C20.5858 15.261 20.5659 15.2898 20.5508 15.3227C20.5364 15.3549 20.5289 15.3892 20.5268 15.4241C20.5248 15.4597 20.5296 15.4947 20.5412 15.5283L20.7009 16.008H19.7826L19.9423 15.5283C19.9539 15.4947 19.9587 15.4597 19.9567 15.4241C19.9553 15.3892 19.9471 15.3549 19.9327 15.3227C19.9183 15.2898 19.8984 15.261 19.873 15.2363C19.8477 15.211 19.8189 15.1911 19.786 15.1774C19.6729 15.1198 19.5804 15.0383 19.5091 14.9327C19.4386 14.8272 19.3981 14.7107 19.3878 14.5839C19.3878 14.2755 19.7792 14.0144 20.2417 14.0144C20.705 14.0144 21.0963 14.2755 21.0963 14.5839C21.086 14.7107 21.0456 14.8272 20.9743 14.9327C20.9031 15.0383 20.8112 15.1198 20.6975 15.1774Z" fill="white"/>
<path d="M12.8395 25.4436C12.8627 25.4745 12.8665 25.5073 12.8511 25.542C12.8395 25.5729 12.8357 25.6057 12.8395 25.6404C12.8395 25.7215 12.8376 25.8083 12.8337 25.901C12.8337 25.9897 12.8376 26.0747 12.8453 26.1557C12.8337 26.1711 12.8318 26.1924 12.8395 26.2194C12.8357 26.2387 12.8337 26.2676 12.8337 26.3062C12.8337 26.3332 12.8376 26.3583 12.8453 26.3815C12.8376 26.4355 12.8357 26.4934 12.8395 26.5552C12.8434 26.6169 12.8434 26.6787 12.8395 26.7404V26.9489C12.8318 27.0492 12.8299 27.1476 12.8337 27.2441C12.8376 27.3368 12.8357 27.4313 12.8279 27.5278C12.8357 27.5317 12.8376 27.5355 12.8337 27.5394C12.8299 27.5432 12.8318 27.5452 12.8395 27.5452C12.8395 27.742 12.8337 27.935 12.8221 28.1241C12.8183 28.1782 12.8183 28.2303 12.8221 28.2804C12.8299 28.3268 12.8299 28.3769 12.8221 28.431C12.8299 28.4425 12.8299 28.4561 12.8221 28.4715C12.8183 28.4831 12.8202 28.4947 12.8279 28.5062C12.8241 28.5796 12.8202 28.651 12.8164 28.7204C12.8125 28.7861 12.8144 28.8536 12.8221 28.9231C12.8221 28.9424 12.8221 28.9617 12.8221 28.981C12.826 29.0003 12.8241 29.0215 12.8164 29.0447C12.8202 29.1064 12.826 29.1643 12.8337 29.2183C12.8414 29.2724 12.8357 29.3283 12.8164 29.3862L12.7469 29.4268C12.716 29.4152 12.6793 29.4094 12.6369 29.4094C12.5983 29.4094 12.5635 29.419 12.5327 29.4383C12.5134 29.4383 12.4979 29.4325 12.4864 29.421C12.4748 29.4094 12.4613 29.4017 12.4458 29.3978C12.3956 29.3901 12.3493 29.392 12.3069 29.4036C12.2683 29.419 12.2278 29.4268 12.1853 29.4268C12.1428 29.4152 12.1197 29.3901 12.1158 29.3515C12.1158 29.309 12.112 29.2704 12.1042 29.2357C12.1158 29.2048 12.1197 29.172 12.1158 29.1373C12.1158 29.0987 12.1255 29.0659 12.1448 29.0389C12.1486 28.9964 12.1506 28.9559 12.1506 28.9173C12.1506 28.8787 12.1506 28.8401 12.1506 28.8015C12.1506 28.7629 12.1506 28.7243 12.1506 28.6857C12.1544 28.6432 12.1583 28.6008 12.1621 28.5583C12.1428 28.5004 12.1371 28.4406 12.1448 28.3789C12.1564 28.3171 12.1583 28.2534 12.1506 28.1878C12.1428 28.1415 12.1409 28.0971 12.1448 28.0547C12.1486 28.0083 12.1467 27.9639 12.139 27.9215C12.1506 27.8289 12.1564 27.7382 12.1564 27.6494V27.1399C12.1371 27.1206 12.1351 27.1013 12.1506 27.082C12.166 27.0627 12.166 27.0415 12.1506 27.0183C12.1621 26.9064 12.1621 26.7925 12.1506 26.6768C12.139 26.6729 12.1371 26.669 12.1448 26.6652C12.1525 26.6613 12.1525 26.6555 12.1448 26.6478C12.1564 26.6054 12.1602 26.5552 12.1564 26.4973C12.1525 26.4355 12.1525 26.3834 12.1564 26.341C12.1641 26.2985 12.166 26.2561 12.1621 26.2136C12.1621 26.1711 12.1621 26.1287 12.1621 26.0862C12.1544 26.0631 12.1525 26.038 12.1564 26.011C12.1641 25.9801 12.1641 25.9531 12.1564 25.9299C12.1641 25.8604 12.166 25.791 12.1621 25.7215C12.1583 25.652 12.1525 25.5806 12.1448 25.5073C12.1525 25.4957 12.1544 25.4841 12.1506 25.4725C12.1506 25.4571 12.1583 25.4455 12.1737 25.4378C12.2741 25.4455 12.3802 25.4475 12.4921 25.4436C12.6079 25.4359 12.716 25.4359 12.8164 25.4436H12.8395ZM14.2811 28.7089V28.7031C14.3776 28.7147 14.4567 28.7185 14.5185 28.7147C14.5841 28.7108 14.6651 28.7089 14.7616 28.7089C14.7848 28.7282 14.7944 28.7513 14.7906 28.7783C14.7867 28.8054 14.7906 28.8304 14.8021 28.8536C14.8099 28.8922 14.8137 28.9308 14.8137 28.9694C14.8176 29.008 14.8099 29.0447 14.7906 29.0794C14.7983 29.1025 14.8002 29.1257 14.7964 29.1489C14.7925 29.1682 14.7944 29.1875 14.8021 29.2068C14.7944 29.2415 14.7944 29.2782 14.8021 29.3168C14.8099 29.3554 14.7964 29.3882 14.7616 29.4152C14.7307 29.3843 14.6941 29.3727 14.6516 29.3804C14.613 29.3882 14.5744 29.3901 14.5358 29.3862C14.4586 29.3785 14.3969 29.3747 14.3506 29.3747C14.3081 29.3708 14.2483 29.3727 14.1711 29.3804C14.1441 29.3959 14.1132 29.4017 14.0785 29.3978C14.0437 29.3939 14.0109 29.3939 13.98 29.3978C13.9221 29.3747 13.8604 29.3669 13.7948 29.3747C13.733 29.3824 13.6713 29.3862 13.6095 29.3862C13.6057 29.4132 13.5921 29.4229 13.569 29.4152C13.5458 29.4113 13.5285 29.4094 13.5169 29.4094C13.4976 29.4094 13.4783 29.4171 13.459 29.4325C13.4397 29.448 13.4204 29.4441 13.4011 29.421C13.3741 29.4132 13.3451 29.4152 13.3142 29.4268C13.2872 29.4383 13.266 29.4248 13.2506 29.3862C13.2506 29.3554 13.2525 29.3264 13.2564 29.2994C13.2641 29.2685 13.2621 29.2376 13.2506 29.2068C13.2583 29.1836 13.2583 29.1585 13.2506 29.1315C13.2467 29.1006 13.2467 29.0717 13.2506 29.0447C13.2506 29.0061 13.2486 28.9675 13.2448 28.9289C13.2448 28.8903 13.2486 28.8536 13.2564 28.8189C13.2486 28.8034 13.2486 28.788 13.2564 28.7725C13.2641 28.7532 13.2641 28.7359 13.2564 28.7204C13.2872 28.7011 13.3181 28.6954 13.349 28.7031C13.3837 28.7108 13.4165 28.7127 13.4474 28.7089C13.5053 28.6973 13.5651 28.6954 13.6269 28.7031C13.6925 28.7108 13.7581 28.7108 13.8237 28.7031C13.8546 28.7108 13.8797 28.7147 13.899 28.7147C13.9221 28.7108 13.9492 28.7089 13.98 28.7089C14.0302 28.7127 14.0785 28.7147 14.1248 28.7147C14.1711 28.7108 14.2213 28.7089 14.2753 28.7089H14.2811ZM13.6906 25.4378C13.7099 25.4301 13.7292 25.4301 13.7485 25.4378C13.7716 25.4455 13.7928 25.4455 13.8121 25.4378H14.7327C14.7442 25.4532 14.7481 25.4706 14.7442 25.4899C14.7442 25.5054 14.7462 25.5208 14.75 25.5362C14.7462 25.598 14.75 25.6617 14.7616 25.7273C14.7771 25.7929 14.7751 25.8547 14.7558 25.9125C14.7481 25.9318 14.7462 25.9511 14.75 25.9704C14.7539 25.9897 14.7558 26.009 14.7558 26.0283C14.7597 26.0476 14.7597 26.065 14.7558 26.0804C14.752 26.0959 14.7404 26.1094 14.7211 26.121C14.6941 26.1055 14.6632 26.0978 14.6285 26.0978C14.5976 26.0978 14.5667 26.1075 14.5358 26.1268C14.4548 26.0959 14.3892 26.0824 14.339 26.0862C14.2888 26.0901 14.2193 26.0901 14.1306 26.0862C14.0727 26.0824 14.0128 26.0824 13.9511 26.0862C13.8932 26.0862 13.8353 26.0824 13.7774 26.0747C13.7195 26.0785 13.6616 26.0843 13.6037 26.092C13.5497 26.0997 13.4957 26.0997 13.4416 26.092C13.43 26.0997 13.4146 26.1036 13.3953 26.1036C13.3799 26.1036 13.3625 26.1055 13.3432 26.1094C13.3278 26.1094 13.3123 26.1132 13.2969 26.121C13.2853 26.1248 13.2776 26.1383 13.2737 26.1615C13.2737 26.1692 13.2757 26.1789 13.2795 26.1904C13.2834 26.202 13.2814 26.2117 13.2737 26.2194C13.2583 26.2194 13.2506 26.2117 13.2506 26.1962C13.2544 26.1769 13.2525 26.1634 13.2448 26.1557C13.2216 26.1248 13.2158 26.092 13.2274 26.0573C13.2428 26.0225 13.2467 25.9897 13.239 25.9589C13.2428 25.8855 13.2467 25.8103 13.2506 25.7331C13.2544 25.6559 13.2544 25.5787 13.2506 25.5015C13.2506 25.4899 13.2486 25.4764 13.2448 25.461C13.2409 25.4455 13.2448 25.4339 13.2564 25.4262C13.322 25.4339 13.3934 25.4359 13.4706 25.432C13.5478 25.4282 13.6211 25.4301 13.6906 25.4378ZM13.8874 27.0762C13.9607 27.0762 14.0283 27.0801 14.09 27.0878C14.1557 27.0917 14.2271 27.0897 14.3042 27.082C14.3274 27.0666 14.3428 27.0724 14.3506 27.0994C14.3583 27.1225 14.3679 27.138 14.3795 27.1457C14.3834 27.1689 14.393 27.1882 14.4085 27.2036C14.4162 27.2268 14.4181 27.2499 14.4142 27.2731C14.4104 27.2924 14.4046 27.3136 14.3969 27.3368C14.3892 27.3561 14.3834 27.3773 14.3795 27.4004C14.3757 27.4197 14.3795 27.441 14.3911 27.4641C14.3911 27.5529 14.3969 27.6378 14.4085 27.7189C14.4007 27.7304 14.393 27.7439 14.3853 27.7594C14.3814 27.771 14.3737 27.7806 14.3621 27.7883C14.339 27.7883 14.3255 27.798 14.3216 27.8173C14.3178 27.8366 14.3062 27.8482 14.2869 27.852C14.2792 27.8366 14.2753 27.8211 14.2753 27.8057C14.2792 27.7903 14.2734 27.7768 14.2579 27.7652C14.2271 27.7652 14.1962 27.7748 14.1653 27.7941C14.1344 27.8096 14.1055 27.798 14.0785 27.7594C14.063 27.7555 14.0495 27.7613 14.0379 27.7768C14.0264 27.7922 14.0167 27.7883 14.009 27.7652C13.9704 27.7575 13.9395 27.7536 13.9164 27.7536C13.8932 27.7536 13.8623 27.7497 13.8237 27.742C13.816 27.7613 13.8083 27.7652 13.8006 27.7536C13.7967 27.7382 13.789 27.7324 13.7774 27.7362C13.6925 27.7324 13.6192 27.7324 13.5574 27.7362C13.4995 27.7362 13.4262 27.7382 13.3374 27.742C13.3297 27.7459 13.3239 27.7575 13.32 27.7768C13.32 27.7961 13.32 27.8173 13.32 27.8404C13.32 27.8597 13.32 27.879 13.32 27.8983C13.3239 27.9138 13.3258 27.9254 13.3258 27.9331C13.3258 27.9447 13.3181 27.9639 13.3027 27.991C13.2911 28.018 13.2795 28.0276 13.2679 28.0199C13.2486 28.0083 13.2409 27.991 13.2448 27.9678C13.2486 27.9447 13.2544 27.9234 13.2621 27.9041C13.266 27.8925 13.266 27.8771 13.2621 27.8578C13.2583 27.8347 13.2525 27.8115 13.2448 27.7883C13.2409 27.7652 13.2371 27.7439 13.2332 27.7247C13.2332 27.7015 13.2371 27.6841 13.2448 27.6725C13.2371 27.6648 13.2332 27.6532 13.2332 27.6378C13.2332 27.6147 13.2351 27.5973 13.239 27.5857C13.239 27.5703 13.239 27.5587 13.239 27.551C13.2428 27.5394 13.2428 27.5239 13.239 27.5047L13.2564 27.0762C13.3451 27.0685 13.4185 27.0685 13.4764 27.0762C13.5381 27.0839 13.6095 27.0859 13.6906 27.082C13.7214 27.082 13.7542 27.082 13.789 27.082C13.8237 27.0782 13.8565 27.0762 13.8874 27.0762ZM18.1475 28.6104C18.1668 28.649 18.1841 28.6799 18.1996 28.7031C18.215 28.7262 18.2304 28.7494 18.2459 28.7725C18.2613 28.7918 18.2768 28.8111 18.2922 28.8304C18.3115 28.8497 18.3347 28.8768 18.3617 28.9115C18.3694 28.8729 18.3771 28.8208 18.3848 28.7552C18.3926 28.6896 18.3848 28.6413 18.3617 28.6104C18.3501 28.5989 18.3404 28.5776 18.3327 28.5468C18.3289 28.5159 18.325 28.4831 18.3211 28.4483C18.3173 28.4136 18.3134 28.3808 18.3096 28.3499C18.3057 28.319 18.2999 28.2959 18.2922 28.2804C18.2729 28.2418 18.2478 28.1975 18.2169 28.1473C18.1899 28.0932 18.1668 28.045 18.1475 28.0025C18.1475 27.9987 18.1455 28.0006 18.1417 28.0083C18.1417 28.0161 18.1397 28.0257 18.1359 28.0373C18.132 28.0489 18.1282 28.0585 18.1243 28.0662C18.1243 28.0739 18.1243 28.0778 18.1243 28.0778C18.1166 28.0585 18.1127 28.0354 18.1127 28.0083C18.1166 27.9775 18.1147 27.9524 18.1069 27.9331C18.0915 27.8945 18.0664 27.8597 18.0317 27.8289C17.9969 27.798 17.9699 27.7652 17.9506 27.7304L17.8869 27.6262C17.8599 27.5954 17.8387 27.5645 17.8233 27.5336C17.8078 27.5027 17.7885 27.4699 17.7654 27.4352C17.7538 27.4159 17.7441 27.3947 17.7364 27.3715C17.7287 27.3483 17.719 27.3271 17.7075 27.3078C17.6997 27.2499 17.6978 27.1959 17.7017 27.1457C17.7094 27.0955 17.7094 27.0434 17.7017 26.9894C17.721 26.889 17.7268 26.7829 17.719 26.671C17.7152 26.559 17.7171 26.4529 17.7248 26.3525C17.7133 26.3371 17.7113 26.3178 17.719 26.2947C17.7306 26.2715 17.7287 26.2503 17.7133 26.231C17.721 26.2078 17.721 26.1847 17.7133 26.1615C17.7094 26.1345 17.7075 26.1094 17.7075 26.0862C17.7229 26.0515 17.7268 26.0187 17.719 25.9878C17.7113 25.9531 17.7075 25.9183 17.7075 25.8836C17.7113 25.8797 17.7133 25.8701 17.7133 25.8547L17.7075 25.8489C17.7113 25.791 17.7133 25.7369 17.7133 25.6868C17.7171 25.6366 17.7113 25.5864 17.6959 25.5362C17.6882 25.5169 17.694 25.5015 17.7133 25.4899C17.7518 25.4822 17.7847 25.4783 17.8117 25.4783C17.831 25.4783 17.8503 25.4783 17.8696 25.4783C17.8889 25.4745 17.9082 25.4706 17.9275 25.4668C17.9661 25.4706 18.0027 25.4706 18.0375 25.4668C18.0722 25.459 18.1069 25.461 18.1417 25.4725C18.1841 25.4687 18.2208 25.4668 18.2517 25.4668C18.2864 25.4629 18.325 25.4571 18.3675 25.4494C18.3868 25.4532 18.3945 25.4629 18.3906 25.4783C18.3906 25.4899 18.3945 25.4996 18.4022 25.5073C18.4099 25.5961 18.408 25.6829 18.3964 25.7678C18.3887 25.8489 18.3906 25.9338 18.4022 26.0225C18.3983 26.0225 18.3964 26.0245 18.3964 26.0283C18.4003 26.0631 18.4041 26.0978 18.408 26.1325C18.4118 26.1634 18.4099 26.1982 18.4022 26.2368C18.4292 26.2561 18.4292 26.2734 18.4022 26.2889C18.3945 26.312 18.4003 26.3332 18.4196 26.3525C18.4389 26.3718 18.4369 26.3931 18.4138 26.4162C18.4176 26.4432 18.4176 26.4703 18.4138 26.4973C18.4138 26.5243 18.4215 26.5494 18.4369 26.5725C18.4215 26.5996 18.4138 26.6304 18.4138 26.6652C18.4138 26.6806 18.4118 26.6961 18.408 26.7115C18.408 26.7231 18.4061 26.7385 18.4022 26.7578C18.4061 26.7771 18.4061 26.7983 18.4022 26.8215C18.4022 26.8447 18.4003 26.8678 18.3964 26.891C18.3964 26.9643 18.4003 27.0357 18.408 27.1052C18.4196 27.1747 18.4215 27.2461 18.4138 27.3194C18.4176 27.3503 18.4196 27.3831 18.4196 27.4178C18.4234 27.4525 18.4254 27.4873 18.4254 27.522C18.4254 27.5568 18.4254 27.5915 18.4254 27.6262C18.4292 27.661 18.4331 27.6976 18.4369 27.7362C18.4254 27.7671 18.4215 27.798 18.4254 27.8289C18.4331 27.8559 18.4292 27.8848 18.4138 27.9157C18.4138 27.9389 18.4099 27.9639 18.4022 27.991C18.3983 28.0141 18.4022 28.0354 18.4138 28.0547C18.4099 28.0932 18.4118 28.1318 18.4196 28.1704C18.4273 28.2052 18.4273 28.238 18.4196 28.2689C18.4234 28.3229 18.4273 28.3924 18.4311 28.4773C18.435 28.5622 18.4331 28.6317 18.4254 28.6857C18.4215 28.7011 18.4196 28.7243 18.4196 28.7552C18.4234 28.7822 18.4254 28.8111 18.4254 28.842C18.4254 28.869 18.4234 28.8961 18.4196 28.9231C18.4157 28.9501 18.408 28.9694 18.3964 28.981C18.3926 28.9925 18.3906 29.0157 18.3906 29.0504C18.3945 29.0852 18.3964 29.1238 18.3964 29.1662V29.2762C18.3964 29.3071 18.3926 29.3303 18.3848 29.3457C18.381 29.3534 18.379 29.3727 18.379 29.4036C18.3829 29.4345 18.3848 29.4654 18.3848 29.4962C18.3887 29.5271 18.3887 29.5541 18.3848 29.5773C18.3848 29.6043 18.3771 29.6159 18.3617 29.612C18.3501 29.6082 18.3404 29.5889 18.3327 29.5541C18.325 29.5194 18.325 29.4904 18.3327 29.4673C18.3404 29.448 18.3327 29.4268 18.3096 29.4036C18.2864 29.3959 18.2652 29.4017 18.2459 29.421C18.242 29.4287 18.242 29.4557 18.2459 29.502C18.2497 29.5522 18.2517 29.6024 18.2517 29.6525C18.2555 29.7027 18.2536 29.7452 18.2459 29.7799C18.242 29.8185 18.2285 29.8301 18.2054 29.8147C18.1938 29.8108 18.188 29.7876 18.188 29.7452C18.188 29.695 18.1899 29.6332 18.1938 29.5599C18.1976 29.4904 18.1841 29.4403 18.1533 29.4094H18.1127C18.1011 29.4094 18.0954 29.4152 18.0954 29.4268C18.0954 29.4306 18.0973 29.4422 18.1011 29.4615C18.105 29.4808 18.1069 29.5001 18.1069 29.5194C18.1069 29.5425 18.105 29.5618 18.1011 29.5773C18.0973 29.5966 18.0896 29.6062 18.078 29.6062C18.0587 29.6062 18.0452 29.5947 18.0375 29.5715C18.0336 29.5483 18.0317 29.5213 18.0317 29.4904C18.0317 29.4711 18.0317 29.4538 18.0317 29.4383C18.0355 29.4229 18.0375 29.4113 18.0375 29.4036C18.0297 29.4113 18.0143 29.4152 17.9911 29.4152C17.9718 29.4152 17.9583 29.4132 17.9506 29.4094C17.939 29.4055 17.9178 29.4036 17.8869 29.4036H17.8233C17.7962 29.4036 17.7847 29.4017 17.7885 29.3978C17.7885 29.3978 17.7866 29.3997 17.7827 29.4036L17.5106 29.0389L17.4006 28.8883C17.3813 28.842 17.3543 28.8015 17.3196 28.7668C17.2964 28.7282 17.2713 28.6915 17.2443 28.6568C17.2211 28.622 17.1999 28.5854 17.1806 28.5468C17.1536 28.539 17.1382 28.5255 17.1343 28.5062C17.1304 28.4869 17.1189 28.4715 17.0996 28.4599C17.1034 28.4483 17.0996 28.4406 17.088 28.4368C17.0803 28.429 17.0726 28.4213 17.0648 28.4136C17.0571 28.4097 17.0513 28.4097 17.0475 28.4136C17.0436 28.4175 17.0397 28.4155 17.0359 28.4078C17.0359 28.3769 17.0243 28.348 17.0011 28.321C16.978 28.2901 16.9568 28.2592 16.9375 28.2283C16.9182 28.1859 16.8911 28.1454 16.8564 28.1068C16.8217 28.0682 16.7947 28.0276 16.7754 27.9852C16.729 27.9311 16.6866 27.8752 16.648 27.8173C16.6133 27.7594 16.5689 27.7034 16.5148 27.6494C16.4685 27.5761 16.4241 27.5027 16.3817 27.4294C16.3431 27.3561 16.2968 27.2847 16.2427 27.2152C16.2427 27.1959 16.2311 27.1804 16.208 27.1689C16.1887 27.1573 16.181 27.1418 16.1848 27.1225C16.1424 27.0724 16.1038 27.0222 16.069 26.972C16.0382 26.918 16.0015 26.8659 15.959 26.8157C15.9359 26.7848 15.905 26.7559 15.8664 26.7289C15.8317 26.698 15.8085 26.6652 15.7969 26.6304C15.7699 26.5918 15.7468 26.5552 15.7275 26.5204C15.712 26.4818 15.6947 26.4413 15.6754 26.3989C15.6213 26.3371 15.575 26.2734 15.5364 26.2078C15.5017 26.1422 15.4573 26.0824 15.4033 26.0283C15.3801 26.009 15.3647 25.9878 15.3569 25.9647C15.3531 25.9415 15.3415 25.9203 15.3222 25.901C15.3106 25.8894 15.3048 25.8797 15.3048 25.872C15.3087 25.8643 15.3125 25.8566 15.3164 25.8489C15.3241 25.8411 15.328 25.8334 15.328 25.8257C15.3318 25.8141 15.328 25.7987 15.3164 25.7794C15.3048 25.7639 15.301 25.7466 15.3048 25.7273C15.3087 25.708 15.3125 25.6887 15.3164 25.6694C15.3241 25.6462 15.3299 25.625 15.3338 25.6057C15.3376 25.5825 15.3338 25.5632 15.3222 25.5478C15.3106 25.5324 15.3048 25.5131 15.3048 25.4899C15.3048 25.4668 15.3145 25.4513 15.3338 25.4436C15.384 25.4243 15.409 25.4147 15.409 25.4147C15.4168 25.4147 15.4187 25.4166 15.4148 25.4204C15.411 25.4243 15.409 25.4282 15.409 25.432C15.409 25.4359 15.4129 25.4378 15.4206 25.4378C15.4322 25.4378 15.4554 25.4339 15.4901 25.4262C15.5441 25.4378 15.602 25.4359 15.6638 25.4204C15.7294 25.405 15.7873 25.4031 15.8375 25.4147C15.8683 25.4262 15.8915 25.4417 15.9069 25.461C15.9262 25.4764 15.9417 25.4938 15.9533 25.5131C15.9648 25.5324 15.9783 25.5517 15.9938 25.571C16.0092 25.5903 16.0285 25.6076 16.0517 25.6231C16.071 25.6385 16.0903 25.652 16.1096 25.6636C16.1289 25.6752 16.1308 25.6906 16.1154 25.7099C16.1154 25.7292 16.1211 25.7447 16.1327 25.7562C16.1482 25.7639 16.1559 25.7755 16.1559 25.791C16.1868 25.8103 16.2061 25.8354 16.2138 25.8662C16.2254 25.8932 16.2447 25.9183 16.2717 25.9415C16.291 25.9878 16.3199 26.0303 16.3585 26.0689C16.401 26.1036 16.4299 26.148 16.4454 26.202C16.4801 26.229 16.5033 26.2618 16.5148 26.3004C16.5264 26.3352 16.5476 26.3641 16.5785 26.3873C16.5978 26.422 16.6171 26.4587 16.6364 26.4973C16.6596 26.532 16.6885 26.5648 16.7233 26.5957C16.7233 26.6111 16.729 26.6247 16.7406 26.6362C16.7561 26.6439 16.7638 26.6555 16.7638 26.671C16.8062 26.7057 16.8371 26.7443 16.8564 26.7868C16.8757 26.8292 16.8989 26.8717 16.9259 26.9141C16.9452 26.9257 16.9548 26.9411 16.9548 26.9604C16.9587 26.9759 16.9722 26.9875 16.9954 26.9952C17.0224 27.0492 17.0552 27.0994 17.0938 27.1457C17.1362 27.1882 17.1671 27.2364 17.1864 27.2904C17.2018 27.3097 17.2173 27.331 17.2327 27.3541C17.252 27.3734 17.2675 27.3927 17.279 27.412C17.3061 27.4661 17.3389 27.5162 17.3775 27.5625C17.4199 27.605 17.4508 27.6532 17.4701 27.7073C17.501 27.7266 17.5203 27.7517 17.528 27.7825C17.5357 27.8096 17.5569 27.8327 17.5917 27.852C17.5955 27.8752 17.6071 27.8945 17.6264 27.9099C17.6496 27.9254 17.665 27.9427 17.6727 27.962C17.6997 27.9775 17.7152 27.9948 17.719 28.0141C17.7268 28.0334 17.7422 28.0508 17.7654 28.0662C17.7731 28.0778 17.7808 28.0913 17.7885 28.1068C17.8001 28.1183 17.804 28.1299 17.8001 28.1415C17.8078 28.1685 17.8233 28.1878 17.8464 28.1994C17.8696 28.211 17.8831 28.2303 17.8869 28.2573C17.9294 28.319 17.9699 28.3808 18.0085 28.4425C18.0471 28.5004 18.0934 28.5564 18.1475 28.6104ZM15.3685 26.6131C15.3685 26.6517 15.384 26.6825 15.4148 26.7057C15.4496 26.725 15.4669 26.7539 15.4669 26.7925C15.4901 26.8118 15.5055 26.8331 15.5133 26.8562C15.521 26.8794 15.5345 26.9006 15.5538 26.9199C15.5692 26.9392 15.5808 26.9604 15.5885 26.9836C15.6001 27.0068 15.6136 27.028 15.629 27.0473C15.6483 27.0589 15.6599 27.0743 15.6638 27.0936C15.6676 27.109 15.6792 27.1225 15.6985 27.1341C15.7024 27.1534 15.712 27.1689 15.7275 27.1804C15.7468 27.192 15.7564 27.2075 15.7564 27.2268C15.7757 27.2615 15.7969 27.2962 15.8201 27.331C15.8471 27.3657 15.8645 27.4043 15.8722 27.4468C15.8876 27.4854 15.9108 27.5162 15.9417 27.5394C15.9764 27.5625 15.9976 27.5954 16.0054 27.6378C16.0247 27.661 16.0304 27.6957 16.0227 27.742C16.015 27.7883 16.0111 27.825 16.0111 27.852V27.9794C16.0111 27.9987 16.0111 28.0199 16.0111 28.0431C16.015 28.0624 16.0189 28.0836 16.0227 28.1068C16.0189 28.1338 16.0169 28.1608 16.0169 28.1878C16.0169 28.2148 16.0169 28.2418 16.0169 28.2689C16.0169 28.2959 16.015 28.3229 16.0111 28.3499C16.0111 28.3731 16.0092 28.3982 16.0054 28.4252C16.0169 28.4445 16.0169 28.4657 16.0054 28.4889C15.9938 28.5082 15.9918 28.5275 15.9996 28.5468C15.9918 28.5892 15.9918 28.6278 15.9996 28.6625C16.0073 28.6973 16.0054 28.7359 15.9938 28.7783C16.0092 28.8401 16.015 28.9057 16.0111 28.9752C16.0073 29.0447 15.9996 29.1122 15.988 29.1778C15.9996 29.2087 16.0034 29.2396 15.9996 29.2704C15.9996 29.2975 15.9996 29.3264 15.9996 29.3573C15.961 29.3727 15.9243 29.3708 15.8896 29.3515C15.8587 29.3283 15.8201 29.3245 15.7738 29.3399C15.7661 29.3592 15.7506 29.3689 15.7275 29.3689C15.7043 29.365 15.6869 29.3727 15.6754 29.392C15.6522 29.3611 15.6233 29.3476 15.5885 29.3515C15.5538 29.3554 15.5171 29.3573 15.4785 29.3573C15.4554 29.365 15.4361 29.3689 15.4206 29.3689C15.4013 29.3689 15.3859 29.3747 15.3743 29.3862C15.3666 29.4132 15.3608 29.4422 15.3569 29.4731C15.3531 29.5078 15.3473 29.5387 15.3396 29.5657C15.3357 29.5773 15.328 29.5773 15.3164 29.5657C15.3087 29.558 15.3048 29.5503 15.3048 29.5425C15.301 29.5348 15.299 29.5252 15.299 29.5136C15.3029 29.502 15.3048 29.4924 15.3048 29.4847C15.2971 29.4538 15.2933 29.4287 15.2933 29.4094C15.2933 29.3862 15.2836 29.365 15.2643 29.3457C15.2875 29.3071 15.299 29.2627 15.299 29.2125C15.3183 29.1469 15.3261 29.0813 15.3222 29.0157C15.3183 28.9462 15.3203 28.8748 15.328 28.8015C15.3087 28.7436 15.3029 28.6857 15.3106 28.6278C15.3222 28.5699 15.3222 28.5082 15.3106 28.4425C15.3183 28.2303 15.3164 28.0276 15.3048 27.8347C15.2971 27.6417 15.2971 27.439 15.3048 27.2268C15.301 27.2152 15.299 27.1939 15.299 27.1631C15.2913 27.109 15.2894 27.0531 15.2933 26.9952C15.2971 26.9373 15.2971 26.8794 15.2933 26.8215C15.2933 26.8099 15.2933 26.7964 15.2933 26.781C15.2971 26.7655 15.299 26.752 15.299 26.7404C15.3029 26.7057 15.3029 26.6729 15.299 26.642C15.2952 26.6111 15.2913 26.5783 15.2875 26.5436C15.2913 26.5359 15.2952 26.5339 15.299 26.5378C15.3068 26.5378 15.3125 26.5397 15.3164 26.5436C15.3048 26.5629 15.3087 26.5764 15.328 26.5841C15.3473 26.5918 15.3608 26.6015 15.3685 26.6131ZM17.7943 29.392H17.8001C17.8078 29.392 17.8136 29.3901 17.8175 29.3862H17.8001L17.7943 29.392ZM21.5465 25.4783C21.5272 25.5632 21.5176 25.6424 21.5176 25.7157C21.5176 25.7582 21.5176 25.8006 21.5176 25.8431C21.5176 25.8817 21.5195 25.9222 21.5234 25.9647C21.5427 26.0341 21.5484 26.1075 21.5407 26.1847C21.5291 26.1962 21.5156 26.202 21.5002 26.202C21.4886 26.1982 21.4751 26.1924 21.4597 26.1847C21.4481 26.1769 21.4346 26.1711 21.4191 26.1673C21.4037 26.1634 21.3883 26.1673 21.3728 26.1789C21.3535 26.1789 21.3342 26.1731 21.3149 26.1615C21.2995 26.1499 21.2821 26.1441 21.2628 26.1441C21.2435 26.148 21.2339 26.1634 21.2339 26.1904C21.2377 26.2136 21.23 26.2232 21.2107 26.2194C21.1914 26.2117 21.1741 26.1962 21.1586 26.1731C21.147 26.1499 21.1316 26.1345 21.1123 26.1268C21.0313 26.119 20.9541 26.1171 20.8807 26.121C20.8113 26.1248 20.7302 26.1268 20.6376 26.1268C20.6183 26.1383 20.6086 26.1576 20.6086 26.1847C20.6125 26.2117 20.6028 26.2213 20.5797 26.2136C20.5681 26.2059 20.5565 26.1982 20.5449 26.1904C20.5372 26.1789 20.5256 26.1692 20.5102 26.1615C20.5025 26.1692 20.4967 26.1808 20.4928 26.1962C20.4928 26.2117 20.489 26.2175 20.4813 26.2136C20.4658 26.2059 20.46 26.1885 20.4639 26.1615C20.4677 26.1345 20.4562 26.119 20.4291 26.1152C20.4176 26.1229 20.406 26.1306 20.3944 26.1383C20.3867 26.1422 20.379 26.1538 20.3713 26.1731C20.3751 26.1885 20.3732 26.2097 20.3655 26.2368H20.3539C20.3462 26.2175 20.3423 26.1982 20.3423 26.1789C20.3462 26.1557 20.3365 26.1403 20.3134 26.1325C20.267 26.121 20.2304 26.1171 20.2034 26.121L20.1686 26.1557C20.1609 26.1325 20.1455 26.1171 20.1223 26.1094L19.5434 26.1152C19.5048 26.1268 19.4816 26.1518 19.4739 26.1904C19.47 26.229 19.4681 26.2638 19.4681 26.2947H19.4623C19.4623 26.2252 19.4449 26.1731 19.4102 26.1383C19.4025 26.1345 19.3928 26.1383 19.3813 26.1499C19.3735 26.1615 19.3658 26.1692 19.3581 26.1731C19.3542 26.1924 19.3542 26.2175 19.3581 26.2483C19.362 26.2754 19.3542 26.2831 19.3349 26.2715C19.3156 26.2638 19.3099 26.2483 19.3176 26.2252C19.3291 26.202 19.3253 26.1808 19.306 26.1615C19.2944 26.1538 19.2828 26.1538 19.2713 26.1615C19.2635 26.1692 19.2558 26.1769 19.2481 26.1847C19.2404 26.2117 19.2423 26.2464 19.2539 26.2889C19.2655 26.3275 19.2597 26.3429 19.2365 26.3352C19.2211 26.3275 19.2134 26.3139 19.2134 26.2947C19.2134 26.2754 19.2134 26.2561 19.2134 26.2368C19.2134 26.2175 19.2114 26.1982 19.2076 26.1789C19.2037 26.1596 19.1902 26.1461 19.167 26.1383C19.1284 26.1113 19.086 26.1017 19.0397 26.1094C18.9972 26.1132 18.9548 26.1094 18.9123 26.0978C18.9046 26.0708 18.9065 26.0476 18.9181 26.0283C18.9297 26.009 18.9297 25.9859 18.9181 25.9589C18.9181 25.8778 18.9162 25.7948 18.9123 25.7099C18.9084 25.6211 18.9123 25.5324 18.9239 25.4436L18.947 25.4262C19.0242 25.4417 19.1034 25.4475 19.1844 25.4436C19.2655 25.4359 19.3446 25.4397 19.4218 25.4552C19.5028 25.4359 19.5877 25.4301 19.6765 25.4378C19.7691 25.4455 19.8599 25.4455 19.9486 25.4378C19.9641 25.4224 19.9814 25.4147 20.0007 25.4147C20.0316 25.4147 20.0625 25.4204 20.0934 25.432C20.1242 25.4397 20.1532 25.4339 20.1802 25.4147C20.4118 25.4108 20.6337 25.4166 20.846 25.432C21.0583 25.4436 21.2841 25.4475 21.5234 25.4436L21.5465 25.4783ZM20.5855 26.532C20.5662 26.6285 20.5584 26.7308 20.5623 26.8389C20.5662 26.9431 20.5642 27.0473 20.5565 27.1515C20.5488 27.2827 20.5507 27.4159 20.5623 27.551C20.5777 27.6861 20.5816 27.8211 20.5739 27.9562C20.5816 27.9987 20.5816 28.0392 20.5739 28.0778C20.57 28.1164 20.5662 28.1569 20.5623 28.1994C20.5662 28.2303 20.5681 28.2573 20.5681 28.2804C20.5681 28.2997 20.5681 28.3171 20.5681 28.3325C20.5681 28.375 20.5662 28.4097 20.5623 28.4368C20.5623 28.4599 20.5662 28.5139 20.5739 28.5989C20.5777 28.6413 20.5777 28.6818 20.5739 28.7204C20.5739 28.7552 20.5835 28.788 20.6028 28.8189L20.597 28.8883C20.5816 28.9038 20.5739 28.9211 20.5739 28.9404C20.5739 28.9713 20.5777 28.9983 20.5855 29.0215C20.5932 29.0447 20.5913 29.0717 20.5797 29.1025C20.5797 29.118 20.5777 29.1354 20.5739 29.1547C20.5739 29.1701 20.572 29.1875 20.5681 29.2068H20.5623C20.5391 29.2685 20.5372 29.3264 20.5565 29.3804C20.5758 29.4306 20.5816 29.4885 20.5739 29.5541C20.5816 29.5889 20.5758 29.6255 20.5565 29.6641C20.5411 29.7027 20.543 29.7394 20.5623 29.7741C20.57 29.7857 20.572 29.8011 20.5681 29.8204C20.5681 29.8397 20.5584 29.8532 20.5391 29.861C20.5199 29.8687 20.5102 29.8648 20.5102 29.8494C20.5102 29.8339 20.5083 29.8243 20.5044 29.8204L20.4523 29.4789C20.4407 29.4596 20.4253 29.4441 20.406 29.4325C20.3906 29.421 20.3732 29.421 20.3539 29.4325C20.3307 29.448 20.3056 29.4538 20.2786 29.4499C20.2555 29.4461 20.2342 29.4422 20.2149 29.4383C20.1995 29.4383 20.1879 29.4441 20.1802 29.4557C20.1763 29.4673 20.1802 29.4982 20.1918 29.5483C20.1763 29.5368 20.1686 29.5175 20.1686 29.4904C20.1725 29.4634 20.159 29.4461 20.1281 29.4383C20.1049 29.4499 20.0876 29.448 20.076 29.4325C20.0644 29.4171 20.049 29.4075 20.0297 29.4036C19.9988 29.3959 19.9679 29.3959 19.937 29.4036C19.91 29.4113 19.8869 29.4094 19.8676 29.3978C19.8676 29.3785 19.8695 29.3592 19.8734 29.3399C19.8811 29.3168 19.8811 29.2955 19.8734 29.2762C19.8734 29.1296 19.8753 29.0061 19.8791 28.9057C19.883 28.8015 19.8849 28.7031 19.8849 28.6104C19.8849 28.5178 19.883 28.4213 19.8791 28.321C19.8791 28.2168 19.8734 28.0932 19.8618 27.9504C19.8811 27.935 19.883 27.9215 19.8676 27.9099C19.856 27.8983 19.856 27.8887 19.8676 27.881C19.8599 27.8115 19.8579 27.742 19.8618 27.6725C19.8695 27.5992 19.8714 27.5259 19.8676 27.4525H19.8734C19.8849 27.4294 19.8849 27.4062 19.8734 27.3831H19.8676C19.8869 27.3754 19.8907 27.3676 19.8791 27.3599C19.8676 27.3483 19.8695 27.3387 19.8849 27.331C19.8927 27.2847 19.8907 27.2499 19.8791 27.2268C19.8676 27.1997 19.8714 27.1669 19.8907 27.1283C19.8714 27.1013 19.8656 27.0704 19.8734 27.0357C19.8849 27.001 19.8791 26.972 19.856 26.9489C19.8599 26.8755 19.8579 26.8061 19.8502 26.7404C19.8425 26.671 19.8502 26.6015 19.8734 26.532C19.9004 26.5282 19.9274 26.5262 19.9544 26.5262C19.9853 26.5262 20.0162 26.5262 20.047 26.5262C20.1127 26.5262 20.1744 26.5204 20.2323 26.5089C20.2786 26.5243 20.3346 26.532 20.4002 26.532C20.4697 26.5282 20.5314 26.5282 20.5855 26.532ZM21.1007 28.7725C21.1084 28.7918 21.1027 28.8034 21.0834 28.8073C21.0679 28.8111 21.0602 28.8227 21.0602 28.842H20.9155C20.9541 28.8227 20.9869 28.8092 21.0139 28.8015C21.0409 28.7899 21.0699 28.7803 21.1007 28.7725ZM21.1644 26.8389C21.1683 26.8196 21.1721 26.8003 21.176 26.781C21.1799 26.7578 21.1856 26.7424 21.1934 26.7347C21.1972 26.7732 21.1991 26.8138 21.1991 26.8562C21.203 26.8948 21.2049 26.9354 21.2049 26.9778C21.2049 27.0203 21.2049 27.0627 21.2049 27.1052C21.2049 27.1438 21.203 27.1824 21.1991 27.221C21.1991 27.2982 21.1972 27.3773 21.1934 27.4583C21.1895 27.5355 21.1914 27.6089 21.1991 27.6783C21.1914 27.7092 21.1876 27.7459 21.1876 27.7883C21.1914 27.8308 21.1856 27.8539 21.1702 27.8578C21.1586 27.7304 21.1548 27.5954 21.1586 27.4525C21.1663 27.3059 21.1663 27.165 21.1586 27.0299C21.1663 27.0029 21.1683 26.972 21.1644 26.9373C21.1644 26.8987 21.1644 26.8659 21.1644 26.8389ZM22.8354 25.4436C22.8586 25.4745 22.8624 25.5073 22.847 25.542C22.8354 25.5729 22.8315 25.6057 22.8354 25.6404C22.8354 25.7215 22.8335 25.8083 22.8296 25.901C22.8296 25.9897 22.8335 26.0747 22.8412 26.1557C22.8296 26.1711 22.8277 26.1924 22.8354 26.2194C22.8315 26.2387 22.8296 26.2676 22.8296 26.3062C22.8296 26.3332 22.8335 26.3583 22.8412 26.3815C22.8335 26.4355 22.8315 26.4934 22.8354 26.5552C22.8393 26.6169 22.8393 26.6787 22.8354 26.7404V26.9489C22.8277 27.0492 22.8258 27.1476 22.8296 27.2441C22.8335 27.3368 22.8315 27.4313 22.8238 27.5278C22.8315 27.5317 22.8335 27.5355 22.8296 27.5394C22.8258 27.5432 22.8277 27.5452 22.8354 27.5452C22.8354 27.742 22.8296 27.935 22.818 28.1241C22.8142 28.1782 22.8142 28.2303 22.818 28.2804C22.8258 28.3268 22.8258 28.3769 22.818 28.431C22.8258 28.4425 22.8258 28.4561 22.818 28.4715C22.8142 28.4831 22.8161 28.4947 22.8238 28.5062C22.82 28.5796 22.8161 28.651 22.8122 28.7204C22.8084 28.7861 22.8103 28.8536 22.818 28.9231C22.818 28.9424 22.818 28.9617 22.818 28.981C22.8219 29.0003 22.82 29.0215 22.8122 29.0447C22.8161 29.1064 22.8219 29.1643 22.8296 29.2183C22.8373 29.2724 22.8315 29.3283 22.8122 29.3862L22.7428 29.4268C22.7119 29.4152 22.6752 29.4094 22.6328 29.4094C22.5942 29.4094 22.5594 29.419 22.5286 29.4383C22.5093 29.4383 22.4938 29.4325 22.4822 29.421C22.4707 29.4094 22.4572 29.4017 22.4417 29.3978C22.3915 29.3901 22.3452 29.392 22.3028 29.4036C22.2642 29.419 22.2236 29.4268 22.1812 29.4268C22.1387 29.4152 22.1156 29.3901 22.1117 29.3515C22.1117 29.309 22.1079 29.2704 22.1001 29.2357C22.1117 29.2048 22.1156 29.172 22.1117 29.1373C22.1117 29.0987 22.1214 29.0659 22.1407 29.0389C22.1445 28.9964 22.1465 28.9559 22.1465 28.9173C22.1465 28.8787 22.1465 28.8401 22.1465 28.8015C22.1465 28.7629 22.1465 28.7243 22.1465 28.6857C22.1503 28.6432 22.1542 28.6008 22.158 28.5583C22.1387 28.5004 22.1329 28.4406 22.1407 28.3789C22.1522 28.3171 22.1542 28.2534 22.1465 28.1878C22.1387 28.1415 22.1368 28.0971 22.1407 28.0547C22.1445 28.0083 22.1426 27.9639 22.1349 27.9215C22.1465 27.8289 22.1522 27.7382 22.1522 27.6494V27.1399C22.1329 27.1206 22.131 27.1013 22.1465 27.082C22.1619 27.0627 22.1619 27.0415 22.1465 27.0183C22.158 26.9064 22.158 26.7925 22.1465 26.6768C22.1349 26.6729 22.1329 26.669 22.1407 26.6652C22.1484 26.6613 22.1484 26.6555 22.1407 26.6478C22.1522 26.6054 22.1561 26.5552 22.1522 26.4973C22.1484 26.4355 22.1484 26.3834 22.1522 26.341C22.16 26.2985 22.1619 26.2561 22.158 26.2136C22.158 26.1711 22.158 26.1287 22.158 26.0862C22.1503 26.0631 22.1484 26.038 22.1522 26.011C22.16 25.9801 22.16 25.9531 22.1522 25.9299C22.16 25.8604 22.1619 25.791 22.158 25.7215C22.1542 25.652 22.1484 25.5806 22.1407 25.5073C22.1484 25.4957 22.1503 25.4841 22.1465 25.4725C22.1465 25.4571 22.1542 25.4455 22.1696 25.4378C22.27 25.4455 22.3761 25.4475 22.488 25.4436C22.6038 25.4359 22.7119 25.4359 22.8122 25.4436H22.8354ZM24.277 28.7089V28.7031C24.3735 28.7147 24.4526 28.7185 24.5143 28.7147C24.58 28.7108 24.661 28.7089 24.7575 28.7089C24.7807 28.7282 24.7903 28.7513 24.7865 28.7783C24.7826 28.8054 24.7865 28.8304 24.798 28.8536C24.8058 28.8922 24.8096 28.9308 24.8096 28.9694C24.8135 29.008 24.8058 29.0447 24.7865 29.0794C24.7942 29.1025 24.7961 29.1257 24.7922 29.1489C24.7884 29.1682 24.7903 29.1875 24.798 29.2068C24.7903 29.2415 24.7903 29.2782 24.798 29.3168C24.8058 29.3554 24.7922 29.3882 24.7575 29.4152C24.7266 29.3843 24.69 29.3727 24.6475 29.3804C24.6089 29.3882 24.5703 29.3901 24.5317 29.3862C24.4545 29.3785 24.3928 29.3747 24.3465 29.3747C24.304 29.3708 24.2442 29.3727 24.167 29.3804C24.14 29.3959 24.1091 29.4017 24.0743 29.3978C24.0396 29.3939 24.0068 29.3939 23.9759 29.3978C23.918 29.3747 23.8563 29.3669 23.7907 29.3747C23.7289 29.3824 23.6672 29.3862 23.6054 29.3862C23.6015 29.4132 23.588 29.4229 23.5649 29.4152C23.5417 29.4113 23.5243 29.4094 23.5128 29.4094C23.4935 29.4094 23.4742 29.4171 23.4549 29.4325C23.4356 29.448 23.4163 29.4441 23.397 29.421C23.37 29.4132 23.341 29.4152 23.3101 29.4268C23.2831 29.4383 23.2619 29.4248 23.2465 29.3862C23.2465 29.3554 23.2484 29.3264 23.2522 29.2994C23.26 29.2685 23.258 29.2376 23.2465 29.2068C23.2542 29.1836 23.2542 29.1585 23.2465 29.1315C23.2426 29.1006 23.2426 29.0717 23.2465 29.0447C23.2465 29.0061 23.2445 28.9675 23.2407 28.9289C23.2407 28.8903 23.2445 28.8536 23.2522 28.8189C23.2445 28.8034 23.2445 28.788 23.2522 28.7725C23.26 28.7532 23.26 28.7359 23.2522 28.7204C23.2831 28.7011 23.314 28.6954 23.3449 28.7031C23.3796 28.7108 23.4124 28.7127 23.4433 28.7089C23.5012 28.6973 23.561 28.6954 23.6228 28.7031C23.6884 28.7108 23.754 28.7108 23.8196 28.7031C23.8505 28.7108 23.8756 28.7147 23.8949 28.7147C23.918 28.7108 23.945 28.7089 23.9759 28.7089C24.0261 28.7127 24.0743 28.7147 24.1207 28.7147C24.167 28.7108 24.2172 28.7089 24.2712 28.7089H24.277ZM23.6865 25.4378C23.7058 25.4301 23.725 25.4301 23.7443 25.4378C23.7675 25.4455 23.7887 25.4455 23.808 25.4378H24.7286C24.7401 25.4532 24.744 25.4706 24.7401 25.4899C24.7401 25.5054 24.7421 25.5208 24.7459 25.5362C24.7421 25.598 24.7459 25.6617 24.7575 25.7273C24.7729 25.7929 24.771 25.8547 24.7517 25.9125C24.744 25.9318 24.7421 25.9511 24.7459 25.9704C24.7498 25.9897 24.7517 26.009 24.7517 26.0283C24.7556 26.0476 24.7556 26.065 24.7517 26.0804C24.7479 26.0959 24.7363 26.1094 24.717 26.121C24.69 26.1055 24.6591 26.0978 24.6243 26.0978C24.5935 26.0978 24.5626 26.1075 24.5317 26.1268C24.4507 26.0959 24.385 26.0824 24.3349 26.0862C24.2847 26.0901 24.2152 26.0901 24.1265 26.0862C24.0686 26.0824 24.0087 26.0824 23.947 26.0862C23.8891 26.0862 23.8312 26.0824 23.7733 26.0747C23.7154 26.0785 23.6575 26.0843 23.5996 26.092C23.5456 26.0997 23.4915 26.0997 23.4375 26.092C23.4259 26.0997 23.4105 26.1036 23.3912 26.1036C23.3758 26.1036 23.3584 26.1055 23.3391 26.1094C23.3236 26.1094 23.3082 26.1132 23.2928 26.121C23.2812 26.1248 23.2735 26.1383 23.2696 26.1615C23.2696 26.1692 23.2715 26.1789 23.2754 26.1904C23.2793 26.202 23.2773 26.2117 23.2696 26.2194C23.2542 26.2194 23.2465 26.2117 23.2465 26.1962C23.2503 26.1769 23.2484 26.1634 23.2407 26.1557C23.2175 26.1248 23.2117 26.092 23.2233 26.0573C23.2387 26.0225 23.2426 25.9897 23.2349 25.9589C23.2387 25.8855 23.2426 25.8103 23.2465 25.7331C23.2503 25.6559 23.2503 25.5787 23.2465 25.5015C23.2465 25.4899 23.2445 25.4764 23.2407 25.461C23.2368 25.4455 23.2407 25.4339 23.2522 25.4262C23.3179 25.4339 23.3893 25.4359 23.4665 25.432C23.5436 25.4282 23.617 25.4301 23.6865 25.4378ZM23.8833 27.0762C23.9566 27.0762 24.0242 27.0801 24.0859 27.0878C24.1515 27.0917 24.2229 27.0897 24.3001 27.082C24.3233 27.0666 24.3387 27.0724 24.3465 27.0994C24.3542 27.1225 24.3638 27.138 24.3754 27.1457C24.3793 27.1689 24.3889 27.1882 24.4043 27.2036C24.4121 27.2268 24.414 27.2499 24.4101 27.2731C24.4063 27.2924 24.4005 27.3136 24.3928 27.3368C24.385 27.3561 24.3793 27.3773 24.3754 27.4004C24.3715 27.4197 24.3754 27.441 24.387 27.4641C24.387 27.5529 24.3928 27.6378 24.4043 27.7189C24.3966 27.7304 24.3889 27.7439 24.3812 27.7594C24.3773 27.771 24.3696 27.7806 24.358 27.7883C24.3349 27.7883 24.3214 27.798 24.3175 27.8173C24.3136 27.8366 24.3021 27.8482 24.2828 27.852C24.275 27.8366 24.2712 27.8211 24.2712 27.8057C24.275 27.7903 24.2693 27.7768 24.2538 27.7652C24.2229 27.7652 24.1921 27.7748 24.1612 27.7941C24.1303 27.8096 24.1014 27.798 24.0743 27.7594C24.0589 27.7555 24.0454 27.7613 24.0338 27.7768C24.0222 27.7922 24.0126 27.7883 24.0049 27.7652C23.9663 27.7575 23.9354 27.7536 23.9122 27.7536C23.8891 27.7536 23.8582 27.7497 23.8196 27.742C23.8119 27.7613 23.8042 27.7652 23.7965 27.7536C23.7926 27.7382 23.7849 27.7324 23.7733 27.7362C23.6884 27.7324 23.615 27.7324 23.5533 27.7362C23.4954 27.7362 23.4221 27.7382 23.3333 27.742C23.3256 27.7459 23.3198 27.7575 23.3159 27.7768C23.3159 27.7961 23.3159 27.8173 23.3159 27.8404C23.3159 27.8597 23.3159 27.879 23.3159 27.8983C23.3198 27.9138 23.3217 27.9254 23.3217 27.9331C23.3217 27.9447 23.314 27.9639 23.2986 27.991C23.287 28.018 23.2754 28.0276 23.2638 28.0199C23.2445 28.0083 23.2368 27.991 23.2407 27.9678C23.2445 27.9447 23.2503 27.9234 23.258 27.9041C23.2619 27.8925 23.2619 27.8771 23.258 27.8578C23.2542 27.8347 23.2484 27.8115 23.2407 27.7883C23.2368 27.7652 23.2329 27.7439 23.2291 27.7247C23.2291 27.7015 23.2329 27.6841 23.2407 27.6725C23.2329 27.6648 23.2291 27.6532 23.2291 27.6378C23.2291 27.6147 23.231 27.5973 23.2349 27.5857C23.2349 27.5703 23.2349 27.5587 23.2349 27.551C23.2387 27.5394 23.2387 27.5239 23.2349 27.5047L23.2522 27.0762C23.341 27.0685 23.4143 27.0685 23.4722 27.0762C23.534 27.0839 23.6054 27.0859 23.6865 27.082C23.7173 27.082 23.7501 27.082 23.7849 27.082C23.8196 27.0782 23.8524 27.0762 23.8833 27.0762ZM27.2807 27.8173C27.273 27.825 27.273 27.8327 27.2807 27.8404C27.3155 27.8829 27.3463 27.9311 27.3734 27.9852C27.4042 28.0354 27.4351 28.0817 27.466 28.1241C27.4969 28.1704 27.5239 28.2168 27.547 28.2631C27.5741 28.3094 27.5972 28.3538 27.6165 28.3962C27.6628 28.4618 27.7053 28.5313 27.7439 28.6047C27.7825 28.6741 27.8269 28.7417 27.877 28.8073C27.8925 28.8497 27.9118 28.8903 27.9349 28.9289C27.9619 28.9675 27.9851 29.008 28.0044 29.0504C28.0469 29.1045 28.0855 29.1547 28.1202 29.201C28.1549 29.2434 28.1897 29.2917 28.2244 29.3457C28.2167 29.365 28.2186 29.3766 28.2302 29.3804C28.2418 29.3843 28.2398 29.3959 28.2244 29.4152C28.2283 29.4615 28.2244 29.4789 28.2128 29.4673C28.2012 29.4557 28.1858 29.4383 28.1665 29.4152C28.1511 29.392 28.1356 29.3747 28.1202 29.3631C28.1086 29.3476 28.1028 29.3611 28.1028 29.4036C28.099 29.419 28.0893 29.4248 28.0739 29.421C28.0623 29.421 28.0469 29.4171 28.0276 29.4094C28.0121 29.4055 27.9948 29.4017 27.9755 29.3978C27.96 29.3978 27.9484 29.4055 27.9407 29.421C27.9369 29.4364 27.9349 29.4576 27.9349 29.4847C27.9349 29.5117 27.9349 29.5387 27.9349 29.5657C27.9349 29.5966 27.9349 29.6255 27.9349 29.6525C27.9388 29.6796 27.9407 29.6989 27.9407 29.7104C27.9407 29.722 27.933 29.7355 27.9176 29.751C27.9021 29.7664 27.8905 29.7703 27.8828 29.7625C27.8712 29.7548 27.8655 29.7355 27.8655 29.7047C27.8655 29.6776 27.8674 29.6468 27.8712 29.612C27.8751 29.5811 27.879 29.5503 27.8828 29.5194C27.8867 29.4924 27.8867 29.4731 27.8828 29.4615C27.8751 29.4383 27.8693 29.4248 27.8655 29.421C27.8539 29.4055 27.8288 29.3959 27.7902 29.392C27.7555 29.3882 27.7188 29.3862 27.6802 29.3862C27.6416 29.3862 27.6049 29.3862 27.5702 29.3862C27.5393 29.3824 27.52 29.3747 27.5123 29.3631C27.4969 29.3399 27.4853 29.3264 27.4776 29.3225C27.4737 29.3148 27.4698 29.309 27.466 29.3052C27.4621 29.2975 27.4563 29.2897 27.4486 29.282C27.4448 29.2743 27.437 29.2589 27.4255 29.2357C27.3946 29.1701 27.3521 29.1025 27.2981 29.0331C27.2479 28.9636 27.2055 28.8961 27.1707 28.8304C27.1283 28.7532 27.0858 28.6857 27.0434 28.6278C27.0048 28.5661 26.9604 28.4985 26.9102 28.4252C26.8716 28.3711 26.8369 28.3152 26.806 28.2573C26.7751 28.1994 26.7423 28.1434 26.7076 28.0894C26.6805 28.0469 26.6477 28.0064 26.6091 27.9678C26.5744 27.9292 26.5551 27.8829 26.5512 27.8289C26.5358 27.8327 26.5281 27.8424 26.5281 27.8578C26.5281 27.8732 26.5223 27.8829 26.5107 27.8868C26.4914 27.8868 26.4818 27.8771 26.4818 27.8578V27.8347C26.4818 27.8308 26.4779 27.825 26.4702 27.8173C26.4355 27.798 26.4142 27.7787 26.4065 27.7594C26.4027 27.7362 26.4027 27.7131 26.4065 27.6899C26.4142 27.6668 26.42 27.6436 26.4239 27.6204C26.4316 27.5934 26.4316 27.5683 26.4239 27.5452C26.42 27.5259 26.4258 27.5085 26.4412 27.4931C26.4567 27.4776 26.4548 27.4603 26.4355 27.441C26.447 27.3985 26.447 27.358 26.4355 27.3194C26.4277 27.2808 26.4258 27.2383 26.4297 27.192C26.4412 27.1727 26.4721 27.1631 26.5223 27.1631C26.5609 27.1631 26.6034 27.165 26.6497 27.1689C26.6998 27.1727 26.7481 27.1766 26.7944 27.1804C26.8407 27.1843 26.8832 27.1882 26.9218 27.192C26.9604 27.192 26.9874 27.1901 27.0028 27.1862C27.0376 27.1785 27.0742 27.1689 27.1128 27.1573C27.1553 27.1457 27.1958 27.1341 27.2344 27.1225C27.2769 27.1071 27.3135 27.0917 27.3444 27.0762C27.3791 27.0608 27.4062 27.0434 27.4255 27.0241C27.4525 27.001 27.4718 26.9739 27.4834 26.9431C27.4949 26.9122 27.5046 26.8794 27.5123 26.8447C27.5239 26.7906 27.5277 26.7327 27.5239 26.671C27.52 26.6092 27.5142 26.5475 27.5065 26.4857C27.4988 26.4201 27.4621 26.3545 27.3965 26.2889C27.3309 26.2232 27.2691 26.1692 27.2112 26.1268C27.1997 26.119 27.1746 26.1132 27.136 26.1094C27.0974 26.1017 27.053 26.0978 27.0028 26.0978C26.9527 26.0939 26.8986 26.092 26.8407 26.092C26.7867 26.0882 26.7365 26.0862 26.6902 26.0862H26.5628C26.5551 26.0939 26.5493 26.1171 26.5455 26.1557C26.5455 26.1904 26.5435 26.2271 26.5397 26.2657C26.5397 26.3043 26.5339 26.3371 26.5223 26.3641C26.5146 26.3911 26.4991 26.3989 26.476 26.3873C26.4721 26.3873 26.4702 26.3776 26.4702 26.3583V26.1789C26.4741 26.1557 26.4702 26.1364 26.4586 26.121C26.4509 26.1017 26.4509 26.0824 26.4586 26.0631C26.4355 26.0554 26.4219 26.0457 26.4181 26.0341C26.4142 26.0225 26.4123 26.009 26.4123 25.9936C26.4162 25.9782 26.4181 25.9647 26.4181 25.9531C26.4219 25.9376 26.4181 25.9241 26.4065 25.9125C26.4181 25.8894 26.4219 25.8662 26.4181 25.8431C26.4142 25.8199 26.4084 25.7968 26.4007 25.7736C26.3969 25.7504 26.393 25.7273 26.3891 25.7041C26.3891 25.681 26.3949 25.6578 26.4065 25.6347C26.3988 25.6231 26.3949 25.6076 26.3949 25.5883C26.3988 25.569 26.4046 25.5517 26.4123 25.5362C26.4046 25.5169 26.4046 25.5034 26.4123 25.4957C26.4239 25.488 26.4297 25.4745 26.4297 25.4552C26.4335 25.4513 26.4451 25.4513 26.4644 25.4552C26.4876 25.459 26.5011 25.459 26.5049 25.4552C26.5242 25.4513 26.5416 25.4494 26.557 25.4494C26.5763 25.4494 26.5956 25.4494 26.6149 25.4494C26.6342 25.4494 26.6516 25.4513 26.667 25.4552C26.6825 25.4552 26.6979 25.4571 26.7134 25.461C26.7404 25.4532 26.7712 25.4436 26.806 25.432C26.8446 25.4204 26.8793 25.4166 26.9102 25.4204C26.9372 25.432 26.9719 25.4417 27.0144 25.4494C27.0569 25.4532 27.0993 25.459 27.1418 25.4668C27.1881 25.4706 27.2325 25.4764 27.2749 25.4841C27.3174 25.488 27.3521 25.4957 27.3791 25.5073C27.4216 25.515 27.4544 25.5285 27.4776 25.5478C27.5046 25.5671 27.5374 25.5806 27.576 25.5883C27.6725 25.6424 27.7593 25.7138 27.8365 25.8025C27.9176 25.8913 27.9851 25.9743 28.0391 26.0515C28.0932 26.1287 28.1279 26.2252 28.1434 26.341C28.1588 26.4568 28.1704 26.559 28.1781 26.6478C28.1627 26.671 28.1549 26.6961 28.1549 26.7231C28.1588 26.7501 28.1588 26.7752 28.1549 26.7983C28.1511 26.8292 28.1472 26.862 28.1434 26.8968C28.1395 26.9276 28.1337 26.9604 28.126 26.9952L28.1318 27.001C28.1356 27.0357 28.1298 27.0589 28.1144 27.0704C28.1028 27.0782 28.0951 27.0859 28.0912 27.0936C28.0758 27.1129 28.0642 27.1361 28.0565 27.1631C28.0488 27.1862 28.0411 27.2113 28.0334 27.2383C28.0256 27.2615 28.016 27.2847 28.0044 27.3078C27.9928 27.331 27.9755 27.3503 27.9523 27.3657C27.9523 27.385 27.9369 27.4062 27.906 27.4294C27.8944 27.4603 27.8828 27.4815 27.8712 27.4931C27.8597 27.5008 27.8481 27.5104 27.8365 27.522C27.8249 27.5297 27.8114 27.5394 27.796 27.551C27.7805 27.5625 27.7612 27.5818 27.7381 27.6089C27.6609 27.6243 27.5856 27.659 27.5123 27.7131C27.4428 27.7671 27.3656 27.8018 27.2807 27.8173ZM26.007 25.4841C25.9955 25.6231 25.9877 25.7196 25.9839 25.7736C25.9839 25.8276 25.9839 25.8624 25.9839 25.8778C25.9877 25.8894 25.9916 25.8971 25.9955 25.901C25.9993 25.901 26.0012 25.9183 26.0012 25.9531C26.0051 26.038 26.007 26.1248 26.007 26.2136C26.007 26.2985 26.007 26.3854 26.007 26.4741V27.001C26.0186 27.0396 26.0225 27.082 26.0186 27.1283C26.0148 27.1708 26.0128 27.2132 26.0128 27.2557C26.0167 27.3715 26.0167 27.4892 26.0128 27.6089C26.009 27.7285 26.007 27.8462 26.007 27.962C26.007 28.101 26.009 28.2457 26.0128 28.3962C26.0167 28.5429 26.0167 28.6876 26.0128 28.8304C26.0167 28.8304 26.0186 28.8324 26.0186 28.8362C26.0148 28.8787 26.0128 28.9231 26.0128 28.9694C26.0128 29.0118 26.0128 29.0543 26.0128 29.0968C26.0128 29.1392 26.0128 29.1836 26.0128 29.2299C26.0167 29.2724 26.0205 29.3148 26.0244 29.3573C26.0244 29.3766 26.0128 29.3978 25.9897 29.421C25.9704 29.4287 25.9588 29.4248 25.9549 29.4094C25.9511 29.3939 25.9414 29.3862 25.926 29.3862C25.8719 29.3824 25.816 29.3804 25.7581 29.3804C25.7041 29.3766 25.6558 29.3882 25.6134 29.4152C25.5786 29.3959 25.5381 29.3862 25.4918 29.3862C25.4455 29.3824 25.4011 29.3824 25.3586 29.3862C25.3509 29.3939 25.347 29.3978 25.347 29.3978C25.3432 29.3978 25.3393 29.3997 25.3355 29.4036C25.3239 29.3959 25.3123 29.3882 25.3007 29.3804C25.2891 29.3689 25.2891 29.3554 25.3007 29.3399C25.3007 29.3322 25.3046 29.3283 25.3123 29.3283C25.32 29.2511 25.32 29.1739 25.3123 29.0968C25.3046 29.0157 25.3046 28.9366 25.3123 28.8594C25.2969 28.8208 25.293 28.7822 25.3007 28.7436C25.3123 28.705 25.3142 28.6683 25.3065 28.6336C25.3142 28.5834 25.3142 28.5332 25.3065 28.4831C25.2988 28.4329 25.3007 28.3808 25.3123 28.3268C25.3046 28.3075 25.3027 28.2882 25.3065 28.2689C25.3104 28.2496 25.3084 28.2303 25.3007 28.211C25.3084 28.0952 25.3084 27.9832 25.3007 27.8752C25.2969 27.7632 25.2988 27.6455 25.3065 27.522C25.3027 27.4834 25.2988 27.4448 25.2949 27.4062C25.2911 27.3676 25.2911 27.331 25.2949 27.2962C25.2911 27.2422 25.2949 27.192 25.3065 27.1457C25.3181 27.0994 25.3162 27.0492 25.3007 26.9952C25.293 26.9836 25.2949 26.9778 25.3065 26.9778C25.3142 26.9778 25.3162 26.972 25.3123 26.9604C25.3084 26.945 25.3084 26.9315 25.3123 26.9199C25.32 26.9122 25.3162 26.9045 25.3007 26.8968C25.2853 26.889 25.2814 26.8813 25.2891 26.8736C25.3123 26.8543 25.32 26.8196 25.3123 26.7694C25.3084 26.7192 25.3046 26.6787 25.3007 26.6478C25.2969 26.5899 25.293 26.5339 25.2891 26.4799C25.2891 26.422 25.2969 26.3661 25.3123 26.312C25.293 26.2889 25.2814 26.2638 25.2776 26.2368C25.2776 26.2059 25.2776 26.1769 25.2776 26.1499C25.2853 26.119 25.2872 26.0901 25.2834 26.0631C25.2795 26.0361 25.2834 26.0071 25.2949 25.9762C25.2949 25.9454 25.293 25.9145 25.2891 25.8836C25.2891 25.8489 25.293 25.8161 25.3007 25.7852C25.3084 25.7311 25.3084 25.6771 25.3007 25.6231C25.2969 25.569 25.2969 25.5169 25.3007 25.4668C25.3432 25.4629 25.3856 25.461 25.4281 25.461C25.4705 25.4571 25.513 25.4552 25.5555 25.4552C25.6018 25.4552 25.6462 25.4532 25.6886 25.4494C25.7349 25.4417 25.7793 25.4339 25.8218 25.4262C25.8411 25.4262 25.8507 25.4262 25.8507 25.4262C25.8507 25.4262 25.8527 25.4282 25.8565 25.432C25.8604 25.4359 25.8719 25.4417 25.8912 25.4494C25.9105 25.4571 25.9491 25.4687 26.007 25.4841ZM15.5009 32.5304C15.497 32.6076 15.4951 32.6964 15.4951 32.7968C15.499 32.8932 15.497 32.982 15.4893 33.0631C15.4623 33.0824 15.4334 33.092 15.4025 33.092C15.3716 33.0882 15.3465 33.1017 15.3272 33.1325C15.2616 33.1943 15.2114 33.258 15.1767 33.3236C15.1574 33.3661 15.1516 33.4008 15.1593 33.4278C15.167 33.4548 15.1709 33.4896 15.1709 33.532C15.1941 33.559 15.2114 33.5861 15.223 33.6131C15.2346 33.6362 15.2481 33.6594 15.2635 33.6825C15.2828 33.7057 15.3079 33.7289 15.3388 33.752C15.3697 33.7752 15.4141 33.7983 15.472 33.8215C15.5028 33.8331 15.5453 33.8524 15.5993 33.8794C15.6534 33.9064 15.6958 33.9218 15.7267 33.9257C15.7923 33.9334 15.8502 33.9469 15.9004 33.9662C15.9544 33.9817 16.0123 33.9932 16.0741 34.001C16.0934 34.0125 16.1146 34.0222 16.1377 34.0299C16.1648 34.0338 16.1879 34.0454 16.2072 34.0647C16.2728 34.0917 16.3288 34.1225 16.3751 34.1573C16.4253 34.1882 16.4832 34.2171 16.5488 34.2441C16.5681 34.2673 16.6028 34.2924 16.653 34.3194C16.7032 34.3464 16.7399 34.3715 16.763 34.3947C16.7939 34.4255 16.8151 34.4429 16.8267 34.4468C16.8383 34.4506 16.8576 34.4699 16.8846 34.5047C16.9077 34.5394 16.9251 34.5761 16.9367 34.6147C16.956 34.6764 16.9772 34.742 17.0004 34.8115C17.0274 34.881 17.0486 34.9485 17.0641 35.0141C17.0756 35.0643 17.0795 35.1241 17.0756 35.1936C17.0756 35.2631 17.0699 35.3325 17.0583 35.402C17.0467 35.4715 17.0313 35.539 17.012 35.6047C16.9927 35.6664 16.9714 35.7185 16.9483 35.761C16.929 35.7918 16.9097 35.8208 16.8904 35.8478C16.8749 35.871 16.8556 35.8941 16.8325 35.9173C16.7784 35.979 16.7302 36.0331 16.6877 36.0794C16.6453 36.1218 16.5855 36.1547 16.5083 36.1778C16.4697 36.2048 16.4311 36.2338 16.3925 36.2647C16.3577 36.2955 16.3404 36.3361 16.3404 36.3862C16.3404 36.3978 16.3404 36.4113 16.3404 36.4268C16.3442 36.4422 16.3404 36.4538 16.3288 36.4615C16.3095 36.4615 16.2979 36.4538 16.2941 36.4383C16.2941 36.4229 16.2941 36.4055 16.2941 36.3862C16.2979 36.3631 16.3018 36.3418 16.3056 36.3225C16.3134 36.3032 16.3172 36.2897 16.3172 36.282C16.3056 36.2704 16.2941 36.2685 16.2825 36.2762C16.267 36.3264 16.2555 36.3592 16.2477 36.3747C16.24 36.3862 16.2323 36.3901 16.2246 36.3862C16.2207 36.3785 16.2169 36.3669 16.213 36.3515C16.2092 36.3361 16.2034 36.3264 16.1956 36.3225C16.157 36.3418 16.1377 36.3766 16.1377 36.4268C16.1377 36.4461 16.1358 36.4654 16.132 36.4847C16.132 36.5078 16.1262 36.5271 16.1146 36.5425C16.103 36.5425 16.0934 36.5387 16.0856 36.531C16.0934 36.5001 16.0953 36.4711 16.0914 36.4441C16.0876 36.4171 16.0876 36.3901 16.0914 36.3631C16.0799 36.3515 16.0663 36.3457 16.0509 36.3457C16.0046 36.365 15.9756 36.3766 15.9641 36.3804C15.9563 36.3804 15.9544 36.3766 15.9583 36.3689C15.9621 36.3573 15.966 36.3457 15.9699 36.3341C15.9776 36.3225 15.9737 36.3148 15.9583 36.311C15.9428 36.3032 15.9409 36.2955 15.9525 36.2878C15.9679 36.2801 15.9718 36.2685 15.9641 36.2531C15.9641 36.2299 15.9621 36.2087 15.9583 36.1894C15.9583 36.1701 15.9506 36.1469 15.9351 36.1199C15.9351 36.0775 15.9351 36.035 15.9351 35.9925C15.939 35.9462 15.937 35.9018 15.9293 35.8594C15.9486 35.8362 15.9602 35.8247 15.9641 35.8247C15.9679 35.8208 15.9776 35.8073 15.993 35.7841C15.9969 35.7725 15.9949 35.7629 15.9872 35.7552C15.9795 35.7475 15.9834 35.7397 15.9988 35.732C16.0297 35.7127 16.0625 35.7031 16.0972 35.7031C16.1281 35.6838 16.1474 35.6664 16.1551 35.651C16.1667 35.6317 16.1899 35.6162 16.2246 35.6047C16.2439 35.5815 16.2574 35.5583 16.2651 35.5352C16.2728 35.512 16.2863 35.4889 16.3056 35.4657C16.352 35.4194 16.379 35.3596 16.3867 35.2862C16.3944 35.209 16.4021 35.1415 16.4099 35.0836C16.4137 35.045 16.4002 35.0161 16.3693 34.9968C16.3423 34.9736 16.3192 34.9466 16.2999 34.9157C16.2651 34.8617 16.2149 34.8211 16.1493 34.7941C16.0837 34.7632 16.0239 34.742 15.9699 34.7304C15.9428 34.7227 15.9158 34.715 15.8888 34.7073C15.8618 34.6957 15.8348 34.6976 15.8077 34.7131C15.8 34.7169 15.7962 34.7054 15.7962 34.6783C15.8 34.6513 15.7962 34.6397 15.7846 34.6436C15.773 34.6513 15.7556 34.6455 15.7325 34.6262C15.7016 34.6069 15.6688 34.5838 15.6341 34.5568C15.5993 34.5297 15.5762 34.5317 15.5646 34.5625C15.5607 34.5703 15.5549 34.5722 15.5472 34.5683C15.5395 34.5606 15.5318 34.5529 15.5241 34.5452C15.5163 34.5375 15.5086 34.5317 15.5009 34.5278C15.497 34.5201 15.4951 34.5201 15.4951 34.5278C15.4835 34.578 15.472 34.5973 15.4604 34.5857C15.4527 34.5703 15.4507 34.5568 15.4546 34.5452C15.4623 34.5182 15.4488 34.5008 15.4141 34.4931C15.3832 34.4815 15.362 34.4796 15.3504 34.4873C15.3311 34.5066 15.3176 34.5027 15.3099 34.4757C15.306 34.4487 15.2925 34.4352 15.2693 34.4352C15.2384 34.4352 15.2114 34.4255 15.1883 34.4062C15.169 34.3869 15.1439 34.3715 15.113 34.3599C15.0435 34.3368 14.9818 34.3136 14.9277 34.2904C14.8737 34.2634 14.8197 34.2229 14.7656 34.1689C14.7425 34.1457 14.7232 34.1225 14.7077 34.0994C14.6923 34.0762 14.673 34.055 14.6499 34.0357C14.6383 34.0241 14.6267 34.0145 14.6151 34.0068C14.6035 33.999 14.5939 33.9855 14.5862 33.9662C14.5784 33.9354 14.5727 33.9083 14.5688 33.8852C14.5688 33.862 14.5591 33.8369 14.5399 33.8099C14.5206 33.7829 14.5128 33.7578 14.5167 33.7347C14.5244 33.7115 14.5206 33.6864 14.5051 33.6594C14.4858 33.6247 14.482 33.5861 14.4935 33.5436C14.509 33.4973 14.507 33.4568 14.4877 33.422C14.4955 33.3989 14.4974 33.3776 14.4935 33.3583C14.4897 33.3352 14.4935 33.312 14.5051 33.2889C14.5051 33.2387 14.5128 33.1924 14.5283 33.1499C14.5476 33.1075 14.5611 33.0631 14.5688 33.0168C14.5842 32.9936 14.5977 32.9704 14.6093 32.9473C14.6248 32.9241 14.6383 32.899 14.6499 32.872C14.7193 32.7832 14.7888 32.7157 14.8583 32.6694C14.9316 32.6192 15.0204 32.5729 15.1246 32.5304C15.14 32.5266 15.1535 32.5227 15.1651 32.5189C15.1767 32.515 15.1863 32.5111 15.1941 32.5073C15.2404 32.488 15.2848 32.4725 15.3272 32.461C15.3697 32.4494 15.4218 32.4359 15.4835 32.4204C15.4835 32.4397 15.4893 32.4552 15.5009 32.4668C15.5163 32.4783 15.5241 32.4899 15.5241 32.5015C15.5241 32.5092 15.5163 32.5189 15.5009 32.5304ZM16.6183 32.6231C16.6337 32.6462 16.653 32.6559 16.6762 32.652C16.7032 32.6443 16.7206 32.6539 16.7283 32.681C16.7746 32.7157 16.8093 32.7543 16.8325 32.7968C16.8595 32.8392 16.8904 32.8817 16.9251 32.9241C16.9251 32.9434 16.9328 32.9647 16.9483 32.9878C16.9676 33.011 16.9772 33.0322 16.9772 33.0515C16.9772 33.0631 16.9676 33.0747 16.9483 33.0862C16.9135 33.1055 16.8769 33.1229 16.8383 33.1383C16.8035 33.1538 16.7707 33.1711 16.7399 33.1904C16.7128 33.2097 16.6858 33.2252 16.6588 33.2368C16.6318 33.2445 16.6067 33.258 16.5835 33.2773C16.5527 33.2773 16.5256 33.285 16.5025 33.3004C16.4832 33.3159 16.462 33.3294 16.4388 33.341C16.4234 33.3448 16.4041 33.3448 16.3809 33.341C16.3848 33.3139 16.377 33.2947 16.3577 33.2831C16.3423 33.2676 16.3269 33.2464 16.3114 33.2194C16.296 33.1847 16.2709 33.1576 16.2362 33.1383C16.2014 33.119 16.1686 33.0997 16.1377 33.0804C16.1146 33.0959 16.0934 33.0959 16.0741 33.0804C16.0586 33.065 16.0413 33.0631 16.022 33.0747C16.0142 33.0824 16.0104 33.1036 16.0104 33.1383C16.0142 33.1692 16.0162 33.2039 16.0162 33.2425C16.0162 33.2811 16.0142 33.3139 16.0104 33.341C16.0104 33.368 16.0007 33.3796 15.9814 33.3757C15.9699 33.3564 15.9583 33.3101 15.9467 33.2368C15.939 33.1596 15.9351 33.0882 15.9351 33.0225C15.9351 32.9762 15.9409 32.9415 15.9525 32.9183C15.9525 32.8334 15.9544 32.7543 15.9583 32.681C15.9621 32.6076 15.9641 32.5266 15.9641 32.4378C15.9602 32.4378 15.9699 32.4339 15.993 32.4262C16.1088 32.4262 16.2188 32.4436 16.323 32.4783C16.4311 32.5131 16.5295 32.5613 16.6183 32.6231ZM14.6904 35.1936C14.7367 35.1897 14.7888 35.1897 14.8467 35.1936C14.9046 35.1936 14.9548 35.1955 14.9972 35.1994C15.0127 35.2148 15.0204 35.2361 15.0204 35.2631C15.0242 35.2862 15.032 35.3075 15.0435 35.3268C15.0513 35.3576 15.057 35.3866 15.0609 35.4136C15.0648 35.4406 15.0763 35.4696 15.0956 35.5004C15.1497 35.5468 15.2056 35.5989 15.2635 35.6568C15.3214 35.7147 15.389 35.7436 15.4662 35.7436C15.4816 35.7552 15.4893 35.7648 15.4893 35.7725C15.4932 35.7764 15.4951 35.7822 15.4951 35.7899V35.8073C15.4951 35.8073 15.499 35.8189 15.5067 35.842C15.5067 35.8961 15.499 35.9539 15.4835 36.0157C15.472 36.0736 15.4662 36.1315 15.4662 36.1894C15.4662 36.228 15.4739 36.2608 15.4893 36.2878C15.4893 36.3032 15.4835 36.3148 15.472 36.3225C15.4642 36.3303 15.4565 36.338 15.4488 36.3457C15.4411 36.3496 15.4353 36.3573 15.4314 36.3689C15.4276 36.3766 15.4295 36.3901 15.4372 36.4094C15.4295 36.4403 15.4295 36.475 15.4372 36.5136C15.4488 36.5561 15.4469 36.5889 15.4314 36.612C15.4237 36.6197 15.416 36.6197 15.4083 36.612C15.4006 36.6082 15.3967 36.6024 15.3967 36.5947C15.4044 36.5561 15.4044 36.5175 15.3967 36.4789C15.3928 36.4441 15.3909 36.4075 15.3909 36.3689C15.3832 36.3611 15.3774 36.3554 15.3735 36.3515C15.3697 36.3438 15.3639 36.338 15.3562 36.3341C15.3369 36.3264 15.3234 36.3322 15.3156 36.3515C15.3079 36.3669 15.2983 36.3708 15.2867 36.3631C15.2867 36.3515 15.2886 36.3399 15.2925 36.3283C15.2963 36.3168 15.2886 36.3071 15.2693 36.2994C15.2307 36.3032 15.2153 36.3206 15.223 36.3515C15.2346 36.3824 15.2346 36.4075 15.223 36.4268C15.2037 36.4538 15.1902 36.4538 15.1825 36.4268C15.1786 36.4036 15.1767 36.3766 15.1767 36.3457C15.0995 36.3032 15.0262 36.2569 14.9567 36.2068C14.8872 36.1566 14.8158 36.1103 14.7425 36.0678C14.6923 36.0408 14.6556 36.0041 14.6325 35.9578C14.6132 35.9115 14.5862 35.869 14.5514 35.8304C14.5283 35.8034 14.507 35.7783 14.4877 35.7552C14.4723 35.7282 14.4511 35.6992 14.4241 35.6683C14.4048 35.6452 14.397 35.622 14.4009 35.5989C14.4048 35.5718 14.397 35.541 14.3777 35.5062C14.3584 35.4599 14.3488 35.4136 14.3488 35.3673C14.3488 35.3403 14.3488 35.3152 14.3488 35.292C14.3488 35.265 14.3469 35.238 14.343 35.211C14.3507 35.2071 14.3527 35.2032 14.3488 35.1994C14.3449 35.1955 14.3469 35.1917 14.3546 35.1878C14.3855 35.1839 14.4144 35.182 14.4414 35.182C14.4684 35.182 14.4955 35.182 14.5225 35.182C14.5495 35.182 14.5765 35.1839 14.6035 35.1878C14.6306 35.1878 14.6595 35.1897 14.6904 35.1936ZM15.9814 33.3989C15.9853 33.4027 15.9872 33.4143 15.9872 33.4336V33.4625C15.9795 33.4703 15.9776 33.478 15.9814 33.4857C15.9853 33.4896 15.9872 33.4934 15.9872 33.4973C15.9834 33.5089 15.9814 33.5204 15.9814 33.532C15.9853 33.5436 15.9872 33.5552 15.9872 33.5668C15.9834 33.5706 15.9795 33.5725 15.9756 33.5725C15.9718 33.5532 15.9699 33.5339 15.9699 33.5147C15.9737 33.4954 15.9737 33.4761 15.9699 33.4568C15.9699 33.4452 15.9679 33.4355 15.9641 33.4278C15.9641 33.4162 15.9679 33.4047 15.9756 33.3931L15.9814 33.3989ZM15.9583 33.7636C15.9621 33.7829 15.9563 33.7906 15.9409 33.7868C15.9255 33.7829 15.9139 33.7848 15.9062 33.7925C15.9062 33.7887 15.91 33.7752 15.9177 33.752C15.9293 33.7443 15.9428 33.7482 15.9583 33.7636ZM20.0272 34.9041C20.035 34.881 20.0388 34.8694 20.0388 34.8694C20.0388 34.8539 20.033 34.8443 20.0214 34.8404C20.0137 34.8366 20.0099 34.8173 20.0099 34.7825C19.9944 34.7864 19.9848 34.7806 19.9809 34.7652C19.9771 34.7459 19.9655 34.7343 19.9462 34.7304C19.9269 34.742 19.9153 34.7497 19.9114 34.7536C19.9076 34.7536 19.9057 34.7555 19.9057 34.7594C19.9057 34.7632 19.9057 34.769 19.9057 34.7768C19.9095 34.7806 19.9095 34.7903 19.9057 34.8057C19.8979 34.8134 19.8921 34.8211 19.8883 34.8289C19.8844 34.8327 19.8767 34.8327 19.8651 34.8289C19.8574 34.798 19.8555 34.7787 19.8593 34.771C19.8671 34.7632 19.8671 34.7439 19.8593 34.7131C19.8516 34.6861 19.8458 34.6725 19.842 34.6725C19.842 34.6687 19.84 34.6706 19.8362 34.6783C19.8362 34.6861 19.8323 34.6938 19.8246 34.7015C19.8169 34.7092 19.8014 34.7092 19.7783 34.7015C19.7628 34.6938 19.7513 34.6938 19.7435 34.7015C19.7397 34.7054 19.7358 34.715 19.732 34.7304C19.732 34.742 19.73 34.7555 19.7262 34.771C19.7262 34.7864 19.7223 34.7999 19.7146 34.8115C19.7107 34.8231 19.7069 34.8385 19.703 34.8578C19.6992 34.8771 19.6953 34.8964 19.6914 34.9157C19.6876 34.935 19.6837 34.9524 19.6799 34.9678C19.676 34.9794 19.6702 34.9832 19.6625 34.9794C19.6509 34.9678 19.6432 34.9504 19.6393 34.9273C19.6393 34.9041 19.6393 34.881 19.6393 34.8578C19.6393 34.8308 19.6374 34.8057 19.6335 34.7825C19.6335 34.7594 19.6278 34.7401 19.6162 34.7247C19.5814 34.7362 19.566 34.7613 19.5699 34.7999C19.5776 34.8347 19.5795 34.8655 19.5757 34.8925C19.5525 34.9389 19.5486 34.9948 19.5641 35.0604C19.5795 35.1222 19.5795 35.1762 19.5641 35.2225C19.5564 35.2418 19.5544 35.2689 19.5583 35.3036C19.566 35.3383 19.5583 35.3538 19.5351 35.3499C19.5158 35.3499 19.5043 35.3268 19.5004 35.2804C19.5004 35.2341 19.5004 35.1801 19.5004 35.1183C19.5043 35.0527 19.5081 34.9852 19.512 34.9157C19.5158 34.8424 19.5158 34.7806 19.512 34.7304C19.4888 34.7034 19.4772 34.659 19.4772 34.5973C19.4772 34.5587 19.4792 34.5162 19.483 34.4699C19.4907 34.4197 19.4946 34.3715 19.4946 34.3252C19.4985 34.2789 19.5004 34.2364 19.5004 34.1978C19.5004 34.1554 19.4946 34.1206 19.483 34.0936C19.5409 34.0936 19.593 34.0955 19.6393 34.0994C19.6895 34.1032 19.7416 34.1013 19.7957 34.0936C19.8188 34.0975 19.8362 34.0994 19.8478 34.0994C19.8632 34.0994 19.8728 34.0994 19.8767 34.0994C19.8844 34.0994 19.8883 34.0994 19.8883 34.0994C19.8921 34.0994 19.896 34.0994 19.8999 34.0994C19.9037 34.0955 19.9114 34.0936 19.923 34.0936C19.9385 34.0936 19.9635 34.0936 19.9983 34.0936C20.006 34.0203 20.0079 33.9585 20.0041 33.9083C20.0041 33.8543 20.0021 33.8041 19.9983 33.7578C19.9944 33.7076 19.9906 33.6575 19.9867 33.6073C19.9867 33.5532 19.9906 33.4915 19.9983 33.422C19.9944 33.4027 19.9906 33.3854 19.9867 33.3699C19.9828 33.3506 19.9867 33.3313 19.9983 33.312C20.006 33.2927 20.0021 33.2734 19.9867 33.2541C19.9751 33.2348 19.9828 33.2175 20.0099 33.202C20.0214 33.1673 20.0253 33.1306 20.0214 33.092C20.0176 33.0496 20.0195 33.009 20.0272 32.9704C20.0079 32.9396 20.0041 32.9068 20.0157 32.872C20.0272 32.8373 20.0253 32.8045 20.0099 32.7736C19.9983 32.7389 19.9964 32.7041 20.0041 32.6694C20.0157 32.6308 20.0137 32.5941 19.9983 32.5594C20.0021 32.5478 20.0021 32.5343 19.9983 32.5189C19.9983 32.5034 19.9983 32.4899 19.9983 32.4783C19.9983 32.4436 20.0099 32.4262 20.033 32.4262C20.145 32.4224 20.255 32.4243 20.363 32.432C20.475 32.4359 20.5869 32.4339 20.6988 32.4262L20.7104 32.4378C20.7258 32.5613 20.7258 32.6829 20.7104 32.8025C20.695 32.9183 20.695 33.0361 20.7104 33.1557C20.7027 33.5996 20.7007 34.0473 20.7046 34.4989C20.7123 34.9466 20.7123 35.3847 20.7046 35.8131C20.7046 35.871 20.7065 35.9289 20.7104 35.9868C20.7181 36.0447 20.7181 36.1006 20.7104 36.1547C20.7027 36.1894 20.7065 36.2261 20.722 36.2647C20.7413 36.3032 20.7335 36.338 20.6988 36.3689C20.6679 36.3534 20.6313 36.3438 20.5888 36.3399C20.5464 36.3361 20.5058 36.3399 20.4672 36.3515C20.4248 36.3554 20.3823 36.3554 20.3399 36.3515C20.2974 36.3476 20.255 36.3515 20.2125 36.3631C20.1971 36.3708 20.1816 36.3785 20.1662 36.3862C20.1507 36.3901 20.1392 36.3997 20.1314 36.4152C20.1237 36.4345 20.1218 36.4538 20.1257 36.4731C20.1295 36.4962 20.1179 36.5097 20.0909 36.5136C20.0793 36.502 20.0793 36.4866 20.0909 36.4673C20.0986 36.4518 20.0986 36.4364 20.0909 36.421C20.0832 36.4094 20.0755 36.3978 20.0678 36.3862C20.0369 36.3669 20.0176 36.3438 20.0099 36.3168C20.0021 36.2859 19.9983 36.255 19.9983 36.2241C20.0021 36.1932 20.006 36.1624 20.0099 36.1315C20.0176 36.0968 20.0195 36.0639 20.0157 36.0331C20.0041 35.9675 20.0002 35.8999 20.0041 35.8304C20.0118 35.7571 20.0176 35.6876 20.0214 35.622C20.0253 35.5911 20.0214 35.5583 20.0099 35.5236C20.0021 35.485 20.006 35.4503 20.0214 35.4194C20.0021 35.3576 19.9983 35.2959 20.0099 35.2341C20.0253 35.1685 20.0176 35.1068 19.9867 35.0489C19.9751 35.0334 19.9732 35.0199 19.9809 35.0083C19.9886 34.9968 19.9964 34.9852 20.0041 34.9736C20.0157 34.962 20.0253 34.9524 20.033 34.9447C20.0407 34.9331 20.0388 34.9196 20.0272 34.9041ZM18.493 32.9878C18.493 33.092 18.495 33.2252 18.4988 33.3873C18.5027 33.5455 18.5046 33.698 18.5046 33.8447V34.0936C18.5702 34.0936 18.6127 34.0917 18.632 34.0878C18.6551 34.0839 18.686 34.082 18.7246 34.082C18.7362 34.082 18.7497 34.082 18.7651 34.082C18.7844 34.082 18.8037 34.0839 18.823 34.0878C18.8655 34.0724 18.9079 34.0704 18.9504 34.082C18.9928 34.0936 19.0353 34.0975 19.0778 34.0936C19.0855 34.0975 19.0874 34.1032 19.0835 34.111C19.0835 34.1148 19.0874 34.1187 19.0951 34.1225C19.1028 34.1766 19.1048 34.2248 19.1009 34.2673C19.1009 34.3097 19.0971 34.3522 19.0893 34.3947C19.0855 34.4332 19.0816 34.4738 19.0778 34.5162C19.0778 34.5587 19.0816 34.6069 19.0893 34.661C19.0971 34.6841 19.0971 34.7015 19.0893 34.7131C19.0816 34.7247 19.072 34.7362 19.0604 34.7478C19.0488 34.7594 19.0392 34.7729 19.0314 34.7883C19.0276 34.7999 19.0314 34.8173 19.043 34.8404C19.0392 34.852 19.0372 34.8675 19.0372 34.8868C19.0372 34.9061 19.0295 34.9176 19.0141 34.9215C18.9986 34.8983 18.9948 34.8713 19.0025 34.8404C19.0141 34.8057 19.0025 34.7825 18.9678 34.771C18.9176 34.7748 18.8635 34.7748 18.8057 34.771C18.7478 34.7632 18.6957 34.769 18.6493 34.7883C18.6185 34.7883 18.5972 34.7883 18.5857 34.7883C18.5779 34.7845 18.5721 34.7806 18.5683 34.7768C18.5644 34.7729 18.5586 34.769 18.5509 34.7652C18.5432 34.7575 18.5239 34.7517 18.493 34.7478C18.4892 34.7517 18.4872 34.7671 18.4872 34.7941C18.4911 34.8211 18.493 34.852 18.493 34.8868C18.4969 34.9215 18.5007 34.9543 18.5046 34.9852C18.5085 35.0122 18.5104 35.0276 18.5104 35.0315C18.5143 35.1434 18.5123 35.2534 18.5046 35.3615C18.5007 35.4696 18.5046 35.5796 18.5162 35.6915C18.4969 35.7803 18.493 35.8806 18.5046 35.9925C18.52 36.1045 18.522 36.2048 18.5104 36.2936C18.5065 36.3129 18.5065 36.3283 18.5104 36.3399C18.5143 36.3515 18.5065 36.3669 18.4872 36.3862C18.4564 36.3939 18.4332 36.4113 18.4178 36.4383C18.4062 36.4692 18.3927 36.4962 18.3772 36.5194C18.3695 36.5039 18.3676 36.4847 18.3714 36.4615C18.3792 36.4422 18.3695 36.4306 18.3425 36.4268C18.3039 36.4268 18.2692 36.421 18.2383 36.4094C18.2113 36.4017 18.1823 36.3939 18.1514 36.3862C18.1244 36.3747 18.0955 36.3669 18.0646 36.3631C18.0337 36.3554 17.999 36.3534 17.9604 36.3573C17.9411 36.3418 17.9179 36.338 17.8909 36.3457C17.8639 36.3534 17.8446 36.3457 17.833 36.3225C17.833 36.2647 17.8311 36.1932 17.8272 36.1083C17.8272 36.0234 17.8311 35.9539 17.8388 35.8999C17.8311 35.8536 17.8272 35.8092 17.8272 35.7668C17.8311 35.7243 17.8292 35.6838 17.8214 35.6452C17.833 35.6027 17.835 35.5564 17.8272 35.5062C17.8234 35.4522 17.8253 35.4039 17.833 35.3615C17.8407 35.1492 17.8427 34.935 17.8388 34.7189C17.8388 34.4989 17.8388 34.2827 17.8388 34.0704C17.8427 34.0589 17.8446 34.0434 17.8446 34.0241C17.8485 34.0048 17.8465 33.9875 17.8388 33.972C17.8388 33.918 17.8369 33.8639 17.833 33.8099C17.8292 33.7559 17.8272 33.7018 17.8272 33.6478C17.8195 33.6169 17.8176 33.588 17.8214 33.561C17.8253 33.5339 17.8292 33.5069 17.833 33.4799C17.833 33.3525 17.835 33.2252 17.8388 33.0978C17.8465 32.9666 17.8446 32.8392 17.833 32.7157C17.8214 32.708 17.8176 32.6983 17.8214 32.6868C17.8253 32.6752 17.8272 32.6655 17.8272 32.6578C17.8157 32.6269 17.8137 32.598 17.8214 32.571C17.8292 32.5401 17.833 32.5092 17.833 32.4783C17.833 32.4629 17.8272 32.4455 17.8157 32.4262C17.835 32.4069 17.8523 32.4031 17.8678 32.4147C17.8871 32.4262 17.9083 32.4243 17.9314 32.4089C18.0164 32.4282 18.1128 32.4339 18.2209 32.4262C18.329 32.4147 18.4255 32.4147 18.5104 32.4262C18.5104 32.4494 18.5046 32.4764 18.493 32.5073C18.4814 32.5343 18.4795 32.5594 18.4872 32.5825C18.4911 32.6482 18.4911 32.7157 18.4872 32.7852C18.4872 32.8547 18.4892 32.9222 18.493 32.9878ZM22.0867 32.4436C22.1291 32.4436 22.1696 32.4455 22.2082 32.4494C22.2507 32.4494 22.2912 32.4455 22.3298 32.4378C22.3491 32.4455 22.3588 32.4532 22.3588 32.461C22.3588 32.4764 22.3646 32.4861 22.3761 32.4899C22.3761 32.5208 22.3703 32.5439 22.3588 32.5594C22.3588 32.6134 22.3626 32.6655 22.3703 32.7157C22.3819 32.7659 22.3839 32.818 22.3761 32.872C22.3453 32.9145 22.3337 32.9627 22.3414 33.0168C22.353 33.0669 22.3568 33.119 22.353 33.1731C22.3491 33.2155 22.3472 33.258 22.3472 33.3004C22.351 33.3429 22.353 33.3854 22.353 33.4278C22.353 33.478 22.3549 33.5262 22.3588 33.5725C22.3665 33.6189 22.3626 33.6671 22.3472 33.7173C22.3395 33.7482 22.3375 33.7771 22.3414 33.8041C22.3453 33.8311 22.3453 33.8601 22.3414 33.891C22.3337 33.9296 22.3337 33.972 22.3414 34.0183C22.3491 34.0647 22.351 34.109 22.3472 34.1515C22.3395 34.248 22.3395 34.3406 22.3472 34.4294C22.3549 34.5182 22.3549 34.6069 22.3472 34.6957C22.351 34.6957 22.353 34.7054 22.353 34.7247C22.3568 34.7362 22.3568 34.7536 22.353 34.7768C22.3491 34.7961 22.353 34.8115 22.3646 34.8231C22.3684 34.9118 22.3646 35.0006 22.353 35.0894C22.3453 35.1782 22.3453 35.2669 22.353 35.3557C22.3568 35.3982 22.3549 35.4387 22.3472 35.4773C22.3433 35.512 22.3472 35.5506 22.3588 35.5931C22.3626 35.7011 22.3588 35.8034 22.3472 35.8999C22.3395 35.9925 22.3472 36.089 22.3703 36.1894C22.3665 36.2125 22.3665 36.2376 22.3703 36.2647C22.3781 36.2878 22.3839 36.3129 22.3877 36.3399C22.38 36.3631 22.3761 36.3882 22.3761 36.4152C22.3761 36.4692 22.3742 36.5271 22.3703 36.5889C22.3665 36.6506 22.353 36.6815 22.3298 36.6815C22.3221 36.6815 22.3163 36.6661 22.3124 36.6352C22.3124 36.6043 22.3086 36.5657 22.3009 36.5194C22.3009 36.5078 22.3047 36.4904 22.3124 36.4673C22.3202 36.448 22.3182 36.4325 22.3067 36.421C22.2912 36.4132 22.2777 36.4094 22.2661 36.4094C22.2584 36.4132 22.2449 36.4152 22.2256 36.4152C22.1909 36.4075 22.1542 36.4036 22.1156 36.4036C22.077 36.4075 22.0384 36.4094 21.9998 36.4094C21.9921 36.4171 21.9844 36.421 21.9767 36.421C21.9612 36.421 21.9516 36.419 21.9477 36.4152C21.8975 36.3959 21.8474 36.3901 21.7972 36.3978C21.7509 36.4094 21.7026 36.4113 21.6524 36.4036C21.6254 36.3766 21.6177 36.3534 21.6293 36.3341C21.6447 36.311 21.6524 36.2839 21.6524 36.2531C21.6486 36.1759 21.6524 36.0948 21.664 36.0099C21.6756 35.9211 21.6756 35.8382 21.664 35.761C21.6602 35.7455 21.6602 35.732 21.664 35.7204C21.6679 35.705 21.6679 35.6915 21.664 35.6799V33.9662C21.664 33.6883 21.6602 33.5494 21.6524 33.5494V33.5436C21.6563 33.3583 21.6563 33.1711 21.6524 32.982C21.6524 32.7929 21.6544 32.6115 21.6582 32.4378C21.7123 32.4417 21.7663 32.4417 21.8203 32.4378C21.8782 32.4301 21.9342 32.4282 21.9882 32.432C22.0037 32.4282 22.0191 32.4282 22.0346 32.432C22.0539 32.4359 22.0712 32.4397 22.0867 32.4436ZM24.0168 32.5768C24.0129 32.7118 24.009 32.845 24.0052 32.9762C24.0052 33.1075 24.0052 33.2387 24.0052 33.3699C24.009 33.532 24.009 33.6825 24.0052 33.8215C24.0013 33.9604 24.0033 34.111 24.011 34.2731C24.0148 34.2731 24.0168 34.2808 24.0168 34.2962C24.0052 34.3155 24.0013 34.3406 24.0052 34.3715C24.0129 34.4024 24.0168 34.4294 24.0168 34.4525C24.0245 34.5799 24.0264 34.6996 24.0226 34.8115C24.0187 34.9234 24.0168 35.045 24.0168 35.1762C24.0168 35.3731 24.0129 35.568 24.0052 35.761C23.9975 35.9501 23.9975 36.1489 24.0052 36.3573C24.0129 36.3611 24.0148 36.3669 24.011 36.3747C24.0071 36.3785 24.0033 36.3824 23.9994 36.3862C23.9685 36.3978 23.9376 36.4017 23.9068 36.3978C23.8759 36.3978 23.845 36.3978 23.8141 36.3978H23.6231C23.5922 36.3901 23.5613 36.3882 23.5305 36.392C23.5034 36.3959 23.4745 36.3939 23.4436 36.3862H23.3741C23.351 36.3862 23.3336 36.3766 23.322 36.3573C23.3375 36.3264 23.3394 36.2936 23.3278 36.2589C23.3201 36.2241 23.322 36.1894 23.3336 36.1547C23.3298 36.1238 23.3298 36.091 23.3336 36.0562C23.3375 36.0176 23.3375 35.9829 23.3336 35.952C23.3336 35.6973 23.3317 35.4425 23.3278 35.1878C23.3278 34.9292 23.3317 34.6725 23.3394 34.4178C23.3317 34.3754 23.3259 34.3329 23.322 34.2904C23.322 34.248 23.322 34.2055 23.322 34.1631C23.3066 33.9739 23.3047 33.7906 23.3162 33.6131C23.3278 33.4317 23.3317 33.2425 23.3278 33.0457C23.3278 32.9454 23.3259 32.845 23.322 32.7447C23.322 32.6404 23.322 32.5382 23.322 32.4378L23.8836 32.4204C23.9029 32.405 23.9222 32.4031 23.9415 32.4147C23.9608 32.4224 23.9685 32.4166 23.9647 32.3973C23.9878 32.4011 24.0013 32.4108 24.0052 32.4262C24.009 32.4417 24.011 32.459 24.011 32.4783C24.011 32.4938 24.009 32.5111 24.0052 32.5304C24.0052 32.5497 24.009 32.5652 24.0168 32.5768ZM25.3889 34.7362C25.3927 34.7401 25.3812 34.7497 25.3541 34.7652C25.3271 34.7768 25.2962 34.7903 25.2615 34.8057C25.2306 34.8173 25.1998 34.8289 25.1689 34.8404C25.138 34.852 25.1206 34.8578 25.1168 34.8578C25.0705 34.8732 25.0145 34.881 24.9489 34.881C24.918 34.881 24.889 34.881 24.862 34.881C24.835 34.881 24.808 34.879 24.781 34.8752C24.7269 34.8752 24.671 34.8829 24.6131 34.8983C24.5552 34.9138 24.4992 34.9061 24.4452 34.8752C24.4259 34.8636 24.4143 34.8501 24.4105 34.8347C24.4105 34.8154 24.4124 34.7961 24.4162 34.7768C24.424 34.7536 24.4298 34.7324 24.4336 34.7131C24.4413 34.6899 24.4433 34.6687 24.4394 34.6494C24.4317 34.6147 24.4259 34.5818 24.422 34.551C24.4182 34.5201 24.4143 34.4873 24.4105 34.4525C24.4182 34.4024 24.424 34.3657 24.4278 34.3425C24.4355 34.3155 24.4394 34.2982 24.4394 34.2904C24.4394 34.275 24.4375 34.2692 24.4336 34.2731C24.4298 34.2731 24.422 34.2596 24.4105 34.2325C24.4066 34.2132 24.4182 34.2036 24.4452 34.2036C24.4606 34.2036 24.4741 34.2055 24.4857 34.2094C24.5012 34.2132 24.5108 34.2152 24.5147 34.2152C24.5224 34.219 24.5398 34.2248 24.5668 34.2325C24.5976 34.2403 24.6343 34.2403 24.6768 34.2325C24.7192 34.2248 24.7598 34.2132 24.7983 34.1978C24.8408 34.1824 24.9006 34.1727 24.9778 34.1689C25.001 34.1611 25.0299 34.1534 25.0647 34.1457C25.0994 34.1341 25.1303 34.1245 25.1573 34.1168C25.2268 34.1168 25.275 34.0839 25.302 34.0183C25.329 33.9527 25.3541 33.891 25.3773 33.8331C25.3696 33.7945 25.3734 33.7501 25.3889 33.6999C25.4082 33.6497 25.4062 33.6054 25.3831 33.5668C25.3638 33.532 25.358 33.4934 25.3657 33.451C25.3734 33.4047 25.3619 33.3718 25.331 33.3525C25.3117 33.3255 25.2905 33.3062 25.2673 33.2947C25.248 33.2831 25.2248 33.2676 25.1978 33.2483C25.1901 33.2213 25.1805 33.2039 25.1689 33.1962C25.1573 33.1885 25.1419 33.1847 25.1226 33.1847C25.1071 33.1847 25.0898 33.1885 25.0705 33.1962C25.055 33.2001 25.0396 33.202 25.0241 33.202C25.001 33.202 24.9875 33.1827 24.9836 33.1441C24.9527 33.1557 24.9354 33.1615 24.9315 33.1615C24.9238 33.1615 24.9161 33.1615 24.9083 33.1615C24.9006 33.1576 24.8871 33.1538 24.8678 33.1499C24.8485 33.1461 24.8389 33.1461 24.8389 33.1499C24.8427 33.1499 24.835 33.1499 24.8157 33.1499C24.808 33.1499 24.8041 33.1634 24.8041 33.1904C24.808 33.2175 24.8099 33.2483 24.8099 33.2831C24.8138 33.3178 24.8119 33.3506 24.8041 33.3815C24.8003 33.4085 24.7868 33.4239 24.7636 33.4278C24.7559 33.4278 24.7501 33.4162 24.7462 33.3931C24.7462 33.3661 24.7443 33.3371 24.7405 33.3062C24.7405 33.2715 24.7385 33.2425 24.7347 33.2194C24.7308 33.1924 24.7269 33.1789 24.7231 33.1789C24.7076 33.1711 24.6999 33.1634 24.6999 33.1557C24.6999 33.148 24.6787 33.1441 24.6362 33.1441C24.6208 33.1441 24.6054 33.1461 24.5899 33.1499C24.5745 33.1499 24.5513 33.1576 24.5205 33.1731C24.4857 33.1924 24.4683 33.1982 24.4683 33.1904C24.4683 33.1789 24.4664 33.1731 24.4626 33.1731C24.451 33.1731 24.4336 33.1615 24.4105 33.1383C24.4027 33.1306 24.3989 33.1152 24.3989 33.092C24.3989 33.0611 24.4008 33.0264 24.4047 32.9878C24.4085 32.9454 24.4105 32.9145 24.4105 32.8952V32.6578C24.4105 32.6347 24.4085 32.6154 24.4047 32.5999C24.4047 32.5806 24.4047 32.5536 24.4047 32.5189C24.4047 32.5111 24.4066 32.4996 24.4105 32.4841C24.4182 32.4687 24.4355 32.4629 24.4626 32.4668L24.5262 32.4725L24.6131 32.4668L24.8562 32.4725L25.1457 32.4841C25.1534 32.488 25.165 32.4938 25.1805 32.5015C25.1998 32.5092 25.219 32.5169 25.2383 32.5247C25.2576 32.5324 25.275 32.5401 25.2905 32.5478C25.3098 32.5517 25.3213 32.5536 25.3252 32.5536C25.4178 32.5768 25.4912 32.6134 25.5452 32.6636C25.5992 32.7138 25.661 32.7775 25.7305 32.8547C25.742 32.8778 25.7555 32.901 25.771 32.9241C25.7864 32.9434 25.8019 32.9627 25.8173 32.982C25.825 33.0052 25.8366 33.0283 25.852 33.0515C25.8713 33.0747 25.8906 33.0978 25.9099 33.121C25.9331 33.1441 25.9524 33.1673 25.9678 33.1904C25.9871 33.2136 25.9987 33.2368 26.0026 33.2599C26.0141 33.2831 26.0199 33.3062 26.0199 33.3294C26.0238 33.3487 26.0296 33.3699 26.0373 33.3931C26.0257 33.4317 26.0276 33.4703 26.0431 33.5089C26.0585 33.5436 26.0643 33.5822 26.0605 33.6247C26.045 33.6517 26.0431 33.6883 26.0547 33.7347C26.0662 33.7771 26.0662 33.8118 26.0547 33.8389C26.0469 33.8775 26.0431 33.8968 26.0431 33.8968V33.9547C26.0431 33.9739 26.0373 33.9817 26.0257 33.9778C26.018 33.9701 26.0103 33.972 26.0026 33.9836L25.9678 34.0415C25.9524 34.0685 25.9447 34.0936 25.9447 34.1168C25.9447 34.1476 25.9466 34.1747 25.9505 34.1978C25.9582 34.221 25.9427 34.2461 25.9041 34.2731C25.8848 34.2885 25.881 34.302 25.8926 34.3136C25.9041 34.3213 25.8964 34.329 25.8694 34.3368C25.8578 34.3445 25.852 34.3541 25.852 34.3657C25.852 34.3889 25.8405 34.4062 25.8173 34.4178C25.798 34.4255 25.7787 34.439 25.7594 34.4583C25.7478 34.4738 25.7362 34.4854 25.7247 34.4931C25.7131 34.5008 25.7112 34.5162 25.7189 34.5394C25.7189 34.5471 25.715 34.5587 25.7073 34.5741C25.7034 34.5896 25.6976 34.5934 25.6899 34.5857C25.6783 34.5818 25.6745 34.5741 25.6783 34.5625C25.6861 34.5471 25.6861 34.5336 25.6783 34.522C25.6783 34.5066 25.6706 34.5162 25.6552 34.551C25.6398 34.5818 25.6359 34.605 25.6436 34.6204L25.5394 34.661C25.5394 34.661 25.5298 34.6648 25.5105 34.6725C25.495 34.6764 25.4776 34.6841 25.4583 34.6957C25.439 34.7034 25.4217 34.7111 25.4062 34.7189C25.3908 34.7266 25.385 34.7324 25.3889 34.7362ZM24.7462 36.2183C24.7462 36.2299 24.7443 36.2473 24.7405 36.2704C24.7405 36.2897 24.7443 36.3071 24.752 36.3225C24.7405 36.3959 24.7385 36.4731 24.7462 36.5541C24.7578 36.6352 24.7559 36.7124 24.7405 36.7857C24.7212 36.778 24.7115 36.7645 24.7115 36.7452C24.7115 36.7297 24.7076 36.7104 24.6999 36.6873C24.7115 36.6448 24.7134 36.6004 24.7057 36.5541C24.7019 36.5117 24.6961 36.4673 24.6883 36.421C24.6845 36.3785 24.6806 36.3361 24.6768 36.2936C24.6768 36.2473 24.6864 36.2029 24.7057 36.1604C24.7212 36.1643 24.7308 36.172 24.7347 36.1836C24.7385 36.1952 24.7424 36.2068 24.7462 36.2183Z" fill="white"/>
</svg>
