<svg width="20" height="20" viewBox="0 0 20 20" fill="none" xmlns="http://www.w3.org/2000/svg">
<path d="M19.0677 14.6675C18.319 13.32 16.3902 11.7008 15.594 10.9963C15.3761 10.8033 15.3527 10.4696 15.5511 10.2563C17.0707 8.62334 18.2861 6.74709 18.7044 5.61334C18.889 5.11251 18.5069 4.58334 17.9686 4.58334H16.4048C15.8894 4.58334 15.5878 4.76834 15.444 5.06292C14.1811 7.65084 13.0977 8.77084 12.3394 9.42542C11.9148 9.79209 11.2527 9.48834 11.2527 8.93042C11.2527 7.85542 11.2527 6.46584 11.2527 5.48042C11.2527 5.00251 10.8619 4.61584 10.3798 4.61584L7.52316 4.58334C7.16358 4.58334 6.95816 4.99042 7.174 5.27584L7.64566 5.95292C7.82316 6.18751 7.919 6.47292 7.919 6.76584L7.9165 9.81501C7.9165 10.3454 7.27358 10.6046 6.89191 10.2329C5.60066 8.97542 4.48025 6.40751 4.07691 5.17959C3.96025 4.82417 3.62733 4.58417 3.24983 4.58334L1.70941 4.57959C1.1315 4.57959 0.708998 5.12751 0.866081 5.67917C2.27358 10.6196 5.1615 15.3196 10.3082 15.8292C10.8152 15.8792 11.2527 15.4708 11.2527 14.9654V13.3629C11.2527 12.9033 11.6132 12.5083 12.0765 12.4967C12.0927 12.4963 12.109 12.4963 12.1252 12.4963C13.4865 12.4963 15.0111 14.4775 15.5444 15.4042C15.6977 15.6708 15.9844 15.8333 16.2944 15.8333H18.3665C18.9711 15.8333 19.359 15.1921 19.0677 14.6675Z" fill="white"/>
</svg>
